G75*
G70*
%OFA0B0*%
%FSLAX24Y24*%
%IPPOS*%
%LPD*%
%AMOC8*
5,1,8,0,0,1.08239X$1,22.5*
%
%ADD10C,0.0050*%
%ADD11C,0.0000*%
D10*
X000500Y007413D02*
X030815Y007413D01*
X042626Y019618D01*
X042626Y041862D01*
X039870Y041862D01*
X039870Y046783D01*
X000500Y046783D01*
X000500Y007413D01*
X003846Y029067D02*
X005028Y029067D01*
X005028Y030051D01*
X003846Y030051D01*
X003846Y029067D01*
X003846Y033791D02*
X005028Y033791D01*
X005028Y034775D01*
X003846Y034775D01*
X003846Y033791D01*
X007783Y041862D02*
X007783Y043043D01*
X008768Y043043D01*
X008768Y041862D01*
X007783Y041862D01*
X012508Y041862D02*
X012508Y043043D01*
X013492Y043043D01*
X013492Y041862D01*
X012508Y041862D01*
D11*
X012705Y040878D02*
X012705Y040090D01*
X012707Y040117D01*
X012713Y040144D01*
X012722Y040170D01*
X012735Y040194D01*
X012751Y040217D01*
X012770Y040236D01*
X012792Y040253D01*
X012816Y040267D01*
X012841Y040277D01*
X012868Y040284D01*
X012895Y040287D01*
X012923Y040286D01*
X012950Y040281D01*
X012976Y040273D01*
X013000Y040261D01*
X013023Y040245D01*
X013044Y040227D01*
X013061Y040206D01*
X013076Y040182D01*
X013087Y040157D01*
X013095Y040131D01*
X013099Y040104D01*
X013099Y040076D01*
X013095Y040049D01*
X013087Y040023D01*
X013076Y039998D01*
X013061Y039974D01*
X013044Y039953D01*
X013023Y039935D01*
X013001Y039919D01*
X012976Y039907D01*
X012950Y039899D01*
X012923Y039894D01*
X012895Y039893D01*
X012868Y039896D01*
X012841Y039903D01*
X012816Y039913D01*
X012792Y039927D01*
X012770Y039944D01*
X012751Y039963D01*
X012735Y039986D01*
X012722Y040010D01*
X012713Y040036D01*
X012707Y040063D01*
X012705Y040090D01*
X013098Y040090D02*
X013098Y040878D01*
X012705Y040878D02*
X012707Y040905D01*
X012713Y040932D01*
X012722Y040958D01*
X012735Y040982D01*
X012751Y041005D01*
X012770Y041024D01*
X012792Y041041D01*
X012816Y041055D01*
X012841Y041065D01*
X012868Y041072D01*
X012895Y041075D01*
X012923Y041074D01*
X012950Y041069D01*
X012976Y041061D01*
X013000Y041049D01*
X013023Y041033D01*
X013044Y041015D01*
X013061Y040994D01*
X013076Y040970D01*
X013087Y040945D01*
X013095Y040919D01*
X013099Y040892D01*
X013099Y040864D01*
X013095Y040837D01*
X013087Y040811D01*
X013076Y040786D01*
X013061Y040762D01*
X013044Y040741D01*
X013023Y040723D01*
X013001Y040707D01*
X012976Y040695D01*
X012950Y040687D01*
X012923Y040682D01*
X012895Y040681D01*
X012868Y040684D01*
X012841Y040691D01*
X012816Y040701D01*
X012792Y040715D01*
X012770Y040732D01*
X012751Y040751D01*
X012735Y040774D01*
X012722Y040798D01*
X012713Y040824D01*
X012707Y040851D01*
X012705Y040878D01*
X010736Y042649D02*
X010738Y042688D01*
X010744Y042727D01*
X010754Y042765D01*
X010767Y042802D01*
X010784Y042837D01*
X010804Y042871D01*
X010828Y042902D01*
X010855Y042931D01*
X010884Y042957D01*
X010916Y042980D01*
X010950Y043000D01*
X010986Y043016D01*
X011023Y043028D01*
X011062Y043037D01*
X011101Y043042D01*
X011140Y043043D01*
X011179Y043040D01*
X011218Y043033D01*
X011255Y043022D01*
X011292Y043008D01*
X011327Y042990D01*
X011360Y042969D01*
X011391Y042944D01*
X011419Y042917D01*
X011444Y042887D01*
X011466Y042854D01*
X011485Y042820D01*
X011500Y042784D01*
X011512Y042746D01*
X011520Y042708D01*
X011524Y042669D01*
X011524Y042629D01*
X011520Y042590D01*
X011512Y042552D01*
X011500Y042514D01*
X011485Y042478D01*
X011466Y042444D01*
X011444Y042411D01*
X011419Y042381D01*
X011391Y042354D01*
X011360Y042329D01*
X011327Y042308D01*
X011292Y042290D01*
X011255Y042276D01*
X011218Y042265D01*
X011179Y042258D01*
X011140Y042255D01*
X011101Y042256D01*
X011062Y042261D01*
X011023Y042270D01*
X010986Y042282D01*
X010950Y042298D01*
X010916Y042318D01*
X010884Y042341D01*
X010855Y042367D01*
X010828Y042396D01*
X010804Y042427D01*
X010784Y042461D01*
X010767Y042496D01*
X010754Y042533D01*
X010744Y042571D01*
X010738Y042610D01*
X010736Y042649D01*
X010343Y040878D02*
X010343Y040090D01*
X009949Y040090D02*
X009951Y040117D01*
X009957Y040144D01*
X009966Y040170D01*
X009979Y040194D01*
X009995Y040217D01*
X010014Y040236D01*
X010036Y040253D01*
X010060Y040267D01*
X010085Y040277D01*
X010112Y040284D01*
X010139Y040287D01*
X010167Y040286D01*
X010194Y040281D01*
X010220Y040273D01*
X010244Y040261D01*
X010267Y040245D01*
X010288Y040227D01*
X010305Y040206D01*
X010320Y040182D01*
X010331Y040157D01*
X010339Y040131D01*
X010343Y040104D01*
X010343Y040076D01*
X010339Y040049D01*
X010331Y040023D01*
X010320Y039998D01*
X010305Y039974D01*
X010288Y039953D01*
X010267Y039935D01*
X010245Y039919D01*
X010220Y039907D01*
X010194Y039899D01*
X010167Y039894D01*
X010139Y039893D01*
X010112Y039896D01*
X010085Y039903D01*
X010060Y039913D01*
X010036Y039927D01*
X010014Y039944D01*
X009995Y039963D01*
X009979Y039986D01*
X009966Y040010D01*
X009957Y040036D01*
X009951Y040063D01*
X009949Y040090D01*
X009949Y040878D01*
X009951Y040905D01*
X009957Y040932D01*
X009966Y040958D01*
X009979Y040982D01*
X009995Y041005D01*
X010014Y041024D01*
X010036Y041041D01*
X010060Y041055D01*
X010085Y041065D01*
X010112Y041072D01*
X010139Y041075D01*
X010167Y041074D01*
X010194Y041069D01*
X010220Y041061D01*
X010244Y041049D01*
X010267Y041033D01*
X010288Y041015D01*
X010305Y040994D01*
X010320Y040970D01*
X010331Y040945D01*
X010339Y040919D01*
X010343Y040892D01*
X010343Y040864D01*
X010339Y040837D01*
X010331Y040811D01*
X010320Y040786D01*
X010305Y040762D01*
X010288Y040741D01*
X010267Y040723D01*
X010245Y040707D01*
X010220Y040695D01*
X010194Y040687D01*
X010167Y040682D01*
X010139Y040681D01*
X010112Y040684D01*
X010085Y040691D01*
X010060Y040701D01*
X010036Y040715D01*
X010014Y040732D01*
X009995Y040751D01*
X009979Y040774D01*
X009966Y040798D01*
X009957Y040824D01*
X009951Y040851D01*
X009949Y040878D01*
X007980Y040484D02*
X007982Y040523D01*
X007988Y040562D01*
X007998Y040600D01*
X008011Y040637D01*
X008028Y040672D01*
X008048Y040706D01*
X008072Y040737D01*
X008099Y040766D01*
X008128Y040792D01*
X008160Y040815D01*
X008194Y040835D01*
X008230Y040851D01*
X008267Y040863D01*
X008306Y040872D01*
X008345Y040877D01*
X008384Y040878D01*
X008423Y040875D01*
X008462Y040868D01*
X008499Y040857D01*
X008536Y040843D01*
X008571Y040825D01*
X008604Y040804D01*
X008635Y040779D01*
X008663Y040752D01*
X008688Y040722D01*
X008710Y040689D01*
X008729Y040655D01*
X008744Y040619D01*
X008756Y040581D01*
X008764Y040543D01*
X008768Y040504D01*
X008768Y040464D01*
X008764Y040425D01*
X008756Y040387D01*
X008744Y040349D01*
X008729Y040313D01*
X008710Y040279D01*
X008688Y040246D01*
X008663Y040216D01*
X008635Y040189D01*
X008604Y040164D01*
X008571Y040143D01*
X008536Y040125D01*
X008499Y040111D01*
X008462Y040100D01*
X008423Y040093D01*
X008384Y040090D01*
X008345Y040091D01*
X008306Y040096D01*
X008267Y040105D01*
X008230Y040117D01*
X008194Y040133D01*
X008160Y040153D01*
X008128Y040176D01*
X008099Y040202D01*
X008072Y040231D01*
X008048Y040262D01*
X008028Y040296D01*
X008011Y040331D01*
X007998Y040368D01*
X007988Y040406D01*
X007982Y040445D01*
X007980Y040484D01*
X002665Y040484D02*
X002667Y040532D01*
X002673Y040580D01*
X002683Y040627D01*
X002696Y040673D01*
X002714Y040718D01*
X002734Y040762D01*
X002759Y040804D01*
X002787Y040843D01*
X002817Y040880D01*
X002851Y040914D01*
X002888Y040946D01*
X002926Y040975D01*
X002967Y041000D01*
X003010Y041022D01*
X003055Y041040D01*
X003101Y041054D01*
X003148Y041065D01*
X003196Y041072D01*
X003244Y041075D01*
X003292Y041074D01*
X003340Y041069D01*
X003388Y041060D01*
X003434Y041048D01*
X003479Y041031D01*
X003523Y041011D01*
X003565Y040988D01*
X003605Y040961D01*
X003643Y040931D01*
X003678Y040898D01*
X003710Y040862D01*
X003740Y040824D01*
X003766Y040783D01*
X003788Y040740D01*
X003808Y040696D01*
X003823Y040651D01*
X003835Y040604D01*
X003843Y040556D01*
X003847Y040508D01*
X003847Y040460D01*
X003843Y040412D01*
X003835Y040364D01*
X003823Y040317D01*
X003808Y040272D01*
X003788Y040228D01*
X003766Y040185D01*
X003740Y040144D01*
X003710Y040106D01*
X003678Y040070D01*
X003643Y040037D01*
X003605Y040007D01*
X003565Y039980D01*
X003523Y039957D01*
X003479Y039937D01*
X003434Y039920D01*
X003388Y039908D01*
X003340Y039899D01*
X003292Y039894D01*
X003244Y039893D01*
X003196Y039896D01*
X003148Y039903D01*
X003101Y039914D01*
X003055Y039928D01*
X003010Y039946D01*
X002967Y039968D01*
X002926Y039993D01*
X002888Y040022D01*
X002851Y040054D01*
X002817Y040088D01*
X002787Y040125D01*
X002759Y040164D01*
X002734Y040206D01*
X002714Y040250D01*
X002696Y040295D01*
X002683Y040341D01*
X002673Y040388D01*
X002667Y040436D01*
X002665Y040484D01*
X002469Y044421D02*
X002471Y044477D01*
X002477Y044532D01*
X002487Y044586D01*
X002500Y044640D01*
X002518Y044693D01*
X002539Y044744D01*
X002563Y044794D01*
X002591Y044842D01*
X002623Y044888D01*
X002657Y044932D01*
X002695Y044973D01*
X002735Y045011D01*
X002778Y045046D01*
X002823Y045078D01*
X002871Y045107D01*
X002920Y045133D01*
X002971Y045155D01*
X003023Y045173D01*
X003077Y045187D01*
X003132Y045198D01*
X003187Y045205D01*
X003242Y045208D01*
X003298Y045207D01*
X003353Y045202D01*
X003408Y045193D01*
X003462Y045181D01*
X003515Y045164D01*
X003567Y045144D01*
X003617Y045120D01*
X003665Y045093D01*
X003712Y045063D01*
X003756Y045029D01*
X003798Y044992D01*
X003836Y044952D01*
X003873Y044910D01*
X003906Y044865D01*
X003935Y044819D01*
X003962Y044770D01*
X003984Y044719D01*
X004004Y044667D01*
X004019Y044613D01*
X004031Y044559D01*
X004039Y044504D01*
X004043Y044449D01*
X004043Y044393D01*
X004039Y044338D01*
X004031Y044283D01*
X004019Y044229D01*
X004004Y044175D01*
X003984Y044123D01*
X003962Y044072D01*
X003935Y044023D01*
X003906Y043977D01*
X003873Y043932D01*
X003836Y043890D01*
X003798Y043850D01*
X003756Y043813D01*
X003712Y043779D01*
X003665Y043749D01*
X003617Y043722D01*
X003567Y043698D01*
X003515Y043678D01*
X003462Y043661D01*
X003408Y043649D01*
X003353Y043640D01*
X003298Y043635D01*
X003242Y043634D01*
X003187Y043637D01*
X003132Y043644D01*
X003077Y043655D01*
X003023Y043669D01*
X002971Y043687D01*
X002920Y043709D01*
X002871Y043735D01*
X002823Y043764D01*
X002778Y043796D01*
X002735Y043831D01*
X002695Y043869D01*
X002657Y043910D01*
X002623Y043954D01*
X002591Y044000D01*
X002563Y044048D01*
X002539Y044098D01*
X002518Y044149D01*
X002500Y044202D01*
X002487Y044256D01*
X002477Y044310D01*
X002471Y044365D01*
X002469Y044421D01*
X006012Y034381D02*
X006799Y034381D01*
X006602Y034185D02*
X006604Y034212D01*
X006610Y034239D01*
X006619Y034265D01*
X006632Y034289D01*
X006648Y034312D01*
X006667Y034331D01*
X006689Y034348D01*
X006713Y034362D01*
X006738Y034372D01*
X006765Y034379D01*
X006792Y034382D01*
X006820Y034381D01*
X006847Y034376D01*
X006873Y034368D01*
X006897Y034356D01*
X006920Y034340D01*
X006941Y034322D01*
X006958Y034301D01*
X006973Y034277D01*
X006984Y034252D01*
X006992Y034226D01*
X006996Y034199D01*
X006996Y034171D01*
X006992Y034144D01*
X006984Y034118D01*
X006973Y034093D01*
X006958Y034069D01*
X006941Y034048D01*
X006920Y034030D01*
X006898Y034014D01*
X006873Y034002D01*
X006847Y033994D01*
X006820Y033989D01*
X006792Y033988D01*
X006765Y033991D01*
X006738Y033998D01*
X006713Y034008D01*
X006689Y034022D01*
X006667Y034039D01*
X006648Y034058D01*
X006632Y034081D01*
X006619Y034105D01*
X006610Y034131D01*
X006604Y034158D01*
X006602Y034185D01*
X006799Y033988D02*
X006012Y033988D01*
X005815Y034185D02*
X005817Y034212D01*
X005823Y034239D01*
X005832Y034265D01*
X005845Y034289D01*
X005861Y034312D01*
X005880Y034331D01*
X005902Y034348D01*
X005926Y034362D01*
X005951Y034372D01*
X005978Y034379D01*
X006005Y034382D01*
X006033Y034381D01*
X006060Y034376D01*
X006086Y034368D01*
X006110Y034356D01*
X006133Y034340D01*
X006154Y034322D01*
X006171Y034301D01*
X006186Y034277D01*
X006197Y034252D01*
X006205Y034226D01*
X006209Y034199D01*
X006209Y034171D01*
X006205Y034144D01*
X006197Y034118D01*
X006186Y034093D01*
X006171Y034069D01*
X006154Y034048D01*
X006133Y034030D01*
X006111Y034014D01*
X006086Y034002D01*
X006060Y033994D01*
X006033Y033989D01*
X006005Y033988D01*
X005978Y033991D01*
X005951Y033998D01*
X005926Y034008D01*
X005902Y034022D01*
X005880Y034039D01*
X005861Y034058D01*
X005845Y034081D01*
X005832Y034105D01*
X005823Y034131D01*
X005817Y034158D01*
X005815Y034185D01*
X003846Y032413D02*
X003848Y032452D01*
X003854Y032491D01*
X003864Y032529D01*
X003877Y032566D01*
X003894Y032601D01*
X003914Y032635D01*
X003938Y032666D01*
X003965Y032695D01*
X003994Y032721D01*
X004026Y032744D01*
X004060Y032764D01*
X004096Y032780D01*
X004133Y032792D01*
X004172Y032801D01*
X004211Y032806D01*
X004250Y032807D01*
X004289Y032804D01*
X004328Y032797D01*
X004365Y032786D01*
X004402Y032772D01*
X004437Y032754D01*
X004470Y032733D01*
X004501Y032708D01*
X004529Y032681D01*
X004554Y032651D01*
X004576Y032618D01*
X004595Y032584D01*
X004610Y032548D01*
X004622Y032510D01*
X004630Y032472D01*
X004634Y032433D01*
X004634Y032393D01*
X004630Y032354D01*
X004622Y032316D01*
X004610Y032278D01*
X004595Y032242D01*
X004576Y032208D01*
X004554Y032175D01*
X004529Y032145D01*
X004501Y032118D01*
X004470Y032093D01*
X004437Y032072D01*
X004402Y032054D01*
X004365Y032040D01*
X004328Y032029D01*
X004289Y032022D01*
X004250Y032019D01*
X004211Y032020D01*
X004172Y032025D01*
X004133Y032034D01*
X004096Y032046D01*
X004060Y032062D01*
X004026Y032082D01*
X003994Y032105D01*
X003965Y032131D01*
X003938Y032160D01*
X003914Y032191D01*
X003894Y032225D01*
X003877Y032260D01*
X003864Y032297D01*
X003854Y032335D01*
X003848Y032374D01*
X003846Y032413D01*
X006012Y031626D02*
X006799Y031626D01*
X006602Y031429D02*
X006604Y031456D01*
X006610Y031483D01*
X006619Y031509D01*
X006632Y031533D01*
X006648Y031556D01*
X006667Y031575D01*
X006689Y031592D01*
X006713Y031606D01*
X006738Y031616D01*
X006765Y031623D01*
X006792Y031626D01*
X006820Y031625D01*
X006847Y031620D01*
X006873Y031612D01*
X006897Y031600D01*
X006920Y031584D01*
X006941Y031566D01*
X006958Y031545D01*
X006973Y031521D01*
X006984Y031496D01*
X006992Y031470D01*
X006996Y031443D01*
X006996Y031415D01*
X006992Y031388D01*
X006984Y031362D01*
X006973Y031337D01*
X006958Y031313D01*
X006941Y031292D01*
X006920Y031274D01*
X006898Y031258D01*
X006873Y031246D01*
X006847Y031238D01*
X006820Y031233D01*
X006792Y031232D01*
X006765Y031235D01*
X006738Y031242D01*
X006713Y031252D01*
X006689Y031266D01*
X006667Y031283D01*
X006648Y031302D01*
X006632Y031325D01*
X006619Y031349D01*
X006610Y031375D01*
X006604Y031402D01*
X006602Y031429D01*
X006799Y031232D02*
X006012Y031232D01*
X005815Y031429D02*
X005817Y031456D01*
X005823Y031483D01*
X005832Y031509D01*
X005845Y031533D01*
X005861Y031556D01*
X005880Y031575D01*
X005902Y031592D01*
X005926Y031606D01*
X005951Y031616D01*
X005978Y031623D01*
X006005Y031626D01*
X006033Y031625D01*
X006060Y031620D01*
X006086Y031612D01*
X006110Y031600D01*
X006133Y031584D01*
X006154Y031566D01*
X006171Y031545D01*
X006186Y031521D01*
X006197Y031496D01*
X006205Y031470D01*
X006209Y031443D01*
X006209Y031415D01*
X006205Y031388D01*
X006197Y031362D01*
X006186Y031337D01*
X006171Y031313D01*
X006154Y031292D01*
X006133Y031274D01*
X006111Y031258D01*
X006086Y031246D01*
X006060Y031238D01*
X006033Y031233D01*
X006005Y031232D01*
X005978Y031235D01*
X005951Y031242D01*
X005926Y031252D01*
X005902Y031266D01*
X005880Y031283D01*
X005861Y031302D01*
X005845Y031325D01*
X005832Y031349D01*
X005823Y031375D01*
X005817Y031402D01*
X005815Y031429D01*
X006012Y029657D02*
X006014Y029696D01*
X006020Y029735D01*
X006030Y029773D01*
X006043Y029810D01*
X006060Y029845D01*
X006080Y029879D01*
X006104Y029910D01*
X006131Y029939D01*
X006160Y029965D01*
X006192Y029988D01*
X006226Y030008D01*
X006262Y030024D01*
X006299Y030036D01*
X006338Y030045D01*
X006377Y030050D01*
X006416Y030051D01*
X006455Y030048D01*
X006494Y030041D01*
X006531Y030030D01*
X006568Y030016D01*
X006603Y029998D01*
X006636Y029977D01*
X006667Y029952D01*
X006695Y029925D01*
X006720Y029895D01*
X006742Y029862D01*
X006761Y029828D01*
X006776Y029792D01*
X006788Y029754D01*
X006796Y029716D01*
X006800Y029677D01*
X006800Y029637D01*
X006796Y029598D01*
X006788Y029560D01*
X006776Y029522D01*
X006761Y029486D01*
X006742Y029452D01*
X006720Y029419D01*
X006695Y029389D01*
X006667Y029362D01*
X006636Y029337D01*
X006603Y029316D01*
X006568Y029298D01*
X006531Y029284D01*
X006494Y029273D01*
X006455Y029266D01*
X006416Y029263D01*
X006377Y029264D01*
X006338Y029269D01*
X006299Y029278D01*
X006262Y029290D01*
X006226Y029306D01*
X006192Y029326D01*
X006160Y029349D01*
X006131Y029375D01*
X006104Y029404D01*
X006080Y029435D01*
X006060Y029469D01*
X006043Y029504D01*
X006030Y029541D01*
X006020Y029579D01*
X006014Y029618D01*
X006012Y029657D01*
X023531Y008594D02*
X023533Y008642D01*
X023539Y008690D01*
X023549Y008737D01*
X023562Y008783D01*
X023580Y008828D01*
X023600Y008872D01*
X023625Y008914D01*
X023653Y008953D01*
X023683Y008990D01*
X023717Y009024D01*
X023754Y009056D01*
X023792Y009085D01*
X023833Y009110D01*
X023876Y009132D01*
X023921Y009150D01*
X023967Y009164D01*
X024014Y009175D01*
X024062Y009182D01*
X024110Y009185D01*
X024158Y009184D01*
X024206Y009179D01*
X024254Y009170D01*
X024300Y009158D01*
X024345Y009141D01*
X024389Y009121D01*
X024431Y009098D01*
X024471Y009071D01*
X024509Y009041D01*
X024544Y009008D01*
X024576Y008972D01*
X024606Y008934D01*
X024632Y008893D01*
X024654Y008850D01*
X024674Y008806D01*
X024689Y008761D01*
X024701Y008714D01*
X024709Y008666D01*
X024713Y008618D01*
X024713Y008570D01*
X024709Y008522D01*
X024701Y008474D01*
X024689Y008427D01*
X024674Y008382D01*
X024654Y008338D01*
X024632Y008295D01*
X024606Y008254D01*
X024576Y008216D01*
X024544Y008180D01*
X024509Y008147D01*
X024471Y008117D01*
X024431Y008090D01*
X024389Y008067D01*
X024345Y008047D01*
X024300Y008030D01*
X024254Y008018D01*
X024206Y008009D01*
X024158Y008004D01*
X024110Y008003D01*
X024062Y008006D01*
X024014Y008013D01*
X023967Y008024D01*
X023921Y008038D01*
X023876Y008056D01*
X023833Y008078D01*
X023792Y008103D01*
X023754Y008132D01*
X023717Y008164D01*
X023683Y008198D01*
X023653Y008235D01*
X023625Y008274D01*
X023600Y008316D01*
X023580Y008360D01*
X023562Y008405D01*
X023549Y008451D01*
X023539Y008498D01*
X023533Y008546D01*
X023531Y008594D01*
X027272Y008594D02*
X027274Y008650D01*
X027280Y008705D01*
X027290Y008759D01*
X027303Y008813D01*
X027321Y008866D01*
X027342Y008917D01*
X027366Y008967D01*
X027394Y009015D01*
X027426Y009061D01*
X027460Y009105D01*
X027498Y009146D01*
X027538Y009184D01*
X027581Y009219D01*
X027626Y009251D01*
X027674Y009280D01*
X027723Y009306D01*
X027774Y009328D01*
X027826Y009346D01*
X027880Y009360D01*
X027935Y009371D01*
X027990Y009378D01*
X028045Y009381D01*
X028101Y009380D01*
X028156Y009375D01*
X028211Y009366D01*
X028265Y009354D01*
X028318Y009337D01*
X028370Y009317D01*
X028420Y009293D01*
X028468Y009266D01*
X028515Y009236D01*
X028559Y009202D01*
X028601Y009165D01*
X028639Y009125D01*
X028676Y009083D01*
X028709Y009038D01*
X028738Y008992D01*
X028765Y008943D01*
X028787Y008892D01*
X028807Y008840D01*
X028822Y008786D01*
X028834Y008732D01*
X028842Y008677D01*
X028846Y008622D01*
X028846Y008566D01*
X028842Y008511D01*
X028834Y008456D01*
X028822Y008402D01*
X028807Y008348D01*
X028787Y008296D01*
X028765Y008245D01*
X028738Y008196D01*
X028709Y008150D01*
X028676Y008105D01*
X028639Y008063D01*
X028601Y008023D01*
X028559Y007986D01*
X028515Y007952D01*
X028468Y007922D01*
X028420Y007895D01*
X028370Y007871D01*
X028318Y007851D01*
X028265Y007834D01*
X028211Y007822D01*
X028156Y007813D01*
X028101Y007808D01*
X028045Y007807D01*
X027990Y007810D01*
X027935Y007817D01*
X027880Y007828D01*
X027826Y007842D01*
X027774Y007860D01*
X027723Y007882D01*
X027674Y007908D01*
X027626Y007937D01*
X027581Y007969D01*
X027538Y008004D01*
X027498Y008042D01*
X027460Y008083D01*
X027426Y008127D01*
X027394Y008173D01*
X027366Y008221D01*
X027342Y008271D01*
X027321Y008322D01*
X027303Y008375D01*
X027290Y008429D01*
X027280Y008483D01*
X027274Y008538D01*
X027272Y008594D01*
X037115Y045602D02*
X037117Y045658D01*
X037123Y045713D01*
X037133Y045767D01*
X037146Y045821D01*
X037164Y045874D01*
X037185Y045925D01*
X037209Y045975D01*
X037237Y046023D01*
X037269Y046069D01*
X037303Y046113D01*
X037341Y046154D01*
X037381Y046192D01*
X037424Y046227D01*
X037469Y046259D01*
X037517Y046288D01*
X037566Y046314D01*
X037617Y046336D01*
X037669Y046354D01*
X037723Y046368D01*
X037778Y046379D01*
X037833Y046386D01*
X037888Y046389D01*
X037944Y046388D01*
X037999Y046383D01*
X038054Y046374D01*
X038108Y046362D01*
X038161Y046345D01*
X038213Y046325D01*
X038263Y046301D01*
X038311Y046274D01*
X038358Y046244D01*
X038402Y046210D01*
X038444Y046173D01*
X038482Y046133D01*
X038519Y046091D01*
X038552Y046046D01*
X038581Y046000D01*
X038608Y045951D01*
X038630Y045900D01*
X038650Y045848D01*
X038665Y045794D01*
X038677Y045740D01*
X038685Y045685D01*
X038689Y045630D01*
X038689Y045574D01*
X038685Y045519D01*
X038677Y045464D01*
X038665Y045410D01*
X038650Y045356D01*
X038630Y045304D01*
X038608Y045253D01*
X038581Y045204D01*
X038552Y045158D01*
X038519Y045113D01*
X038482Y045071D01*
X038444Y045031D01*
X038402Y044994D01*
X038358Y044960D01*
X038311Y044930D01*
X038263Y044903D01*
X038213Y044879D01*
X038161Y044859D01*
X038108Y044842D01*
X038054Y044830D01*
X037999Y044821D01*
X037944Y044816D01*
X037888Y044815D01*
X037833Y044818D01*
X037778Y044825D01*
X037723Y044836D01*
X037669Y044850D01*
X037617Y044868D01*
X037566Y044890D01*
X037517Y044916D01*
X037469Y044945D01*
X037424Y044977D01*
X037381Y045012D01*
X037341Y045050D01*
X037303Y045091D01*
X037269Y045135D01*
X037237Y045181D01*
X037209Y045229D01*
X037185Y045279D01*
X037164Y045330D01*
X037146Y045383D01*
X037133Y045437D01*
X037123Y045491D01*
X037117Y045546D01*
X037115Y045602D01*
M02*
