%
M48
M72
T01C0.0240
T02C0.0315
T03C0.0320
T04C0.0354
T05C0.0360
T06C0.0394
T07C0.0400
T08C0.0440
T09C0.0520
T10C0.0787
T11C0.0790
T12C0.1181
T13C0.1575
%
T01
X35250Y31750
X35250Y32750
X35250Y33750
T02
X31000Y7000
X31000Y3500
T03
X30000Y7750
X29500Y8500
X30500Y8500
X30750Y9750
X29500Y11000
X32750Y9750
X34750Y12750
X35000Y14000
X35000Y17000
X34250Y18000
X34250Y21000
X38010Y21180
X38010Y20180
X39010Y19680
X39010Y20680
X39010Y21680
X39010Y22680
X38010Y22180
X38010Y23180
X39010Y23680
X39010Y24680
X38010Y24180
X38010Y25180
X39010Y25680
X39010Y26680
X38010Y26180
X38010Y27180
X40375Y28000
X40375Y29000
X40375Y30000
X35250Y30000
X35250Y29000
X28250Y30750
X23250Y30750
X17750Y31750
X17000Y33500
X17000Y35500
X14750Y31750
X17500Y21500
X19000Y20250
X19000Y19250
X21250Y19000
X21250Y20000
X21500Y21500
X22750Y21250
X24250Y20000
X24250Y19000
X24250Y18000
X24250Y17000
X25250Y16500
X27250Y16500
X24500Y14500
X23500Y14500
X21250Y17000
X21250Y18000
X20250Y15750
X19250Y15750
X16000Y19250
X16000Y20250
X11375Y19250
X11375Y15250
X13625Y12000
X16625Y12000
X23500Y11500
X24500Y11500
X25500Y11000
X26000Y20500
X24750Y21250
X28000Y20500
X38010Y19180
X39010Y18680
X41750Y19375
X41750Y22375
X38750Y12750
X32750Y36250
X32750Y38250
T04
X32750Y21000
X32750Y18000
X40250Y15500
X40250Y12500
T05
X13500Y10500
X13500Y7500
X12000Y21375
X12000Y24375
T06
X1776Y3957
X3744Y3957
X5713Y3957
X7681Y3957
X9650Y3957
X11618Y3957
X9650Y10650
X7681Y10650
X5713Y10650
X3744Y10650
X1776Y10650
X6406Y22744
X6799Y24516
X6012Y24516
X4240Y25500
X6012Y27272
X6799Y27272
X10146Y33177
X10146Y33965
X8374Y33571
X11130Y35736
X12902Y33965
X12902Y33177
X18960Y33553
X23500Y28250
X23500Y24250
X28500Y24250
X28500Y28250
X27966Y33553
X37902Y38689
X3256Y37508
X3256Y33571
X24122Y1681
X28059Y1681
T07
X21750Y8000
X21750Y9000
X21750Y10000
X18500Y4500
X18500Y3500
X18500Y2500
X13250Y13500
X15250Y15500
X15250Y16500
X15250Y17500
X13250Y19500
X9875Y20625
X9875Y26625
X12629Y26496
X16871Y22254
X19750Y24550
X19750Y30450
X33250Y23750
X35250Y23750
X36750Y24250
X36750Y21250
X36750Y19250
X40750Y17750
X38250Y15500
X36250Y15500
X32750Y14125
X30750Y14125
X35793Y10957
X37207Y9543
X40750Y23750
X36750Y27250
T08
X17250Y28125
X15500Y29875
X14000Y29500
X14000Y28000
X15500Y25875
X17250Y24125
X10000Y28000
X10000Y29500
T09
X17900Y38000
X19900Y38000
X24100Y38000
X26100Y38000
T10
X11130Y35736
X8374Y33571
X4240Y25500
X6406Y22744
T11
X8000Y17000
X4000Y17000
T12
X3256Y33571
X24122Y1681
T13
X28059Y1681
X3256Y37508
X37902Y38689
M30
