G75*
G70*
%OFA0B0*%
%FSLAX24Y24*%
%IPPOS*%
%LPD*%
%AMOC8*
5,1,8,0,0,1.08239X$1,22.5*
%
%ADD10C,0.1655*%
%ADD11C,0.1261*%
%ADD12C,0.0867*%
%ADD13C,0.0474*%
%ADD14R,0.2442X0.2442*%
%ADD15C,0.0986*%
%ADD16OC8,0.0912*%
%ADD17C,0.0832*%
%ADD18C,0.0912*%
%ADD19C,0.0912*%
%ADD20C,0.1890*%
%ADD21OC8,0.1890*%
%ADD22C,0.0992*%
%ADD23C,0.0182*%
%ADD24C,0.1112*%
%ADD25C,0.1032*%
%ADD26C,0.1080*%
%ADD27C,0.0198*%
%ADD28OC8,0.0992*%
%ADD29OC8,0.1080*%
%ADD30C,0.0216*%
%ADD31C,0.0946*%
%ADD32C,0.0980*%
D10*
X028059Y001681D03*
X003256Y037508D03*
X003256Y037508D03*
X037902Y038689D03*
D11*
X001776Y003957D03*
X003744Y003957D03*
X005713Y003957D03*
X007681Y003957D03*
X009650Y003957D03*
X011618Y003957D03*
X009650Y010650D03*
X007681Y010650D03*
X005713Y010650D03*
X003744Y010650D03*
X001776Y010650D03*
X024122Y001681D03*
X027966Y033553D03*
X018960Y033553D03*
X003256Y033571D03*
X003256Y033571D03*
D12*
X008374Y033571D03*
X011130Y035736D03*
X004240Y025500D03*
X006406Y022744D03*
D13*
X006799Y024516D03*
X006012Y024516D03*
X006012Y027272D03*
X006799Y027272D03*
X010146Y033177D03*
X010146Y033965D03*
X012902Y033965D03*
X012902Y033177D03*
D14*
X037902Y038689D03*
X028059Y001681D03*
X024122Y001681D03*
D15*
X031000Y003750D03*
X031000Y007000D03*
X010500Y013750D03*
X005750Y013750D03*
X006406Y022744D03*
X004240Y025500D03*
X008374Y033571D03*
X011130Y035736D03*
D16*
X014750Y031750D03*
X017750Y031750D03*
X023250Y030750D03*
X028250Y030750D03*
X032750Y036250D03*
X032750Y038250D03*
X035250Y030000D03*
X034250Y021000D03*
X034250Y018000D03*
X035000Y017000D03*
X035000Y014000D03*
X034750Y012750D03*
X032750Y009750D03*
X030750Y009750D03*
X030500Y008500D03*
X030000Y007750D03*
X029500Y008500D03*
X029500Y011000D03*
X025500Y011000D03*
X025750Y017000D03*
X025750Y019000D03*
X027750Y019000D03*
X027750Y017000D03*
X024750Y021250D03*
X022750Y021250D03*
X019000Y018500D03*
X018500Y016000D03*
X018500Y014000D03*
X018500Y011000D03*
X016000Y018500D03*
X010250Y021250D03*
X008250Y021250D03*
X038750Y012750D03*
D17*
X035250Y031750D03*
X035250Y032750D03*
X035250Y033750D03*
D18*
X039959Y030750D02*
X040791Y030750D01*
X040791Y029750D02*
X039959Y029750D01*
X039959Y028750D02*
X040791Y028750D01*
X040750Y022666D02*
X040750Y021834D01*
X040750Y019666D02*
X040750Y018834D01*
X024666Y019000D02*
X023834Y019000D01*
X023834Y020000D02*
X024666Y020000D01*
X024666Y018000D02*
X023834Y018000D01*
X023834Y017000D02*
X024666Y017000D01*
X024500Y015332D02*
X024500Y014500D01*
X023500Y014500D02*
X023500Y015332D01*
X021666Y017000D02*
X020834Y017000D01*
X020834Y018000D02*
X021666Y018000D01*
X021666Y019000D02*
X020834Y019000D01*
X020834Y020000D02*
X021666Y020000D01*
X021916Y021250D02*
X021084Y021250D01*
X019416Y019500D02*
X018584Y019500D01*
X017916Y021250D02*
X017084Y021250D01*
X016416Y019500D02*
X015584Y019500D01*
X011250Y020084D02*
X011250Y020916D01*
X011250Y016916D02*
X011250Y016084D01*
X013334Y011000D02*
X014166Y011000D01*
X016334Y011000D02*
X017166Y011000D01*
X023500Y010668D02*
X023500Y011500D01*
X024500Y011500D02*
X024500Y010668D01*
X017416Y033500D02*
X016584Y033500D01*
X016584Y035500D02*
X017416Y035500D01*
D19*
X035250Y029000D03*
X038010Y027180D03*
X039010Y026680D03*
X038010Y026180D03*
X038010Y025180D03*
X038010Y024180D03*
X039010Y023680D03*
X039010Y022680D03*
X038010Y022180D03*
X038010Y023180D03*
X039010Y021680D03*
X039010Y020680D03*
X038010Y020180D03*
X038010Y021180D03*
X039010Y019680D03*
X039010Y018680D03*
X038010Y019180D03*
X039010Y024680D03*
X039010Y025680D03*
X019500Y016000D03*
D20*
X004000Y017000D03*
D21*
X008000Y017000D03*
D22*
X015294Y016500D02*
X016206Y016500D01*
X016206Y015500D02*
X015294Y015500D01*
X015294Y014500D02*
X016206Y014500D01*
X021294Y010000D02*
X022206Y010000D01*
X022206Y009000D02*
X021294Y009000D01*
X021294Y008000D02*
X022206Y008000D01*
X018956Y004500D02*
X018044Y004500D01*
X018044Y003500D02*
X018956Y003500D01*
X018956Y002500D02*
X018044Y002500D01*
D23*
X013270Y008233D02*
X013179Y008142D01*
X013179Y008444D01*
X013392Y008657D01*
X013694Y008657D01*
X013907Y008444D01*
X013907Y008142D01*
X013694Y007929D01*
X013392Y007929D01*
X013179Y008142D01*
X013316Y008199D01*
X013316Y008387D01*
X013449Y008520D01*
X013637Y008520D01*
X013770Y008387D01*
X013770Y008199D01*
X013637Y008066D01*
X013449Y008066D01*
X013316Y008199D01*
X013453Y008255D01*
X013453Y008331D01*
X013505Y008383D01*
X013581Y008383D01*
X013633Y008331D01*
X013633Y008255D01*
X013581Y008203D01*
X013505Y008203D01*
X013453Y008255D01*
X014684Y009647D02*
X014593Y009556D01*
X014593Y009858D01*
X014806Y010071D01*
X015108Y010071D01*
X015321Y009858D01*
X015321Y009556D01*
X015108Y009343D01*
X014806Y009343D01*
X014593Y009556D01*
X014730Y009613D01*
X014730Y009801D01*
X014863Y009934D01*
X015051Y009934D01*
X015184Y009801D01*
X015184Y009613D01*
X015051Y009480D01*
X014863Y009480D01*
X014730Y009613D01*
X014867Y009669D01*
X014867Y009745D01*
X014919Y009797D01*
X014995Y009797D01*
X015047Y009745D01*
X015047Y009669D01*
X014995Y009617D01*
X014919Y009617D01*
X014867Y009669D01*
D24*
X017900Y037484D02*
X017900Y038516D01*
X019900Y038516D02*
X019900Y037484D01*
X024100Y037484D02*
X024100Y038516D01*
X026100Y038516D02*
X026100Y037484D01*
D25*
X017250Y029000D03*
X015250Y028000D03*
X013250Y029000D03*
X011500Y029000D03*
X011500Y025000D03*
X013250Y025000D03*
X015250Y024000D03*
X017250Y025000D03*
D26*
X023500Y024500D03*
X023500Y028500D03*
X028500Y028500D03*
X028500Y024500D03*
X035250Y023750D03*
X038250Y015500D03*
X037207Y009543D03*
X030750Y014750D03*
D27*
X016941Y022360D02*
X016842Y022459D01*
X017112Y022648D01*
X017434Y022591D01*
X017623Y022321D01*
X017566Y021999D01*
X017296Y021810D01*
X016974Y021867D01*
X016785Y022137D01*
X016842Y022459D01*
X016978Y022372D01*
X017147Y022490D01*
X017347Y022455D01*
X017465Y022286D01*
X017430Y022086D01*
X017261Y021968D01*
X017061Y022003D01*
X016943Y022172D01*
X016978Y022372D01*
X017114Y022286D01*
X017181Y022333D01*
X017261Y022319D01*
X017308Y022252D01*
X017294Y022172D01*
X017227Y022125D01*
X017147Y022139D01*
X017100Y022206D01*
X017114Y022286D01*
X011033Y023402D02*
X010934Y023501D01*
X011204Y023690D01*
X011526Y023633D01*
X011715Y023363D01*
X011658Y023041D01*
X011388Y022852D01*
X011066Y022909D01*
X010877Y023179D01*
X010934Y023501D01*
X011070Y023414D01*
X011239Y023532D01*
X011439Y023497D01*
X011557Y023328D01*
X011522Y023128D01*
X011353Y023010D01*
X011153Y023045D01*
X011035Y023214D01*
X011070Y023414D01*
X011206Y023328D01*
X011273Y023375D01*
X011353Y023361D01*
X011400Y023294D01*
X011386Y023214D01*
X011319Y023167D01*
X011239Y023181D01*
X011192Y023248D01*
X011206Y023328D01*
D28*
X009750Y022250D03*
X009750Y028250D03*
X019750Y030450D03*
X019750Y024550D03*
X036750Y023500D03*
X036750Y021250D03*
X036750Y019250D03*
X040750Y017750D03*
X040750Y023750D03*
X036750Y027250D03*
D29*
X033250Y023750D03*
X036250Y015500D03*
X032750Y014750D03*
D30*
X035722Y011280D02*
X035614Y011388D01*
X035972Y011388D01*
X036224Y011136D01*
X036224Y010778D01*
X035972Y010526D01*
X035614Y010526D01*
X035362Y010778D01*
X035362Y011136D01*
X035614Y011388D01*
X035681Y011226D01*
X035905Y011226D01*
X036062Y011069D01*
X036062Y010845D01*
X035905Y010688D01*
X035681Y010688D01*
X035524Y010845D01*
X035524Y011069D01*
X035681Y011226D01*
X035748Y011064D01*
X035838Y011064D01*
X035900Y011002D01*
X035900Y010912D01*
X035838Y010850D01*
X035748Y010850D01*
X035686Y010912D01*
X035686Y011002D01*
X035748Y011064D01*
D31*
X040250Y012500D03*
X040250Y015500D03*
X032750Y018500D03*
X032750Y021500D03*
D32*
X039750Y026625D03*
X041750Y026625D03*
M02*
