G75*
G70*
%OFA0B0*%
%FSLAX24Y24*%
%IPPOS*%
%LPD*%
%AMOC8*
5,1,8,0,0,1.08239X$1,22.5*
%
%ADD10C,0.0050*%
%ADD11C,0.0120*%
%ADD12C,0.0060*%
%ADD13C,0.0100*%
%ADD14R,0.0118X0.0827*%
%ADD15C,0.0040*%
%ADD16R,0.0200X0.1000*%
%ADD17C,0.0200*%
%ADD18R,0.0150X0.0200*%
%ADD19R,0.0200X0.0800*%
%ADD20R,0.0250X0.0200*%
%ADD21C,0.0240*%
%ADD22R,0.0340X0.0240*%
%ADD23C,0.0030*%
%ADD24R,0.0500X0.2000*%
%ADD25C,0.0070*%
%ADD26R,0.0560X0.4160*%
%ADD27R,0.0200X0.0150*%
%ADD28C,0.0020*%
%ADD29R,0.0150X0.1600*%
%ADD30R,0.0250X0.0450*%
%ADD31R,0.0250X0.1600*%
%ADD32R,0.0500X0.0200*%
%ADD33R,0.1750X0.0200*%
%ADD34R,0.3200X0.0200*%
%ADD35R,0.0100X0.0050*%
%ADD36R,0.1250X0.0050*%
%ADD37R,0.1600X0.0200*%
%ADD38R,0.0800X0.0200*%
%ADD39R,0.0200X0.0750*%
%ADD40C,0.0300*%
%ADD41R,0.1000X0.0200*%
%ADD42R,0.0300X0.0750*%
%ADD43R,0.0750X0.0200*%
%ADD44C,0.0320*%
%ADD45R,0.0220X0.0320*%
%ADD46R,0.0320X0.0220*%
%ADD47C,0.0200*%
%ADD48R,0.0300X0.4200*%
%ADD49R,0.0200X0.0300*%
%ADD50R,0.0200X0.0700*%
%ADD51R,0.0250X0.1000*%
%ADD52R,0.0250X0.0900*%
%ADD53C,0.0160*%
%ADD54R,0.0200X0.0200*%
%ADD55R,0.0700X0.0150*%
%ADD56R,0.0200X0.0550*%
D10*
X000594Y002776D02*
X000594Y011831D01*
X011618Y011831D01*
X012799Y010650D01*
X012799Y002776D01*
X000594Y002776D01*
X012950Y009140D02*
X012950Y009246D01*
X013056Y009352D01*
X013162Y009352D01*
X013216Y009299D01*
X013216Y008875D01*
X013428Y009087D01*
X013488Y009253D02*
X013594Y009253D01*
X013700Y009359D01*
X013700Y009466D01*
X013867Y009526D02*
X014079Y009738D01*
X013973Y009632D02*
X013654Y009950D01*
X013654Y009738D01*
X013488Y009678D02*
X013382Y009678D01*
X013276Y009572D01*
X013276Y009466D01*
X013488Y009253D01*
X014192Y009851D02*
X014405Y010064D01*
X014298Y009957D02*
X013980Y010276D01*
X013980Y010064D01*
X014033Y011775D02*
X014334Y012075D01*
X014334Y012150D01*
X014259Y012225D01*
X014108Y012225D01*
X014033Y012150D01*
X014033Y011775D02*
X014334Y011775D01*
X014494Y011925D02*
X014644Y011775D01*
X014794Y011925D01*
X014794Y012225D01*
X014954Y012225D02*
X015179Y012225D01*
X015254Y012150D01*
X015254Y011850D01*
X015179Y011775D01*
X014954Y011775D01*
X014954Y012225D01*
X014494Y012225D02*
X014494Y011925D01*
X015415Y011775D02*
X015715Y011775D01*
X015565Y011775D02*
X015565Y012225D01*
X015415Y012075D01*
X020094Y014925D02*
X020394Y015225D01*
X020394Y015300D01*
X020319Y015375D01*
X020169Y015375D01*
X020094Y015300D01*
X020094Y014925D02*
X020394Y014925D01*
X020554Y015000D02*
X020629Y014925D01*
X020779Y014925D01*
X020854Y015000D01*
X021015Y015000D02*
X021090Y014925D01*
X021240Y014925D01*
X021315Y015000D01*
X021315Y015075D01*
X021240Y015150D01*
X021165Y015150D01*
X021240Y015150D02*
X021315Y015225D01*
X021315Y015300D01*
X021240Y015375D01*
X021090Y015375D01*
X021015Y015300D01*
X020854Y015300D02*
X020779Y015375D01*
X020629Y015375D01*
X020554Y015300D01*
X020554Y015000D01*
X021833Y015925D02*
X022134Y015925D01*
X021984Y015925D02*
X021984Y016375D01*
X021833Y016225D01*
X022294Y016375D02*
X022294Y015925D01*
X022519Y015925D01*
X022594Y016000D01*
X022594Y016300D01*
X022519Y016375D01*
X022294Y016375D01*
X022754Y016225D02*
X022754Y015925D01*
X022754Y016150D02*
X023054Y016150D01*
X023054Y016225D02*
X023054Y015925D01*
X023215Y015925D02*
X023515Y015925D01*
X023365Y015925D02*
X023365Y016375D01*
X023215Y016225D01*
X023054Y016225D02*
X022904Y016375D01*
X022754Y016225D01*
X022265Y012825D02*
X022265Y012375D01*
X022115Y012375D02*
X022415Y012375D01*
X022115Y012675D02*
X022265Y012825D01*
X021954Y012750D02*
X021879Y012825D01*
X021729Y012825D01*
X021654Y012750D01*
X021654Y012450D01*
X021729Y012375D01*
X021879Y012375D01*
X021954Y012450D01*
X021494Y012600D02*
X021419Y012525D01*
X021194Y012525D01*
X021194Y012375D02*
X021194Y012825D01*
X021419Y012825D01*
X021494Y012750D01*
X021494Y012600D01*
X021034Y012375D02*
X020733Y012375D01*
X020884Y012375D02*
X020884Y012825D01*
X020733Y012675D01*
X023100Y008345D02*
X023250Y008345D01*
X023325Y008270D01*
X023325Y008195D01*
X023250Y008120D01*
X023325Y008045D01*
X023325Y007970D01*
X023250Y007895D01*
X023100Y007895D01*
X023025Y007970D01*
X023175Y008120D02*
X023250Y008120D01*
X023485Y008045D02*
X023485Y008345D01*
X023485Y008045D02*
X023636Y007895D01*
X023786Y008045D01*
X023786Y008345D01*
X023946Y008345D02*
X024171Y008345D01*
X024246Y008270D01*
X024246Y007970D01*
X024171Y007895D01*
X023946Y007895D01*
X023946Y008345D01*
X024406Y008270D02*
X024481Y008345D01*
X024631Y008345D01*
X024706Y008270D01*
X024706Y008195D01*
X024406Y007895D01*
X024706Y007895D01*
X023100Y008345D02*
X023025Y008270D01*
X027394Y008275D02*
X027619Y008275D01*
X027694Y008350D01*
X027694Y008650D01*
X027619Y008725D01*
X027394Y008725D01*
X027394Y008275D01*
X027854Y008275D02*
X027854Y008575D01*
X028004Y008725D01*
X028154Y008575D01*
X028154Y008275D01*
X028315Y008275D02*
X028615Y008575D01*
X028615Y008650D01*
X028540Y008725D01*
X028390Y008725D01*
X028315Y008650D01*
X028154Y008500D02*
X027854Y008500D01*
X028315Y008275D02*
X028615Y008275D01*
X031675Y011175D02*
X031975Y011475D01*
X031975Y011550D01*
X031900Y011625D01*
X031750Y011625D01*
X031675Y011550D01*
X031675Y011175D02*
X031975Y011175D01*
X032135Y011250D02*
X032210Y011175D01*
X032361Y011175D01*
X032436Y011250D01*
X032596Y011175D02*
X032896Y011175D01*
X032746Y011175D02*
X032746Y011625D01*
X032596Y011475D01*
X032436Y011550D02*
X032361Y011625D01*
X032210Y011625D01*
X032135Y011550D01*
X032135Y011250D01*
X033056Y011250D02*
X033356Y011550D01*
X033356Y011250D01*
X033281Y011175D01*
X033131Y011175D01*
X033056Y011250D01*
X033056Y011550D01*
X033131Y011625D01*
X033281Y011625D01*
X033356Y011550D01*
X036514Y014200D02*
X036589Y014125D01*
X036739Y014125D01*
X036814Y014200D01*
X036814Y014275D01*
X036739Y014350D01*
X036664Y014350D01*
X036739Y014350D02*
X036814Y014425D01*
X036814Y014500D01*
X036739Y014575D01*
X036589Y014575D01*
X036514Y014500D01*
X036974Y014500D02*
X036974Y014200D01*
X037049Y014125D01*
X037199Y014125D01*
X037274Y014200D01*
X037435Y014200D02*
X037510Y014125D01*
X037660Y014125D01*
X037735Y014200D01*
X037735Y014350D01*
X037660Y014425D01*
X037585Y014425D01*
X037435Y014350D01*
X037435Y014575D01*
X037735Y014575D01*
X037274Y014500D02*
X037199Y014575D01*
X037049Y014575D01*
X036974Y014500D01*
X039944Y016790D02*
X040019Y016715D01*
X040169Y016715D01*
X040244Y016790D01*
X040244Y016865D01*
X040169Y016940D01*
X040094Y016940D01*
X040169Y016940D02*
X040244Y017015D01*
X040244Y017090D01*
X040169Y017165D01*
X040019Y017165D01*
X039944Y017090D01*
X040404Y017165D02*
X040404Y016715D01*
X040404Y016865D02*
X040629Y016865D01*
X040704Y016940D01*
X040704Y017090D01*
X040629Y017165D01*
X040404Y017165D01*
X040554Y016865D02*
X040704Y016715D01*
X040865Y016715D02*
X040865Y016790D01*
X041165Y017090D01*
X041165Y017165D01*
X040865Y017165D01*
X039494Y017812D02*
X039494Y028048D01*
X037526Y028048D01*
X037526Y018402D01*
X038116Y017812D01*
X039494Y017812D01*
X039476Y017823D02*
X039476Y028059D01*
X037508Y028059D01*
X037508Y018413D01*
X038098Y017823D01*
X039476Y017823D01*
X036895Y018205D02*
X036745Y018055D01*
X036595Y018205D01*
X036595Y018505D01*
X036434Y018430D02*
X036359Y018505D01*
X036209Y018505D01*
X036134Y018430D01*
X036134Y018355D01*
X036209Y018280D01*
X036434Y018280D01*
X036434Y018130D02*
X036434Y018430D01*
X036434Y018130D02*
X036359Y018055D01*
X036209Y018055D01*
X036134Y018130D01*
X035899Y018130D02*
X035824Y018055D01*
X035749Y018055D01*
X035674Y018130D01*
X035899Y018130D02*
X035899Y018505D01*
X035824Y018505D02*
X035974Y018505D01*
X036895Y018505D02*
X036895Y018205D01*
X036820Y020055D02*
X036895Y020130D01*
X036895Y020430D01*
X036820Y020505D01*
X036595Y020505D01*
X036595Y020055D01*
X036820Y020055D01*
X036434Y020055D02*
X036434Y020505D01*
X036134Y020505D02*
X036434Y020055D01*
X036134Y020055D02*
X036134Y020505D01*
X035974Y020430D02*
X035899Y020505D01*
X035749Y020505D01*
X035674Y020430D01*
X035674Y020130D01*
X035749Y020055D01*
X035899Y020055D01*
X035974Y020130D01*
X035974Y020280D01*
X035824Y020280D01*
X035514Y020505D02*
X035364Y020505D01*
X035439Y020505D02*
X035439Y020130D01*
X035364Y020055D01*
X035288Y020055D01*
X035213Y020130D01*
X035209Y022555D02*
X035134Y022630D01*
X035209Y022555D02*
X035359Y022555D01*
X035434Y022630D01*
X035434Y022780D01*
X035359Y022855D01*
X035284Y022855D01*
X035134Y022780D01*
X035134Y023005D01*
X035434Y023005D01*
X035595Y023005D02*
X035595Y022705D01*
X035745Y022555D01*
X035895Y022705D01*
X035895Y023005D01*
X034974Y023005D02*
X034824Y023005D01*
X034899Y023005D02*
X034899Y022630D01*
X034824Y022555D01*
X034749Y022555D01*
X034674Y022630D01*
X034410Y024375D02*
X034260Y024375D01*
X034185Y024450D01*
X034024Y024450D02*
X033949Y024375D01*
X033799Y024375D01*
X033724Y024450D01*
X033724Y024750D01*
X033799Y024825D01*
X033949Y024825D01*
X034024Y024750D01*
X034185Y024750D02*
X034260Y024825D01*
X034410Y024825D01*
X034485Y024750D01*
X034485Y024675D01*
X034410Y024600D01*
X034485Y024525D01*
X034485Y024450D01*
X034410Y024375D01*
X034410Y024600D02*
X034335Y024600D01*
X033564Y024525D02*
X033564Y024450D01*
X033489Y024375D01*
X033339Y024375D01*
X033264Y024450D01*
X033414Y024600D02*
X033489Y024600D01*
X033564Y024525D01*
X033489Y024600D02*
X033564Y024675D01*
X033564Y024750D01*
X033489Y024825D01*
X033339Y024825D01*
X033264Y024750D01*
X034544Y027775D02*
X034544Y028225D01*
X034319Y028000D01*
X034619Y028000D01*
X034779Y027850D02*
X034854Y027775D01*
X035004Y027775D01*
X035079Y027850D01*
X035240Y027850D02*
X035315Y027775D01*
X035465Y027775D01*
X035540Y027850D01*
X035540Y027925D01*
X035465Y028000D01*
X035390Y028000D01*
X035465Y028000D02*
X035540Y028075D01*
X035540Y028150D01*
X035465Y028225D01*
X035315Y028225D01*
X035240Y028150D01*
X035079Y028150D02*
X035004Y028225D01*
X034854Y028225D01*
X034779Y028150D01*
X034779Y027850D01*
X035995Y028070D02*
X036070Y027995D01*
X036145Y027995D01*
X036220Y028070D01*
X036220Y028445D01*
X036145Y028445D02*
X036295Y028445D01*
X036455Y028445D02*
X036606Y028295D01*
X036756Y028445D01*
X036756Y027995D01*
X036916Y028070D02*
X036991Y027995D01*
X037141Y027995D01*
X037216Y028070D01*
X037216Y028370D01*
X037141Y028445D01*
X036991Y028445D01*
X036916Y028370D01*
X036916Y028070D01*
X037376Y027995D02*
X037376Y028445D01*
X037676Y027995D01*
X037676Y028445D01*
X036455Y028445D02*
X036455Y027995D01*
X040822Y028800D02*
X040876Y028827D01*
X040927Y028857D01*
X040977Y028890D01*
X041025Y028925D01*
X041025Y030575D01*
X041450Y030556D02*
X041900Y030556D01*
X041900Y030406D02*
X041900Y030706D01*
X041600Y030406D02*
X041450Y030556D01*
X041450Y030246D02*
X041450Y029946D01*
X041450Y030096D02*
X041900Y030096D01*
X041750Y029786D02*
X041450Y029786D01*
X041750Y029786D02*
X041900Y029636D01*
X041750Y029485D01*
X041450Y029485D01*
X041450Y029250D02*
X041675Y029025D01*
X041675Y029325D01*
X041900Y029250D02*
X041450Y029250D01*
X040425Y029303D02*
X040425Y030197D01*
X040425Y030303D01*
X040425Y030799D01*
X040813Y030704D02*
X040869Y030677D01*
X040923Y030646D01*
X040975Y030612D01*
X041025Y030575D01*
X039928Y030700D02*
X039871Y030671D01*
X039815Y030638D01*
X039762Y030603D01*
X039711Y030563D01*
X039663Y030521D01*
X039617Y030476D01*
X039574Y030429D01*
X039534Y030379D01*
X039497Y030326D01*
X039464Y030271D01*
X039433Y030215D01*
X039407Y030156D01*
X039384Y030096D01*
X039364Y030035D01*
X039349Y029973D01*
X039337Y029910D01*
X039329Y029846D01*
X039325Y029782D01*
X039325Y029718D01*
X039329Y029654D01*
X039337Y029590D01*
X039349Y029527D01*
X039364Y029465D01*
X039384Y029404D01*
X039407Y029344D01*
X039433Y029285D01*
X039464Y029229D01*
X039497Y029174D01*
X039534Y029121D01*
X039574Y029071D01*
X039617Y029024D01*
X039663Y028979D01*
X039711Y028937D01*
X039762Y028897D01*
X039815Y028862D01*
X039871Y028829D01*
X039928Y028800D01*
X040425Y028701D02*
X040425Y029197D01*
X040425Y029303D01*
X039928Y030700D02*
X039986Y030725D01*
X040047Y030747D01*
X040108Y030765D01*
X040170Y030780D01*
X040233Y030790D01*
X040297Y030797D01*
X040361Y030800D01*
X040425Y030799D01*
X040484Y030794D01*
X040542Y030787D01*
X040600Y030776D01*
X040657Y030761D01*
X040713Y030744D01*
X040768Y030724D01*
X040822Y030700D01*
X040822Y028800D02*
X040768Y028776D01*
X040713Y028756D01*
X040657Y028739D01*
X040600Y028724D01*
X040542Y028713D01*
X040484Y028706D01*
X040425Y028701D01*
X040361Y028700D01*
X040297Y028703D01*
X040233Y028710D01*
X040170Y028720D01*
X040108Y028735D01*
X040047Y028753D01*
X039986Y028775D01*
X039928Y028800D01*
X041900Y021356D02*
X041975Y021356D01*
X042050Y021281D01*
X042125Y021356D01*
X042200Y021356D01*
X042275Y021281D01*
X042275Y021131D01*
X042200Y021056D01*
X042200Y020896D02*
X041900Y020896D01*
X041825Y020821D01*
X041825Y020596D01*
X042275Y020596D01*
X042275Y020821D01*
X042200Y020896D01*
X041900Y021056D02*
X041825Y021131D01*
X041825Y021281D01*
X041900Y021356D01*
X042050Y021281D02*
X042050Y021206D01*
X042125Y020436D02*
X041825Y020436D01*
X042125Y020436D02*
X042275Y020286D01*
X042125Y020135D01*
X041825Y020135D01*
X041900Y019975D02*
X041975Y019975D01*
X042050Y019900D01*
X042125Y019975D01*
X042200Y019975D01*
X042275Y019900D01*
X042275Y019750D01*
X042200Y019675D01*
X042050Y019825D02*
X042050Y019900D01*
X041900Y019975D02*
X041825Y019900D01*
X041825Y019750D01*
X041900Y019675D01*
X029646Y019625D02*
X029646Y019550D01*
X029346Y019250D01*
X029346Y019175D01*
X029186Y019250D02*
X029111Y019175D01*
X028960Y019175D01*
X028885Y019250D01*
X028885Y019550D01*
X028960Y019625D01*
X029111Y019625D01*
X029186Y019550D01*
X029346Y019625D02*
X029646Y019625D01*
X028725Y019550D02*
X028650Y019625D01*
X028500Y019625D01*
X028425Y019550D01*
X028725Y019550D02*
X028725Y019475D01*
X028425Y019175D01*
X028725Y019175D01*
X028650Y017375D02*
X028500Y017375D01*
X028425Y017300D01*
X028650Y017375D02*
X028725Y017300D01*
X028725Y017225D01*
X028425Y016925D01*
X028725Y016925D01*
X028885Y017000D02*
X028960Y016925D01*
X029111Y016925D01*
X029186Y017000D01*
X029346Y017150D02*
X029571Y017375D01*
X029571Y016925D01*
X029646Y017150D02*
X029346Y017150D01*
X029186Y017300D02*
X029111Y017375D01*
X028960Y017375D01*
X028885Y017300D01*
X028885Y017000D01*
X024140Y022125D02*
X023990Y022125D01*
X023915Y022200D01*
X023915Y022350D02*
X024065Y022425D01*
X024140Y022425D01*
X024215Y022350D01*
X024215Y022200D01*
X024140Y022125D01*
X023915Y022350D02*
X023915Y022575D01*
X024215Y022575D01*
X023754Y022500D02*
X023679Y022575D01*
X023529Y022575D01*
X023454Y022500D01*
X023454Y022200D01*
X023529Y022125D01*
X023679Y022125D01*
X023754Y022200D01*
X023294Y022125D02*
X022994Y022125D01*
X023294Y022425D01*
X023294Y022500D01*
X023219Y022575D01*
X023069Y022575D01*
X022994Y022500D01*
X020465Y022800D02*
X020165Y022800D01*
X020390Y023025D01*
X020390Y022575D01*
X020004Y022650D02*
X020004Y022950D01*
X019929Y023025D01*
X019704Y023025D01*
X019704Y022575D01*
X019929Y022575D01*
X020004Y022650D01*
X019544Y022725D02*
X019544Y023025D01*
X019544Y022725D02*
X019394Y022575D01*
X019244Y022725D01*
X019244Y023025D01*
X019084Y022950D02*
X019009Y023025D01*
X018858Y023025D01*
X018783Y022950D01*
X019084Y022950D02*
X019084Y022875D01*
X018783Y022575D01*
X019084Y022575D01*
X014765Y020650D02*
X014765Y020575D01*
X014690Y020500D01*
X014765Y020425D01*
X014765Y020350D01*
X014690Y020275D01*
X014540Y020275D01*
X014465Y020350D01*
X014304Y020350D02*
X014304Y020650D01*
X014229Y020725D01*
X014004Y020725D01*
X014004Y020275D01*
X014229Y020275D01*
X014304Y020350D01*
X014465Y020650D02*
X014540Y020725D01*
X014690Y020725D01*
X014765Y020650D01*
X014690Y020500D02*
X014615Y020500D01*
X013844Y020425D02*
X013844Y020725D01*
X013844Y020425D02*
X013694Y020275D01*
X013544Y020425D01*
X013544Y020725D01*
X013384Y020650D02*
X013309Y020725D01*
X013158Y020725D01*
X013083Y020650D01*
X013384Y020650D02*
X013384Y020575D01*
X013083Y020275D01*
X013384Y020275D01*
X013331Y018725D02*
X013256Y018650D01*
X013331Y018725D02*
X013481Y018725D01*
X013556Y018650D01*
X013556Y018575D01*
X013256Y018275D01*
X013556Y018275D01*
X013096Y018350D02*
X013096Y018650D01*
X013021Y018725D01*
X012796Y018725D01*
X012796Y018275D01*
X013021Y018275D01*
X013096Y018350D01*
X012636Y018425D02*
X012636Y018725D01*
X012636Y018425D02*
X012486Y018275D01*
X012335Y018425D01*
X012335Y018725D01*
X012175Y018650D02*
X012100Y018725D01*
X011950Y018725D01*
X011875Y018650D01*
X012175Y018650D02*
X012175Y018575D01*
X011875Y018275D01*
X012175Y018275D01*
X009146Y020175D02*
X008846Y020175D01*
X009146Y020475D01*
X009146Y020550D01*
X009071Y020625D01*
X008921Y020625D01*
X008846Y020550D01*
X008686Y020550D02*
X008611Y020625D01*
X008460Y020625D01*
X008385Y020550D01*
X008385Y020250D01*
X008460Y020175D01*
X008611Y020175D01*
X008686Y020250D01*
X008225Y020175D02*
X007925Y020175D01*
X008225Y020475D01*
X008225Y020550D01*
X008150Y020625D01*
X008000Y020625D01*
X007925Y020550D01*
X008177Y022154D02*
X008177Y027862D01*
X003453Y027862D01*
X003453Y022154D01*
X008177Y022154D01*
X012176Y023326D02*
X012523Y023570D01*
X012536Y023644D01*
X012476Y023731D01*
X012328Y023757D01*
X012241Y023696D01*
X012176Y023326D02*
X012471Y023274D01*
X012629Y023246D02*
X012707Y023690D01*
X012929Y023651D01*
X012990Y023564D01*
X012964Y023416D01*
X012877Y023355D01*
X012655Y023394D01*
X012803Y023368D02*
X012925Y023194D01*
X013082Y023166D02*
X013378Y023114D01*
X013230Y023140D02*
X013308Y023584D01*
X013134Y023462D01*
X010090Y026465D02*
X009940Y026465D01*
X009865Y026540D01*
X009704Y026465D02*
X009554Y026615D01*
X009629Y026615D02*
X009404Y026615D01*
X009404Y026465D02*
X009404Y026915D01*
X009629Y026915D01*
X009704Y026840D01*
X009704Y026690D01*
X009629Y026615D01*
X009865Y026840D02*
X009940Y026915D01*
X010090Y026915D01*
X010165Y026840D01*
X010165Y026765D01*
X010090Y026690D01*
X010165Y026615D01*
X010165Y026540D01*
X010090Y026465D01*
X010090Y026690D02*
X010015Y026690D01*
X009244Y026765D02*
X009244Y026840D01*
X009169Y026915D01*
X009019Y026915D01*
X008944Y026840D01*
X009244Y026765D02*
X008944Y026465D01*
X009244Y026465D01*
X012233Y029625D02*
X012534Y029625D01*
X012384Y029625D02*
X012384Y030075D01*
X012233Y029925D01*
X012165Y030125D02*
X011865Y030125D01*
X012165Y030425D01*
X012165Y030500D01*
X012090Y030575D01*
X011940Y030575D01*
X011865Y030500D01*
X011704Y030500D02*
X011629Y030575D01*
X011404Y030575D01*
X011404Y030125D01*
X011629Y030125D01*
X011704Y030200D01*
X011704Y030500D01*
X011244Y030575D02*
X011244Y030275D01*
X011094Y030125D01*
X010944Y030275D01*
X010944Y030575D01*
X010634Y030575D02*
X010634Y030125D01*
X010784Y030125D02*
X010483Y030125D01*
X010483Y030425D02*
X010634Y030575D01*
X012694Y030075D02*
X012694Y029775D01*
X012844Y029625D01*
X012994Y029775D01*
X012994Y030075D01*
X013154Y030075D02*
X013379Y030075D01*
X013454Y030000D01*
X013454Y029700D01*
X013379Y029625D01*
X013154Y029625D01*
X013154Y030075D01*
X013615Y029925D02*
X013765Y030075D01*
X013765Y029625D01*
X013615Y029625D02*
X013915Y029625D01*
X014233Y029875D02*
X014534Y029875D01*
X014384Y029875D02*
X014384Y030325D01*
X014233Y030175D01*
X014694Y030325D02*
X014694Y030025D01*
X014844Y029875D01*
X014994Y030025D01*
X014994Y030325D01*
X015154Y030325D02*
X015154Y029875D01*
X015379Y029875D01*
X015454Y029950D01*
X015454Y030250D01*
X015379Y030325D01*
X015154Y030325D01*
X015615Y030100D02*
X015915Y030100D01*
X015840Y029875D02*
X015840Y030325D01*
X015615Y030100D01*
X016233Y029925D02*
X016384Y030075D01*
X016384Y029625D01*
X016534Y029625D02*
X016233Y029625D01*
X016694Y029775D02*
X016694Y030075D01*
X016694Y029775D02*
X016844Y029625D01*
X016994Y029775D01*
X016994Y030075D01*
X017154Y030075D02*
X017379Y030075D01*
X017454Y030000D01*
X017454Y029700D01*
X017379Y029625D01*
X017154Y029625D01*
X017154Y030075D01*
X017615Y030000D02*
X017690Y030075D01*
X017840Y030075D01*
X017915Y030000D01*
X017915Y029925D01*
X017840Y029850D01*
X017915Y029775D01*
X017915Y029700D01*
X017840Y029625D01*
X017690Y029625D01*
X017615Y029700D01*
X017765Y029850D02*
X017840Y029850D01*
X018394Y028475D02*
X018394Y028025D01*
X018244Y028025D02*
X018544Y028025D01*
X018704Y028100D02*
X018779Y028025D01*
X018929Y028025D01*
X019004Y028100D01*
X019165Y028025D02*
X019465Y028325D01*
X019465Y028400D01*
X019390Y028475D01*
X019240Y028475D01*
X019165Y028400D01*
X019004Y028400D02*
X018929Y028475D01*
X018779Y028475D01*
X018704Y028400D01*
X018704Y028100D01*
X019165Y028025D02*
X019465Y028025D01*
X018394Y028475D02*
X018244Y028325D01*
X018344Y031781D02*
X018344Y035325D01*
X028581Y035325D01*
X028581Y031781D01*
X018344Y031781D01*
X016206Y032425D02*
X015906Y032425D01*
X016056Y032425D02*
X016056Y032875D01*
X015906Y032725D01*
X015746Y032650D02*
X015446Y032650D01*
X015446Y032425D02*
X015446Y032875D01*
X015286Y032875D02*
X014985Y032875D01*
X015136Y032875D02*
X015136Y032425D01*
X014825Y032425D02*
X014525Y032425D01*
X014675Y032425D02*
X014675Y032875D01*
X014525Y032725D01*
X015746Y032875D02*
X015746Y032425D01*
X015675Y033433D02*
X015525Y033584D01*
X015975Y033584D01*
X015975Y033734D02*
X015975Y033433D01*
X015975Y033894D02*
X015525Y033894D01*
X015525Y034119D01*
X015600Y034194D01*
X015750Y034194D01*
X015825Y034119D01*
X015825Y033894D01*
X015825Y034044D02*
X015975Y034194D01*
X015975Y034354D02*
X015900Y034354D01*
X015600Y034654D01*
X015525Y034654D01*
X015525Y034354D01*
X015975Y034354D02*
X015975Y034654D01*
X015975Y034815D02*
X015975Y035115D01*
X015975Y034965D02*
X015525Y034965D01*
X015675Y034815D01*
X015067Y036524D02*
X013492Y036524D01*
X013492Y031799D01*
X007783Y031799D01*
X007783Y036524D01*
X006209Y036524D01*
X005421Y039870D01*
X007783Y036524D02*
X013492Y036524D01*
X015067Y036524D02*
X015854Y039870D01*
X016248Y039673D02*
X016248Y039280D01*
X024375Y031035D02*
X024375Y030585D01*
X024225Y030585D02*
X024525Y030585D01*
X024685Y030585D02*
X024685Y031035D01*
X024911Y031035D01*
X024986Y030960D01*
X024986Y030810D01*
X024911Y030735D01*
X024685Y030735D01*
X024836Y030735D02*
X024986Y030585D01*
X025146Y030585D02*
X025446Y030585D01*
X025296Y030585D02*
X025296Y031035D01*
X025146Y030885D01*
X024375Y031035D02*
X024225Y030885D01*
X030259Y037625D02*
X030259Y038075D01*
X030033Y037850D01*
X030334Y037850D01*
X030494Y037700D02*
X030569Y037625D01*
X030719Y037625D01*
X030794Y037700D01*
X030954Y037625D02*
X031254Y037925D01*
X031254Y038000D01*
X031179Y038075D01*
X031029Y038075D01*
X030954Y038000D01*
X030794Y038000D02*
X030719Y038075D01*
X030569Y038075D01*
X030494Y038000D01*
X030494Y037700D01*
X030954Y037625D02*
X031254Y037625D01*
X031415Y037625D02*
X031415Y037925D01*
X031565Y038075D01*
X031715Y037925D01*
X031715Y037625D01*
X031715Y037850D02*
X031415Y037850D01*
X036655Y007782D02*
X036974Y007464D01*
X037080Y007570D02*
X036867Y007358D01*
X036701Y007297D02*
X036701Y007191D01*
X036595Y007085D01*
X036489Y007085D01*
X036276Y007297D01*
X036276Y007404D01*
X036383Y007510D01*
X036489Y007510D01*
X036655Y007570D02*
X036655Y007782D01*
X036163Y007184D02*
X036057Y007184D01*
X035951Y007078D01*
X035951Y006972D01*
X036163Y006972D02*
X036216Y007025D01*
X036322Y007025D01*
X036376Y006972D01*
X036376Y006866D01*
X036269Y006760D01*
X036163Y006760D01*
X036216Y007025D02*
X036216Y007131D01*
X036163Y007184D01*
X016615Y002905D02*
X016315Y002905D01*
X016465Y002905D02*
X016465Y003355D01*
X016315Y003205D01*
X016154Y003280D02*
X016154Y002980D01*
X016079Y002905D01*
X015854Y002905D01*
X015854Y003355D01*
X016079Y003355D01*
X016154Y003280D01*
X015694Y003355D02*
X015694Y003055D01*
X015544Y002905D01*
X015394Y003055D01*
X015394Y003355D01*
X015234Y003280D02*
X015234Y003205D01*
X015159Y003130D01*
X015234Y003055D01*
X015234Y002980D01*
X015159Y002905D01*
X015008Y002905D01*
X014933Y002980D01*
X015084Y003130D02*
X015159Y003130D01*
X015234Y003280D02*
X015159Y003355D01*
X015008Y003355D01*
X014933Y003280D01*
D11*
X014335Y008731D02*
X014158Y008908D01*
X013981Y009085D01*
X014158Y009262D02*
X014335Y009085D01*
X014512Y008908D01*
X026630Y016750D02*
X026630Y017000D01*
X026630Y017250D01*
X026880Y017250D02*
X026880Y017000D01*
X026880Y016750D01*
X026880Y018750D02*
X026880Y019000D01*
X026880Y019250D01*
X026630Y019250D02*
X026630Y019000D01*
X026630Y018750D01*
X023870Y021000D02*
X023870Y021250D01*
X023870Y021500D01*
X023620Y021500D02*
X023620Y021250D01*
X023620Y021000D01*
X021500Y023000D02*
X021500Y030000D01*
X030500Y030000D01*
X030500Y023000D01*
X021500Y023000D01*
X024000Y024500D02*
X025000Y024500D01*
X025044Y024502D01*
X025087Y024508D01*
X025129Y024517D01*
X025171Y024530D01*
X025211Y024547D01*
X025250Y024567D01*
X025287Y024590D01*
X025321Y024617D01*
X025354Y024646D01*
X025383Y024679D01*
X025410Y024713D01*
X025433Y024750D01*
X025453Y024789D01*
X025470Y024829D01*
X025483Y024871D01*
X025492Y024913D01*
X025498Y024956D01*
X025500Y025000D01*
X025498Y025044D01*
X025492Y025087D01*
X025483Y025129D01*
X025470Y025171D01*
X025453Y025211D01*
X025433Y025250D01*
X025410Y025287D01*
X025383Y025321D01*
X025354Y025354D01*
X025321Y025383D01*
X025287Y025410D01*
X025250Y025433D01*
X025211Y025453D01*
X025171Y025470D01*
X025129Y025483D01*
X025087Y025492D01*
X025044Y025498D01*
X025000Y025500D01*
X025044Y025502D01*
X025087Y025508D01*
X025129Y025517D01*
X025171Y025530D01*
X025211Y025547D01*
X025250Y025567D01*
X025287Y025590D01*
X025321Y025617D01*
X025354Y025646D01*
X025383Y025679D01*
X025410Y025713D01*
X025433Y025750D01*
X025453Y025789D01*
X025470Y025829D01*
X025483Y025871D01*
X025492Y025913D01*
X025498Y025956D01*
X025500Y026000D01*
X025498Y026044D01*
X025492Y026087D01*
X025483Y026129D01*
X025470Y026171D01*
X025453Y026211D01*
X025433Y026250D01*
X025410Y026287D01*
X025383Y026321D01*
X025354Y026354D01*
X025321Y026383D01*
X025287Y026410D01*
X025250Y026433D01*
X025211Y026453D01*
X025171Y026470D01*
X025129Y026483D01*
X025087Y026492D01*
X025044Y026498D01*
X025000Y026500D01*
X025044Y026502D01*
X025087Y026508D01*
X025129Y026517D01*
X025171Y026530D01*
X025211Y026547D01*
X025250Y026567D01*
X025287Y026590D01*
X025321Y026617D01*
X025354Y026646D01*
X025383Y026679D01*
X025410Y026713D01*
X025433Y026750D01*
X025453Y026789D01*
X025470Y026829D01*
X025483Y026871D01*
X025492Y026913D01*
X025498Y026956D01*
X025500Y027000D01*
X025498Y027044D01*
X025492Y027087D01*
X025483Y027129D01*
X025470Y027171D01*
X025453Y027211D01*
X025433Y027250D01*
X025410Y027287D01*
X025383Y027321D01*
X025354Y027354D01*
X025321Y027383D01*
X025287Y027410D01*
X025250Y027433D01*
X025211Y027453D01*
X025171Y027470D01*
X025129Y027483D01*
X025087Y027492D01*
X025044Y027498D01*
X025000Y027500D01*
X025044Y027502D01*
X025087Y027508D01*
X025129Y027517D01*
X025171Y027530D01*
X025211Y027547D01*
X025250Y027567D01*
X025287Y027590D01*
X025321Y027617D01*
X025354Y027646D01*
X025383Y027679D01*
X025410Y027713D01*
X025433Y027750D01*
X025453Y027789D01*
X025470Y027829D01*
X025483Y027871D01*
X025492Y027913D01*
X025498Y027956D01*
X025500Y028000D01*
X025498Y028044D01*
X025492Y028087D01*
X025483Y028129D01*
X025470Y028171D01*
X025453Y028211D01*
X025433Y028250D01*
X025410Y028287D01*
X025383Y028321D01*
X025354Y028354D01*
X025321Y028383D01*
X025287Y028410D01*
X025250Y028433D01*
X025211Y028453D01*
X025171Y028470D01*
X025129Y028483D01*
X025087Y028492D01*
X025044Y028498D01*
X025000Y028500D01*
X024000Y028500D01*
X026000Y028500D02*
X026000Y024500D01*
X027000Y024500D02*
X028000Y024500D01*
X027000Y024500D02*
X026956Y024502D01*
X026913Y024508D01*
X026871Y024517D01*
X026829Y024530D01*
X026789Y024547D01*
X026750Y024567D01*
X026713Y024590D01*
X026679Y024617D01*
X026646Y024646D01*
X026617Y024679D01*
X026590Y024713D01*
X026567Y024750D01*
X026547Y024789D01*
X026530Y024829D01*
X026517Y024871D01*
X026508Y024913D01*
X026502Y024956D01*
X026500Y025000D01*
X026502Y025044D01*
X026508Y025087D01*
X026517Y025129D01*
X026530Y025171D01*
X026547Y025211D01*
X026567Y025250D01*
X026590Y025287D01*
X026617Y025321D01*
X026646Y025354D01*
X026679Y025383D01*
X026713Y025410D01*
X026750Y025433D01*
X026789Y025453D01*
X026829Y025470D01*
X026871Y025483D01*
X026913Y025492D01*
X026956Y025498D01*
X027000Y025500D01*
X026956Y025502D01*
X026913Y025508D01*
X026871Y025517D01*
X026829Y025530D01*
X026789Y025547D01*
X026750Y025567D01*
X026713Y025590D01*
X026679Y025617D01*
X026646Y025646D01*
X026617Y025679D01*
X026590Y025713D01*
X026567Y025750D01*
X026547Y025789D01*
X026530Y025829D01*
X026517Y025871D01*
X026508Y025913D01*
X026502Y025956D01*
X026500Y026000D01*
X026502Y026044D01*
X026508Y026087D01*
X026517Y026129D01*
X026530Y026171D01*
X026547Y026211D01*
X026567Y026250D01*
X026590Y026287D01*
X026617Y026321D01*
X026646Y026354D01*
X026679Y026383D01*
X026713Y026410D01*
X026750Y026433D01*
X026789Y026453D01*
X026829Y026470D01*
X026871Y026483D01*
X026913Y026492D01*
X026956Y026498D01*
X027000Y026500D01*
X026956Y026502D01*
X026913Y026508D01*
X026871Y026517D01*
X026829Y026530D01*
X026789Y026547D01*
X026750Y026567D01*
X026713Y026590D01*
X026679Y026617D01*
X026646Y026646D01*
X026617Y026679D01*
X026590Y026713D01*
X026567Y026750D01*
X026547Y026789D01*
X026530Y026829D01*
X026517Y026871D01*
X026508Y026913D01*
X026502Y026956D01*
X026500Y027000D01*
X026502Y027044D01*
X026508Y027087D01*
X026517Y027129D01*
X026530Y027171D01*
X026547Y027211D01*
X026567Y027250D01*
X026590Y027287D01*
X026617Y027321D01*
X026646Y027354D01*
X026679Y027383D01*
X026713Y027410D01*
X026750Y027433D01*
X026789Y027453D01*
X026829Y027470D01*
X026871Y027483D01*
X026913Y027492D01*
X026956Y027498D01*
X027000Y027500D01*
X026956Y027502D01*
X026913Y027508D01*
X026871Y027517D01*
X026829Y027530D01*
X026789Y027547D01*
X026750Y027567D01*
X026713Y027590D01*
X026679Y027617D01*
X026646Y027646D01*
X026617Y027679D01*
X026590Y027713D01*
X026567Y027750D01*
X026547Y027789D01*
X026530Y027829D01*
X026517Y027871D01*
X026508Y027913D01*
X026502Y027956D01*
X026500Y028000D01*
X026502Y028044D01*
X026508Y028087D01*
X026517Y028129D01*
X026530Y028171D01*
X026547Y028211D01*
X026567Y028250D01*
X026590Y028287D01*
X026617Y028321D01*
X026646Y028354D01*
X026679Y028383D01*
X026713Y028410D01*
X026750Y028433D01*
X026789Y028453D01*
X026829Y028470D01*
X026871Y028483D01*
X026913Y028492D01*
X026956Y028498D01*
X027000Y028500D01*
X028000Y028500D01*
X032500Y037130D02*
X032750Y037130D01*
X033000Y037130D01*
X033000Y037380D02*
X032750Y037380D01*
X032500Y037380D01*
X009380Y021500D02*
X009380Y021250D01*
X009380Y021000D01*
X009130Y021000D02*
X009130Y021250D01*
X009130Y021500D01*
X031620Y010000D02*
X031620Y009750D01*
X031620Y009500D01*
X031870Y009500D02*
X031870Y009750D01*
X031870Y010000D01*
D12*
X031870Y009750D02*
X032350Y009750D01*
X031620Y009750D02*
X031150Y009750D01*
X030825Y009150D02*
X029175Y009150D01*
X029113Y008600D02*
X028955Y008600D01*
X029175Y009150D02*
X029138Y009099D01*
X029103Y009046D01*
X029071Y008990D01*
X029043Y008933D01*
X029019Y008874D01*
X028998Y008814D01*
X028981Y008753D01*
X028967Y008691D01*
X028958Y008628D01*
X028952Y008565D01*
X028950Y008501D01*
X028952Y008437D01*
X028958Y008374D01*
X028967Y008311D01*
X028980Y008249D01*
X028998Y008188D01*
X029018Y008128D01*
X029043Y008069D01*
X029070Y008012D01*
X029102Y007956D01*
X029136Y007903D01*
X029174Y007852D01*
X029215Y007803D01*
X029259Y007757D01*
X029305Y007713D01*
X029354Y007672D01*
X029405Y007635D01*
X029459Y007600D01*
X029514Y007569D01*
X029571Y007541D01*
X029630Y007517D01*
X029690Y007497D01*
X029751Y007480D01*
X029812Y007467D01*
X029875Y007458D01*
X029937Y007452D01*
X030000Y007450D01*
X030063Y007452D01*
X030125Y007458D01*
X030188Y007467D01*
X030249Y007480D01*
X030310Y007497D01*
X030370Y007517D01*
X030429Y007541D01*
X030486Y007569D01*
X030541Y007600D01*
X030595Y007635D01*
X030646Y007672D01*
X030695Y007713D01*
X030741Y007757D01*
X030785Y007803D01*
X030826Y007852D01*
X030864Y007903D01*
X030898Y007956D01*
X030929Y008012D01*
X030957Y008069D01*
X030982Y008128D01*
X031002Y008188D01*
X031020Y008249D01*
X031033Y008311D01*
X031042Y008374D01*
X031048Y008437D01*
X031050Y008501D01*
X031048Y008565D01*
X031042Y008628D01*
X031033Y008691D01*
X031019Y008753D01*
X031002Y008814D01*
X030981Y008874D01*
X030957Y008933D01*
X030929Y008990D01*
X030897Y009046D01*
X030862Y009099D01*
X030825Y009150D01*
X030400Y009250D02*
X033100Y009250D01*
X033117Y009252D01*
X033134Y009256D01*
X033150Y009263D01*
X033164Y009273D01*
X033177Y009286D01*
X033187Y009300D01*
X033194Y009316D01*
X033198Y009333D01*
X033200Y009350D01*
X033200Y010150D01*
X033198Y010167D01*
X033194Y010184D01*
X033187Y010200D01*
X033177Y010214D01*
X033164Y010227D01*
X033150Y010237D01*
X033134Y010244D01*
X033117Y010248D01*
X033100Y010250D01*
X030400Y010250D01*
X030383Y010248D01*
X030366Y010244D01*
X030350Y010237D01*
X030336Y010227D01*
X030323Y010214D01*
X030313Y010200D01*
X030306Y010184D01*
X030302Y010167D01*
X030300Y010150D01*
X030300Y009350D01*
X030302Y009333D01*
X030306Y009316D01*
X030313Y009300D01*
X030323Y009286D01*
X030336Y009273D01*
X030350Y009263D01*
X030366Y009256D01*
X030383Y009252D01*
X030400Y009250D01*
X030887Y008600D02*
X031045Y008600D01*
X028750Y010650D02*
X028750Y011350D01*
X028748Y011367D01*
X028744Y011384D01*
X028737Y011400D01*
X028727Y011414D01*
X028714Y011427D01*
X028700Y011437D01*
X028684Y011444D01*
X028667Y011448D01*
X028650Y011450D01*
X028500Y011450D01*
X028450Y011400D01*
X026550Y011400D01*
X026500Y011450D01*
X026350Y011450D01*
X026333Y011448D01*
X026316Y011444D01*
X026300Y011437D01*
X026286Y011427D01*
X026273Y011414D01*
X026263Y011400D01*
X026256Y011384D01*
X026252Y011367D01*
X026250Y011350D01*
X026250Y010650D01*
X026252Y010633D01*
X026256Y010616D01*
X026263Y010600D01*
X026273Y010586D01*
X026286Y010573D01*
X026300Y010563D01*
X026316Y010556D01*
X026333Y010552D01*
X026350Y010550D01*
X026500Y010550D01*
X026550Y010600D01*
X028450Y010600D01*
X028500Y010550D01*
X028650Y010550D01*
X028667Y010552D01*
X028684Y010556D01*
X028700Y010563D01*
X028714Y010573D01*
X028727Y010586D01*
X028737Y010600D01*
X028744Y010616D01*
X028748Y010633D01*
X028750Y010650D01*
X025000Y011850D02*
X025000Y014150D01*
X023000Y014150D01*
X023000Y013400D01*
X023039Y013398D01*
X023078Y013392D01*
X023116Y013383D01*
X023153Y013370D01*
X023189Y013353D01*
X023222Y013333D01*
X023254Y013309D01*
X023283Y013283D01*
X023309Y013254D01*
X023333Y013222D01*
X023353Y013189D01*
X023370Y013153D01*
X023383Y013116D01*
X023392Y013078D01*
X023398Y013039D01*
X023400Y013000D01*
X023398Y012961D01*
X023392Y012922D01*
X023383Y012884D01*
X023370Y012847D01*
X023353Y012811D01*
X023333Y012778D01*
X023309Y012746D01*
X023283Y012717D01*
X023254Y012691D01*
X023222Y012667D01*
X023189Y012647D01*
X023153Y012630D01*
X023116Y012617D01*
X023078Y012608D01*
X023039Y012602D01*
X023000Y012600D01*
X023000Y011850D01*
X025000Y011850D01*
X022450Y010850D02*
X022450Y007150D01*
X022350Y007050D01*
X021200Y007000D01*
X019050Y005500D02*
X017900Y005450D01*
X017800Y005350D01*
X017800Y001650D01*
X017900Y001550D01*
X019050Y001500D01*
X013649Y007692D02*
X015558Y009601D01*
X015569Y009615D01*
X015578Y009630D01*
X015584Y009646D01*
X015587Y009663D01*
X015587Y009681D01*
X015584Y009698D01*
X015578Y009714D01*
X015569Y009729D01*
X015558Y009743D01*
X015558Y009742D02*
X014992Y010308D01*
X014993Y010308D02*
X014979Y010319D01*
X014964Y010328D01*
X014948Y010334D01*
X014931Y010337D01*
X014913Y010337D01*
X014896Y010334D01*
X014880Y010328D01*
X014865Y010319D01*
X014851Y010308D01*
X012942Y008399D01*
X012931Y008385D01*
X012922Y008370D01*
X012916Y008354D01*
X012913Y008337D01*
X012913Y008319D01*
X012916Y008302D01*
X012922Y008286D01*
X012931Y008271D01*
X012942Y008257D01*
X012942Y008258D02*
X013508Y007692D01*
X013507Y007692D02*
X013521Y007681D01*
X013536Y007672D01*
X013552Y007666D01*
X013569Y007663D01*
X013587Y007663D01*
X013604Y007666D01*
X013620Y007672D01*
X013635Y007681D01*
X013649Y007692D01*
X013826Y008576D02*
X014158Y008908D01*
X014335Y009085D02*
X014674Y009424D01*
X014450Y010600D02*
X016050Y010600D01*
X016067Y010602D01*
X016084Y010606D01*
X016100Y010613D01*
X016114Y010623D01*
X016127Y010636D01*
X016137Y010650D01*
X016144Y010666D01*
X016148Y010683D01*
X016150Y010700D01*
X016150Y011300D01*
X016148Y011317D01*
X016144Y011334D01*
X016137Y011350D01*
X016127Y011364D01*
X016114Y011377D01*
X016100Y011387D01*
X016084Y011394D01*
X016067Y011398D01*
X016050Y011400D01*
X014450Y011400D01*
X014433Y011398D01*
X014416Y011394D01*
X014400Y011387D01*
X014386Y011377D01*
X014373Y011364D01*
X014363Y011350D01*
X014356Y011334D01*
X014352Y011317D01*
X014350Y011300D01*
X014350Y010700D01*
X014352Y010683D01*
X014356Y010666D01*
X014363Y010650D01*
X014373Y010636D01*
X014386Y010623D01*
X014400Y010613D01*
X014416Y010606D01*
X014433Y010602D01*
X014450Y010600D01*
X014850Y010750D02*
X014850Y011250D01*
X015250Y011000D01*
X015250Y011250D01*
X015250Y011000D02*
X015250Y010750D01*
X015250Y011000D02*
X014650Y011000D01*
X014850Y010750D02*
X015250Y011000D01*
X015500Y011000D01*
X018100Y011600D02*
X018100Y011750D01*
X018150Y011800D01*
X018150Y013200D01*
X018100Y013250D01*
X018100Y013400D01*
X018102Y013417D01*
X018106Y013434D01*
X018113Y013450D01*
X018123Y013464D01*
X018136Y013477D01*
X018150Y013487D01*
X018166Y013494D01*
X018183Y013498D01*
X018200Y013500D01*
X018800Y013500D01*
X018817Y013498D01*
X018834Y013494D01*
X018850Y013487D01*
X018864Y013477D01*
X018877Y013464D01*
X018887Y013450D01*
X018894Y013434D01*
X018898Y013417D01*
X018900Y013400D01*
X018900Y013250D01*
X018850Y013200D01*
X018850Y011800D01*
X018900Y011750D01*
X018900Y011600D01*
X018898Y011583D01*
X018894Y011566D01*
X018887Y011550D01*
X018877Y011536D01*
X018864Y011523D01*
X018850Y011513D01*
X018834Y011506D01*
X018817Y011502D01*
X018800Y011500D01*
X018200Y011500D01*
X018183Y011502D01*
X018166Y011506D01*
X018150Y011513D01*
X018136Y011523D01*
X018123Y011536D01*
X018113Y011550D01*
X018106Y011566D01*
X018102Y011583D01*
X018100Y011600D01*
X021200Y011000D02*
X022350Y010950D01*
X022450Y010850D01*
X019650Y015350D02*
X019650Y015500D01*
X019500Y015500D01*
X019650Y015500D02*
X019650Y015650D01*
X019650Y015500D02*
X019800Y015500D01*
X019650Y016000D02*
X019300Y016000D01*
X019300Y015500D01*
X019100Y015500D01*
X019100Y016500D01*
X019300Y016500D01*
X019300Y016000D01*
X017900Y016000D02*
X017902Y016066D01*
X017908Y016131D01*
X017918Y016196D01*
X017931Y016261D01*
X017949Y016324D01*
X017970Y016387D01*
X017995Y016447D01*
X018024Y016507D01*
X018056Y016564D01*
X018091Y016620D01*
X018130Y016673D01*
X018172Y016724D01*
X018216Y016772D01*
X018264Y016817D01*
X018314Y016860D01*
X018367Y016899D01*
X018422Y016936D01*
X018479Y016969D01*
X018538Y016998D01*
X018598Y017024D01*
X018660Y017046D01*
X018723Y017065D01*
X018787Y017079D01*
X018852Y017090D01*
X018918Y017097D01*
X018984Y017100D01*
X019049Y017099D01*
X019115Y017094D01*
X019180Y017085D01*
X019245Y017072D01*
X019308Y017056D01*
X019371Y017036D01*
X019432Y017011D01*
X019492Y016984D01*
X019550Y016953D01*
X019606Y016918D01*
X019660Y016880D01*
X019711Y016839D01*
X019760Y016795D01*
X019806Y016748D01*
X019850Y016699D01*
X019890Y016647D01*
X019927Y016592D01*
X019961Y016536D01*
X019991Y016477D01*
X020018Y016417D01*
X020041Y016356D01*
X020060Y016293D01*
X020076Y016229D01*
X020088Y016164D01*
X020096Y016099D01*
X020100Y016033D01*
X020100Y015967D01*
X020096Y015901D01*
X020088Y015836D01*
X020076Y015771D01*
X020060Y015707D01*
X020041Y015644D01*
X020018Y015583D01*
X019991Y015523D01*
X019961Y015464D01*
X019927Y015408D01*
X019890Y015353D01*
X019850Y015301D01*
X019806Y015252D01*
X019760Y015205D01*
X019711Y015161D01*
X019660Y015120D01*
X019606Y015082D01*
X019550Y015047D01*
X019492Y015016D01*
X019432Y014989D01*
X019371Y014964D01*
X019308Y014944D01*
X019245Y014928D01*
X019180Y014915D01*
X019115Y014906D01*
X019049Y014901D01*
X018984Y014900D01*
X018918Y014903D01*
X018852Y014910D01*
X018787Y014921D01*
X018723Y014935D01*
X018660Y014954D01*
X018598Y014976D01*
X018538Y015002D01*
X018479Y015031D01*
X018422Y015064D01*
X018367Y015101D01*
X018314Y015140D01*
X018264Y015183D01*
X018216Y015228D01*
X018172Y015276D01*
X018130Y015327D01*
X018091Y015380D01*
X018056Y015436D01*
X018024Y015493D01*
X017995Y015553D01*
X017970Y015613D01*
X017949Y015676D01*
X017931Y015739D01*
X017918Y015804D01*
X017908Y015869D01*
X017902Y015934D01*
X017900Y016000D01*
X018350Y016000D02*
X018750Y016000D01*
X018400Y018100D02*
X018250Y018100D01*
X018200Y018150D01*
X016800Y018150D01*
X016750Y018100D01*
X016600Y018100D01*
X016583Y018102D01*
X016566Y018106D01*
X016550Y018113D01*
X016536Y018123D01*
X016523Y018136D01*
X016513Y018150D01*
X016506Y018166D01*
X016502Y018183D01*
X016500Y018200D01*
X016500Y018800D01*
X016502Y018817D01*
X016506Y018834D01*
X016513Y018850D01*
X016523Y018864D01*
X016536Y018877D01*
X016550Y018887D01*
X016566Y018894D01*
X016583Y018898D01*
X016600Y018900D01*
X016750Y018900D01*
X016800Y018850D01*
X018200Y018850D01*
X018250Y018900D01*
X018400Y018900D01*
X018417Y018898D01*
X018434Y018894D01*
X018450Y018887D01*
X018464Y018877D01*
X018477Y018864D01*
X018487Y018850D01*
X018494Y018834D01*
X018498Y018817D01*
X018500Y018800D01*
X018500Y018200D01*
X018498Y018183D01*
X018494Y018166D01*
X018487Y018150D01*
X018477Y018136D01*
X018464Y018123D01*
X018450Y018113D01*
X018434Y018106D01*
X018417Y018102D01*
X018400Y018100D01*
X018300Y019100D02*
X016700Y019100D01*
X016683Y019102D01*
X016666Y019106D01*
X016650Y019113D01*
X016636Y019123D01*
X016623Y019136D01*
X016613Y019150D01*
X016606Y019166D01*
X016602Y019183D01*
X016600Y019200D01*
X016600Y019800D01*
X016602Y019817D01*
X016606Y019834D01*
X016613Y019850D01*
X016623Y019864D01*
X016636Y019877D01*
X016650Y019887D01*
X016666Y019894D01*
X016683Y019898D01*
X016700Y019900D01*
X018300Y019900D01*
X018317Y019898D01*
X018334Y019894D01*
X018350Y019887D01*
X018364Y019877D01*
X018377Y019864D01*
X018387Y019850D01*
X018394Y019834D01*
X018398Y019817D01*
X018400Y019800D01*
X018400Y019200D01*
X018398Y019183D01*
X018394Y019166D01*
X018387Y019150D01*
X018377Y019136D01*
X018364Y019123D01*
X018350Y019113D01*
X018334Y019106D01*
X018317Y019102D01*
X018300Y019100D01*
X017750Y019500D02*
X017500Y019500D01*
X017500Y019750D01*
X017500Y019500D02*
X016900Y019500D01*
X017100Y019250D02*
X017500Y019500D01*
X017500Y019250D01*
X017500Y019500D02*
X017100Y019750D01*
X017100Y019250D01*
X018700Y020850D02*
X020300Y020850D01*
X020317Y020852D01*
X020334Y020856D01*
X020350Y020863D01*
X020364Y020873D01*
X020377Y020886D01*
X020387Y020900D01*
X020394Y020916D01*
X020398Y020933D01*
X020400Y020950D01*
X020400Y021550D01*
X020398Y021567D01*
X020394Y021584D01*
X020387Y021600D01*
X020377Y021614D01*
X020364Y021627D01*
X020350Y021637D01*
X020334Y021644D01*
X020317Y021648D01*
X020300Y021650D01*
X018700Y021650D01*
X018683Y021648D01*
X018666Y021644D01*
X018650Y021637D01*
X018636Y021627D01*
X018623Y021614D01*
X018613Y021600D01*
X018606Y021584D01*
X018602Y021567D01*
X018600Y021550D01*
X018600Y020950D01*
X018602Y020933D01*
X018606Y020916D01*
X018613Y020900D01*
X018623Y020886D01*
X018636Y020873D01*
X018650Y020863D01*
X018666Y020856D01*
X018683Y020852D01*
X018700Y020850D01*
X019250Y021250D02*
X019500Y021250D01*
X019500Y021500D01*
X019600Y021500D01*
X019500Y021250D02*
X019500Y021000D01*
X019500Y021250D02*
X019900Y021500D01*
X019900Y021000D01*
X019500Y021250D01*
X020100Y021250D01*
X021600Y020500D02*
X023900Y020500D01*
X023900Y016500D01*
X023150Y016500D01*
X023148Y016539D01*
X023142Y016578D01*
X023133Y016616D01*
X023120Y016653D01*
X023103Y016689D01*
X023083Y016722D01*
X023059Y016754D01*
X023033Y016783D01*
X023004Y016809D01*
X022972Y016833D01*
X022939Y016853D01*
X022903Y016870D01*
X022866Y016883D01*
X022828Y016892D01*
X022789Y016898D01*
X022750Y016900D01*
X022711Y016898D01*
X022672Y016892D01*
X022634Y016883D01*
X022597Y016870D01*
X022561Y016853D01*
X022528Y016833D01*
X022496Y016809D01*
X022467Y016783D01*
X022441Y016754D01*
X022417Y016722D01*
X022397Y016689D01*
X022380Y016653D01*
X022367Y016616D01*
X022358Y016578D01*
X022352Y016539D01*
X022350Y016500D01*
X021600Y016500D01*
X021600Y020500D01*
X022300Y020850D02*
X022300Y021650D01*
X022302Y021667D01*
X022306Y021684D01*
X022313Y021700D01*
X022323Y021714D01*
X022336Y021727D01*
X022350Y021737D01*
X022366Y021744D01*
X022383Y021748D01*
X022400Y021750D01*
X025100Y021750D01*
X025117Y021748D01*
X025134Y021744D01*
X025150Y021737D01*
X025164Y021727D01*
X025177Y021714D01*
X025187Y021700D01*
X025194Y021684D01*
X025198Y021667D01*
X025200Y021650D01*
X025200Y020850D01*
X025198Y020833D01*
X025194Y020816D01*
X025187Y020800D01*
X025177Y020786D01*
X025164Y020773D01*
X025150Y020763D01*
X025134Y020756D01*
X025117Y020752D01*
X025100Y020750D01*
X022400Y020750D01*
X022383Y020752D01*
X022366Y020756D01*
X022350Y020763D01*
X022336Y020773D01*
X022323Y020786D01*
X022313Y020800D01*
X022306Y020816D01*
X022302Y020833D01*
X022300Y020850D01*
X023150Y021250D02*
X023620Y021250D01*
X023870Y021250D02*
X024350Y021250D01*
X025400Y019500D02*
X028100Y019500D01*
X028117Y019498D01*
X028134Y019494D01*
X028150Y019487D01*
X028164Y019477D01*
X028177Y019464D01*
X028187Y019450D01*
X028194Y019434D01*
X028198Y019417D01*
X028200Y019400D01*
X028200Y018600D01*
X028198Y018583D01*
X028194Y018566D01*
X028187Y018550D01*
X028177Y018536D01*
X028164Y018523D01*
X028150Y018513D01*
X028134Y018506D01*
X028117Y018502D01*
X028100Y018500D01*
X025400Y018500D01*
X025383Y018502D01*
X025366Y018506D01*
X025350Y018513D01*
X025336Y018523D01*
X025323Y018536D01*
X025313Y018550D01*
X025306Y018566D01*
X025302Y018583D01*
X025300Y018600D01*
X025300Y019400D01*
X025302Y019417D01*
X025306Y019434D01*
X025313Y019450D01*
X025323Y019464D01*
X025336Y019477D01*
X025350Y019487D01*
X025366Y019494D01*
X025383Y019498D01*
X025400Y019500D01*
X026150Y019000D02*
X026630Y019000D01*
X026880Y019000D02*
X027350Y019000D01*
X028100Y017500D02*
X025400Y017500D01*
X025383Y017498D01*
X025366Y017494D01*
X025350Y017487D01*
X025336Y017477D01*
X025323Y017464D01*
X025313Y017450D01*
X025306Y017434D01*
X025302Y017417D01*
X025300Y017400D01*
X025300Y016600D01*
X025302Y016583D01*
X025306Y016566D01*
X025313Y016550D01*
X025323Y016536D01*
X025336Y016523D01*
X025350Y016513D01*
X025366Y016506D01*
X025383Y016502D01*
X025400Y016500D01*
X028100Y016500D01*
X028117Y016502D01*
X028134Y016506D01*
X028150Y016513D01*
X028164Y016523D01*
X028177Y016536D01*
X028187Y016550D01*
X028194Y016566D01*
X028198Y016583D01*
X028200Y016600D01*
X028200Y017400D01*
X028198Y017417D01*
X028194Y017434D01*
X028187Y017450D01*
X028177Y017464D01*
X028164Y017477D01*
X028150Y017487D01*
X028134Y017494D01*
X028117Y017498D01*
X028100Y017500D01*
X027350Y017000D02*
X026880Y017000D01*
X026630Y017000D02*
X026150Y017000D01*
X029500Y014750D02*
X030000Y014750D01*
X029750Y014500D02*
X029750Y015000D01*
X031100Y014750D02*
X031300Y014750D01*
X031400Y014750D01*
X031400Y015250D01*
X031650Y015250D01*
X031650Y014250D01*
X031400Y014250D01*
X031400Y014750D01*
X029000Y014750D02*
X029003Y014885D01*
X029013Y015020D01*
X029030Y015154D01*
X029053Y015286D01*
X029082Y015418D01*
X029118Y015548D01*
X029161Y015676D01*
X029209Y015802D01*
X029264Y015926D01*
X029325Y016046D01*
X029391Y016164D01*
X029463Y016278D01*
X029541Y016388D01*
X029624Y016495D01*
X029712Y016597D01*
X029805Y016695D01*
X029903Y016788D01*
X030005Y016876D01*
X030112Y016959D01*
X030222Y017037D01*
X030336Y017109D01*
X030454Y017175D01*
X030574Y017236D01*
X030698Y017291D01*
X030824Y017339D01*
X030952Y017382D01*
X031082Y017418D01*
X031214Y017447D01*
X031346Y017470D01*
X031480Y017487D01*
X031615Y017497D01*
X031750Y017500D01*
X031885Y017497D01*
X032020Y017487D01*
X032154Y017470D01*
X032286Y017447D01*
X032418Y017418D01*
X032548Y017382D01*
X032676Y017339D01*
X032802Y017291D01*
X032926Y017236D01*
X033046Y017175D01*
X033164Y017109D01*
X033278Y017037D01*
X033388Y016959D01*
X033495Y016876D01*
X033597Y016788D01*
X033695Y016695D01*
X033788Y016597D01*
X033876Y016495D01*
X033959Y016388D01*
X034037Y016278D01*
X034109Y016164D01*
X034175Y016046D01*
X034236Y015926D01*
X034291Y015802D01*
X034339Y015676D01*
X034382Y015548D01*
X034418Y015418D01*
X034447Y015286D01*
X034470Y015154D01*
X034487Y015020D01*
X034497Y014885D01*
X034500Y014750D01*
X034497Y014615D01*
X034487Y014480D01*
X034470Y014346D01*
X034447Y014214D01*
X034418Y014082D01*
X034382Y013952D01*
X034339Y013824D01*
X034291Y013698D01*
X034236Y013574D01*
X034175Y013454D01*
X034109Y013336D01*
X034037Y013222D01*
X033959Y013112D01*
X033876Y013005D01*
X033788Y012903D01*
X033695Y012805D01*
X033597Y012712D01*
X033495Y012624D01*
X033388Y012541D01*
X033278Y012463D01*
X033164Y012391D01*
X033046Y012325D01*
X032926Y012264D01*
X032802Y012209D01*
X032676Y012161D01*
X032548Y012118D01*
X032418Y012082D01*
X032286Y012053D01*
X032154Y012030D01*
X032020Y012013D01*
X031885Y012003D01*
X031750Y012000D01*
X031615Y012003D01*
X031480Y012013D01*
X031346Y012030D01*
X031214Y012053D01*
X031082Y012082D01*
X030952Y012118D01*
X030824Y012161D01*
X030698Y012209D01*
X030574Y012264D01*
X030454Y012325D01*
X030336Y012391D01*
X030222Y012463D01*
X030112Y012541D01*
X030005Y012624D01*
X029903Y012712D01*
X029805Y012805D01*
X029712Y012903D01*
X029624Y013005D01*
X029541Y013112D01*
X029463Y013222D01*
X029391Y013336D01*
X029325Y013454D01*
X029264Y013574D01*
X029209Y013698D01*
X029161Y013824D01*
X029118Y013952D01*
X029082Y014082D01*
X029053Y014214D01*
X029030Y014346D01*
X029013Y014480D01*
X029003Y014615D01*
X029000Y014750D01*
X032000Y014750D02*
X032200Y014750D01*
X032150Y014750D02*
X032350Y014750D01*
X034600Y014750D02*
X034650Y014800D01*
X034650Y016200D01*
X034600Y016250D01*
X034600Y016400D01*
X034602Y016417D01*
X034606Y016434D01*
X034613Y016450D01*
X034623Y016464D01*
X034636Y016477D01*
X034650Y016487D01*
X034666Y016494D01*
X034683Y016498D01*
X034700Y016500D01*
X035300Y016500D01*
X035317Y016498D01*
X035334Y016494D01*
X035350Y016487D01*
X035364Y016477D01*
X035377Y016464D01*
X035387Y016450D01*
X035394Y016434D01*
X035398Y016417D01*
X035400Y016400D01*
X035400Y016250D01*
X035350Y016200D01*
X035350Y014800D01*
X035400Y014750D01*
X035400Y014600D01*
X035398Y014583D01*
X035394Y014566D01*
X035387Y014550D01*
X035377Y014536D01*
X035364Y014523D01*
X035350Y014513D01*
X035334Y014506D01*
X035317Y014502D01*
X035300Y014500D01*
X034700Y014500D01*
X034683Y014502D01*
X034666Y014506D01*
X034650Y014513D01*
X034636Y014523D01*
X034623Y014536D01*
X034613Y014550D01*
X034606Y014566D01*
X034602Y014583D01*
X034600Y014600D01*
X034600Y014750D01*
X035600Y013200D02*
X035750Y013200D01*
X035800Y013150D01*
X037700Y013150D01*
X037750Y013200D01*
X037900Y013200D01*
X037917Y013198D01*
X037934Y013194D01*
X037950Y013187D01*
X037964Y013177D01*
X037977Y013164D01*
X037987Y013150D01*
X037994Y013134D01*
X037998Y013117D01*
X038000Y013100D01*
X038000Y012400D01*
X037998Y012383D01*
X037994Y012366D01*
X037987Y012350D01*
X037977Y012336D01*
X037964Y012323D01*
X037950Y012313D01*
X037934Y012306D01*
X037917Y012302D01*
X037900Y012300D01*
X037750Y012300D01*
X037700Y012350D01*
X035800Y012350D01*
X035750Y012300D01*
X035600Y012300D01*
X035583Y012302D01*
X035566Y012306D01*
X035550Y012313D01*
X035536Y012323D01*
X035523Y012336D01*
X035513Y012350D01*
X035506Y012366D01*
X035502Y012383D01*
X035500Y012400D01*
X035500Y013100D01*
X035502Y013117D01*
X035506Y013134D01*
X035513Y013150D01*
X035523Y013164D01*
X035536Y013177D01*
X035550Y013187D01*
X035566Y013194D01*
X035583Y013198D01*
X035600Y013200D01*
X037350Y015050D02*
X037600Y015050D01*
X037600Y015500D01*
X037600Y015950D01*
X037350Y015950D01*
X037350Y015050D01*
X035500Y015500D02*
X035502Y015586D01*
X035508Y015672D01*
X035519Y015757D01*
X035534Y015841D01*
X035552Y015925D01*
X035575Y016008D01*
X035602Y016090D01*
X035633Y016170D01*
X035668Y016248D01*
X035707Y016325D01*
X035749Y016400D01*
X035795Y016472D01*
X035844Y016542D01*
X035897Y016610D01*
X035953Y016675D01*
X036013Y016737D01*
X036075Y016797D01*
X036140Y016853D01*
X036208Y016906D01*
X036278Y016955D01*
X036350Y017001D01*
X036425Y017043D01*
X036502Y017082D01*
X036580Y017117D01*
X036660Y017148D01*
X036742Y017175D01*
X036825Y017198D01*
X036909Y017216D01*
X036993Y017231D01*
X037078Y017242D01*
X037164Y017248D01*
X037250Y017250D01*
X037336Y017248D01*
X037422Y017242D01*
X037507Y017231D01*
X037591Y017216D01*
X037675Y017198D01*
X037758Y017175D01*
X037840Y017148D01*
X037920Y017117D01*
X037998Y017082D01*
X038075Y017043D01*
X038150Y017001D01*
X038222Y016955D01*
X038292Y016906D01*
X038360Y016853D01*
X038425Y016797D01*
X038487Y016737D01*
X038547Y016675D01*
X038603Y016610D01*
X038656Y016542D01*
X038705Y016472D01*
X038751Y016400D01*
X038793Y016325D01*
X038832Y016248D01*
X038867Y016170D01*
X038898Y016090D01*
X038925Y016008D01*
X038948Y015925D01*
X038966Y015841D01*
X038981Y015757D01*
X038992Y015672D01*
X038998Y015586D01*
X039000Y015500D01*
X038998Y015414D01*
X038992Y015328D01*
X038981Y015243D01*
X038966Y015159D01*
X038948Y015075D01*
X038925Y014992D01*
X038898Y014910D01*
X038867Y014830D01*
X038832Y014752D01*
X038793Y014675D01*
X038751Y014600D01*
X038705Y014528D01*
X038656Y014458D01*
X038603Y014390D01*
X038547Y014325D01*
X038487Y014263D01*
X038425Y014203D01*
X038360Y014147D01*
X038292Y014094D01*
X038222Y014045D01*
X038150Y013999D01*
X038075Y013957D01*
X037998Y013918D01*
X037920Y013883D01*
X037840Y013852D01*
X037758Y013825D01*
X037675Y013802D01*
X037591Y013784D01*
X037507Y013769D01*
X037422Y013758D01*
X037336Y013752D01*
X037250Y013750D01*
X037164Y013752D01*
X037078Y013758D01*
X036993Y013769D01*
X036909Y013784D01*
X036825Y013802D01*
X036742Y013825D01*
X036660Y013852D01*
X036580Y013883D01*
X036502Y013918D01*
X036425Y013957D01*
X036350Y013999D01*
X036278Y014045D01*
X036208Y014094D01*
X036140Y014147D01*
X036075Y014203D01*
X036013Y014263D01*
X035953Y014325D01*
X035897Y014390D01*
X035844Y014458D01*
X035795Y014528D01*
X035749Y014600D01*
X035707Y014675D01*
X035668Y014752D01*
X035633Y014830D01*
X035602Y014910D01*
X035575Y014992D01*
X035552Y015075D01*
X035534Y015159D01*
X035519Y015243D01*
X035508Y015328D01*
X035502Y015414D01*
X035500Y015500D01*
X036600Y015500D02*
X036800Y015500D01*
X037000Y015500D01*
X037600Y015500D02*
X037700Y015500D01*
X037900Y015500D01*
X038550Y015000D02*
X038550Y014700D01*
X038700Y014850D02*
X038400Y014850D01*
X039693Y014851D02*
X039693Y014701D01*
X039743Y014651D01*
X039743Y013349D01*
X039693Y013299D01*
X039693Y013149D01*
X039695Y013132D01*
X039699Y013115D01*
X039706Y013099D01*
X039716Y013085D01*
X039729Y013072D01*
X039743Y013062D01*
X039759Y013055D01*
X039776Y013051D01*
X039793Y013049D01*
X040707Y013049D01*
X040724Y013051D01*
X040741Y013055D01*
X040757Y013062D01*
X040771Y013072D01*
X040784Y013085D01*
X040794Y013099D01*
X040801Y013115D01*
X040805Y013132D01*
X040807Y013149D01*
X040807Y013299D01*
X040757Y013349D01*
X040757Y014651D01*
X040807Y014701D01*
X040807Y014851D01*
X040805Y014868D01*
X040801Y014885D01*
X040794Y014901D01*
X040784Y014915D01*
X040771Y014928D01*
X040757Y014938D01*
X040741Y014945D01*
X040724Y014949D01*
X040707Y014951D01*
X039793Y014951D01*
X039776Y014949D01*
X039759Y014945D01*
X039743Y014938D01*
X039729Y014928D01*
X039716Y014915D01*
X039706Y014901D01*
X039699Y014885D01*
X039695Y014868D01*
X039693Y014851D01*
X039950Y018200D02*
X040500Y018200D01*
X041000Y018200D01*
X041550Y018200D01*
X041567Y018202D01*
X041584Y018206D01*
X041600Y018213D01*
X041614Y018223D01*
X041627Y018236D01*
X041637Y018250D01*
X041644Y018266D01*
X041648Y018283D01*
X041650Y018300D01*
X041650Y018650D01*
X041600Y018700D01*
X041600Y022800D01*
X041650Y022850D01*
X041650Y023200D01*
X041648Y023217D01*
X041644Y023234D01*
X041637Y023250D01*
X041627Y023264D01*
X041614Y023277D01*
X041600Y023287D01*
X041584Y023294D01*
X041567Y023298D01*
X041550Y023300D01*
X041000Y023300D01*
X040500Y023300D01*
X039950Y023300D01*
X039933Y023298D01*
X039916Y023294D01*
X039900Y023287D01*
X039886Y023277D01*
X039873Y023264D01*
X039863Y023250D01*
X039856Y023234D01*
X039852Y023217D01*
X039850Y023200D01*
X039850Y022850D01*
X039900Y022800D01*
X039900Y018700D01*
X039850Y018650D01*
X039850Y018300D01*
X039852Y018283D01*
X039856Y018266D01*
X039863Y018250D01*
X039873Y018236D01*
X039886Y018223D01*
X039900Y018213D01*
X039916Y018206D01*
X039933Y018202D01*
X039950Y018200D01*
X040400Y020150D02*
X041100Y020150D01*
X041100Y021350D01*
X040400Y021350D01*
X040400Y020150D01*
X040750Y020550D02*
X040750Y020700D01*
X040550Y020700D01*
X040550Y020800D01*
X040750Y020700D02*
X040950Y020700D01*
X040750Y020700D02*
X040550Y021100D01*
X040950Y021100D01*
X040750Y020700D01*
X040750Y021250D01*
X037250Y021000D02*
X037000Y020750D01*
X036500Y020750D01*
X036250Y021000D01*
X036250Y021500D01*
X036500Y021750D01*
X037000Y021750D01*
X037250Y021500D01*
X037250Y021000D01*
X037000Y019750D02*
X036500Y019750D01*
X036250Y019500D01*
X036250Y019000D01*
X036500Y018750D01*
X037000Y018750D01*
X037250Y019000D01*
X037250Y019500D01*
X037000Y019750D01*
X034650Y020250D02*
X034650Y020400D01*
X034648Y020417D01*
X034644Y020434D01*
X034637Y020450D01*
X034627Y020464D01*
X034614Y020477D01*
X034600Y020487D01*
X034584Y020494D01*
X034567Y020498D01*
X034550Y020500D01*
X033950Y020500D01*
X033933Y020498D01*
X033916Y020494D01*
X033900Y020487D01*
X033886Y020477D01*
X033873Y020464D01*
X033863Y020450D01*
X033856Y020434D01*
X033852Y020417D01*
X033850Y020400D01*
X033850Y020250D01*
X033900Y020200D01*
X033900Y018800D01*
X033850Y018750D01*
X033850Y018600D01*
X033852Y018583D01*
X033856Y018566D01*
X033863Y018550D01*
X033873Y018536D01*
X033886Y018523D01*
X033900Y018513D01*
X033916Y018506D01*
X033933Y018502D01*
X033950Y018500D01*
X034550Y018500D01*
X034567Y018502D01*
X034584Y018506D01*
X034600Y018513D01*
X034614Y018523D01*
X034627Y018536D01*
X034637Y018550D01*
X034644Y018566D01*
X034648Y018583D01*
X034650Y018600D01*
X034650Y018750D01*
X034600Y018800D01*
X034600Y020200D01*
X034650Y020250D01*
X033307Y020701D02*
X033307Y020851D01*
X033305Y020868D01*
X033301Y020885D01*
X033294Y020901D01*
X033284Y020915D01*
X033271Y020928D01*
X033257Y020938D01*
X033241Y020945D01*
X033224Y020949D01*
X033207Y020951D01*
X032293Y020951D01*
X032276Y020949D01*
X032259Y020945D01*
X032243Y020938D01*
X032229Y020928D01*
X032216Y020915D01*
X032206Y020901D01*
X032199Y020885D01*
X032195Y020868D01*
X032193Y020851D01*
X032193Y020701D01*
X032243Y020651D01*
X032243Y019349D01*
X032193Y019299D01*
X032193Y019149D01*
X032195Y019132D01*
X032199Y019115D01*
X032206Y019099D01*
X032216Y019085D01*
X032229Y019072D01*
X032243Y019062D01*
X032259Y019055D01*
X032276Y019051D01*
X032293Y019049D01*
X033207Y019049D01*
X033224Y019051D01*
X033241Y019055D01*
X033257Y019062D01*
X033271Y019072D01*
X033284Y019085D01*
X033294Y019099D01*
X033301Y019115D01*
X033305Y019132D01*
X033307Y019149D01*
X033307Y019299D01*
X033257Y019349D01*
X033257Y020651D01*
X033307Y020701D01*
X035550Y022950D02*
X035550Y023250D01*
X035700Y023100D02*
X035400Y023100D01*
X034900Y023750D02*
X034700Y023750D01*
X034600Y023750D01*
X034600Y023300D01*
X034350Y023300D01*
X034350Y024200D01*
X034600Y024200D01*
X034600Y023750D01*
X032500Y023750D02*
X032502Y023836D01*
X032508Y023922D01*
X032519Y024007D01*
X032534Y024091D01*
X032552Y024175D01*
X032575Y024258D01*
X032602Y024340D01*
X032633Y024420D01*
X032668Y024498D01*
X032707Y024575D01*
X032749Y024650D01*
X032795Y024722D01*
X032844Y024792D01*
X032897Y024860D01*
X032953Y024925D01*
X033013Y024987D01*
X033075Y025047D01*
X033140Y025103D01*
X033208Y025156D01*
X033278Y025205D01*
X033350Y025251D01*
X033425Y025293D01*
X033502Y025332D01*
X033580Y025367D01*
X033660Y025398D01*
X033742Y025425D01*
X033825Y025448D01*
X033909Y025466D01*
X033993Y025481D01*
X034078Y025492D01*
X034164Y025498D01*
X034250Y025500D01*
X034336Y025498D01*
X034422Y025492D01*
X034507Y025481D01*
X034591Y025466D01*
X034675Y025448D01*
X034758Y025425D01*
X034840Y025398D01*
X034920Y025367D01*
X034998Y025332D01*
X035075Y025293D01*
X035150Y025251D01*
X035222Y025205D01*
X035292Y025156D01*
X035360Y025103D01*
X035425Y025047D01*
X035487Y024987D01*
X035547Y024925D01*
X035603Y024860D01*
X035656Y024792D01*
X035705Y024722D01*
X035751Y024650D01*
X035793Y024575D01*
X035832Y024498D01*
X035867Y024420D01*
X035898Y024340D01*
X035925Y024258D01*
X035948Y024175D01*
X035966Y024091D01*
X035981Y024007D01*
X035992Y023922D01*
X035998Y023836D01*
X036000Y023750D01*
X035998Y023664D01*
X035992Y023578D01*
X035981Y023493D01*
X035966Y023409D01*
X035948Y023325D01*
X035925Y023242D01*
X035898Y023160D01*
X035867Y023080D01*
X035832Y023002D01*
X035793Y022925D01*
X035751Y022850D01*
X035705Y022778D01*
X035656Y022708D01*
X035603Y022640D01*
X035547Y022575D01*
X035487Y022513D01*
X035425Y022453D01*
X035360Y022397D01*
X035292Y022344D01*
X035222Y022295D01*
X035150Y022249D01*
X035075Y022207D01*
X034998Y022168D01*
X034920Y022133D01*
X034840Y022102D01*
X034758Y022075D01*
X034675Y022052D01*
X034591Y022034D01*
X034507Y022019D01*
X034422Y022008D01*
X034336Y022002D01*
X034250Y022000D01*
X034164Y022002D01*
X034078Y022008D01*
X033993Y022019D01*
X033909Y022034D01*
X033825Y022052D01*
X033742Y022075D01*
X033660Y022102D01*
X033580Y022133D01*
X033502Y022168D01*
X033425Y022207D01*
X033350Y022249D01*
X033278Y022295D01*
X033208Y022344D01*
X033140Y022397D01*
X033075Y022453D01*
X033013Y022513D01*
X032953Y022575D01*
X032897Y022640D01*
X032844Y022708D01*
X032795Y022778D01*
X032749Y022850D01*
X032707Y022925D01*
X032668Y023002D01*
X032633Y023080D01*
X032602Y023160D01*
X032575Y023242D01*
X032552Y023325D01*
X032534Y023409D01*
X032519Y023493D01*
X032508Y023578D01*
X032502Y023664D01*
X032500Y023750D01*
X033600Y023750D02*
X033800Y023750D01*
X034000Y023750D01*
X036250Y023750D02*
X036250Y023250D01*
X036500Y023000D01*
X037000Y023000D01*
X037250Y023250D01*
X037250Y023750D01*
X037000Y024000D01*
X036500Y024000D01*
X036250Y023750D01*
X036500Y026750D02*
X037000Y026750D01*
X037250Y027000D01*
X037250Y027500D01*
X037000Y027750D01*
X036500Y027750D01*
X036250Y027500D01*
X036250Y027000D01*
X036500Y026750D01*
X035250Y028850D02*
X035250Y029200D01*
X034750Y029200D01*
X034750Y029400D01*
X035750Y029400D01*
X035750Y029200D01*
X035250Y029200D01*
X034250Y029500D02*
X034252Y029563D01*
X034258Y029625D01*
X034268Y029687D01*
X034281Y029749D01*
X034299Y029809D01*
X034320Y029868D01*
X034345Y029926D01*
X034374Y029982D01*
X034406Y030036D01*
X034441Y030088D01*
X034479Y030137D01*
X034521Y030185D01*
X034565Y030229D01*
X034613Y030271D01*
X034662Y030309D01*
X034714Y030344D01*
X034768Y030376D01*
X034824Y030405D01*
X034882Y030430D01*
X034941Y030451D01*
X035001Y030469D01*
X035063Y030482D01*
X035125Y030492D01*
X035187Y030498D01*
X035250Y030500D01*
X035313Y030498D01*
X035375Y030492D01*
X035437Y030482D01*
X035499Y030469D01*
X035559Y030451D01*
X035618Y030430D01*
X035676Y030405D01*
X035732Y030376D01*
X035786Y030344D01*
X035838Y030309D01*
X035887Y030271D01*
X035935Y030229D01*
X035979Y030185D01*
X036021Y030137D01*
X036059Y030088D01*
X036094Y030036D01*
X036126Y029982D01*
X036155Y029926D01*
X036180Y029868D01*
X036201Y029809D01*
X036219Y029749D01*
X036232Y029687D01*
X036242Y029625D01*
X036248Y029563D01*
X036250Y029500D01*
X036248Y029437D01*
X036242Y029375D01*
X036232Y029313D01*
X036219Y029251D01*
X036201Y029191D01*
X036180Y029132D01*
X036155Y029074D01*
X036126Y029018D01*
X036094Y028964D01*
X036059Y028912D01*
X036021Y028863D01*
X035979Y028815D01*
X035935Y028771D01*
X035887Y028729D01*
X035838Y028691D01*
X035786Y028656D01*
X035732Y028624D01*
X035676Y028595D01*
X035618Y028570D01*
X035559Y028549D01*
X035499Y028531D01*
X035437Y028518D01*
X035375Y028508D01*
X035313Y028502D01*
X035250Y028500D01*
X035187Y028502D01*
X035125Y028508D01*
X035063Y028518D01*
X035001Y028531D01*
X034941Y028549D01*
X034882Y028570D01*
X034824Y028595D01*
X034768Y028624D01*
X034714Y028656D01*
X034662Y028691D01*
X034613Y028729D01*
X034565Y028771D01*
X034521Y028815D01*
X034479Y028863D01*
X034441Y028912D01*
X034406Y028964D01*
X034374Y029018D01*
X034345Y029074D01*
X034320Y029132D01*
X034299Y029191D01*
X034281Y029251D01*
X034268Y029313D01*
X034258Y029375D01*
X034252Y029437D01*
X034250Y029500D01*
X034750Y029050D02*
X034750Y028950D01*
X034650Y028950D01*
X034750Y028950D02*
X034850Y028950D01*
X034750Y028950D02*
X034750Y028850D01*
X035250Y029750D02*
X035250Y030150D01*
X034816Y031746D02*
X034818Y031787D01*
X034824Y031828D01*
X034834Y031868D01*
X034847Y031907D01*
X034864Y031945D01*
X034885Y031981D01*
X034909Y032014D01*
X034936Y032045D01*
X034966Y032074D01*
X034998Y032100D01*
X035033Y032122D01*
X035070Y032141D01*
X035108Y032156D01*
X035148Y032168D01*
X035188Y032176D01*
X035229Y032180D01*
X035271Y032180D01*
X035312Y032176D01*
X035352Y032168D01*
X035392Y032156D01*
X035430Y032141D01*
X035467Y032122D01*
X035502Y032100D01*
X035534Y032074D01*
X035564Y032045D01*
X035591Y032014D01*
X035615Y031981D01*
X035636Y031945D01*
X035653Y031907D01*
X035666Y031868D01*
X035676Y031828D01*
X035682Y031787D01*
X035684Y031746D01*
X035682Y031705D01*
X035676Y031664D01*
X035666Y031624D01*
X035653Y031585D01*
X035636Y031547D01*
X035615Y031511D01*
X035591Y031478D01*
X035564Y031447D01*
X035534Y031418D01*
X035502Y031392D01*
X035467Y031370D01*
X035430Y031351D01*
X035392Y031336D01*
X035352Y031324D01*
X035312Y031316D01*
X035271Y031312D01*
X035229Y031312D01*
X035188Y031316D01*
X035148Y031324D01*
X035108Y031336D01*
X035070Y031351D01*
X035033Y031370D01*
X034998Y031392D01*
X034966Y031418D01*
X034936Y031447D01*
X034909Y031478D01*
X034885Y031511D01*
X034864Y031547D01*
X034847Y031585D01*
X034834Y031624D01*
X034824Y031664D01*
X034818Y031705D01*
X034816Y031746D01*
X033150Y035800D02*
X032350Y035800D01*
X032333Y035802D01*
X032316Y035806D01*
X032300Y035813D01*
X032286Y035823D01*
X032273Y035836D01*
X032263Y035850D01*
X032256Y035866D01*
X032252Y035883D01*
X032250Y035900D01*
X032250Y038600D01*
X032252Y038617D01*
X032256Y038634D01*
X032263Y038650D01*
X032273Y038664D01*
X032286Y038677D01*
X032300Y038687D01*
X032316Y038694D01*
X032333Y038698D01*
X032350Y038700D01*
X033150Y038700D01*
X033167Y038698D01*
X033184Y038694D01*
X033200Y038687D01*
X033214Y038677D01*
X033227Y038664D01*
X033237Y038650D01*
X033244Y038634D01*
X033248Y038617D01*
X033250Y038600D01*
X033250Y035900D01*
X033248Y035883D01*
X033244Y035866D01*
X033237Y035850D01*
X033227Y035836D01*
X033214Y035823D01*
X033200Y035813D01*
X033184Y035806D01*
X033167Y035802D01*
X033150Y035800D01*
X032750Y036650D02*
X032750Y037130D01*
X032750Y037380D02*
X032750Y037850D01*
X026350Y037200D02*
X026350Y036550D01*
X026100Y036550D01*
X026100Y036650D01*
X026100Y037000D01*
X024350Y037000D01*
X024350Y036550D01*
X026100Y036550D01*
X026100Y036650D02*
X026250Y036650D01*
X026250Y037200D01*
X026250Y038500D01*
X026250Y038800D01*
X026250Y039350D01*
X026100Y039350D01*
X026100Y039000D01*
X024350Y039000D01*
X024350Y039450D01*
X026100Y039450D01*
X026350Y039450D01*
X026350Y038800D01*
X026350Y038500D01*
X026350Y037200D01*
X026350Y038500D02*
X026250Y038500D01*
X026100Y039350D02*
X026100Y039450D01*
X024100Y038000D02*
X023300Y038000D01*
X020700Y038000D01*
X019900Y038000D01*
X019650Y039000D02*
X019650Y039450D01*
X017900Y039450D01*
X017650Y039450D01*
X017650Y038800D01*
X017650Y037500D01*
X017750Y037500D01*
X017750Y038800D01*
X017750Y039350D01*
X017900Y039350D01*
X017900Y039000D01*
X019650Y039000D01*
X017900Y039350D02*
X017900Y039450D01*
X017750Y037500D02*
X017750Y037200D01*
X017750Y036650D01*
X017900Y036650D01*
X017900Y037000D01*
X019650Y037000D01*
X019650Y036550D01*
X017900Y036550D01*
X017650Y036550D01*
X017650Y037200D01*
X017650Y037500D01*
X017900Y036650D02*
X017900Y036550D01*
X017500Y035500D02*
X017350Y035500D01*
X016650Y035500D01*
X016500Y035500D01*
X016477Y035498D01*
X016454Y035493D01*
X016432Y035484D01*
X016412Y035471D01*
X016394Y035456D01*
X016379Y035438D01*
X016366Y035418D01*
X016357Y035396D01*
X016352Y035373D01*
X016350Y035350D01*
X016350Y033650D01*
X016352Y033627D01*
X016357Y033604D01*
X016366Y033582D01*
X016379Y033562D01*
X016394Y033544D01*
X016412Y033529D01*
X016432Y033516D01*
X016454Y033507D01*
X016477Y033502D01*
X016500Y033500D01*
X016650Y033500D01*
X017350Y033500D01*
X017500Y033500D01*
X017523Y033502D01*
X017546Y033507D01*
X017568Y033516D01*
X017588Y033529D01*
X017606Y033544D01*
X017621Y033562D01*
X017634Y033582D01*
X017643Y033604D01*
X017648Y033627D01*
X017650Y033650D01*
X017650Y035350D01*
X017648Y035373D01*
X017643Y035396D01*
X017634Y035418D01*
X017621Y035438D01*
X017606Y035456D01*
X017588Y035471D01*
X017568Y035484D01*
X017546Y035493D01*
X017523Y035498D01*
X017500Y035500D01*
X017250Y032250D02*
X015250Y032250D01*
X015250Y031750D01*
X015250Y031250D01*
X017250Y031250D01*
X017250Y031750D01*
X017250Y032250D01*
X017250Y031750D02*
X017450Y031750D01*
X018150Y030850D02*
X018150Y024150D01*
X018152Y024124D01*
X018157Y024098D01*
X018165Y024073D01*
X018177Y024050D01*
X018191Y024028D01*
X018209Y024009D01*
X018228Y023991D01*
X018250Y023977D01*
X018273Y023965D01*
X018298Y023957D01*
X018324Y023952D01*
X018350Y023950D01*
X021150Y023950D01*
X021176Y023952D01*
X021202Y023957D01*
X021227Y023965D01*
X021250Y023977D01*
X021272Y023991D01*
X021291Y024009D01*
X021309Y024028D01*
X021323Y024050D01*
X021335Y024073D01*
X021343Y024098D01*
X021348Y024124D01*
X021350Y024150D01*
X021350Y030850D01*
X021348Y030876D01*
X021343Y030902D01*
X021335Y030927D01*
X021323Y030950D01*
X021309Y030972D01*
X021291Y030991D01*
X021272Y031009D01*
X021250Y031023D01*
X021227Y031035D01*
X021202Y031043D01*
X021176Y031048D01*
X021150Y031050D01*
X018350Y031050D01*
X018324Y031048D01*
X018298Y031043D01*
X018273Y031035D01*
X018250Y031023D01*
X018228Y031009D01*
X018209Y030991D01*
X018191Y030972D01*
X018177Y030950D01*
X018165Y030927D01*
X018157Y030902D01*
X018152Y030876D01*
X018150Y030850D01*
X019750Y029900D02*
X019750Y029500D01*
X019750Y029150D02*
X019750Y025100D01*
X017750Y026200D02*
X017750Y027800D01*
X016750Y027800D01*
X016750Y026200D01*
X017750Y026200D01*
X017500Y026600D02*
X017250Y027000D01*
X017000Y027000D01*
X017250Y027000D02*
X017000Y026600D01*
X017500Y026600D01*
X017250Y026400D02*
X017250Y027000D01*
X017500Y027000D01*
X017250Y027000D02*
X017250Y027250D01*
X015750Y026800D02*
X014750Y026800D01*
X014750Y025200D01*
X015750Y025200D01*
X015750Y026800D01*
X015250Y026250D02*
X015250Y026000D01*
X015000Y026000D01*
X015250Y026000D02*
X015000Y025600D01*
X015500Y025600D01*
X015250Y026000D01*
X015500Y026000D01*
X015250Y026000D02*
X015250Y025400D01*
X013750Y026200D02*
X012750Y026200D01*
X012750Y027800D01*
X013750Y027800D01*
X013750Y026200D01*
X013250Y026750D02*
X013250Y027000D01*
X013500Y027000D01*
X013250Y027000D02*
X013000Y027400D01*
X013500Y027400D01*
X013250Y027000D01*
X013000Y027000D01*
X013250Y027000D02*
X013250Y027600D01*
X012000Y027800D02*
X012000Y026200D01*
X011000Y026200D01*
X011000Y027800D01*
X012000Y027800D01*
X011750Y027400D02*
X011250Y027400D01*
X011500Y027000D01*
X011750Y027000D01*
X011500Y027000D02*
X011500Y026750D01*
X011500Y027000D02*
X011250Y027000D01*
X011500Y027000D02*
X011500Y027600D01*
X011750Y027400D02*
X011500Y027000D01*
X010650Y027350D02*
X010650Y027700D01*
X010648Y027717D01*
X010644Y027734D01*
X010637Y027750D01*
X010627Y027764D01*
X010614Y027777D01*
X010600Y027787D01*
X010584Y027794D01*
X010567Y027798D01*
X010550Y027800D01*
X010000Y027800D01*
X009500Y027800D01*
X008950Y027800D01*
X008933Y027798D01*
X008916Y027794D01*
X008900Y027787D01*
X008886Y027777D01*
X008873Y027764D01*
X008863Y027750D01*
X008856Y027734D01*
X008852Y027717D01*
X008850Y027700D01*
X008850Y027350D01*
X008900Y027300D01*
X008900Y023200D01*
X008850Y023150D01*
X008850Y022800D01*
X008852Y022783D01*
X008856Y022766D01*
X008863Y022750D01*
X008873Y022736D01*
X008886Y022723D01*
X008900Y022713D01*
X008916Y022706D01*
X008933Y022702D01*
X008950Y022700D01*
X009500Y022700D01*
X010000Y022700D01*
X010550Y022700D01*
X010567Y022702D01*
X010584Y022706D01*
X010600Y022713D01*
X010614Y022723D01*
X010627Y022736D01*
X010637Y022750D01*
X010644Y022766D01*
X010648Y022783D01*
X010650Y022800D01*
X010650Y023150D01*
X010600Y023200D01*
X010600Y027300D01*
X010650Y027350D01*
X011994Y024062D02*
X012338Y024001D01*
X012379Y023943D01*
X016416Y023231D01*
X016474Y023272D01*
X016819Y023211D01*
X016819Y023210D02*
X016836Y023206D01*
X016852Y023199D01*
X016866Y023189D01*
X016879Y023176D01*
X016889Y023162D01*
X016896Y023146D01*
X016900Y023129D01*
X016902Y023112D01*
X016900Y023095D01*
X016805Y022553D01*
X016718Y022061D01*
X016622Y021519D01*
X016622Y021520D02*
X016618Y021503D01*
X016611Y021487D01*
X016601Y021473D01*
X016588Y021460D01*
X016574Y021450D01*
X016558Y021443D01*
X016541Y021439D01*
X016524Y021437D01*
X016507Y021439D01*
X016506Y021438D02*
X016162Y021499D01*
X016121Y021557D01*
X012084Y022269D01*
X012026Y022228D01*
X011681Y022289D01*
X011681Y022290D02*
X011664Y022294D01*
X011648Y022301D01*
X011634Y022311D01*
X011621Y022324D01*
X011611Y022338D01*
X011604Y022354D01*
X011600Y022371D01*
X011598Y022388D01*
X011600Y022405D01*
X011695Y022947D01*
X011782Y023439D01*
X011878Y023981D01*
X011878Y023980D02*
X011882Y023997D01*
X011889Y024013D01*
X011899Y024027D01*
X011912Y024040D01*
X011926Y024050D01*
X011942Y024057D01*
X011959Y024061D01*
X011976Y024063D01*
X011993Y024061D01*
X010600Y021750D02*
X007900Y021750D01*
X007883Y021748D01*
X007866Y021744D01*
X007850Y021737D01*
X007836Y021727D01*
X007823Y021714D01*
X007813Y021700D01*
X007806Y021684D01*
X007802Y021667D01*
X007800Y021650D01*
X007800Y020850D01*
X007802Y020833D01*
X007806Y020816D01*
X007813Y020800D01*
X007823Y020786D01*
X007836Y020773D01*
X007850Y020763D01*
X007866Y020756D01*
X007883Y020752D01*
X007900Y020750D01*
X010600Y020750D01*
X010617Y020752D01*
X010634Y020756D01*
X010650Y020763D01*
X010664Y020773D01*
X010677Y020786D01*
X010687Y020800D01*
X010694Y020816D01*
X010698Y020833D01*
X010700Y020850D01*
X010700Y021650D01*
X010698Y021667D01*
X010694Y021684D01*
X010687Y021700D01*
X010677Y021714D01*
X010664Y021727D01*
X010650Y021737D01*
X010634Y021744D01*
X010617Y021748D01*
X010600Y021750D01*
X009850Y021250D02*
X009380Y021250D01*
X009130Y021250D02*
X008650Y021250D01*
X010850Y019300D02*
X010850Y017700D01*
X010852Y017683D01*
X010856Y017666D01*
X010863Y017650D01*
X010873Y017636D01*
X010886Y017623D01*
X010900Y017613D01*
X010916Y017606D01*
X010933Y017602D01*
X010950Y017600D01*
X011550Y017600D01*
X011567Y017602D01*
X011584Y017606D01*
X011600Y017613D01*
X011614Y017623D01*
X011627Y017636D01*
X011637Y017650D01*
X011644Y017666D01*
X011648Y017683D01*
X011650Y017700D01*
X011650Y019300D01*
X011648Y019317D01*
X011644Y019334D01*
X011637Y019350D01*
X011627Y019364D01*
X011614Y019377D01*
X011600Y019387D01*
X011584Y019394D01*
X011567Y019398D01*
X011550Y019400D01*
X010950Y019400D01*
X010933Y019398D01*
X010916Y019394D01*
X010900Y019387D01*
X010886Y019377D01*
X010873Y019364D01*
X010863Y019350D01*
X010856Y019334D01*
X010852Y019317D01*
X010850Y019300D01*
X011250Y018750D02*
X011250Y018500D01*
X011000Y018500D01*
X011250Y018500D02*
X011000Y018100D01*
X011500Y018100D01*
X011250Y018500D01*
X011500Y018500D01*
X011250Y018500D02*
X011250Y017900D01*
X001550Y017000D02*
X001555Y017218D01*
X001571Y017436D01*
X001598Y017653D01*
X001636Y017868D01*
X001683Y018081D01*
X001742Y018292D01*
X001810Y018499D01*
X001889Y018703D01*
X001977Y018903D01*
X002075Y019098D01*
X002183Y019288D01*
X002300Y019472D01*
X002426Y019651D01*
X002560Y019823D01*
X002703Y019988D01*
X002853Y020147D01*
X003012Y020297D01*
X003177Y020440D01*
X003349Y020574D01*
X003528Y020700D01*
X003712Y020817D01*
X003902Y020925D01*
X004097Y021023D01*
X004297Y021111D01*
X004501Y021190D01*
X004708Y021258D01*
X004919Y021317D01*
X005132Y021364D01*
X005347Y021402D01*
X005564Y021429D01*
X005782Y021445D01*
X006000Y021450D01*
X006218Y021445D01*
X006436Y021429D01*
X006653Y021402D01*
X006868Y021364D01*
X007081Y021317D01*
X007292Y021258D01*
X007499Y021190D01*
X007703Y021111D01*
X007903Y021023D01*
X008098Y020925D01*
X008288Y020817D01*
X008472Y020700D01*
X008651Y020574D01*
X008823Y020440D01*
X008988Y020297D01*
X009147Y020147D01*
X009297Y019988D01*
X009440Y019823D01*
X009574Y019651D01*
X009700Y019472D01*
X009817Y019288D01*
X009925Y019098D01*
X010023Y018903D01*
X010111Y018703D01*
X010190Y018499D01*
X010258Y018292D01*
X010317Y018081D01*
X010364Y017868D01*
X010402Y017653D01*
X010429Y017436D01*
X010445Y017218D01*
X010450Y017000D01*
X010445Y016782D01*
X010429Y016564D01*
X010402Y016347D01*
X010364Y016132D01*
X010317Y015919D01*
X010258Y015708D01*
X010190Y015501D01*
X010111Y015297D01*
X010023Y015097D01*
X009925Y014902D01*
X009817Y014712D01*
X009700Y014528D01*
X009574Y014349D01*
X009440Y014177D01*
X009297Y014012D01*
X009147Y013853D01*
X008988Y013703D01*
X008823Y013560D01*
X008651Y013426D01*
X008472Y013300D01*
X008288Y013183D01*
X008098Y013075D01*
X007903Y012977D01*
X007703Y012889D01*
X007499Y012810D01*
X007292Y012742D01*
X007081Y012683D01*
X006868Y012636D01*
X006653Y012598D01*
X006436Y012571D01*
X006218Y012555D01*
X006000Y012550D01*
X005782Y012555D01*
X005564Y012571D01*
X005347Y012598D01*
X005132Y012636D01*
X004919Y012683D01*
X004708Y012742D01*
X004501Y012810D01*
X004297Y012889D01*
X004097Y012977D01*
X003902Y013075D01*
X003712Y013183D01*
X003528Y013300D01*
X003349Y013426D01*
X003177Y013560D01*
X003012Y013703D01*
X002853Y013853D01*
X002703Y014012D01*
X002560Y014177D01*
X002426Y014349D01*
X002300Y014528D01*
X002183Y014712D01*
X002075Y014902D01*
X001977Y015097D01*
X001889Y015297D01*
X001810Y015501D01*
X001742Y015708D01*
X001683Y015919D01*
X001636Y016132D01*
X001598Y016347D01*
X001571Y016564D01*
X001555Y016782D01*
X001550Y017000D01*
X015050Y031750D02*
X015250Y031750D01*
X024050Y031250D02*
X024050Y030250D01*
X024052Y030233D01*
X024056Y030216D01*
X024063Y030200D01*
X024073Y030186D01*
X024086Y030173D01*
X024100Y030163D01*
X024116Y030156D01*
X024133Y030152D01*
X024150Y030150D01*
X024400Y030150D01*
X024450Y030200D01*
X027050Y030200D01*
X027100Y030150D01*
X027350Y030150D01*
X027367Y030152D01*
X027384Y030156D01*
X027400Y030163D01*
X027414Y030173D01*
X027427Y030186D01*
X027437Y030200D01*
X027444Y030216D01*
X027448Y030233D01*
X027450Y030250D01*
X027450Y031250D01*
X027448Y031267D01*
X027444Y031284D01*
X027437Y031300D01*
X027427Y031314D01*
X027414Y031327D01*
X027400Y031337D01*
X027384Y031344D01*
X027367Y031348D01*
X027350Y031350D01*
X027100Y031350D01*
X027050Y031300D01*
X024450Y031300D01*
X024400Y031350D01*
X024150Y031350D01*
X024133Y031348D01*
X024116Y031344D01*
X024100Y031337D01*
X024086Y031327D01*
X024073Y031314D01*
X024063Y031300D01*
X024056Y031284D01*
X024052Y031267D01*
X024050Y031250D01*
X036040Y010710D02*
X036182Y010568D01*
X036323Y010427D01*
X034500Y010250D02*
X034502Y010348D01*
X034510Y010446D01*
X034522Y010543D01*
X034538Y010640D01*
X034560Y010736D01*
X034586Y010831D01*
X034617Y010924D01*
X034652Y011015D01*
X034692Y011105D01*
X034736Y011193D01*
X034785Y011278D01*
X034837Y011361D01*
X034894Y011441D01*
X034954Y011519D01*
X035018Y011593D01*
X035086Y011664D01*
X035157Y011732D01*
X035231Y011796D01*
X035309Y011856D01*
X035389Y011913D01*
X035472Y011965D01*
X035557Y012014D01*
X035645Y012058D01*
X035735Y012098D01*
X035826Y012133D01*
X035919Y012164D01*
X036014Y012190D01*
X036110Y012212D01*
X036207Y012228D01*
X036304Y012240D01*
X036402Y012248D01*
X036500Y012250D01*
X036598Y012248D01*
X036696Y012240D01*
X036793Y012228D01*
X036890Y012212D01*
X036986Y012190D01*
X037081Y012164D01*
X037174Y012133D01*
X037265Y012098D01*
X037355Y012058D01*
X037443Y012014D01*
X037528Y011965D01*
X037611Y011913D01*
X037691Y011856D01*
X037769Y011796D01*
X037843Y011732D01*
X037914Y011664D01*
X037982Y011593D01*
X038046Y011519D01*
X038106Y011441D01*
X038163Y011361D01*
X038215Y011278D01*
X038264Y011193D01*
X038308Y011105D01*
X038348Y011015D01*
X038383Y010924D01*
X038414Y010831D01*
X038440Y010736D01*
X038462Y010640D01*
X038478Y010543D01*
X038490Y010446D01*
X038498Y010348D01*
X038500Y010250D01*
X038498Y010152D01*
X038490Y010054D01*
X038478Y009957D01*
X038462Y009860D01*
X038440Y009764D01*
X038414Y009669D01*
X038383Y009576D01*
X038348Y009485D01*
X038308Y009395D01*
X038264Y009307D01*
X038215Y009222D01*
X038163Y009139D01*
X038106Y009059D01*
X038046Y008981D01*
X037982Y008907D01*
X037914Y008836D01*
X037843Y008768D01*
X037769Y008704D01*
X037691Y008644D01*
X037611Y008587D01*
X037528Y008535D01*
X037443Y008486D01*
X037355Y008442D01*
X037265Y008402D01*
X037174Y008367D01*
X037081Y008336D01*
X036986Y008310D01*
X036890Y008288D01*
X036793Y008272D01*
X036696Y008260D01*
X036598Y008252D01*
X036500Y008250D01*
X036402Y008252D01*
X036304Y008260D01*
X036207Y008272D01*
X036110Y008288D01*
X036014Y008310D01*
X035919Y008336D01*
X035826Y008367D01*
X035735Y008402D01*
X035645Y008442D01*
X035557Y008486D01*
X035472Y008535D01*
X035389Y008587D01*
X035309Y008644D01*
X035231Y008704D01*
X035157Y008768D01*
X035086Y008836D01*
X035018Y008907D01*
X034954Y008981D01*
X034894Y009059D01*
X034837Y009139D01*
X034785Y009222D01*
X034736Y009307D01*
X034692Y009395D01*
X034652Y009485D01*
X034617Y009576D01*
X034586Y009669D01*
X034560Y009764D01*
X034538Y009860D01*
X034522Y009957D01*
X034510Y010054D01*
X034502Y010152D01*
X034500Y010250D01*
X036253Y009861D02*
X036429Y009684D01*
X036747Y010003D01*
X037066Y010321D01*
X036889Y010497D01*
X036253Y009861D01*
X036747Y010003D02*
X036818Y009932D01*
X036960Y009790D01*
X037101Y008942D02*
X037313Y008730D01*
X037101Y008730D02*
X037313Y008942D01*
D13*
X016440Y013480D02*
X016440Y017520D01*
X015810Y017520D01*
X015210Y017320D01*
X015210Y013680D01*
X015810Y013480D01*
X016440Y013480D01*
X007000Y017000D02*
X006250Y017000D01*
X002500Y017000D02*
X002504Y017172D01*
X002517Y017343D01*
X002538Y017514D01*
X002567Y017683D01*
X002605Y017850D01*
X002651Y018016D01*
X002705Y018179D01*
X002766Y018339D01*
X002836Y018496D01*
X002913Y018650D01*
X002998Y018799D01*
X003090Y018944D01*
X003189Y019085D01*
X003294Y019220D01*
X003407Y019350D01*
X003525Y019475D01*
X003650Y019593D01*
X003780Y019706D01*
X003915Y019811D01*
X004056Y019910D01*
X004201Y020002D01*
X004350Y020087D01*
X004504Y020164D01*
X004661Y020234D01*
X004821Y020295D01*
X004984Y020349D01*
X005150Y020395D01*
X005317Y020433D01*
X005486Y020462D01*
X005657Y020483D01*
X005828Y020496D01*
X006000Y020500D01*
X006172Y020496D01*
X006343Y020483D01*
X006514Y020462D01*
X006683Y020433D01*
X006850Y020395D01*
X007016Y020349D01*
X007179Y020295D01*
X007339Y020234D01*
X007496Y020164D01*
X007650Y020087D01*
X007799Y020002D01*
X007944Y019910D01*
X008085Y019811D01*
X008220Y019706D01*
X008350Y019593D01*
X008475Y019475D01*
X008593Y019350D01*
X008706Y019220D01*
X008811Y019085D01*
X008910Y018944D01*
X009002Y018799D01*
X009087Y018650D01*
X009164Y018496D01*
X009234Y018339D01*
X009295Y018179D01*
X009349Y018016D01*
X009395Y017850D01*
X009433Y017683D01*
X009462Y017514D01*
X009483Y017343D01*
X009496Y017172D01*
X009500Y017000D01*
X009496Y016828D01*
X009483Y016657D01*
X009462Y016486D01*
X009433Y016317D01*
X009395Y016150D01*
X009349Y015984D01*
X009295Y015821D01*
X009234Y015661D01*
X009164Y015504D01*
X009087Y015350D01*
X009002Y015201D01*
X008910Y015056D01*
X008811Y014915D01*
X008706Y014780D01*
X008593Y014650D01*
X008475Y014525D01*
X008350Y014407D01*
X008220Y014294D01*
X008085Y014189D01*
X007944Y014090D01*
X007799Y013998D01*
X007650Y013913D01*
X007496Y013836D01*
X007339Y013766D01*
X007179Y013705D01*
X007016Y013651D01*
X006850Y013605D01*
X006683Y013567D01*
X006514Y013538D01*
X006343Y013517D01*
X006172Y013504D01*
X006000Y013500D01*
X005828Y013504D01*
X005657Y013517D01*
X005486Y013538D01*
X005317Y013567D01*
X005150Y013605D01*
X004984Y013651D01*
X004821Y013705D01*
X004661Y013766D01*
X004504Y013836D01*
X004350Y013913D01*
X004201Y013998D01*
X004056Y014090D01*
X003915Y014189D01*
X003780Y014294D01*
X003650Y014407D01*
X003525Y014525D01*
X003407Y014650D01*
X003294Y014780D01*
X003189Y014915D01*
X003090Y015056D01*
X002998Y015201D01*
X002913Y015350D01*
X002836Y015504D01*
X002766Y015661D01*
X002705Y015821D01*
X002651Y015984D01*
X002605Y016150D01*
X002567Y016317D01*
X002538Y016486D01*
X002517Y016657D01*
X002504Y016828D01*
X002500Y017000D01*
X004650Y017750D02*
X005150Y017750D01*
X005380Y018000D02*
X005830Y018000D01*
X005830Y016000D01*
X005380Y016000D01*
X005380Y017000D01*
X005380Y018000D01*
X004900Y018000D02*
X004900Y017500D01*
X005000Y017000D02*
X005380Y017000D01*
X034364Y031037D02*
X034364Y034463D01*
X036136Y034463D01*
X036136Y031037D01*
X034364Y031037D01*
D14*
X035250Y031746D03*
D15*
X002077Y001827D02*
X001770Y001520D01*
X002077Y001520D01*
X002384Y001520D02*
X002384Y001980D01*
X002537Y001980D02*
X002230Y001980D01*
X002077Y001904D02*
X002000Y001980D01*
X001847Y001980D01*
X001770Y001904D01*
X002077Y001904D02*
X002077Y001827D01*
X002691Y001827D02*
X002844Y001980D01*
X002844Y001520D01*
X002691Y001520D02*
X002998Y001520D01*
X013878Y012770D02*
X014185Y013077D01*
X014185Y013154D01*
X014109Y013230D01*
X013955Y013230D01*
X013878Y013154D01*
X013878Y012770D02*
X014185Y012770D01*
X014339Y012923D02*
X014492Y012770D01*
X014646Y012923D01*
X014646Y013230D01*
X014799Y013230D02*
X015106Y013230D01*
X014953Y013230D02*
X014953Y012770D01*
X015260Y012770D02*
X015567Y012770D01*
X015413Y012770D02*
X015413Y013230D01*
X015260Y013077D01*
X014339Y013230D02*
X014339Y012923D01*
X018270Y012711D02*
X018270Y012480D01*
X018730Y012480D01*
X018730Y012327D02*
X018730Y012020D01*
X018423Y012327D01*
X018346Y012327D01*
X018270Y012250D01*
X018270Y012097D01*
X018346Y012020D01*
X018577Y012480D02*
X018577Y012711D01*
X018500Y012787D01*
X018346Y012787D01*
X018270Y012711D01*
X018577Y012634D02*
X018730Y012787D01*
X018500Y012941D02*
X018270Y013171D01*
X018730Y013171D01*
X018500Y013248D02*
X018500Y012941D01*
X018040Y018270D02*
X018117Y018347D01*
X018117Y018654D01*
X018040Y018730D01*
X017886Y018730D01*
X017810Y018654D01*
X017810Y018577D01*
X017886Y018500D01*
X018117Y018500D01*
X018040Y018270D02*
X017886Y018270D01*
X017810Y018347D01*
X017656Y018270D02*
X017503Y018423D01*
X017579Y018423D02*
X017349Y018423D01*
X017349Y018270D02*
X017349Y018730D01*
X017579Y018730D01*
X017656Y018654D01*
X017656Y018500D01*
X017579Y018423D01*
X017196Y018270D02*
X016889Y018270D01*
X017196Y018577D01*
X017196Y018654D01*
X017119Y018730D01*
X016966Y018730D01*
X016889Y018654D01*
X026428Y012654D02*
X026505Y012730D01*
X026659Y012730D01*
X026735Y012654D01*
X026735Y012577D01*
X026428Y012270D01*
X026735Y012270D01*
X026889Y012270D02*
X026889Y012730D01*
X027119Y012730D01*
X027196Y012654D01*
X027196Y012500D01*
X027119Y012423D01*
X026889Y012423D01*
X027042Y012423D02*
X027196Y012270D01*
X027349Y012270D02*
X027656Y012270D01*
X027503Y012270D02*
X027503Y012730D01*
X027349Y012577D01*
X027810Y012654D02*
X027886Y012730D01*
X028040Y012730D01*
X028117Y012654D01*
X028117Y012577D01*
X028040Y012500D01*
X028117Y012423D01*
X028117Y012347D01*
X028040Y012270D01*
X027886Y012270D01*
X027810Y012347D01*
X027963Y012500D02*
X028040Y012500D01*
X034096Y018770D02*
X034020Y018847D01*
X034020Y019000D01*
X034096Y019077D01*
X034173Y019077D01*
X034250Y019000D01*
X034327Y019077D01*
X034403Y019077D01*
X034480Y019000D01*
X034480Y018847D01*
X034403Y018770D01*
X034250Y018923D02*
X034250Y019000D01*
X034327Y019230D02*
X034327Y019461D01*
X034250Y019537D01*
X034096Y019537D01*
X034020Y019461D01*
X034020Y019230D01*
X034480Y019230D01*
X034327Y019384D02*
X034480Y019537D01*
X034403Y019691D02*
X034480Y019768D01*
X034480Y019921D01*
X034403Y019998D01*
X034327Y019998D01*
X034250Y019921D01*
X034250Y019691D01*
X034403Y019691D01*
X034250Y019691D02*
X034096Y019844D01*
X034020Y019998D01*
X032832Y019879D02*
X032832Y020113D01*
X032832Y020238D02*
X032599Y020472D01*
X032540Y020472D01*
X032482Y020413D01*
X032482Y020297D01*
X032540Y020238D01*
X032832Y020238D02*
X032832Y020472D01*
X032832Y019879D02*
X032482Y019879D01*
X032540Y019754D02*
X032599Y019754D01*
X032657Y019695D01*
X032715Y019754D01*
X032774Y019754D01*
X032832Y019695D01*
X032832Y019578D01*
X032774Y019520D01*
X032657Y019637D02*
X032657Y019695D01*
X032540Y019754D02*
X032482Y019695D01*
X032482Y019578D01*
X032540Y019520D01*
X034928Y016081D02*
X034986Y016081D01*
X035045Y016022D01*
X035045Y015847D01*
X035103Y015722D02*
X035045Y015663D01*
X035045Y015488D01*
X035162Y015488D01*
X035220Y015547D01*
X035220Y015663D01*
X035162Y015722D01*
X035103Y015722D01*
X035220Y015847D02*
X035220Y016022D01*
X035162Y016081D01*
X035103Y016081D01*
X035045Y016022D01*
X034928Y016081D02*
X034870Y016022D01*
X034870Y015847D01*
X035220Y015847D01*
X034870Y015722D02*
X034928Y015605D01*
X035045Y015488D01*
X035045Y015363D02*
X035103Y015304D01*
X035103Y015129D01*
X035103Y015246D02*
X035220Y015363D01*
X035045Y015363D02*
X034928Y015363D01*
X034870Y015304D01*
X034870Y015129D01*
X035220Y015129D01*
X035162Y015004D02*
X035220Y014945D01*
X035220Y014828D01*
X035162Y014770D01*
X035045Y014887D02*
X035045Y014945D01*
X035103Y015004D01*
X035162Y015004D01*
X035045Y014945D02*
X034986Y015004D01*
X034928Y015004D01*
X034870Y014945D01*
X034870Y014828D01*
X034928Y014770D01*
X036097Y012980D02*
X036250Y012980D01*
X036327Y012904D01*
X036327Y012827D01*
X036250Y012750D01*
X036327Y012673D01*
X036327Y012597D01*
X036250Y012520D01*
X036097Y012520D01*
X036020Y012597D01*
X036173Y012750D02*
X036250Y012750D01*
X036480Y012673D02*
X036711Y012673D01*
X036787Y012750D01*
X036787Y012904D01*
X036711Y012980D01*
X036480Y012980D01*
X036480Y012520D01*
X036634Y012673D02*
X036787Y012520D01*
X036941Y012597D02*
X037018Y012520D01*
X037171Y012520D01*
X037248Y012597D01*
X037248Y012750D01*
X037171Y012827D01*
X037094Y012827D01*
X036941Y012750D01*
X036941Y012980D01*
X037248Y012980D01*
X037401Y012904D02*
X037401Y012597D01*
X037478Y012520D01*
X037631Y012520D01*
X037708Y012597D01*
X037708Y012904D02*
X037631Y012980D01*
X037478Y012980D01*
X037401Y012904D01*
X036097Y012980D02*
X036020Y012904D01*
X039982Y013578D02*
X039982Y013695D01*
X040040Y013754D01*
X040099Y013754D01*
X040157Y013695D01*
X040215Y013754D01*
X040274Y013754D01*
X040332Y013695D01*
X040332Y013578D01*
X040274Y013520D01*
X040157Y013637D02*
X040157Y013695D01*
X040040Y013520D02*
X039982Y013578D01*
X039982Y013879D02*
X040332Y013879D01*
X040332Y014113D01*
X040332Y014238D02*
X040332Y014472D01*
X040332Y014355D02*
X039982Y014355D01*
X040099Y014238D01*
X040188Y024419D02*
X040265Y024495D01*
X040265Y024649D01*
X040188Y024726D01*
X040112Y024726D01*
X040035Y024649D01*
X040035Y024572D01*
X040035Y024649D02*
X039958Y024726D01*
X039881Y024726D01*
X039805Y024649D01*
X039805Y024495D01*
X039881Y024419D01*
X039881Y024879D02*
X040188Y024879D01*
X040265Y024956D01*
X040265Y025109D01*
X040188Y025186D01*
X040265Y025339D02*
X039805Y025339D01*
X040265Y025646D01*
X039805Y025646D01*
X039958Y025800D02*
X039805Y025953D01*
X040265Y025953D01*
X040265Y025800D02*
X040265Y026107D01*
X039881Y025186D02*
X039805Y025109D01*
X039805Y024956D01*
X039881Y024879D01*
X035811Y034977D02*
X035658Y034977D01*
X035581Y035053D01*
X035581Y035360D01*
X035658Y035437D01*
X035811Y035437D01*
X035888Y035360D01*
X035888Y035053D02*
X035811Y034977D01*
X035428Y034977D02*
X035121Y034977D01*
X035274Y034977D02*
X035274Y035437D01*
X035121Y035284D01*
X034967Y035360D02*
X034967Y035207D01*
X034891Y035130D01*
X034660Y035130D01*
X034660Y034977D02*
X034660Y035437D01*
X034891Y035437D01*
X034967Y035360D01*
X034814Y035130D02*
X034967Y034977D01*
X034507Y035207D02*
X034200Y035207D01*
X034430Y035437D01*
X034430Y034977D01*
X026748Y029020D02*
X026441Y029020D01*
X026594Y029020D02*
X026594Y029480D01*
X026441Y029327D01*
X026287Y029020D02*
X025980Y029020D01*
X025980Y029480D01*
X025673Y029480D02*
X025673Y029020D01*
X025520Y029020D02*
X025827Y029020D01*
X025520Y029327D02*
X025673Y029480D01*
X022242Y033645D02*
X021935Y033645D01*
X022088Y033645D02*
X022088Y034105D01*
X021935Y033952D01*
X021781Y034029D02*
X021704Y034105D01*
X021551Y034105D01*
X021474Y034029D01*
X021474Y033722D01*
X021551Y033645D01*
X021704Y033645D01*
X021781Y033722D01*
X021321Y033645D02*
X021014Y033645D01*
X021167Y033645D02*
X021167Y034105D01*
X021014Y033952D01*
D16*
X018800Y016000D03*
D17*
X018500Y014000D02*
X018500Y013650D01*
X018500Y011350D02*
X018500Y011000D01*
X016750Y011000D02*
X016400Y011000D01*
X014100Y011000D02*
X013750Y011000D01*
X011250Y016500D02*
X011250Y016850D01*
X011250Y020150D02*
X011250Y020500D01*
X016000Y019500D02*
X016350Y019500D01*
X016350Y018500D02*
X016000Y018500D01*
X018650Y018500D02*
X019000Y018500D01*
X019000Y019500D02*
X018650Y019500D01*
X017850Y021250D02*
X017500Y021250D01*
X021150Y021250D02*
X021500Y021250D01*
X032750Y021098D02*
X032750Y021500D01*
X034250Y021000D02*
X034250Y020650D01*
X032750Y018902D02*
X032750Y018500D01*
X034250Y018350D02*
X034250Y018000D01*
X035000Y017000D02*
X035000Y016650D01*
X035000Y014350D02*
X035000Y014000D01*
X040250Y012902D02*
X040250Y012500D01*
X040250Y015098D02*
X040250Y015500D01*
X040750Y019250D02*
X040750Y019600D01*
X040750Y021900D02*
X040750Y022250D01*
D18*
X018575Y018500D03*
X016425Y018500D03*
D19*
X018150Y019500D03*
X018850Y021250D03*
X015900Y011000D03*
D20*
X016275Y011000D03*
X014225Y011000D03*
X016475Y019500D03*
X018525Y019500D03*
D21*
X025500Y011000D02*
X025900Y011000D01*
X029100Y011000D02*
X029500Y011000D01*
X034750Y012750D02*
X035150Y012750D01*
X038350Y012750D02*
X038750Y012750D01*
X028250Y030750D02*
X027750Y030750D01*
X023750Y030750D02*
X023250Y030750D01*
D22*
X023880Y030750D03*
X027620Y030750D03*
X035330Y012750D03*
X038170Y012750D03*
X028920Y011000D03*
X026080Y011000D03*
D23*
X029345Y008937D02*
X029345Y008743D01*
X029394Y008695D01*
X029490Y008695D01*
X029539Y008743D01*
X029539Y008937D02*
X029490Y008985D01*
X029394Y008985D01*
X029345Y008937D01*
X029942Y008235D02*
X030039Y008138D01*
X030039Y007945D01*
X030039Y008090D02*
X029845Y008090D01*
X029845Y008138D02*
X029942Y008235D01*
X029845Y008138D02*
X029845Y007945D01*
X030345Y008695D02*
X030345Y008985D01*
X030490Y008985D01*
X030539Y008937D01*
X030539Y008840D01*
X030490Y008792D01*
X030345Y008792D01*
X030442Y008792D02*
X030539Y008695D01*
D24*
X006380Y017000D03*
D25*
X006384Y018635D02*
X006384Y018740D01*
X006804Y019160D01*
X006804Y019266D01*
X006384Y019266D01*
X006160Y019160D02*
X006055Y019266D01*
X005845Y019266D01*
X005740Y019160D01*
X005740Y018740D01*
X005845Y018635D01*
X006055Y018635D01*
X006160Y018740D01*
X005515Y018635D02*
X005095Y018635D01*
X005305Y018635D02*
X005305Y019266D01*
X005095Y019055D01*
X020535Y039285D02*
X020955Y039285D01*
X020745Y039285D02*
X020745Y039916D01*
X020535Y039705D01*
X021180Y039600D02*
X021390Y039600D01*
X021180Y039285D02*
X021180Y039916D01*
X021600Y039916D01*
X021824Y039705D02*
X022034Y039916D01*
X022034Y039285D01*
X021824Y039285D02*
X022244Y039285D01*
X030900Y016536D02*
X031110Y016536D01*
X031215Y016430D01*
X031215Y016325D01*
X031110Y016220D01*
X031215Y016115D01*
X031215Y016010D01*
X031110Y015905D01*
X030900Y015905D01*
X030795Y016010D01*
X031005Y016220D02*
X031110Y016220D01*
X030795Y016430D02*
X030900Y016536D01*
X031440Y016430D02*
X031440Y016010D01*
X031545Y015905D01*
X031755Y015905D01*
X031860Y016010D01*
X032084Y015905D02*
X032504Y016325D01*
X032504Y016430D01*
X032399Y016536D01*
X032189Y016536D01*
X032084Y016430D01*
X031860Y016430D02*
X031755Y016536D01*
X031545Y016536D01*
X031440Y016430D01*
X032084Y015905D02*
X032504Y015905D01*
D26*
X016730Y015500D03*
D27*
X018500Y013575D03*
X018500Y011425D03*
X032750Y018974D03*
X034250Y018425D03*
X035000Y016575D03*
X035000Y014425D03*
X040250Y015026D03*
X040250Y012974D03*
X034250Y020575D03*
X032750Y021026D03*
D28*
X017550Y033700D02*
X017550Y034150D01*
X017548Y034167D01*
X017544Y034184D01*
X017537Y034200D01*
X017527Y034214D01*
X017514Y034227D01*
X017500Y034237D01*
X017484Y034244D01*
X017467Y034248D01*
X017450Y034250D01*
X016550Y034250D01*
X016533Y034248D01*
X016516Y034244D01*
X016500Y034237D01*
X016486Y034227D01*
X016473Y034214D01*
X016463Y034200D01*
X016456Y034184D01*
X016452Y034167D01*
X016450Y034150D01*
X016450Y033700D01*
X016452Y033683D01*
X016456Y033666D01*
X016463Y033650D01*
X016473Y033636D01*
X016486Y033623D01*
X016500Y033613D01*
X016516Y033606D01*
X016533Y033602D01*
X016550Y033600D01*
X017450Y033600D01*
X017467Y033602D01*
X017484Y033606D01*
X017500Y033613D01*
X017514Y033623D01*
X017527Y033636D01*
X017537Y033650D01*
X017544Y033666D01*
X017548Y033683D01*
X017550Y033700D01*
X017450Y034750D02*
X016550Y034750D01*
X016533Y034752D01*
X016516Y034756D01*
X016500Y034763D01*
X016486Y034773D01*
X016473Y034786D01*
X016463Y034800D01*
X016456Y034816D01*
X016452Y034833D01*
X016450Y034850D01*
X016450Y035300D01*
X016452Y035317D01*
X016456Y035334D01*
X016463Y035350D01*
X016473Y035364D01*
X016486Y035377D01*
X016500Y035387D01*
X016516Y035394D01*
X016533Y035398D01*
X016550Y035400D01*
X017450Y035400D01*
X017467Y035398D01*
X017484Y035394D01*
X017500Y035387D01*
X017514Y035377D01*
X017527Y035364D01*
X017537Y035350D01*
X017544Y035334D01*
X017548Y035317D01*
X017550Y035300D01*
X017550Y034850D01*
X017548Y034833D01*
X017544Y034816D01*
X017537Y034800D01*
X017527Y034786D01*
X017514Y034773D01*
X017500Y034763D01*
X017484Y034756D01*
X017467Y034752D01*
X017450Y034750D01*
X019900Y036850D02*
X024100Y036850D01*
X024100Y039150D02*
X019900Y039150D01*
D29*
X018125Y038000D03*
X025875Y038000D03*
D30*
X024225Y036975D03*
X024225Y039025D03*
X019775Y039025D03*
X019775Y036975D03*
D31*
X019775Y038000D03*
X024225Y038000D03*
D32*
X023850Y037250D03*
X023850Y038750D03*
X020150Y038750D03*
X020150Y037250D03*
D33*
X018775Y037100D03*
D34*
X022000Y037250D03*
X022000Y038750D03*
D35*
X024400Y038775D03*
X025750Y038775D03*
X025750Y037225D03*
X024400Y037225D03*
X019600Y037225D03*
X018250Y037225D03*
X018250Y038775D03*
X019600Y038775D03*
D36*
X018925Y038775D03*
X018925Y037225D03*
X025075Y037225D03*
X025075Y038775D03*
D37*
X025150Y038900D03*
X025150Y037100D03*
X018850Y038900D03*
D38*
X011250Y019150D03*
D39*
X011250Y019775D03*
X011250Y017225D03*
X021150Y010725D03*
X021150Y007275D03*
X019100Y005225D03*
X019100Y001775D03*
D40*
X015250Y024000D02*
X015250Y024400D01*
X013250Y025000D02*
X013250Y025400D01*
X011500Y025400D02*
X011500Y025000D01*
X011500Y028600D02*
X011500Y029000D01*
X013250Y029000D02*
X013250Y028600D01*
X015250Y028000D02*
X015250Y027600D01*
X017250Y028600D02*
X017250Y029000D01*
X017250Y025400D02*
X017250Y025000D01*
D41*
X015250Y026550D03*
X013250Y026450D03*
X011500Y026450D03*
X017250Y027550D03*
X035250Y029700D03*
D42*
X017250Y028175D03*
X015250Y027175D03*
X013250Y028175D03*
X011500Y028175D03*
X011500Y025825D03*
X013250Y025825D03*
X015250Y024825D03*
X017250Y025825D03*
D43*
X018225Y021250D03*
X020775Y021250D03*
D44*
X017204Y022229D02*
X016958Y022272D01*
X011542Y023228D02*
X011296Y023271D01*
X009750Y022500D02*
X009750Y022250D01*
X009750Y028000D02*
X009750Y028250D01*
X040750Y023750D02*
X040750Y023500D01*
X040750Y018000D02*
X040750Y017750D01*
D45*
G36*
X016790Y022464D02*
X017006Y022426D01*
X016950Y022112D01*
X016734Y022150D01*
X016790Y022464D01*
G37*
G36*
X011550Y023388D02*
X011766Y023350D01*
X011710Y023036D01*
X011494Y023074D01*
X011550Y023388D01*
G37*
D46*
X009750Y022590D03*
X009750Y027910D03*
X040750Y023410D03*
X040750Y018090D03*
D47*
X022210Y007230D03*
X018040Y005270D03*
D48*
X019350Y003500D03*
X020900Y009000D03*
D49*
X021150Y008500D03*
X021150Y009500D03*
X019100Y004000D03*
X019100Y003000D03*
D50*
X019100Y002500D03*
X019100Y003500D03*
X019100Y004500D03*
X021150Y008000D03*
X021150Y009000D03*
X021150Y010000D03*
D51*
X031975Y014750D03*
D52*
G36*
X036570Y010815D02*
X036747Y010638D01*
X036112Y010003D01*
X035935Y010180D01*
X036570Y010815D01*
G37*
X037025Y015500D03*
X034025Y023750D03*
D53*
X020250Y029150D02*
X019750Y029150D01*
X019250Y029150D01*
X019250Y029500D02*
X019750Y029500D01*
X020250Y029500D01*
D54*
X036750Y027250D03*
X036750Y023500D03*
X036750Y021250D03*
X036750Y019250D03*
D55*
X040750Y020375D03*
D56*
X040750Y019875D03*
X040750Y021625D03*
M02*
