G75*
G70*
%OFA0B0*%
%FSLAX24Y24*%
%IPPOS*%
%LPD*%
%AMOC8*
5,1,8,0,0,1.08239X$1,22.5*
%
%ADD10C,0.0180*%
%ADD11R,0.3750X0.3000*%
%ADD12R,0.1575X0.1969*%
%ADD13R,0.1969X0.1575*%
%ADD14R,0.3937X0.3150*%
%ADD15R,0.2362X0.2362*%
%ADD16C,0.0050*%
%ADD17C,0.1181*%
%ADD18C,0.1575*%
%ADD19C,0.0906*%
%ADD20C,0.0120*%
%ADD21R,0.0260X0.0800*%
%ADD22OC8,0.0832*%
%ADD23C,0.0752*%
%ADD24R,0.0709X0.0551*%
%ADD25R,0.0709X0.0630*%
%ADD26C,0.0832*%
%ADD27R,0.0710X0.0630*%
%ADD28R,0.0512X0.0591*%
%ADD29R,0.0512X0.0630*%
%ADD30C,0.0832*%
%ADD31C,0.1810*%
%ADD32OC8,0.1810*%
%ADD33C,0.0912*%
%ADD34R,0.0591X0.0512*%
%ADD35R,0.0630X0.0710*%
%ADD36C,0.0166*%
%ADD37C,0.1032*%
%ADD38C,0.0952*%
%ADD39C,0.1000*%
%ADD40C,0.0182*%
%ADD41OC8,0.0912*%
%ADD42OC8,0.1000*%
%ADD43C,0.0200*%
%ADD44C,0.0866*%
%ADD45R,0.0787X0.0630*%
%ADD46R,0.0630X0.0787*%
%ADD47R,0.1339X0.0748*%
%ADD48C,0.0320*%
%ADD49C,0.0160*%
%ADD50C,0.0500*%
%ADD51C,0.0240*%
%ADD52C,0.0760*%
%ADD53C,0.0900*%
%ADD54C,0.0860*%
%ADD55C,0.0700*%
%ADD56C,0.0560*%
%ADD57C,0.1000*%
%ADD58C,0.0660*%
%ADD59C,0.0400*%
D10*
X001060Y016682D02*
X000890Y016852D01*
X000890Y017192D01*
X001060Y017363D01*
X001400Y017363D01*
X001400Y017022D01*
X001060Y016682D02*
X001741Y016682D01*
X001911Y016852D01*
X001911Y017192D01*
X001741Y017363D01*
X001911Y017787D02*
X001911Y018127D01*
X001911Y017957D02*
X000890Y017957D01*
X000890Y017787D02*
X000890Y018127D01*
X000890Y018864D02*
X001911Y018864D01*
X001911Y018524D02*
X001911Y019204D01*
X001911Y019628D02*
X000890Y019628D01*
X001400Y019628D02*
X001400Y020309D01*
X000890Y020309D02*
X001911Y020309D01*
X001911Y020733D02*
X001060Y020733D01*
X000890Y020904D01*
X000890Y021244D01*
X001060Y021414D01*
X001911Y021414D01*
X001911Y021838D02*
X001911Y022349D01*
X001741Y022519D01*
X001571Y022519D01*
X001400Y022349D01*
X001400Y021838D01*
X000890Y021838D02*
X000890Y022349D01*
X001060Y022519D01*
X001230Y022519D01*
X001400Y022349D01*
X000890Y021838D02*
X001911Y021838D01*
X001060Y022943D02*
X001060Y023113D01*
X000890Y023113D01*
X000890Y022943D01*
X001060Y022943D01*
X001060Y023496D02*
X000890Y023666D01*
X000890Y024006D01*
X001060Y024176D01*
X001060Y024601D02*
X000890Y024771D01*
X000890Y025111D01*
X001060Y025281D01*
X001741Y025281D01*
X001911Y025111D01*
X001911Y024771D01*
X001741Y024601D01*
X001060Y024601D01*
X001741Y024176D02*
X001911Y024006D01*
X001911Y023666D01*
X001741Y023496D01*
X001060Y023496D01*
X000890Y025706D02*
X001911Y025706D01*
X001571Y026046D01*
X001911Y026386D01*
X000890Y026386D01*
X000890Y026811D02*
X001911Y027491D01*
X001911Y027916D02*
X001911Y028596D01*
X001741Y028596D01*
X001060Y027916D01*
X000890Y027916D01*
X001400Y029020D02*
X001400Y029701D01*
X000890Y029531D02*
X001911Y029531D01*
X001400Y029020D01*
X000890Y030125D02*
X000890Y030806D01*
X000890Y030125D02*
X001911Y030125D01*
X001741Y031230D02*
X001571Y031230D01*
X001400Y031401D01*
X001400Y031741D01*
X001230Y031911D01*
X001060Y031911D01*
X000890Y031741D01*
X000890Y031401D01*
X001060Y031230D01*
X001741Y031230D02*
X001911Y031401D01*
X001911Y031741D01*
X001741Y031911D01*
X001741Y032335D02*
X001911Y032505D01*
X001911Y032846D01*
X001741Y033016D01*
X001060Y032335D01*
X000890Y032505D01*
X000890Y032846D01*
X001060Y033016D01*
X001741Y033016D01*
X001741Y033440D02*
X001911Y033610D01*
X001911Y033951D01*
X001741Y034121D01*
X001060Y033440D01*
X000890Y033610D01*
X000890Y033951D01*
X001060Y034121D01*
X001741Y034121D01*
X001741Y033440D02*
X001060Y033440D01*
X001060Y032335D02*
X001741Y032335D01*
X000890Y034545D02*
X001911Y035226D01*
X001741Y035650D02*
X001911Y035820D01*
X001911Y036161D01*
X001741Y036331D01*
X001571Y036331D01*
X001400Y036161D01*
X001230Y036331D01*
X001060Y036331D01*
X000890Y036161D01*
X000890Y035820D01*
X001060Y035650D01*
X001400Y035990D02*
X001400Y036161D01*
X000890Y036755D02*
X000890Y037266D01*
X001060Y037436D01*
X001741Y037436D01*
X001911Y037266D01*
X001911Y036755D01*
X000890Y036755D01*
X001060Y037860D02*
X000890Y038030D01*
X000890Y038370D01*
X001060Y038541D01*
X001741Y038541D01*
X001911Y038370D01*
X001911Y038030D01*
X001741Y037860D01*
X001060Y037860D01*
X005192Y038510D02*
X005362Y038340D01*
X005703Y038340D01*
X005873Y038510D01*
X005192Y039191D01*
X005192Y038510D01*
X005192Y039191D02*
X005362Y039361D01*
X005703Y039361D01*
X005873Y039191D01*
X005873Y038510D01*
X006297Y038340D02*
X006978Y038340D01*
X006638Y038340D02*
X006638Y039361D01*
X006978Y039021D01*
X007402Y038850D02*
X008083Y038850D01*
X008507Y039191D02*
X008507Y039361D01*
X009188Y039361D01*
X009612Y039361D02*
X010293Y039361D01*
X010293Y038340D01*
X010499Y037861D02*
X011180Y037861D01*
X011180Y036840D01*
X010499Y036840D01*
X010075Y037180D02*
X009735Y036840D01*
X009395Y037180D01*
X009395Y037861D01*
X009188Y038340D02*
X008507Y038340D01*
X008630Y037861D02*
X008630Y036840D01*
X008970Y036840D02*
X008290Y036840D01*
X007865Y036840D02*
X007695Y036840D01*
X007695Y037010D01*
X007865Y037010D01*
X007865Y036840D01*
X007313Y037010D02*
X007313Y037691D01*
X007143Y037861D01*
X006802Y037861D01*
X006632Y037691D01*
X007313Y037010D01*
X007143Y036840D01*
X006802Y036840D01*
X006632Y037010D01*
X006632Y037691D01*
X008630Y037861D02*
X008970Y037521D01*
X009188Y038340D02*
X009188Y038510D01*
X008507Y039191D01*
X009952Y038850D02*
X010293Y038850D01*
X010075Y037861D02*
X010075Y037180D01*
X010840Y037350D02*
X011180Y037350D01*
X011604Y037350D02*
X011604Y037691D01*
X011775Y037861D01*
X012285Y037861D01*
X012285Y036840D01*
X012285Y037180D02*
X011775Y037180D01*
X011604Y037350D01*
X011945Y037180D02*
X011604Y036840D01*
X012318Y038340D02*
X012318Y039021D01*
X011978Y039021D02*
X012318Y038680D01*
X012743Y038510D02*
X012913Y038340D01*
X013253Y038340D01*
X013423Y038510D01*
X013423Y038850D01*
X013253Y039021D01*
X012913Y039021D01*
X012743Y038850D01*
X012743Y038510D01*
X011978Y039021D02*
X011808Y039021D01*
X013820Y038850D02*
X014160Y038850D01*
X013990Y039191D02*
X013820Y039361D01*
X013990Y039191D02*
X013990Y038340D01*
D11*
X037875Y038250D03*
D12*
X012902Y033571D03*
X010146Y033571D03*
D13*
X006406Y027272D03*
X006406Y024516D03*
D14*
X037902Y038295D03*
D15*
X037902Y038689D03*
X028059Y001681D03*
X024122Y001681D03*
D16*
X022756Y003071D02*
X029819Y003071D01*
X029771Y003119D02*
X022804Y003119D01*
X022853Y003168D02*
X029722Y003168D01*
X029674Y003216D02*
X022901Y003216D01*
X022950Y003265D02*
X029625Y003265D01*
X029577Y003313D02*
X022998Y003313D01*
X023047Y003362D02*
X029528Y003362D01*
X029480Y003410D02*
X023095Y003410D01*
X023144Y003459D02*
X029431Y003459D01*
X029383Y003507D02*
X023192Y003507D01*
X023241Y003556D02*
X029334Y003556D01*
X029286Y003604D02*
X023289Y003604D01*
X023335Y003650D02*
X029240Y003650D01*
X030028Y002862D01*
X030028Y000500D01*
X022154Y000500D01*
X022154Y002469D01*
X023335Y003650D01*
X022707Y003022D02*
X029868Y003022D01*
X029916Y002974D02*
X022659Y002974D01*
X022610Y002925D02*
X029965Y002925D01*
X030013Y002877D02*
X022562Y002877D01*
X022513Y002828D02*
X030028Y002828D01*
X030028Y002780D02*
X022465Y002780D01*
X022416Y002731D02*
X030028Y002731D01*
X030028Y002683D02*
X022368Y002683D01*
X022319Y002634D02*
X030028Y002634D01*
X030028Y002586D02*
X022271Y002586D01*
X022222Y002537D02*
X030028Y002537D01*
X030028Y002489D02*
X022174Y002489D01*
X022154Y002440D02*
X030028Y002440D01*
X030028Y002392D02*
X022154Y002392D01*
X022154Y002343D02*
X030028Y002343D01*
X030028Y002295D02*
X022154Y002295D01*
X022154Y002246D02*
X030028Y002246D01*
X030028Y002198D02*
X022154Y002198D01*
X022154Y002149D02*
X030028Y002149D01*
X030028Y002101D02*
X022154Y002101D01*
X022154Y002052D02*
X030028Y002052D01*
X030028Y002004D02*
X022154Y002004D01*
X022154Y001955D02*
X030028Y001955D01*
X030028Y001907D02*
X022154Y001907D01*
X022154Y001858D02*
X030028Y001858D01*
X030028Y001810D02*
X022154Y001810D01*
X022154Y001761D02*
X030028Y001761D01*
X030028Y001713D02*
X022154Y001713D01*
X022154Y001664D02*
X030028Y001664D01*
X030028Y001616D02*
X022154Y001616D01*
X022154Y001567D02*
X030028Y001567D01*
X030028Y001519D02*
X022154Y001519D01*
X022154Y001470D02*
X030028Y001470D01*
X030028Y001422D02*
X022154Y001422D01*
X022154Y001373D02*
X030028Y001373D01*
X030028Y001325D02*
X022154Y001325D01*
X022154Y001276D02*
X030028Y001276D01*
X030028Y001228D02*
X022154Y001228D01*
X022154Y001179D02*
X030028Y001179D01*
X030028Y001131D02*
X022154Y001131D01*
X022154Y001082D02*
X030028Y001082D01*
X030028Y001034D02*
X022154Y001034D01*
X022154Y000985D02*
X030028Y000985D01*
X030028Y000937D02*
X022154Y000937D01*
X022154Y000888D02*
X030028Y000888D01*
X030028Y000840D02*
X022154Y000840D01*
X022154Y000791D02*
X030028Y000791D01*
X030028Y000743D02*
X022154Y000743D01*
X022154Y000694D02*
X030028Y000694D01*
X030028Y000646D02*
X022154Y000646D01*
X022154Y000597D02*
X030028Y000597D01*
X030028Y000549D02*
X022154Y000549D01*
X022154Y000500D02*
X030028Y000500D01*
D17*
X011618Y003957D03*
X009650Y003957D03*
X007681Y003957D03*
X005713Y003957D03*
X003744Y003957D03*
X001776Y003957D03*
X001776Y010650D03*
X003744Y010650D03*
X005713Y010650D03*
X007681Y010650D03*
X009650Y010650D03*
X003256Y033571D03*
X018960Y033553D03*
X027966Y033553D03*
D18*
X003256Y037508D03*
D19*
X008374Y033571D03*
X011130Y035736D03*
X004240Y025500D03*
X006406Y022744D03*
X005750Y013750D03*
X010500Y013750D03*
X031000Y007000D03*
X031000Y003750D03*
D20*
X001681Y000500D02*
X000500Y000500D01*
X000500Y001681D01*
X029634Y000500D02*
X030815Y000500D01*
X031406Y001091D01*
X042035Y012114D02*
X042626Y012705D01*
X042626Y013886D01*
X042626Y033768D02*
X042626Y034949D01*
X041445Y034949D01*
X041051Y034949D02*
X039870Y034949D01*
X039870Y036130D01*
X039870Y038689D02*
X039870Y039870D01*
X038689Y039870D01*
X001681Y039870D02*
X000500Y039870D01*
X000500Y038689D01*
D21*
X036500Y034460D03*
X037000Y034460D03*
X037500Y034460D03*
X038000Y034460D03*
X038500Y034460D03*
X039000Y034460D03*
X039500Y034460D03*
X039500Y032040D03*
X039000Y032040D03*
X038500Y032040D03*
X038000Y032040D03*
X037500Y032040D03*
X037000Y032040D03*
X036500Y032040D03*
D22*
X035250Y030000D03*
X032750Y036250D03*
X032750Y038250D03*
X028250Y030750D03*
X023250Y030750D03*
X017750Y031750D03*
X014750Y031750D03*
X010250Y021250D03*
X008250Y021250D03*
X016000Y018500D03*
X019000Y018500D03*
X018500Y016000D03*
X018500Y014000D03*
X018500Y011000D03*
X025500Y011000D03*
X029500Y011000D03*
X030750Y009750D03*
X030500Y008500D03*
X030000Y007750D03*
X029500Y008500D03*
X032750Y009750D03*
X034750Y012750D03*
X035000Y014000D03*
X035000Y017000D03*
X034250Y018000D03*
X034250Y021000D03*
X027750Y019000D03*
X025750Y019000D03*
X025750Y017000D03*
X027750Y017000D03*
X024750Y021250D03*
X022750Y021250D03*
X038750Y012750D03*
D23*
X035250Y031750D03*
X035250Y032750D03*
X035250Y033750D03*
D24*
X032750Y033206D03*
X032750Y032544D03*
X032750Y031206D03*
X032750Y034544D03*
X034500Y026794D03*
X034500Y025456D03*
D25*
X040500Y032824D03*
X040500Y033926D03*
X033750Y036699D03*
X033750Y037801D03*
D26*
X039959Y030750D02*
X040791Y030750D01*
X040791Y029750D02*
X039959Y029750D01*
X039959Y028750D02*
X040791Y028750D01*
X041750Y022791D02*
X041750Y021959D01*
X041750Y019791D02*
X041750Y018959D01*
X024666Y019000D02*
X023834Y019000D01*
X023834Y020000D02*
X024666Y020000D01*
X024666Y018000D02*
X023834Y018000D01*
X023834Y017000D02*
X024666Y017000D01*
X024500Y015332D02*
X024500Y014500D01*
X023500Y014500D02*
X023500Y015332D01*
X021666Y017000D02*
X020834Y017000D01*
X020834Y018000D02*
X021666Y018000D01*
X021666Y019000D02*
X020834Y019000D01*
X020834Y020000D02*
X021666Y020000D01*
X021916Y021250D02*
X021084Y021250D01*
X019416Y019500D02*
X018584Y019500D01*
X017916Y021250D02*
X017084Y021250D01*
X016416Y019500D02*
X015584Y019500D01*
X011250Y020084D02*
X011250Y020916D01*
X011250Y016916D02*
X011250Y016084D01*
X013334Y011000D02*
X014166Y011000D01*
X016334Y011000D02*
X017166Y011000D01*
X023500Y010668D02*
X023500Y011500D01*
X024500Y011500D02*
X024500Y010668D01*
X017416Y033500D02*
X016584Y033500D01*
X016584Y035500D02*
X017416Y035500D01*
D27*
X033750Y034435D03*
X033750Y033315D03*
X033750Y032435D03*
X033750Y031315D03*
X037625Y029685D03*
X037625Y028565D03*
X038875Y028690D03*
X038875Y029810D03*
X035500Y026560D03*
X035500Y025440D03*
X028750Y018810D03*
X028750Y017690D03*
X022750Y017060D03*
X022750Y015940D03*
X024500Y009810D03*
X024500Y008690D03*
X031000Y010690D03*
X031000Y011810D03*
X032250Y008810D03*
X032250Y007690D03*
D28*
X021374Y014750D03*
X020626Y014750D03*
D29*
X025876Y015750D03*
X026624Y015750D03*
D30*
X019500Y016000D03*
X035250Y029000D03*
X038010Y027180D03*
X038010Y026180D03*
X039010Y025680D03*
X039010Y026680D03*
X038010Y025180D03*
X038010Y024180D03*
X039010Y023680D03*
X039010Y024680D03*
X038010Y023180D03*
X038010Y022180D03*
X039010Y021680D03*
X039010Y022680D03*
X038010Y021180D03*
X038010Y020180D03*
X039010Y019680D03*
X039010Y020680D03*
X038010Y019180D03*
X039010Y018680D03*
D31*
X004000Y017000D03*
D32*
X008000Y017000D03*
D33*
X015294Y016500D02*
X016206Y016500D01*
X016206Y015500D02*
X015294Y015500D01*
X015294Y014500D02*
X016206Y014500D01*
X021294Y010000D02*
X022206Y010000D01*
X022206Y009000D02*
X021294Y009000D01*
X021294Y008000D02*
X022206Y008000D01*
X018956Y004500D02*
X018044Y004500D01*
X018044Y003500D02*
X018956Y003500D01*
X018956Y002500D02*
X018044Y002500D01*
D34*
X013000Y012126D03*
X013000Y012874D03*
X012000Y012874D03*
X012000Y012126D03*
X012000Y013876D03*
X012000Y014624D03*
X013000Y014624D03*
X013000Y013876D03*
D35*
X026190Y020000D03*
X027310Y020000D03*
X037940Y030750D03*
X039060Y030750D03*
D36*
X014708Y009652D02*
X014625Y009569D01*
X014625Y009845D01*
X014819Y010039D01*
X015095Y010039D01*
X015289Y009845D01*
X015289Y009569D01*
X015095Y009375D01*
X014819Y009375D01*
X014625Y009569D01*
X014750Y009621D01*
X014750Y009793D01*
X014871Y009914D01*
X015043Y009914D01*
X015164Y009793D01*
X015164Y009621D01*
X015043Y009500D01*
X014871Y009500D01*
X014750Y009621D01*
X014875Y009673D01*
X014875Y009741D01*
X014923Y009789D01*
X014991Y009789D01*
X015039Y009741D01*
X015039Y009673D01*
X014991Y009625D01*
X014923Y009625D01*
X014875Y009673D01*
X013294Y008238D02*
X013211Y008155D01*
X013211Y008431D01*
X013405Y008625D01*
X013681Y008625D01*
X013875Y008431D01*
X013875Y008155D01*
X013681Y007961D01*
X013405Y007961D01*
X013211Y008155D01*
X013336Y008207D01*
X013336Y008379D01*
X013457Y008500D01*
X013629Y008500D01*
X013750Y008379D01*
X013750Y008207D01*
X013629Y008086D01*
X013457Y008086D01*
X013336Y008207D01*
X013461Y008259D01*
X013461Y008327D01*
X013509Y008375D01*
X013577Y008375D01*
X013625Y008327D01*
X013625Y008259D01*
X013577Y008211D01*
X013509Y008211D01*
X013461Y008259D01*
D37*
X017900Y037484D02*
X017900Y038516D01*
X019900Y038516D02*
X019900Y037484D01*
X024100Y037484D02*
X024100Y038516D01*
X026100Y038516D02*
X026100Y037484D01*
D38*
X017250Y029000D03*
X015250Y028000D03*
X013250Y029000D03*
X011500Y029000D03*
X011500Y025000D03*
X013250Y025000D03*
X015250Y024000D03*
X017250Y025000D03*
D39*
X023500Y024500D03*
X023500Y028500D03*
X028500Y028500D03*
X028500Y024500D03*
X035250Y023750D03*
X038250Y015500D03*
X037207Y009543D03*
X030750Y014750D03*
D40*
X016962Y022350D02*
X016871Y022441D01*
X017119Y022614D01*
X017416Y022562D01*
X017589Y022314D01*
X017537Y022017D01*
X017289Y021844D01*
X016992Y021896D01*
X016819Y022144D01*
X016871Y022441D01*
X016996Y022361D01*
X017152Y022469D01*
X017336Y022437D01*
X017444Y022281D01*
X017412Y022097D01*
X017256Y021989D01*
X017072Y022021D01*
X016964Y022177D01*
X016996Y022361D01*
X017121Y022281D01*
X017184Y022325D01*
X017256Y022312D01*
X017300Y022249D01*
X017287Y022177D01*
X017224Y022133D01*
X017152Y022146D01*
X017108Y022209D01*
X017121Y022281D01*
X011054Y023392D02*
X010963Y023483D01*
X011211Y023656D01*
X011508Y023604D01*
X011681Y023356D01*
X011629Y023059D01*
X011381Y022886D01*
X011084Y022938D01*
X010911Y023186D01*
X010963Y023483D01*
X011088Y023403D01*
X011244Y023511D01*
X011428Y023479D01*
X011536Y023323D01*
X011504Y023139D01*
X011348Y023031D01*
X011164Y023063D01*
X011056Y023219D01*
X011088Y023403D01*
X011213Y023323D01*
X011276Y023367D01*
X011348Y023354D01*
X011392Y023291D01*
X011379Y023219D01*
X011316Y023175D01*
X011244Y023188D01*
X011200Y023251D01*
X011213Y023323D01*
D41*
X009750Y022250D03*
X009750Y028250D03*
X019750Y030450D03*
X019750Y024550D03*
X036750Y024250D03*
X036750Y021250D03*
X036750Y019250D03*
X040750Y017750D03*
X040750Y023750D03*
X036750Y027250D03*
D42*
X033250Y023750D03*
X036250Y015500D03*
X032750Y014750D03*
D43*
X035727Y011256D02*
X035627Y011356D01*
X035959Y011356D01*
X036192Y011123D01*
X036192Y010791D01*
X035959Y010558D01*
X035627Y010558D01*
X035394Y010791D01*
X035394Y011123D01*
X035627Y011356D01*
X035690Y011206D01*
X035896Y011206D01*
X036042Y011060D01*
X036042Y010854D01*
X035896Y010708D01*
X035690Y010708D01*
X035544Y010854D01*
X035544Y011060D01*
X035690Y011206D01*
X035752Y011056D01*
X035834Y011056D01*
X035892Y010998D01*
X035892Y010916D01*
X035834Y010858D01*
X035752Y010858D01*
X035694Y010916D01*
X035694Y010998D01*
X035752Y011056D01*
D44*
X040250Y012500D03*
X040250Y015500D03*
X032750Y018500D03*
X032750Y021500D03*
D45*
X041500Y015301D03*
X041500Y014199D03*
D46*
X039801Y014000D03*
X038699Y014000D03*
D47*
X033500Y027607D03*
X033500Y029143D03*
D48*
X035250Y029000D02*
X035750Y029000D01*
X037000Y030500D01*
X037000Y031125D01*
X036375Y031375D02*
X035250Y030000D01*
X035250Y033750D02*
X033750Y034435D01*
X032750Y036250D02*
X033750Y036699D01*
X033750Y037801D02*
X032750Y038250D01*
X032250Y007690D02*
X032000Y007250D01*
D49*
X041750Y026625D02*
X042125Y027375D01*
X042125Y031625D01*
X042000Y031750D01*
X042000Y032125D01*
X041375Y032750D01*
X041375Y033625D01*
X041074Y033926D01*
X040500Y033926D01*
X039500Y032875D02*
X039000Y032875D01*
X039000Y033250D01*
X038750Y033500D01*
X037750Y033500D01*
X037500Y033750D01*
X037500Y034460D01*
X037500Y035000D01*
X037250Y035250D01*
X034875Y035250D01*
X033875Y036500D01*
X033750Y036699D01*
X034250Y037250D02*
X032375Y037250D01*
X032000Y036875D01*
X032000Y035625D01*
X032250Y035375D01*
X034125Y035375D01*
X034750Y034625D01*
X036375Y034625D01*
X036540Y034460D01*
X036500Y034460D01*
X036460Y034500D01*
X036500Y034460D02*
X036500Y033625D01*
X037000Y033625D01*
X037000Y034460D01*
X038000Y034460D02*
X038000Y035250D01*
X037500Y035750D01*
X035125Y035750D01*
X034625Y036375D01*
X034625Y036875D01*
X034250Y037250D01*
X034699Y037801D02*
X033750Y037801D01*
X034699Y037801D02*
X035250Y037250D01*
X035250Y036500D01*
X035500Y036250D01*
X037750Y036250D01*
X038500Y035500D01*
X038500Y035125D01*
X038500Y034460D01*
X039000Y034460D02*
X039000Y035125D01*
X038500Y035125D01*
X038500Y033000D02*
X037500Y033000D01*
X036250Y033000D01*
X037500Y033000D02*
X037500Y032040D01*
X038500Y032040D02*
X038500Y033000D01*
X039000Y032875D02*
X039000Y032040D01*
X039500Y032040D02*
X039500Y032875D01*
X032750Y034544D02*
X032206Y034544D01*
X031500Y035250D01*
X031500Y037375D01*
X032750Y038250D01*
D50*
X030750Y039500D02*
X030750Y034500D01*
X031750Y033500D01*
X031750Y030500D01*
X032125Y030125D01*
X032125Y030000D01*
X033500Y030000D01*
X035250Y030000D01*
X035250Y029000D02*
X035250Y026794D01*
X035500Y026794D01*
X035500Y026560D01*
X035250Y026794D02*
X034500Y026794D01*
X033956Y026794D01*
X033500Y027250D01*
X033500Y027607D01*
X033500Y029143D02*
X033500Y030000D01*
X033750Y031315D02*
X032750Y031206D01*
X033750Y031315D02*
X035250Y031750D01*
X035250Y032750D02*
X033750Y032750D01*
X033750Y032875D01*
X033750Y033315D01*
X033750Y032875D02*
X032750Y032875D01*
X032750Y032544D01*
X032750Y032875D02*
X032750Y033206D01*
X033750Y032750D02*
X033750Y032435D01*
X033750Y034435D02*
X032750Y034544D01*
X032125Y030000D02*
X032125Y026875D01*
X033250Y025750D01*
X033250Y023750D01*
X031750Y022250D01*
X031750Y020500D01*
X033750Y019500D01*
X035500Y019500D01*
X035500Y022000D01*
X036180Y022680D01*
X038010Y022680D01*
X039010Y023680D02*
X040750Y023680D01*
X040750Y023750D01*
X040750Y027500D01*
X040375Y028750D01*
X040375Y029750D02*
X039810Y029810D01*
X038875Y029810D01*
X037625Y029685D01*
X037625Y028565D02*
X037625Y027336D01*
X037498Y027208D01*
X038010Y027180D01*
X037498Y027208D02*
X036750Y027250D01*
X036690Y027310D01*
X035500Y025440D02*
X034984Y025456D01*
X034500Y025456D01*
X039010Y026680D02*
X039010Y028055D01*
X038875Y028690D01*
X039010Y026680D02*
X039750Y026625D01*
X040750Y023750D02*
X041750Y022375D01*
X041750Y019375D02*
X041750Y019180D01*
X040750Y019180D01*
X040750Y017750D01*
X040750Y015500D01*
X041051Y015500D01*
X041500Y015301D01*
X040750Y015500D02*
X040250Y015500D01*
X038250Y015500D01*
X038699Y014000D02*
X038750Y012750D01*
X039801Y014000D02*
X041051Y014000D01*
X041500Y014199D01*
X040750Y019180D02*
X039010Y019180D01*
X036250Y017625D02*
X035500Y018625D01*
X035500Y019500D01*
X036250Y017625D02*
X036250Y015500D01*
X031000Y010690D02*
X030750Y009750D01*
X030500Y008500D02*
X031310Y008560D01*
X032250Y008810D01*
X032750Y009750D01*
X029500Y008500D02*
X029500Y011000D01*
X026250Y014500D02*
X026624Y014874D01*
X026624Y015750D01*
X027750Y017000D01*
X028750Y017690D01*
X027310Y020000D02*
X027310Y020940D01*
X026000Y022250D01*
X023000Y022250D01*
X022750Y022000D01*
X022750Y021250D01*
X021500Y021250D01*
X021250Y021000D01*
X021250Y020000D01*
X021250Y019000D02*
X019000Y019000D01*
X019000Y019500D01*
X019000Y019000D02*
X019000Y018500D01*
X018500Y017250D02*
X017500Y018000D01*
X017500Y021250D01*
X019250Y022500D02*
X017250Y025000D01*
X019250Y022500D02*
X020750Y022500D01*
X021500Y021500D01*
X021500Y021250D01*
X023250Y020000D02*
X024250Y020000D01*
X023250Y020000D02*
X022750Y019500D01*
X022750Y017060D01*
X022750Y015940D02*
X022750Y015500D01*
X023500Y014500D01*
X024500Y014500D02*
X026250Y014500D01*
X024500Y011500D02*
X024500Y009810D01*
X024500Y008690D02*
X023500Y008750D01*
X023440Y008810D01*
X021750Y010000D02*
X020750Y009750D01*
X020250Y009500D01*
X020250Y008250D01*
X020125Y007875D01*
X018500Y004500D02*
X017000Y004500D01*
X017000Y002500D01*
X018500Y002500D01*
X014957Y009707D02*
X015250Y010750D01*
X015250Y012126D01*
X015624Y012500D01*
X017500Y012500D01*
X018750Y012500D01*
X020626Y014126D01*
X020626Y014750D01*
X021374Y014750D02*
X021624Y015940D01*
X021750Y015940D01*
X021250Y018000D02*
X020250Y018000D01*
X019500Y017250D01*
X018500Y017250D01*
X019500Y017250D02*
X019500Y016000D01*
X018500Y014000D01*
X017500Y014750D02*
X017500Y012500D01*
X017500Y014750D02*
X018500Y016000D01*
X015750Y014500D02*
X014250Y014500D01*
X013876Y014624D01*
X013000Y014624D01*
X013000Y013876D02*
X013000Y012874D01*
X013000Y012126D02*
X012000Y012126D01*
X008307Y012126D01*
X008181Y012000D01*
X009650Y010650D02*
X012900Y010650D01*
X013250Y011000D01*
X013750Y011000D01*
X013000Y012126D02*
X015250Y012126D01*
X012000Y012874D02*
X012000Y013876D01*
X010500Y013750D02*
X010500Y015500D01*
X011250Y016500D01*
X012000Y026500D02*
X013750Y026500D01*
X015250Y028000D01*
X014500Y029500D02*
X016500Y029500D01*
X017250Y029000D01*
X014500Y029500D02*
X013250Y029000D01*
X011500Y029000D02*
X011500Y027000D01*
X012000Y026500D01*
X023440Y011500D02*
X023500Y011500D01*
X039060Y030750D02*
X040375Y030750D01*
X041250Y031500D02*
X040500Y032250D01*
X040500Y032824D01*
X041250Y031500D02*
X041294Y031456D01*
X036250Y039500D02*
X030750Y039500D01*
X001750Y003982D02*
X001776Y003957D01*
D51*
X035250Y031750D02*
X035375Y031750D01*
X035875Y032250D01*
X036250Y033000D01*
X036500Y032040D02*
X036500Y031500D01*
X036375Y031375D01*
X037000Y031125D02*
X037000Y032040D01*
X038000Y032040D02*
X038000Y031185D01*
X037940Y030750D01*
X040375Y028750D02*
X041250Y028750D01*
X041625Y029125D01*
X041625Y031125D01*
X041250Y031500D01*
X040500Y033926D02*
X039500Y034460D01*
D52*
X039010Y026680D02*
X039010Y025680D01*
X039010Y024680D01*
X039010Y023680D02*
X039010Y022680D01*
X039010Y021680D01*
X039010Y020680D01*
X039010Y019680D02*
X039010Y019180D01*
X039010Y018680D01*
X039010Y019180D02*
X038010Y019180D01*
X036750Y019250D01*
X038010Y020180D02*
X038010Y021180D01*
X038010Y022180D01*
X038010Y022680D01*
X038010Y023180D01*
X038010Y024180D01*
X038010Y025180D02*
X038010Y025375D01*
X038010Y025680D01*
X039010Y025680D01*
X038010Y025680D02*
X038010Y026180D01*
X038010Y022680D02*
X039010Y022680D01*
X034750Y012750D02*
X032750Y010500D01*
X032750Y009750D01*
X031000Y007250D02*
X031000Y007000D01*
X031000Y003750D02*
X029750Y002500D01*
X024750Y005250D02*
X022375Y004500D01*
X021125Y003500D01*
X018500Y003500D01*
X006406Y027272D02*
X006406Y029156D01*
X008000Y030750D01*
X012750Y030750D01*
X014750Y031750D01*
X017000Y033500D02*
X018960Y033553D01*
D53*
X039750Y026625D03*
X041750Y026625D03*
D54*
X038010Y021180D02*
X036750Y021250D01*
X034250Y021000D02*
X033350Y021300D01*
X032750Y021500D01*
X032750Y018500D02*
X031439Y016439D01*
X030750Y014750D01*
X032750Y014750D02*
X033500Y015500D01*
X036250Y015500D01*
X035000Y014000D02*
X034750Y012750D01*
X037207Y009543D02*
X038000Y010000D01*
X040250Y012250D01*
X040250Y012500D01*
X037207Y009543D02*
X036500Y008500D01*
X033500Y005250D01*
X024750Y005250D01*
X030000Y007250D02*
X030000Y007750D01*
X035000Y017000D02*
X034250Y018000D01*
X017750Y031750D02*
X017000Y033500D01*
D55*
X033350Y021300D02*
X035250Y023750D01*
X036750Y024250D01*
X036750Y025440D01*
X038010Y025440D01*
X038010Y025375D01*
X038500Y025125D02*
X038500Y026250D01*
X038500Y023750D02*
X038500Y020625D01*
D56*
X036750Y025440D02*
X035500Y025440D01*
X030750Y014750D02*
X027750Y011750D01*
X027750Y010250D01*
X026190Y008690D01*
X024500Y008690D01*
X023500Y008750D02*
X021750Y009000D01*
X023440Y008810D02*
X023440Y011500D01*
X024500Y011500D02*
X025500Y011000D01*
X029500Y011000D02*
X029750Y011500D01*
X030060Y011810D01*
X031000Y011810D01*
X022750Y015940D02*
X021750Y015940D01*
X021250Y016440D01*
X021250Y017000D01*
X009650Y003957D02*
X009650Y003100D01*
X010250Y002500D01*
X012750Y002500D01*
X013500Y003250D01*
X013750Y001500D02*
X009250Y001500D01*
D57*
X005000Y001500D01*
X003750Y002750D01*
X003750Y003951D01*
X003744Y003957D01*
X001776Y010650D02*
X001776Y014776D01*
X004000Y017000D01*
X004000Y019500D01*
X005500Y021000D01*
X007750Y021000D01*
X008250Y021250D01*
X008250Y023250D01*
X009875Y024875D01*
X009750Y025000D01*
X009750Y028250D01*
X010000Y025000D02*
X009875Y024875D01*
X010000Y025000D02*
X011250Y025000D01*
X011296Y023271D01*
X009750Y022250D02*
X010250Y021250D01*
X011250Y020500D01*
X012000Y018500D02*
X010000Y018500D01*
X008000Y017000D01*
X008181Y016681D01*
X008181Y012000D01*
X007681Y010650D01*
X005713Y010650D02*
X005744Y012744D01*
X005750Y013750D01*
X012000Y018500D02*
X015250Y022000D01*
X015250Y024000D01*
X017250Y025000D01*
X016250Y027000D02*
X015250Y028000D01*
X016250Y027000D02*
X018300Y027000D01*
X019750Y024550D01*
X023050Y024550D01*
X023500Y024500D01*
X023000Y026500D02*
X019750Y029000D01*
X017250Y029000D01*
X019750Y029000D02*
X019750Y030450D01*
X018960Y033553D02*
X023250Y030750D01*
X023500Y028500D01*
X023000Y026500D02*
X026500Y026500D01*
X028500Y024500D01*
X028500Y028500D02*
X028250Y030750D01*
X027966Y033553D01*
X026019Y035500D01*
X024250Y035500D01*
X024250Y038000D01*
X026100Y038000D01*
X024250Y035500D02*
X017000Y035500D01*
X017250Y038000D02*
X017900Y038000D01*
X019250Y038000D01*
X017900Y038000D02*
X015750Y038000D01*
X014250Y036500D01*
X014250Y034250D01*
X013571Y033571D01*
X012902Y033571D01*
X010146Y033571D02*
X009217Y034500D01*
X007500Y034500D01*
X002750Y029750D01*
X002750Y025500D01*
X003750Y024500D01*
X006421Y024500D01*
X011250Y025000D02*
X011500Y025000D01*
X013250Y025000D01*
X017204Y022229D02*
X017250Y021500D01*
X017500Y021250D01*
X016750Y011000D02*
X018500Y011000D01*
X020000Y008000D02*
X015661Y008000D01*
X011618Y003957D01*
X013500Y003250D02*
X016500Y006250D01*
X019750Y006250D01*
X020250Y006000D01*
X021625Y006000D01*
X024625Y007250D01*
X030000Y007250D01*
X031000Y007250D01*
X032000Y007250D01*
X033000Y007250D01*
X034750Y009250D01*
X034750Y009750D01*
X035793Y010957D01*
X036750Y012000D01*
X036750Y014000D01*
X036250Y015500D01*
X017000Y002500D02*
X016000Y001500D01*
X013750Y001500D01*
D58*
X009650Y003957D02*
X009650Y005500D01*
X010750Y005500D01*
X013543Y008293D01*
X009650Y005500D02*
X001750Y005500D01*
X001750Y003982D01*
X012500Y016500D02*
X014750Y015500D01*
X015750Y015500D01*
X015750Y016500D02*
X015750Y017750D01*
X016000Y018500D01*
X016000Y019500D01*
X012500Y016500D02*
X011250Y016500D01*
X020000Y008000D02*
X020125Y007875D01*
X020250Y008000D01*
X021750Y008000D01*
D59*
X025876Y015750D02*
X025750Y017000D01*
X024250Y017000D01*
X024250Y018000D02*
X027000Y018000D01*
X027750Y017000D01*
X027750Y019000D02*
X028750Y018810D01*
X027750Y019000D02*
X027310Y020000D01*
X026190Y020000D02*
X025750Y019000D01*
X024250Y019000D01*
X024250Y020000D02*
X024750Y021250D01*
X013000Y014624D02*
X012000Y014624D01*
X012000Y013876D02*
X013000Y013876D01*
X007000Y024500D02*
X006421Y024500D01*
X006406Y024516D01*
M02*
