G75*
G70*
%OFA0B0*%
%FSLAX24Y24*%
%IPPOS*%
%LPD*%
%AMOC8*
5,1,8,0,0,1.08239X$1,22.5*
%
%ADD10C,0.0180*%
%ADD11R,0.3750X0.3000*%
%ADD12R,0.1575X0.1969*%
%ADD13R,0.1969X0.1575*%
%ADD14R,0.3937X0.3150*%
%ADD15R,0.2362X0.2362*%
%ADD16C,0.0050*%
%ADD17C,0.1181*%
%ADD18C,0.1575*%
%ADD19C,0.0906*%
%ADD20C,0.0120*%
%ADD21R,0.0260X0.0800*%
%ADD22OC8,0.0832*%
%ADD23C,0.0752*%
%ADD24R,0.0709X0.0551*%
%ADD25R,0.0709X0.0630*%
%ADD26C,0.0832*%
%ADD27R,0.0710X0.0630*%
%ADD28R,0.0512X0.0591*%
%ADD29R,0.0512X0.0630*%
%ADD30C,0.0832*%
%ADD31C,0.1810*%
%ADD32OC8,0.1810*%
%ADD33C,0.0912*%
%ADD34R,0.0591X0.0512*%
%ADD35R,0.0630X0.0710*%
%ADD36C,0.0166*%
%ADD37C,0.1032*%
%ADD38C,0.0952*%
%ADD39C,0.1000*%
%ADD40C,0.0182*%
%ADD41OC8,0.0912*%
%ADD42OC8,0.1000*%
%ADD43C,0.0866*%
%ADD44R,0.0787X0.0630*%
%ADD45R,0.0630X0.0787*%
%ADD46R,0.0551X0.0709*%
%ADD47C,0.0320*%
%ADD48C,0.0160*%
%ADD49C,0.0500*%
%ADD50C,0.0760*%
%ADD51C,0.0860*%
%ADD52C,0.0900*%
%ADD53C,0.1000*%
%ADD54C,0.0560*%
%ADD55C,0.0660*%
%ADD56C,0.0240*%
%ADD57C,0.0400*%
D10*
X001427Y035090D02*
X001257Y035260D01*
X001257Y035941D01*
X001938Y035260D01*
X001768Y035090D01*
X001427Y035090D01*
X001938Y035260D02*
X001938Y035941D01*
X001768Y036111D01*
X001427Y036111D01*
X001257Y035941D01*
X002320Y035260D02*
X002320Y035090D01*
X002490Y035090D01*
X002490Y035260D01*
X002320Y035260D01*
X002915Y035090D02*
X003595Y035090D01*
X003255Y035090D02*
X003255Y036111D01*
X003595Y035771D01*
X004020Y035430D02*
X004020Y036111D01*
X004700Y036111D02*
X004700Y035430D01*
X004360Y035090D01*
X004020Y035430D01*
X005124Y035090D02*
X005805Y035090D01*
X005805Y036111D01*
X005124Y036111D01*
X005465Y035600D02*
X005805Y035600D01*
X006229Y035600D02*
X006400Y035430D01*
X006910Y035430D01*
X006910Y035090D02*
X006910Y036111D01*
X006400Y036111D01*
X006229Y035941D01*
X006229Y035600D01*
X006570Y035430D02*
X006229Y035090D01*
X006345Y037890D02*
X006005Y037890D01*
X005834Y038060D01*
X005834Y038741D01*
X006515Y038060D01*
X006345Y037890D01*
X006515Y038060D02*
X006515Y038741D01*
X006345Y038911D01*
X006005Y038911D01*
X005834Y038741D01*
X006939Y037890D02*
X007620Y037890D01*
X007280Y037890D02*
X007280Y038911D01*
X007620Y038571D01*
X008044Y038400D02*
X008725Y038400D01*
X009149Y038741D02*
X009830Y038060D01*
X009830Y037890D01*
X009149Y037890D01*
X009149Y038741D02*
X009149Y038911D01*
X009830Y038911D01*
X010254Y038911D02*
X010935Y038911D01*
X010935Y037890D01*
X010935Y038400D02*
X010594Y038400D01*
X012450Y038571D02*
X012620Y038571D01*
X012960Y038230D01*
X012960Y037890D02*
X012960Y038571D01*
X013385Y038400D02*
X013385Y038060D01*
X013555Y037890D01*
X013895Y037890D01*
X014065Y038060D01*
X014065Y038400D01*
X013895Y038571D01*
X013555Y038571D01*
X013385Y038400D01*
X014462Y038400D02*
X014802Y038400D01*
X014632Y038741D02*
X014462Y038911D01*
X014632Y038741D02*
X014632Y037890D01*
D11*
X037875Y038250D03*
D12*
X012902Y033571D03*
X010146Y033571D03*
D13*
X006406Y027272D03*
X006406Y024516D03*
D14*
X037902Y038295D03*
D15*
X037902Y038689D03*
X028059Y001681D03*
X024122Y001681D03*
D16*
X022804Y003119D02*
X029771Y003119D01*
X029819Y003071D02*
X022756Y003071D01*
X022707Y003022D02*
X029868Y003022D01*
X029916Y002974D02*
X022659Y002974D01*
X022610Y002925D02*
X029965Y002925D01*
X030013Y002877D02*
X022562Y002877D01*
X022513Y002828D02*
X030028Y002828D01*
X030028Y002862D02*
X030028Y000500D01*
X022154Y000500D01*
X022154Y002469D01*
X023335Y003650D01*
X029240Y003650D01*
X030028Y002862D01*
X030028Y002780D02*
X022465Y002780D01*
X022416Y002731D02*
X030028Y002731D01*
X030028Y002683D02*
X022368Y002683D01*
X022319Y002634D02*
X030028Y002634D01*
X030028Y002586D02*
X022271Y002586D01*
X022222Y002537D02*
X030028Y002537D01*
X030028Y002489D02*
X022174Y002489D01*
X022154Y002440D02*
X030028Y002440D01*
X030028Y002392D02*
X022154Y002392D01*
X022154Y002343D02*
X030028Y002343D01*
X030028Y002295D02*
X022154Y002295D01*
X022154Y002246D02*
X030028Y002246D01*
X030028Y002198D02*
X022154Y002198D01*
X022154Y002149D02*
X030028Y002149D01*
X030028Y002101D02*
X022154Y002101D01*
X022154Y002052D02*
X030028Y002052D01*
X030028Y002004D02*
X022154Y002004D01*
X022154Y001955D02*
X030028Y001955D01*
X030028Y001907D02*
X022154Y001907D01*
X022154Y001858D02*
X030028Y001858D01*
X030028Y001810D02*
X022154Y001810D01*
X022154Y001761D02*
X030028Y001761D01*
X030028Y001713D02*
X022154Y001713D01*
X022154Y001664D02*
X030028Y001664D01*
X030028Y001616D02*
X022154Y001616D01*
X022154Y001567D02*
X030028Y001567D01*
X030028Y001519D02*
X022154Y001519D01*
X022154Y001470D02*
X030028Y001470D01*
X030028Y001422D02*
X022154Y001422D01*
X022154Y001373D02*
X030028Y001373D01*
X030028Y001325D02*
X022154Y001325D01*
X022154Y001276D02*
X030028Y001276D01*
X030028Y001228D02*
X022154Y001228D01*
X022154Y001179D02*
X030028Y001179D01*
X030028Y001131D02*
X022154Y001131D01*
X022154Y001082D02*
X030028Y001082D01*
X030028Y001034D02*
X022154Y001034D01*
X022154Y000985D02*
X030028Y000985D01*
X030028Y000937D02*
X022154Y000937D01*
X022154Y000888D02*
X030028Y000888D01*
X030028Y000840D02*
X022154Y000840D01*
X022154Y000791D02*
X030028Y000791D01*
X030028Y000743D02*
X022154Y000743D01*
X022154Y000694D02*
X030028Y000694D01*
X030028Y000646D02*
X022154Y000646D01*
X022154Y000597D02*
X030028Y000597D01*
X030028Y000549D02*
X022154Y000549D01*
X022154Y000500D02*
X030028Y000500D01*
X029722Y003168D02*
X022853Y003168D01*
X022901Y003216D02*
X029674Y003216D01*
X029625Y003265D02*
X022950Y003265D01*
X022998Y003313D02*
X029577Y003313D01*
X029528Y003362D02*
X023047Y003362D01*
X023095Y003410D02*
X029480Y003410D01*
X029431Y003459D02*
X023144Y003459D01*
X023192Y003507D02*
X029383Y003507D01*
X029334Y003556D02*
X023241Y003556D01*
X023289Y003604D02*
X029286Y003604D01*
D17*
X011618Y003957D03*
X009650Y003957D03*
X007681Y003957D03*
X005713Y003957D03*
X003744Y003957D03*
X001776Y003957D03*
X001776Y010650D03*
X003744Y010650D03*
X005713Y010650D03*
X007681Y010650D03*
X009650Y010650D03*
X003256Y033571D03*
X018960Y033553D03*
X027966Y033553D03*
D18*
X003256Y037508D03*
D19*
X008374Y033571D03*
X011130Y035736D03*
X004240Y025500D03*
X006406Y022744D03*
X004500Y013750D03*
X010500Y013750D03*
X031000Y007000D03*
X031000Y003750D03*
D20*
X001681Y000500D02*
X000500Y000500D01*
X000500Y001681D01*
X029634Y000500D02*
X030815Y000500D01*
X031406Y001091D01*
X042035Y012114D02*
X042626Y012705D01*
X042626Y013886D01*
X042626Y033768D02*
X042626Y034949D01*
X041445Y034949D01*
X041051Y034949D02*
X039870Y034949D01*
X039870Y036130D01*
X039870Y038689D02*
X039870Y039870D01*
X038689Y039870D01*
X001681Y039870D02*
X000500Y039870D01*
X000500Y038689D01*
D21*
X036500Y034460D03*
X037000Y034460D03*
X037500Y034460D03*
X038000Y034460D03*
X038500Y034460D03*
X039000Y034460D03*
X039500Y034460D03*
X039500Y032040D03*
X039000Y032040D03*
X038500Y032040D03*
X038000Y032040D03*
X037500Y032040D03*
X037000Y032040D03*
X036500Y032040D03*
D22*
X034750Y028750D03*
X028250Y030750D03*
X023250Y030750D03*
X017750Y031750D03*
X014750Y031750D03*
X015250Y028000D03*
X013250Y028000D03*
X015250Y025000D03*
X010250Y021250D03*
X008250Y021250D03*
X016000Y018500D03*
X018500Y015750D03*
X018500Y014000D03*
X018500Y011000D03*
X025500Y011000D03*
X029500Y011000D03*
X030750Y009750D03*
X030500Y008500D03*
X030000Y007750D03*
X029500Y008500D03*
X032750Y009750D03*
X034750Y012750D03*
X035000Y014000D03*
X035000Y017000D03*
X034250Y019250D03*
X034250Y022250D03*
X027750Y019000D03*
X027750Y017000D03*
X025750Y017000D03*
X025750Y019000D03*
X024750Y021250D03*
X022750Y021250D03*
X019000Y018500D03*
X032750Y036250D03*
X032750Y038250D03*
X038750Y012750D03*
D23*
X035250Y031750D03*
X035250Y032750D03*
X035250Y033750D03*
D24*
X032750Y033331D03*
X032750Y032669D03*
X032750Y031331D03*
X032750Y034669D03*
D25*
X033750Y036699D03*
X033750Y037801D03*
X040500Y033926D03*
X040500Y032824D03*
D26*
X040791Y029875D02*
X039959Y029875D01*
X039959Y028875D02*
X040791Y028875D01*
X040791Y027875D02*
X039959Y027875D01*
X040750Y022666D02*
X040750Y021834D01*
X040750Y019666D02*
X040750Y018834D01*
X024666Y019000D02*
X023834Y019000D01*
X023834Y020000D02*
X024666Y020000D01*
X024666Y018000D02*
X023834Y018000D01*
X023834Y017000D02*
X024666Y017000D01*
X024500Y015332D02*
X024500Y014500D01*
X023500Y014500D02*
X023500Y015332D01*
X021666Y017000D02*
X020834Y017000D01*
X020834Y018000D02*
X021666Y018000D01*
X021666Y019000D02*
X020834Y019000D01*
X020834Y020000D02*
X021666Y020000D01*
X021916Y021250D02*
X021084Y021250D01*
X019416Y019500D02*
X018584Y019500D01*
X017916Y021250D02*
X017084Y021250D01*
X016416Y019500D02*
X015584Y019500D01*
X011250Y020084D02*
X011250Y020916D01*
X011250Y016916D02*
X011250Y016084D01*
X013334Y011000D02*
X014166Y011000D01*
X016334Y011000D02*
X017166Y011000D01*
X023500Y010668D02*
X023500Y011500D01*
X024500Y011500D02*
X024500Y010668D01*
X017416Y033250D02*
X016584Y033250D01*
X016584Y035250D02*
X017416Y035250D01*
D27*
X033000Y026810D03*
X033000Y025690D03*
X033750Y031440D03*
X033750Y032560D03*
X033750Y033440D03*
X033750Y034560D03*
X028750Y018810D03*
X028750Y017690D03*
X022750Y017060D03*
X022750Y015940D03*
X024500Y009810D03*
X024500Y008690D03*
X031000Y010690D03*
X031000Y011810D03*
X032250Y008560D03*
X032250Y007440D03*
D28*
X021374Y014750D03*
X020626Y014750D03*
D29*
X025876Y015750D03*
X026624Y015750D03*
D30*
X019500Y015750D03*
X013250Y025000D03*
X035750Y028750D03*
X038010Y027180D03*
X039010Y026680D03*
X038010Y026180D03*
X038010Y025180D03*
X038010Y024180D03*
X039010Y023680D03*
X039010Y022680D03*
X038010Y022180D03*
X038010Y023180D03*
X039010Y021680D03*
X039010Y020680D03*
X038010Y020180D03*
X038010Y021180D03*
X039010Y019680D03*
X039010Y018680D03*
X038010Y019180D03*
X039010Y024680D03*
X039010Y025680D03*
D31*
X004000Y017000D03*
D32*
X008000Y017000D03*
D33*
X015294Y016500D02*
X016206Y016500D01*
X016206Y015500D02*
X015294Y015500D01*
X015294Y014500D02*
X016206Y014500D01*
X021294Y009750D02*
X022206Y009750D01*
X022206Y008750D02*
X021294Y008750D01*
X021294Y007750D02*
X022206Y007750D01*
X018956Y004500D02*
X018044Y004500D01*
X018044Y003500D02*
X018956Y003500D01*
X018956Y002500D02*
X018044Y002500D01*
D34*
X013000Y012126D03*
X013000Y012874D03*
X012000Y012874D03*
X012000Y012126D03*
X012000Y013876D03*
X012000Y014624D03*
X013000Y014624D03*
X013000Y013876D03*
D35*
X026190Y020000D03*
X027310Y020000D03*
X033440Y027750D03*
X034560Y027750D03*
X037940Y028125D03*
X039060Y028125D03*
X039060Y029125D03*
X037940Y029125D03*
X037940Y030500D03*
X039060Y030500D03*
D36*
X014708Y009652D02*
X014625Y009569D01*
X014625Y009845D01*
X014819Y010039D01*
X015095Y010039D01*
X015289Y009845D01*
X015289Y009569D01*
X015095Y009375D01*
X014819Y009375D01*
X014625Y009569D01*
X014750Y009621D01*
X014750Y009793D01*
X014871Y009914D01*
X015043Y009914D01*
X015164Y009793D01*
X015164Y009621D01*
X015043Y009500D01*
X014871Y009500D01*
X014750Y009621D01*
X014875Y009673D01*
X014875Y009741D01*
X014923Y009789D01*
X014991Y009789D01*
X015039Y009741D01*
X015039Y009673D01*
X014991Y009625D01*
X014923Y009625D01*
X014875Y009673D01*
X013294Y008238D02*
X013211Y008155D01*
X013211Y008431D01*
X013405Y008625D01*
X013681Y008625D01*
X013875Y008431D01*
X013875Y008155D01*
X013681Y007961D01*
X013405Y007961D01*
X013211Y008155D01*
X013336Y008207D01*
X013336Y008379D01*
X013457Y008500D01*
X013629Y008500D01*
X013750Y008379D01*
X013750Y008207D01*
X013629Y008086D01*
X013457Y008086D01*
X013336Y008207D01*
X013461Y008259D01*
X013461Y008327D01*
X013509Y008375D01*
X013577Y008375D01*
X013625Y008327D01*
X013625Y008259D01*
X013577Y008211D01*
X013509Y008211D01*
X013461Y008259D01*
D37*
X017150Y037484D02*
X017150Y038516D01*
X019150Y038516D02*
X019150Y037484D01*
X023350Y037484D02*
X023350Y038516D01*
X025350Y038516D02*
X025350Y037484D01*
D38*
X017250Y029000D03*
X015250Y028000D03*
X013250Y029000D03*
X011500Y029000D03*
X011500Y025000D03*
X013250Y025000D03*
X015250Y024000D03*
X017250Y025000D03*
D39*
X023500Y024500D03*
X023500Y028500D03*
X028500Y028500D03*
X028500Y024500D03*
X036000Y025250D03*
X038250Y015500D03*
X036500Y009250D03*
X030750Y014750D03*
D40*
X016962Y022350D02*
X016871Y022441D01*
X017119Y022614D01*
X017416Y022562D01*
X017589Y022314D01*
X017537Y022017D01*
X017289Y021844D01*
X016992Y021896D01*
X016819Y022144D01*
X016871Y022441D01*
X016996Y022361D01*
X017152Y022469D01*
X017336Y022437D01*
X017444Y022281D01*
X017412Y022097D01*
X017256Y021989D01*
X017072Y022021D01*
X016964Y022177D01*
X016996Y022361D01*
X017121Y022281D01*
X017184Y022325D01*
X017256Y022312D01*
X017300Y022249D01*
X017287Y022177D01*
X017224Y022133D01*
X017152Y022146D01*
X017108Y022209D01*
X017121Y022281D01*
X011054Y023392D02*
X010963Y023483D01*
X011211Y023656D01*
X011508Y023604D01*
X011681Y023356D01*
X011629Y023059D01*
X011381Y022886D01*
X011084Y022938D01*
X010911Y023186D01*
X010963Y023483D01*
X011088Y023403D01*
X011244Y023511D01*
X011428Y023479D01*
X011536Y023323D01*
X011504Y023139D01*
X011348Y023031D01*
X011164Y023063D01*
X011056Y023219D01*
X011088Y023403D01*
X011213Y023323D01*
X011276Y023367D01*
X011348Y023354D01*
X011392Y023291D01*
X011379Y023219D01*
X011316Y023175D01*
X011244Y023188D01*
X011200Y023251D01*
X011213Y023323D01*
D41*
X009750Y022250D03*
X009750Y028250D03*
X019750Y030450D03*
X019750Y024550D03*
X036750Y023500D03*
X036750Y021250D03*
X036750Y019250D03*
X040750Y017750D03*
X040750Y023750D03*
X036750Y027250D03*
D42*
X034000Y025250D03*
X036250Y015500D03*
X032750Y014750D03*
X036500Y011250D03*
D43*
X040250Y012500D03*
X040250Y015500D03*
X033811Y023311D03*
X031689Y021189D03*
D44*
X041500Y015301D03*
X041500Y014199D03*
D45*
X039801Y014000D03*
X038699Y014000D03*
D46*
X039956Y031000D03*
X041294Y031000D03*
D47*
X035750Y030875D02*
X034500Y030875D01*
X033500Y029875D01*
X032000Y029875D01*
X032000Y030000D01*
X032000Y029875D02*
X032000Y026250D01*
X032560Y025690D01*
X033000Y025690D01*
X035250Y033750D02*
X033750Y034560D01*
X032750Y036250D02*
X033750Y036699D01*
X033750Y037801D02*
X032750Y038250D01*
X032250Y007440D02*
X032000Y007250D01*
D48*
X036750Y021250D02*
X038010Y021180D01*
X034000Y025250D02*
X033000Y025690D01*
X033000Y026810D02*
X033440Y027750D01*
X033440Y028690D01*
X034875Y030125D01*
X036750Y030125D01*
X037250Y030750D01*
X037250Y031250D01*
X037000Y031500D01*
X037000Y032040D01*
X037500Y032040D02*
X037500Y032750D01*
X036250Y032750D01*
X035250Y031750D01*
X036500Y031625D02*
X036500Y032040D01*
X037500Y032750D02*
X038500Y032750D01*
X038500Y032040D01*
X038000Y032040D02*
X038000Y031435D01*
X037940Y030500D01*
X038500Y030000D02*
X038250Y029750D01*
X037125Y029750D01*
X037000Y029625D01*
X035250Y029625D01*
X034750Y029125D01*
X034750Y028750D01*
X034560Y027750D01*
X038500Y030000D02*
X038500Y031000D01*
X038750Y031250D01*
X039706Y031250D01*
X039956Y031000D01*
X039060Y030500D02*
X040375Y029875D01*
X039060Y029125D02*
X039060Y028125D01*
X041750Y026625D02*
X042125Y027375D01*
X042125Y030875D01*
X042000Y031000D01*
X042000Y032125D01*
X041375Y032750D01*
X041375Y033625D01*
X041074Y033926D01*
X040500Y033926D01*
X039500Y034460D01*
X039000Y034460D02*
X039000Y035000D01*
X038500Y035000D01*
X038500Y035500D01*
X037750Y036250D01*
X035500Y036250D01*
X035250Y036500D01*
X035250Y037250D01*
X034699Y037801D01*
X033750Y037801D01*
X034250Y037250D02*
X032375Y037250D01*
X032000Y036875D01*
X032000Y035625D01*
X032250Y035375D01*
X034000Y035375D01*
X034750Y034625D01*
X036125Y034625D01*
X036290Y034460D01*
X036500Y034460D01*
X036460Y034500D01*
X036500Y034460D02*
X036500Y033750D01*
X037000Y033750D01*
X037000Y034460D01*
X037500Y034460D02*
X037500Y035000D01*
X037250Y035250D01*
X034750Y035250D01*
X033750Y036500D01*
X033750Y036699D01*
X034250Y037250D02*
X034625Y036875D01*
X034625Y036375D01*
X035125Y035750D01*
X037500Y035750D01*
X038000Y035250D01*
X038000Y034460D01*
X038500Y034460D02*
X038500Y035000D01*
X037500Y034460D02*
X037500Y033750D01*
X037750Y033500D01*
X038750Y033500D01*
X039000Y033250D01*
X039000Y032750D01*
X039000Y032040D01*
X039500Y032040D02*
X039500Y032750D01*
X039000Y032750D01*
X032750Y034669D02*
X032206Y034669D01*
X031500Y035250D01*
X031500Y037375D01*
X032750Y038250D01*
D49*
X030750Y039500D02*
X030750Y034500D01*
X031750Y033500D01*
X031750Y030250D01*
X032000Y030000D01*
X032750Y031331D02*
X033750Y031440D01*
X035250Y031750D01*
X035250Y032750D02*
X033750Y032750D01*
X033750Y033000D01*
X033750Y033440D01*
X033750Y033000D02*
X032750Y033000D01*
X032750Y032669D01*
X032750Y033000D02*
X032750Y033331D01*
X033750Y032750D02*
X033750Y032560D01*
X033750Y034560D02*
X032750Y034669D01*
X030750Y039500D02*
X036250Y039500D01*
X040500Y032824D02*
X040500Y032250D01*
X041294Y031456D01*
X041294Y031000D01*
X040375Y028875D02*
X039060Y029125D01*
X037940Y029125D02*
X035750Y028750D01*
X036000Y025250D01*
X034000Y025250D02*
X032500Y023750D01*
X032500Y022250D01*
X034000Y020750D01*
X035500Y020750D01*
X035500Y021875D01*
X036055Y022430D01*
X038010Y022430D01*
X039010Y023680D02*
X040750Y023750D01*
X040750Y027500D01*
X040375Y027875D01*
X039750Y026625D02*
X039010Y026680D01*
X038010Y027180D02*
X037940Y028125D01*
X038010Y027180D02*
X036750Y027250D01*
X040750Y023750D02*
X040750Y022250D01*
X040750Y019250D02*
X039010Y019180D01*
X038010Y019180D02*
X036750Y019250D01*
X036250Y018000D02*
X035500Y018750D01*
X035500Y020750D01*
X036250Y018000D02*
X036250Y015500D01*
X038250Y015500D02*
X040250Y015500D01*
X040750Y015500D01*
X040750Y017750D01*
X040750Y019250D01*
X040750Y015500D02*
X041301Y015500D01*
X041500Y015301D01*
X041500Y014199D02*
X041301Y014000D01*
X039801Y014000D01*
X038699Y014000D02*
X038750Y012750D01*
X032750Y009750D02*
X032250Y008560D01*
X031560Y008560D01*
X030500Y008500D01*
X029500Y008500D02*
X029500Y011000D01*
X031000Y010690D02*
X030750Y009750D01*
X026250Y014500D02*
X026624Y014874D01*
X026624Y015750D01*
X027750Y017000D01*
X028750Y017690D01*
X027310Y020000D02*
X027310Y020940D01*
X026000Y022250D01*
X023000Y022250D01*
X022750Y022000D01*
X022750Y021250D01*
X021500Y021250D01*
X021250Y021000D01*
X021250Y020000D01*
X021250Y019000D02*
X019000Y019000D01*
X019000Y019500D01*
X019000Y019000D02*
X019000Y018500D01*
X019500Y017250D02*
X020250Y018000D01*
X021250Y018000D01*
X022750Y017060D02*
X022750Y019500D01*
X023250Y020000D01*
X024250Y020000D01*
X021500Y021250D02*
X021500Y021500D01*
X020750Y022250D01*
X017500Y021250D02*
X017500Y018000D01*
X018500Y017000D01*
X019500Y017000D01*
X019500Y017250D01*
X019500Y017000D02*
X019500Y015750D01*
X018500Y014000D01*
X017500Y014500D02*
X017500Y012500D01*
X015624Y012500D01*
X015250Y012126D01*
X015250Y010750D01*
X014957Y009707D01*
X013750Y011000D02*
X013250Y011000D01*
X012900Y010650D01*
X009650Y010650D01*
X007807Y012126D02*
X007681Y012000D01*
X007807Y012126D02*
X012000Y012126D01*
X013000Y012126D01*
X015250Y012126D01*
X017500Y012500D02*
X019000Y012500D01*
X020626Y014126D01*
X020626Y014750D01*
X021374Y014750D02*
X021624Y015940D01*
X021750Y015940D01*
X022750Y015940D02*
X022750Y015500D01*
X023500Y014500D01*
X024500Y014500D02*
X026250Y014500D01*
X024500Y011500D02*
X024500Y009810D01*
X024500Y008690D02*
X023750Y008750D01*
X023440Y008810D01*
X021750Y009750D02*
X020750Y009750D01*
X020250Y009250D01*
X020250Y008000D01*
X020125Y007875D01*
X018500Y004500D02*
X017000Y004500D01*
X017000Y002500D01*
X018500Y002500D01*
X023440Y011500D02*
X023500Y011500D01*
X018500Y015750D02*
X017500Y014500D01*
X015750Y014500D02*
X014250Y014500D01*
X013876Y014624D01*
X013000Y014624D01*
X013000Y013876D02*
X013000Y012874D01*
X012000Y012874D02*
X012000Y013876D01*
X010500Y013750D02*
X010500Y016000D01*
X011250Y016500D01*
X012000Y026500D02*
X013750Y026500D01*
X015250Y028000D01*
X014500Y029500D02*
X016500Y029500D01*
X017250Y029000D01*
X014500Y029500D02*
X013250Y029000D01*
X013250Y028000D01*
X012000Y026500D02*
X011500Y027000D01*
X011500Y029000D01*
X001750Y003982D02*
X001776Y003957D01*
D50*
X018500Y003500D02*
X021125Y003500D01*
X022125Y004500D01*
X025000Y005250D01*
X029750Y002500D02*
X031000Y003750D01*
X031000Y007000D02*
X031000Y007250D01*
X032750Y009750D02*
X032750Y011500D01*
X034000Y012750D01*
X034750Y012750D01*
X039010Y018680D02*
X039010Y019180D01*
X039010Y019680D01*
X039010Y019180D02*
X038010Y019180D01*
X038010Y020180D02*
X038010Y021180D01*
X038010Y022180D01*
X038010Y022430D01*
X038010Y023180D01*
X038010Y022680D01*
X039010Y022680D01*
X039010Y023680D01*
X039010Y022680D02*
X039010Y021680D01*
X039010Y020680D01*
X038010Y023180D02*
X038010Y024180D01*
X038010Y025180D02*
X038010Y025500D01*
X036000Y025250D01*
X035750Y024250D01*
X035635Y024173D01*
X033811Y023311D01*
X038010Y025500D02*
X038010Y025680D01*
X039010Y025680D01*
X039010Y026680D01*
X038010Y026180D02*
X038010Y025680D01*
X039010Y025680D02*
X039010Y024680D01*
X018960Y033553D02*
X017000Y033250D01*
X014750Y031750D02*
X012750Y030750D01*
X008000Y030750D01*
X006406Y029156D01*
X006406Y027272D01*
X015250Y025000D02*
X015250Y024000D01*
X015250Y025000D02*
X017250Y025000D01*
D51*
X017750Y031750D02*
X017000Y033250D01*
X017000Y035250D02*
X025350Y035250D01*
X035635Y024173D02*
X036750Y023500D01*
X034250Y022250D02*
X033811Y023311D01*
X031689Y021189D02*
X031689Y015689D01*
X030750Y014750D01*
X032750Y014750D02*
X033250Y014750D01*
X034000Y015500D01*
X036250Y015500D01*
X036500Y013500D01*
X036500Y011250D01*
X034750Y012750D02*
X035000Y014000D01*
X035000Y017000D02*
X034250Y018250D01*
X034250Y019250D01*
X040250Y012500D02*
X040250Y012250D01*
X037250Y009250D01*
X036500Y009250D01*
X036500Y008500D01*
X033500Y005250D01*
X025000Y005250D01*
X030000Y007250D02*
X030000Y007750D01*
D52*
X039750Y026625D03*
X041750Y026625D03*
D53*
X028500Y028500D02*
X028250Y030750D01*
X027966Y033553D01*
X026269Y035250D01*
X025350Y035250D01*
X025350Y038000D01*
X023250Y030750D02*
X018960Y033553D01*
X019750Y030450D02*
X019750Y029000D01*
X017250Y029000D01*
X016250Y027000D02*
X015250Y028000D01*
X016250Y027000D02*
X018300Y027000D01*
X019750Y024550D01*
X023050Y024550D01*
X023500Y024500D01*
X023000Y026500D02*
X019750Y029000D01*
X023000Y026500D02*
X026500Y026500D01*
X028500Y024500D01*
X023500Y028500D02*
X023250Y030750D01*
X017150Y038000D02*
X015250Y038000D01*
X014500Y037250D01*
X014500Y034500D01*
X013571Y033571D01*
X012902Y033571D01*
X010146Y033571D02*
X009217Y034500D01*
X007500Y034500D01*
X002750Y029750D01*
X002750Y025500D01*
X003750Y024500D01*
X006421Y024500D01*
X008250Y023250D02*
X009875Y024875D01*
X009750Y025000D01*
X009750Y028250D01*
X010000Y025000D02*
X009875Y024875D01*
X010000Y025000D02*
X011250Y025000D01*
X011296Y023271D01*
X009750Y022250D02*
X010250Y021250D01*
X011250Y020500D01*
X012000Y018500D02*
X010000Y018500D01*
X008000Y017000D01*
X007681Y016681D01*
X007681Y012000D01*
X007681Y010650D01*
X004500Y013750D02*
X003744Y012744D01*
X003744Y010650D01*
X001776Y010650D02*
X001776Y014776D01*
X004000Y017000D01*
X004000Y019500D01*
X005500Y021000D01*
X007750Y021000D01*
X008250Y021250D01*
X008250Y023250D01*
X011250Y025000D02*
X011500Y025000D01*
X013250Y025000D01*
X015250Y024000D02*
X015250Y022000D01*
X012000Y018500D01*
X017250Y021500D02*
X017500Y021250D01*
X017250Y021500D02*
X017204Y022229D01*
X016750Y011000D02*
X018500Y011000D01*
X020000Y008000D02*
X015661Y008000D01*
X011618Y003957D01*
X013500Y003250D02*
X016500Y006250D01*
X019750Y006250D01*
X020250Y006000D01*
X022375Y006000D01*
X024625Y007250D01*
X030000Y007250D01*
X031000Y007250D01*
X032000Y007250D01*
X033000Y007250D01*
X034750Y009000D01*
X034750Y010000D01*
X035750Y011250D01*
X036500Y011250D01*
X017000Y002500D02*
X016875Y002375D01*
X016000Y001500D01*
X013500Y001500D01*
X009500Y001500D02*
X005000Y001500D01*
X003750Y002750D01*
X003750Y003951D01*
X003744Y003957D01*
D54*
X009650Y003957D02*
X009650Y003100D01*
X010250Y002500D01*
X012750Y002500D01*
X013500Y003250D01*
X013500Y001500D02*
X009500Y001500D01*
X021750Y008750D02*
X023750Y008750D01*
X023440Y008810D02*
X023440Y011500D01*
X024500Y011500D02*
X025500Y011000D01*
X027750Y010250D02*
X027750Y011750D01*
X030750Y014750D01*
X031000Y011810D02*
X030060Y011810D01*
X029750Y011500D01*
X029500Y011000D01*
X027750Y010250D02*
X026190Y008690D01*
X024500Y008690D01*
X022750Y015940D02*
X021750Y015940D01*
X021250Y016440D01*
X021250Y017000D01*
D55*
X016000Y018500D02*
X016000Y019500D01*
X016000Y018500D02*
X015750Y017750D01*
X015750Y016500D01*
X015750Y015500D02*
X014750Y015500D01*
X012250Y016750D01*
X011250Y016500D01*
X013543Y008293D02*
X010750Y005500D01*
X009650Y005500D01*
X009650Y003957D01*
X009650Y005500D02*
X001750Y005500D01*
X001750Y003982D01*
X020000Y008000D02*
X020125Y007875D01*
X020250Y007750D01*
X021750Y007750D01*
D56*
X040375Y027875D02*
X041250Y027875D01*
X041625Y028250D01*
X041625Y030581D01*
X041294Y031000D01*
X036500Y031625D02*
X035750Y030875D01*
D57*
X024750Y021250D02*
X024250Y020000D01*
X024250Y019000D02*
X025750Y019000D01*
X026190Y020000D01*
X027310Y020000D02*
X027750Y019000D01*
X028750Y018810D01*
X027000Y018000D02*
X027750Y017000D01*
X027000Y018000D02*
X024250Y018000D01*
X024250Y017000D02*
X025750Y017000D01*
X025876Y015750D01*
X020750Y022250D02*
X019250Y022250D01*
X017250Y025000D01*
X007000Y024500D02*
X006421Y024500D01*
X006406Y024516D01*
X012000Y014624D02*
X013000Y014624D01*
X013000Y013876D02*
X012000Y013876D01*
M02*
