G75*
G70*
%OFA0B0*%
%FSLAX24Y24*%
%IPPOS*%
%LPD*%
%AMOC8*
5,1,8,0,0,1.08239X$1,22.5*
%
%ADD10C,0.0050*%
%ADD11C,0.0120*%
%ADD12C,0.0060*%
%ADD13C,0.0100*%
%ADD14R,0.0118X0.0827*%
%ADD15C,0.0040*%
%ADD16R,0.0200X0.1000*%
%ADD17C,0.0200*%
%ADD18R,0.0150X0.0200*%
%ADD19R,0.0200X0.0800*%
%ADD20R,0.0250X0.0200*%
%ADD21C,0.0240*%
%ADD22R,0.0340X0.0240*%
%ADD23C,0.0030*%
%ADD24R,0.0500X0.2000*%
%ADD25C,0.0070*%
%ADD26R,0.0560X0.4160*%
%ADD27C,0.0160*%
%ADD28C,0.0020*%
%ADD29R,0.0150X0.1600*%
%ADD30R,0.0250X0.0450*%
%ADD31R,0.0250X0.1600*%
%ADD32R,0.0500X0.0200*%
%ADD33R,0.1750X0.0200*%
%ADD34R,0.3200X0.0200*%
%ADD35R,0.0100X0.0050*%
%ADD36R,0.1250X0.0050*%
%ADD37R,0.1600X0.0200*%
%ADD38R,0.0800X0.0200*%
%ADD39R,0.0200X0.0750*%
%ADD40C,0.0300*%
%ADD41R,0.0750X0.0300*%
%ADD42R,0.1000X0.0200*%
%ADD43R,0.0300X0.0750*%
%ADD44R,0.0750X0.0200*%
%ADD45C,0.0320*%
%ADD46R,0.0220X0.0320*%
%ADD47R,0.0320X0.0220*%
%ADD48C,0.0200*%
%ADD49R,0.0300X0.4200*%
%ADD50R,0.0200X0.0300*%
%ADD51R,0.0200X0.0700*%
%ADD52R,0.0250X0.1000*%
%ADD53R,0.0250X0.0900*%
%ADD54R,0.0200X0.0150*%
%ADD55R,0.0200X0.0200*%
%ADD56R,0.0700X0.0150*%
%ADD57R,0.0200X0.0550*%
D10*
X000594Y002776D02*
X000594Y011831D01*
X011618Y011831D01*
X012799Y010650D01*
X012799Y002776D01*
X000594Y002776D01*
X010250Y014150D02*
X010550Y014450D01*
X010550Y014525D01*
X010475Y014600D01*
X010325Y014600D01*
X010250Y014525D01*
X010250Y014150D02*
X010550Y014150D01*
X010710Y014300D02*
X010861Y014150D01*
X011011Y014300D01*
X011011Y014600D01*
X011171Y014600D02*
X011396Y014600D01*
X011471Y014525D01*
X011471Y014225D01*
X011396Y014150D01*
X011171Y014150D01*
X011171Y014600D01*
X010710Y014600D02*
X010710Y014300D01*
X011631Y014150D02*
X011931Y014450D01*
X011931Y014525D01*
X011856Y014600D01*
X011706Y014600D01*
X011631Y014525D01*
X011631Y014150D02*
X011931Y014150D01*
X016833Y018150D02*
X017134Y018450D01*
X017134Y018525D01*
X017059Y018600D01*
X016908Y018600D01*
X016833Y018525D01*
X016833Y018150D02*
X017134Y018150D01*
X017294Y018300D02*
X017444Y018150D01*
X017594Y018300D01*
X017594Y018600D01*
X017754Y018600D02*
X017979Y018600D01*
X018054Y018525D01*
X018054Y018225D01*
X017979Y018150D01*
X017754Y018150D01*
X017754Y018600D01*
X017294Y018600D02*
X017294Y018300D01*
X017400Y017575D02*
X017325Y017500D01*
X017400Y017575D02*
X017550Y017575D01*
X017625Y017500D01*
X017625Y017425D01*
X017325Y017125D01*
X017625Y017125D01*
X017785Y017200D02*
X017860Y017125D01*
X018011Y017125D01*
X018086Y017200D01*
X018246Y017200D02*
X018321Y017125D01*
X018471Y017125D01*
X018546Y017200D01*
X018546Y017275D01*
X018471Y017350D01*
X018396Y017350D01*
X018471Y017350D02*
X018546Y017425D01*
X018546Y017500D01*
X018471Y017575D01*
X018321Y017575D01*
X018246Y017500D01*
X018086Y017500D02*
X018011Y017575D01*
X017860Y017575D01*
X017785Y017500D01*
X017785Y017200D01*
X018290Y018150D02*
X018215Y018225D01*
X018290Y018150D02*
X018440Y018150D01*
X018515Y018225D01*
X018515Y018300D01*
X018440Y018375D01*
X018365Y018375D01*
X018440Y018375D02*
X018515Y018450D01*
X018515Y018525D01*
X018440Y018600D01*
X018290Y018600D01*
X018215Y018525D01*
X021833Y016225D02*
X021984Y016375D01*
X021984Y015925D01*
X022134Y015925D02*
X021833Y015925D01*
X022294Y015925D02*
X022294Y016375D01*
X022519Y016375D01*
X022594Y016300D01*
X022594Y016000D01*
X022519Y015925D01*
X022294Y015925D01*
X022754Y015925D02*
X022754Y016225D01*
X022904Y016375D01*
X023054Y016225D01*
X023054Y015925D01*
X023215Y015925D02*
X023515Y015925D01*
X023365Y015925D02*
X023365Y016375D01*
X023215Y016225D01*
X023054Y016150D02*
X022754Y016150D01*
X025425Y015800D02*
X025500Y015875D01*
X025650Y015875D01*
X025725Y015800D01*
X025725Y015725D01*
X025425Y015425D01*
X025725Y015425D01*
X025885Y015500D02*
X025960Y015425D01*
X026111Y015425D01*
X026186Y015500D01*
X026346Y015650D02*
X026646Y015650D01*
X026571Y015425D02*
X026571Y015875D01*
X026346Y015650D01*
X026186Y015800D02*
X026111Y015875D01*
X025960Y015875D01*
X025885Y015800D01*
X025885Y015500D01*
X022390Y013450D02*
X022390Y013000D01*
X022240Y013000D02*
X022540Y013000D01*
X022240Y013300D02*
X022390Y013450D01*
X022079Y013375D02*
X022004Y013450D01*
X021854Y013450D01*
X021779Y013375D01*
X021779Y013075D01*
X021854Y013000D01*
X022004Y013000D01*
X022079Y013075D01*
X021619Y013225D02*
X021544Y013150D01*
X021319Y013150D01*
X021319Y013000D02*
X021319Y013450D01*
X021544Y013450D01*
X021619Y013375D01*
X021619Y013225D01*
X021159Y013000D02*
X020858Y013000D01*
X021009Y013000D02*
X021009Y013450D01*
X020858Y013300D01*
X023100Y008345D02*
X023025Y008270D01*
X023100Y008345D02*
X023250Y008345D01*
X023325Y008270D01*
X023325Y008195D01*
X023250Y008120D01*
X023325Y008045D01*
X023325Y007970D01*
X023250Y007895D01*
X023100Y007895D01*
X023025Y007970D01*
X023175Y008120D02*
X023250Y008120D01*
X023485Y008045D02*
X023636Y007895D01*
X023786Y008045D01*
X023786Y008345D01*
X023946Y008345D02*
X023946Y007895D01*
X024171Y007895D01*
X024246Y007970D01*
X024246Y008270D01*
X024171Y008345D01*
X023946Y008345D01*
X024406Y008270D02*
X024481Y008345D01*
X024631Y008345D01*
X024706Y008270D01*
X024706Y008195D01*
X024406Y007895D01*
X024706Y007895D01*
X023485Y008045D02*
X023485Y008345D01*
X027394Y008275D02*
X027619Y008275D01*
X027694Y008350D01*
X027694Y008650D01*
X027619Y008725D01*
X027394Y008725D01*
X027394Y008275D01*
X027854Y008275D02*
X027854Y008575D01*
X028004Y008725D01*
X028154Y008575D01*
X028154Y008275D01*
X028315Y008275D02*
X028615Y008575D01*
X028615Y008650D01*
X028540Y008725D01*
X028390Y008725D01*
X028315Y008650D01*
X028154Y008500D02*
X027854Y008500D01*
X028315Y008275D02*
X028615Y008275D01*
X031675Y011175D02*
X031975Y011475D01*
X031975Y011550D01*
X031900Y011625D01*
X031750Y011625D01*
X031675Y011550D01*
X031675Y011175D02*
X031975Y011175D01*
X032135Y011250D02*
X032210Y011175D01*
X032361Y011175D01*
X032436Y011250D01*
X032596Y011175D02*
X032896Y011175D01*
X032746Y011175D02*
X032746Y011625D01*
X032596Y011475D01*
X032436Y011550D02*
X032361Y011625D01*
X032210Y011625D01*
X032135Y011550D01*
X032135Y011250D01*
X033056Y011250D02*
X033356Y011550D01*
X033356Y011250D01*
X033281Y011175D01*
X033131Y011175D01*
X033056Y011250D01*
X033056Y011550D01*
X033131Y011625D01*
X033281Y011625D01*
X033356Y011550D01*
X034280Y007782D02*
X034599Y007464D01*
X034705Y007570D02*
X034492Y007358D01*
X034326Y007297D02*
X034326Y007191D01*
X034220Y007085D01*
X034114Y007085D01*
X033901Y007297D01*
X033901Y007404D01*
X034008Y007510D01*
X034114Y007510D01*
X034280Y007570D02*
X034280Y007782D01*
X033788Y007184D02*
X033841Y007131D01*
X033841Y007025D01*
X033947Y007025D01*
X034001Y006972D01*
X034001Y006866D01*
X033894Y006760D01*
X033788Y006760D01*
X033788Y006972D02*
X033841Y007025D01*
X033788Y007184D02*
X033682Y007184D01*
X033576Y007078D01*
X033576Y006972D01*
X040019Y016715D02*
X039944Y016790D01*
X040019Y016715D02*
X040169Y016715D01*
X040244Y016790D01*
X040244Y016865D01*
X040169Y016940D01*
X040094Y016940D01*
X040169Y016940D02*
X040244Y017015D01*
X040244Y017090D01*
X040169Y017165D01*
X040019Y017165D01*
X039944Y017090D01*
X040404Y017165D02*
X040404Y016715D01*
X040404Y016865D02*
X040629Y016865D01*
X040704Y016940D01*
X040704Y017090D01*
X040629Y017165D01*
X040404Y017165D01*
X040554Y016865D02*
X040704Y016715D01*
X040865Y016715D02*
X040865Y016790D01*
X041165Y017090D01*
X041165Y017165D01*
X040865Y017165D01*
X039494Y017812D02*
X039494Y028048D01*
X037526Y028048D01*
X037526Y018402D01*
X038116Y017812D01*
X039494Y017812D01*
X039476Y017823D02*
X039476Y028059D01*
X037508Y028059D01*
X037508Y018413D01*
X038098Y017823D01*
X039476Y017823D01*
X037860Y017825D02*
X037560Y017825D01*
X037560Y017600D01*
X037710Y017675D01*
X037785Y017675D01*
X037860Y017600D01*
X037860Y017450D01*
X037785Y017375D01*
X037635Y017375D01*
X037560Y017450D01*
X037399Y017450D02*
X037324Y017375D01*
X037174Y017375D01*
X037099Y017450D01*
X037099Y017750D01*
X037174Y017825D01*
X037324Y017825D01*
X037399Y017750D01*
X036939Y017750D02*
X036939Y017675D01*
X036864Y017600D01*
X036939Y017525D01*
X036939Y017450D01*
X036864Y017375D01*
X036714Y017375D01*
X036639Y017450D01*
X036789Y017600D02*
X036864Y017600D01*
X036939Y017750D02*
X036864Y017825D01*
X036714Y017825D01*
X036639Y017750D01*
X036745Y018055D02*
X036895Y018205D01*
X036895Y018505D01*
X036595Y018505D02*
X036595Y018205D01*
X036745Y018055D01*
X036434Y018130D02*
X036434Y018430D01*
X036359Y018505D01*
X036209Y018505D01*
X036134Y018430D01*
X036134Y018355D01*
X036209Y018280D01*
X036434Y018280D01*
X036434Y018130D02*
X036359Y018055D01*
X036209Y018055D01*
X036134Y018130D01*
X035899Y018130D02*
X035899Y018505D01*
X035824Y018505D02*
X035974Y018505D01*
X035899Y018130D02*
X035824Y018055D01*
X035749Y018055D01*
X035674Y018130D01*
X035749Y020055D02*
X035899Y020055D01*
X035974Y020130D01*
X035974Y020280D01*
X035824Y020280D01*
X035674Y020130D02*
X035749Y020055D01*
X035674Y020130D02*
X035674Y020430D01*
X035749Y020505D01*
X035899Y020505D01*
X035974Y020430D01*
X036134Y020505D02*
X036434Y020055D01*
X036434Y020505D01*
X036595Y020505D02*
X036595Y020055D01*
X036820Y020055D01*
X036895Y020130D01*
X036895Y020430D01*
X036820Y020505D01*
X036595Y020505D01*
X036134Y020505D02*
X036134Y020055D01*
X035439Y020130D02*
X035439Y020505D01*
X035364Y020505D02*
X035514Y020505D01*
X035439Y020130D02*
X035364Y020055D01*
X035288Y020055D01*
X035213Y020130D01*
X035999Y023055D02*
X036074Y023055D01*
X036149Y023130D01*
X036149Y023505D01*
X036074Y023505D02*
X036224Y023505D01*
X036384Y023505D02*
X036384Y023280D01*
X036534Y023355D01*
X036609Y023355D01*
X036684Y023280D01*
X036684Y023130D01*
X036609Y023055D01*
X036459Y023055D01*
X036384Y023130D01*
X036384Y023505D02*
X036684Y023505D01*
X036845Y023505D02*
X036845Y023205D01*
X036995Y023055D01*
X037145Y023205D01*
X037145Y023505D01*
X035999Y023055D02*
X035924Y023130D01*
X034660Y024500D02*
X034510Y024500D01*
X034435Y024575D01*
X034274Y024575D02*
X034199Y024500D01*
X034049Y024500D01*
X033974Y024575D01*
X033974Y024875D01*
X034049Y024950D01*
X034199Y024950D01*
X034274Y024875D01*
X034435Y024875D02*
X034510Y024950D01*
X034660Y024950D01*
X034735Y024875D01*
X034735Y024800D01*
X034660Y024725D01*
X034735Y024650D01*
X034735Y024575D01*
X034660Y024500D01*
X034660Y024725D02*
X034585Y024725D01*
X033814Y024650D02*
X033814Y024575D01*
X033739Y024500D01*
X033589Y024500D01*
X033514Y024575D01*
X033664Y024725D02*
X033739Y024725D01*
X033814Y024650D01*
X033739Y024725D02*
X033814Y024800D01*
X033814Y024875D01*
X033739Y024950D01*
X033589Y024950D01*
X033514Y024875D01*
X036070Y028120D02*
X036145Y028120D01*
X036220Y028195D01*
X036220Y028570D01*
X036145Y028570D02*
X036295Y028570D01*
X036455Y028570D02*
X036606Y028420D01*
X036756Y028570D01*
X036756Y028120D01*
X036916Y028195D02*
X036991Y028120D01*
X037141Y028120D01*
X037216Y028195D01*
X037216Y028495D01*
X037141Y028570D01*
X036991Y028570D01*
X036916Y028495D01*
X036916Y028195D01*
X037376Y028120D02*
X037376Y028570D01*
X037676Y028120D01*
X037676Y028570D01*
X037534Y029325D02*
X037534Y029775D01*
X037308Y029550D01*
X037609Y029550D01*
X037769Y029475D02*
X037919Y029325D01*
X038069Y029475D01*
X038069Y029775D01*
X038229Y029775D02*
X038529Y029775D01*
X038379Y029775D02*
X038379Y029325D01*
X038690Y029325D02*
X038990Y029325D01*
X038840Y029325D02*
X038840Y029775D01*
X038690Y029625D01*
X037769Y029775D02*
X037769Y029475D01*
X036455Y028570D02*
X036455Y028120D01*
X036070Y028120D02*
X035995Y028195D01*
X034040Y029975D02*
X033965Y029900D01*
X033815Y029900D01*
X033740Y029975D01*
X033579Y029975D02*
X033504Y029900D01*
X033354Y029900D01*
X033279Y029975D01*
X033279Y030275D01*
X033354Y030350D01*
X033504Y030350D01*
X033579Y030275D01*
X033740Y030275D02*
X033815Y030350D01*
X033965Y030350D01*
X034040Y030275D01*
X034040Y030200D01*
X033965Y030125D01*
X034040Y030050D01*
X034040Y029975D01*
X033965Y030125D02*
X033890Y030125D01*
X033119Y030125D02*
X032819Y030125D01*
X033044Y030350D01*
X033044Y029900D01*
X028581Y031781D02*
X028581Y035325D01*
X018344Y035325D01*
X018344Y031781D01*
X028581Y031781D01*
X025446Y030585D02*
X025146Y030585D01*
X025296Y030585D02*
X025296Y031035D01*
X025146Y030885D01*
X024986Y030960D02*
X024986Y030810D01*
X024911Y030735D01*
X024685Y030735D01*
X024685Y030585D02*
X024685Y031035D01*
X024911Y031035D01*
X024986Y030960D01*
X024836Y030735D02*
X024986Y030585D01*
X024525Y030585D02*
X024225Y030585D01*
X024375Y030585D02*
X024375Y031035D01*
X024225Y030885D01*
X019465Y028650D02*
X019390Y028725D01*
X019240Y028725D01*
X019165Y028650D01*
X019004Y028650D02*
X018929Y028725D01*
X018779Y028725D01*
X018704Y028650D01*
X018704Y028350D01*
X018779Y028275D01*
X018929Y028275D01*
X019004Y028350D01*
X019165Y028275D02*
X019465Y028575D01*
X019465Y028650D01*
X019465Y028275D02*
X019165Y028275D01*
X018544Y028275D02*
X018244Y028275D01*
X018394Y028275D02*
X018394Y028725D01*
X018244Y028575D01*
X017840Y030250D02*
X017840Y030700D01*
X017615Y030475D01*
X017915Y030475D01*
X017454Y030325D02*
X017454Y030625D01*
X017379Y030700D01*
X017154Y030700D01*
X017154Y030250D01*
X017379Y030250D01*
X017454Y030325D01*
X016994Y030400D02*
X016994Y030700D01*
X016994Y030400D02*
X016844Y030250D01*
X016694Y030400D01*
X016694Y030700D01*
X016415Y030825D02*
X016340Y030750D01*
X016190Y030750D01*
X016115Y030825D01*
X015954Y030825D02*
X015879Y030750D01*
X015654Y030750D01*
X015654Y031200D01*
X015879Y031200D01*
X015954Y031125D01*
X015954Y030825D01*
X016115Y031125D02*
X016190Y031200D01*
X016340Y031200D01*
X016415Y031125D01*
X016415Y031050D01*
X016340Y030975D01*
X016415Y030900D01*
X016415Y030825D01*
X016384Y030700D02*
X016384Y030250D01*
X016534Y030250D02*
X016233Y030250D01*
X016233Y030550D02*
X016384Y030700D01*
X016340Y030975D02*
X016265Y030975D01*
X015494Y030900D02*
X015344Y030750D01*
X015194Y030900D01*
X015194Y031200D01*
X015494Y031200D02*
X015494Y030900D01*
X015034Y030750D02*
X014733Y030750D01*
X014884Y030750D02*
X014884Y031200D01*
X014733Y031050D01*
X013492Y031799D02*
X013492Y036524D01*
X015067Y036524D01*
X015854Y039870D01*
X016248Y039673D02*
X016248Y039280D01*
X013492Y036524D02*
X007783Y036524D01*
X006209Y036524D01*
X005421Y039870D01*
X007783Y036524D02*
X007783Y031799D01*
X013492Y031799D01*
X013256Y031000D02*
X013256Y030550D01*
X013106Y030550D02*
X013406Y030550D01*
X013106Y030850D02*
X013256Y031000D01*
X012946Y030925D02*
X012946Y030625D01*
X012871Y030550D01*
X012646Y030550D01*
X012646Y031000D01*
X012871Y031000D01*
X012946Y030925D01*
X012486Y031000D02*
X012486Y030700D01*
X012336Y030550D01*
X012185Y030700D01*
X012185Y031000D01*
X011875Y031000D02*
X011875Y030550D01*
X011725Y030550D02*
X012025Y030550D01*
X011725Y030850D02*
X011875Y031000D01*
X014525Y032425D02*
X014825Y032425D01*
X014675Y032425D02*
X014675Y032875D01*
X014525Y032725D01*
X014985Y032875D02*
X015286Y032875D01*
X015136Y032875D02*
X015136Y032425D01*
X015446Y032425D02*
X015446Y032875D01*
X015446Y032650D02*
X015746Y032650D01*
X015906Y032725D02*
X016056Y032875D01*
X016056Y032425D01*
X015906Y032425D02*
X016206Y032425D01*
X015746Y032425D02*
X015746Y032875D01*
X015715Y034275D02*
X015715Y034725D01*
X015565Y034575D01*
X015404Y034650D02*
X015104Y034350D01*
X015104Y034275D01*
X015404Y034275D01*
X015565Y034275D02*
X015865Y034275D01*
X015404Y034650D02*
X015404Y034725D01*
X015104Y034725D01*
X014944Y034650D02*
X014944Y034500D01*
X014869Y034425D01*
X014644Y034425D01*
X014794Y034425D02*
X014944Y034275D01*
X014644Y034275D02*
X014644Y034725D01*
X014869Y034725D01*
X014944Y034650D01*
X014484Y034275D02*
X014183Y034275D01*
X014334Y034275D02*
X014334Y034725D01*
X014183Y034575D01*
X008177Y027862D02*
X003453Y027862D01*
X003453Y022154D01*
X008177Y022154D01*
X008177Y027862D01*
X009144Y025290D02*
X009069Y025215D01*
X009144Y025290D02*
X009294Y025290D01*
X009369Y025215D01*
X009369Y025140D01*
X009069Y024840D01*
X009369Y024840D01*
X009529Y024840D02*
X009529Y025290D01*
X009754Y025290D01*
X009829Y025215D01*
X009829Y025065D01*
X009754Y024990D01*
X009529Y024990D01*
X009679Y024990D02*
X009829Y024840D01*
X009990Y024915D02*
X010065Y024840D01*
X010215Y024840D01*
X010290Y024915D01*
X010290Y024990D01*
X010215Y025065D01*
X010140Y025065D01*
X010215Y025065D02*
X010290Y025140D01*
X010290Y025215D01*
X010215Y025290D01*
X010065Y025290D01*
X009990Y025215D01*
X010733Y026500D02*
X011034Y026500D01*
X010884Y026500D02*
X010884Y026950D01*
X010733Y026800D01*
X011194Y026950D02*
X011194Y026650D01*
X011344Y026500D01*
X011494Y026650D01*
X011494Y026950D01*
X011654Y026950D02*
X011879Y026950D01*
X011954Y026875D01*
X011954Y026575D01*
X011879Y026500D01*
X011654Y026500D01*
X011654Y026950D01*
X012115Y026875D02*
X012190Y026950D01*
X012340Y026950D01*
X012415Y026875D01*
X012415Y026800D01*
X012115Y026500D01*
X012415Y026500D01*
X013631Y026287D02*
X014056Y026287D01*
X014109Y026340D01*
X014109Y026446D01*
X014003Y026552D01*
X013897Y026552D01*
X013631Y026287D02*
X013844Y026075D01*
X013957Y025961D02*
X014275Y026280D01*
X014435Y026121D01*
X014435Y026015D01*
X014328Y025908D01*
X014222Y025908D01*
X014063Y026068D01*
X014169Y025961D02*
X014169Y025749D01*
X014282Y025636D02*
X014495Y025424D01*
X014389Y025530D02*
X014707Y025848D01*
X014495Y025848D01*
X011375Y022590D02*
X011375Y022290D01*
X011075Y022590D01*
X011000Y022590D01*
X010925Y022515D01*
X010925Y022365D01*
X011000Y022290D01*
X011000Y022129D02*
X010925Y022054D01*
X010925Y021904D01*
X011000Y021829D01*
X011300Y021829D01*
X011375Y021904D01*
X011375Y022054D01*
X011300Y022129D01*
X011375Y021669D02*
X011375Y021369D01*
X011075Y021669D01*
X011000Y021669D01*
X010925Y021594D01*
X010925Y021444D01*
X011000Y021369D01*
X012328Y019350D02*
X012252Y019275D01*
X012328Y019350D02*
X012478Y019350D01*
X012553Y019275D01*
X012553Y019200D01*
X012252Y018900D01*
X012553Y018900D01*
X012713Y018900D02*
X012713Y019350D01*
X012938Y019350D01*
X013013Y019275D01*
X013013Y019125D01*
X012938Y019050D01*
X012713Y019050D01*
X012863Y019050D02*
X013013Y018900D01*
X013173Y018900D02*
X013474Y018900D01*
X013323Y018900D02*
X013323Y019350D01*
X013173Y019200D01*
X013634Y019200D02*
X013784Y019350D01*
X013784Y018900D01*
X013634Y018900D02*
X013934Y018900D01*
X018783Y022825D02*
X019084Y023125D01*
X019084Y023200D01*
X019009Y023275D01*
X018858Y023275D01*
X018783Y023200D01*
X018783Y022825D02*
X019084Y022825D01*
X019244Y022975D02*
X019244Y023275D01*
X019244Y022975D02*
X019394Y022825D01*
X019544Y022975D01*
X019544Y023275D01*
X019704Y023275D02*
X019704Y022825D01*
X019929Y022825D01*
X020004Y022900D01*
X020004Y023200D01*
X019929Y023275D01*
X019704Y023275D01*
X020165Y023050D02*
X020465Y023050D01*
X020390Y022825D02*
X020390Y023275D01*
X020165Y023050D01*
X022994Y022500D02*
X023069Y022575D01*
X023219Y022575D01*
X023294Y022500D01*
X023294Y022425D01*
X022994Y022125D01*
X023294Y022125D01*
X023454Y022200D02*
X023529Y022125D01*
X023679Y022125D01*
X023754Y022200D01*
X023915Y022200D02*
X023990Y022125D01*
X024140Y022125D01*
X024215Y022200D01*
X024215Y022350D01*
X024140Y022425D01*
X024065Y022425D01*
X023915Y022350D01*
X023915Y022575D01*
X024215Y022575D01*
X023754Y022500D02*
X023679Y022575D01*
X023529Y022575D01*
X023454Y022500D01*
X023454Y022200D01*
X025675Y021550D02*
X025750Y021625D01*
X025900Y021625D01*
X025975Y021550D01*
X025975Y021475D01*
X025675Y021175D01*
X025975Y021175D01*
X026135Y021250D02*
X026210Y021175D01*
X026361Y021175D01*
X026436Y021250D01*
X026596Y021250D02*
X026596Y021175D01*
X026596Y021250D02*
X026896Y021550D01*
X026896Y021625D01*
X026596Y021625D01*
X026436Y021550D02*
X026361Y021625D01*
X026210Y021625D01*
X026135Y021550D01*
X026135Y021250D01*
X040425Y027951D02*
X040425Y028447D01*
X040425Y028553D01*
X040425Y029447D01*
X040425Y029553D01*
X040425Y030049D01*
X041025Y029825D02*
X041025Y028175D01*
X040425Y030049D02*
X040361Y030050D01*
X040297Y030047D01*
X040233Y030040D01*
X040170Y030030D01*
X040108Y030015D01*
X040047Y029997D01*
X039986Y029975D01*
X039928Y029950D01*
X040813Y029954D02*
X040869Y029927D01*
X040923Y029896D01*
X040975Y029862D01*
X041025Y029825D01*
X039928Y029950D02*
X039871Y029921D01*
X039815Y029888D01*
X039762Y029853D01*
X039711Y029813D01*
X039663Y029771D01*
X039617Y029726D01*
X039574Y029679D01*
X039534Y029629D01*
X039497Y029576D01*
X039464Y029521D01*
X039433Y029465D01*
X039407Y029406D01*
X039384Y029346D01*
X039364Y029285D01*
X039349Y029223D01*
X039337Y029160D01*
X039329Y029096D01*
X039325Y029032D01*
X039325Y028968D01*
X039329Y028904D01*
X039337Y028840D01*
X039349Y028777D01*
X039364Y028715D01*
X039384Y028654D01*
X039407Y028594D01*
X039433Y028535D01*
X039464Y028479D01*
X039497Y028424D01*
X039534Y028371D01*
X039574Y028321D01*
X039617Y028274D01*
X039663Y028229D01*
X039711Y028187D01*
X039762Y028147D01*
X039815Y028112D01*
X039871Y028079D01*
X039928Y028050D01*
X040822Y028050D02*
X040876Y028077D01*
X040927Y028107D01*
X040977Y028140D01*
X041025Y028175D01*
X040425Y027951D02*
X040361Y027950D01*
X040297Y027953D01*
X040233Y027960D01*
X040170Y027970D01*
X040108Y027985D01*
X040047Y028003D01*
X039986Y028025D01*
X039928Y028050D01*
X040425Y027951D02*
X040484Y027956D01*
X040542Y027963D01*
X040600Y027974D01*
X040657Y027989D01*
X040713Y028006D01*
X040768Y028026D01*
X040822Y028050D01*
X040822Y029950D02*
X040768Y029974D01*
X040713Y029994D01*
X040657Y030011D01*
X040600Y030026D01*
X040542Y030037D01*
X040484Y030044D01*
X040425Y030049D01*
X031840Y037125D02*
X031840Y037425D01*
X031690Y037575D01*
X031540Y037425D01*
X031540Y037125D01*
X031379Y037125D02*
X031079Y037125D01*
X031379Y037425D01*
X031379Y037500D01*
X031304Y037575D01*
X031154Y037575D01*
X031079Y037500D01*
X030919Y037500D02*
X030844Y037575D01*
X030694Y037575D01*
X030619Y037500D01*
X030619Y037200D01*
X030694Y037125D01*
X030844Y037125D01*
X030919Y037200D01*
X030459Y037350D02*
X030158Y037350D01*
X030384Y037575D01*
X030384Y037125D01*
X031540Y037350D02*
X031840Y037350D01*
X040650Y021731D02*
X040725Y021731D01*
X040800Y021656D01*
X040875Y021731D01*
X040950Y021731D01*
X041025Y021656D01*
X041025Y021506D01*
X040950Y021431D01*
X040950Y021271D02*
X040650Y021271D01*
X040575Y021196D01*
X040575Y020971D01*
X041025Y020971D01*
X041025Y021196D01*
X040950Y021271D01*
X040650Y021431D02*
X040575Y021506D01*
X040575Y021656D01*
X040650Y021731D01*
X040800Y021656D02*
X040800Y021581D01*
X040875Y020811D02*
X040575Y020811D01*
X040875Y020811D02*
X041025Y020661D01*
X040875Y020510D01*
X040575Y020510D01*
X040650Y020350D02*
X040725Y020350D01*
X040800Y020275D01*
X040875Y020350D01*
X040950Y020350D01*
X041025Y020275D01*
X041025Y020125D01*
X040950Y020050D01*
X040800Y020200D02*
X040800Y020275D01*
X040650Y020350D02*
X040575Y020275D01*
X040575Y020125D01*
X040650Y020050D01*
X016615Y003405D02*
X016315Y003405D01*
X016465Y003405D02*
X016465Y003855D01*
X016315Y003705D01*
X016154Y003780D02*
X016079Y003855D01*
X015854Y003855D01*
X015854Y003405D01*
X016079Y003405D01*
X016154Y003480D01*
X016154Y003780D01*
X015694Y003855D02*
X015694Y003555D01*
X015544Y003405D01*
X015394Y003555D01*
X015394Y003855D01*
X015234Y003780D02*
X015234Y003705D01*
X015159Y003630D01*
X015234Y003555D01*
X015234Y003480D01*
X015159Y003405D01*
X015008Y003405D01*
X014933Y003480D01*
X015084Y003630D02*
X015159Y003630D01*
X015234Y003780D02*
X015159Y003855D01*
X015008Y003855D01*
X014933Y003780D01*
X014857Y006201D02*
X014557Y006502D01*
X014482Y006502D01*
X014407Y006427D01*
X014407Y006276D01*
X014482Y006201D01*
X014857Y006201D02*
X014857Y006502D01*
X014782Y006662D02*
X014857Y006737D01*
X014857Y006887D01*
X014782Y006962D01*
X014857Y007122D02*
X014857Y007422D01*
X014857Y007272D02*
X014407Y007272D01*
X014557Y007122D01*
X014482Y006962D02*
X014407Y006887D01*
X014407Y006737D01*
X014482Y006662D01*
X014782Y006662D01*
X014857Y007582D02*
X014857Y007883D01*
X014857Y007733D02*
X014407Y007733D01*
X014557Y007582D01*
D11*
X026130Y016250D02*
X026130Y016500D01*
X026130Y016750D01*
X026380Y016750D02*
X026380Y016500D01*
X026380Y016250D01*
X026880Y020250D02*
X026880Y020500D01*
X026880Y020750D01*
X027130Y020750D02*
X027130Y020500D01*
X027130Y020250D01*
X023870Y021000D02*
X023870Y021250D01*
X023870Y021500D01*
X023620Y021500D02*
X023620Y021250D01*
X023620Y021000D01*
X021500Y022750D02*
X021500Y029750D01*
X030500Y029750D01*
X030500Y022750D01*
X021500Y022750D01*
X024000Y024250D02*
X025000Y024250D01*
X025044Y024252D01*
X025087Y024258D01*
X025129Y024267D01*
X025171Y024280D01*
X025211Y024297D01*
X025250Y024317D01*
X025287Y024340D01*
X025321Y024367D01*
X025354Y024396D01*
X025383Y024429D01*
X025410Y024463D01*
X025433Y024500D01*
X025453Y024539D01*
X025470Y024579D01*
X025483Y024621D01*
X025492Y024663D01*
X025498Y024706D01*
X025500Y024750D01*
X025498Y024794D01*
X025492Y024837D01*
X025483Y024879D01*
X025470Y024921D01*
X025453Y024961D01*
X025433Y025000D01*
X025410Y025037D01*
X025383Y025071D01*
X025354Y025104D01*
X025321Y025133D01*
X025287Y025160D01*
X025250Y025183D01*
X025211Y025203D01*
X025171Y025220D01*
X025129Y025233D01*
X025087Y025242D01*
X025044Y025248D01*
X025000Y025250D01*
X025044Y025252D01*
X025087Y025258D01*
X025129Y025267D01*
X025171Y025280D01*
X025211Y025297D01*
X025250Y025317D01*
X025287Y025340D01*
X025321Y025367D01*
X025354Y025396D01*
X025383Y025429D01*
X025410Y025463D01*
X025433Y025500D01*
X025453Y025539D01*
X025470Y025579D01*
X025483Y025621D01*
X025492Y025663D01*
X025498Y025706D01*
X025500Y025750D01*
X025498Y025794D01*
X025492Y025837D01*
X025483Y025879D01*
X025470Y025921D01*
X025453Y025961D01*
X025433Y026000D01*
X025410Y026037D01*
X025383Y026071D01*
X025354Y026104D01*
X025321Y026133D01*
X025287Y026160D01*
X025250Y026183D01*
X025211Y026203D01*
X025171Y026220D01*
X025129Y026233D01*
X025087Y026242D01*
X025044Y026248D01*
X025000Y026250D01*
X025044Y026252D01*
X025087Y026258D01*
X025129Y026267D01*
X025171Y026280D01*
X025211Y026297D01*
X025250Y026317D01*
X025287Y026340D01*
X025321Y026367D01*
X025354Y026396D01*
X025383Y026429D01*
X025410Y026463D01*
X025433Y026500D01*
X025453Y026539D01*
X025470Y026579D01*
X025483Y026621D01*
X025492Y026663D01*
X025498Y026706D01*
X025500Y026750D01*
X025498Y026794D01*
X025492Y026837D01*
X025483Y026879D01*
X025470Y026921D01*
X025453Y026961D01*
X025433Y027000D01*
X025410Y027037D01*
X025383Y027071D01*
X025354Y027104D01*
X025321Y027133D01*
X025287Y027160D01*
X025250Y027183D01*
X025211Y027203D01*
X025171Y027220D01*
X025129Y027233D01*
X025087Y027242D01*
X025044Y027248D01*
X025000Y027250D01*
X025044Y027252D01*
X025087Y027258D01*
X025129Y027267D01*
X025171Y027280D01*
X025211Y027297D01*
X025250Y027317D01*
X025287Y027340D01*
X025321Y027367D01*
X025354Y027396D01*
X025383Y027429D01*
X025410Y027463D01*
X025433Y027500D01*
X025453Y027539D01*
X025470Y027579D01*
X025483Y027621D01*
X025492Y027663D01*
X025498Y027706D01*
X025500Y027750D01*
X025498Y027794D01*
X025492Y027837D01*
X025483Y027879D01*
X025470Y027921D01*
X025453Y027961D01*
X025433Y028000D01*
X025410Y028037D01*
X025383Y028071D01*
X025354Y028104D01*
X025321Y028133D01*
X025287Y028160D01*
X025250Y028183D01*
X025211Y028203D01*
X025171Y028220D01*
X025129Y028233D01*
X025087Y028242D01*
X025044Y028248D01*
X025000Y028250D01*
X024000Y028250D01*
X026000Y028250D02*
X026000Y024250D01*
X027000Y024250D02*
X028000Y024250D01*
X027000Y024250D02*
X026956Y024252D01*
X026913Y024258D01*
X026871Y024267D01*
X026829Y024280D01*
X026789Y024297D01*
X026750Y024317D01*
X026713Y024340D01*
X026679Y024367D01*
X026646Y024396D01*
X026617Y024429D01*
X026590Y024463D01*
X026567Y024500D01*
X026547Y024539D01*
X026530Y024579D01*
X026517Y024621D01*
X026508Y024663D01*
X026502Y024706D01*
X026500Y024750D01*
X026502Y024794D01*
X026508Y024837D01*
X026517Y024879D01*
X026530Y024921D01*
X026547Y024961D01*
X026567Y025000D01*
X026590Y025037D01*
X026617Y025071D01*
X026646Y025104D01*
X026679Y025133D01*
X026713Y025160D01*
X026750Y025183D01*
X026789Y025203D01*
X026829Y025220D01*
X026871Y025233D01*
X026913Y025242D01*
X026956Y025248D01*
X027000Y025250D01*
X026956Y025252D01*
X026913Y025258D01*
X026871Y025267D01*
X026829Y025280D01*
X026789Y025297D01*
X026750Y025317D01*
X026713Y025340D01*
X026679Y025367D01*
X026646Y025396D01*
X026617Y025429D01*
X026590Y025463D01*
X026567Y025500D01*
X026547Y025539D01*
X026530Y025579D01*
X026517Y025621D01*
X026508Y025663D01*
X026502Y025706D01*
X026500Y025750D01*
X026502Y025794D01*
X026508Y025837D01*
X026517Y025879D01*
X026530Y025921D01*
X026547Y025961D01*
X026567Y026000D01*
X026590Y026037D01*
X026617Y026071D01*
X026646Y026104D01*
X026679Y026133D01*
X026713Y026160D01*
X026750Y026183D01*
X026789Y026203D01*
X026829Y026220D01*
X026871Y026233D01*
X026913Y026242D01*
X026956Y026248D01*
X027000Y026250D01*
X026956Y026252D01*
X026913Y026258D01*
X026871Y026267D01*
X026829Y026280D01*
X026789Y026297D01*
X026750Y026317D01*
X026713Y026340D01*
X026679Y026367D01*
X026646Y026396D01*
X026617Y026429D01*
X026590Y026463D01*
X026567Y026500D01*
X026547Y026539D01*
X026530Y026579D01*
X026517Y026621D01*
X026508Y026663D01*
X026502Y026706D01*
X026500Y026750D01*
X026502Y026794D01*
X026508Y026837D01*
X026517Y026879D01*
X026530Y026921D01*
X026547Y026961D01*
X026567Y027000D01*
X026590Y027037D01*
X026617Y027071D01*
X026646Y027104D01*
X026679Y027133D01*
X026713Y027160D01*
X026750Y027183D01*
X026789Y027203D01*
X026829Y027220D01*
X026871Y027233D01*
X026913Y027242D01*
X026956Y027248D01*
X027000Y027250D01*
X026956Y027252D01*
X026913Y027258D01*
X026871Y027267D01*
X026829Y027280D01*
X026789Y027297D01*
X026750Y027317D01*
X026713Y027340D01*
X026679Y027367D01*
X026646Y027396D01*
X026617Y027429D01*
X026590Y027463D01*
X026567Y027500D01*
X026547Y027539D01*
X026530Y027579D01*
X026517Y027621D01*
X026508Y027663D01*
X026502Y027706D01*
X026500Y027750D01*
X026502Y027794D01*
X026508Y027837D01*
X026517Y027879D01*
X026530Y027921D01*
X026547Y027961D01*
X026567Y028000D01*
X026590Y028037D01*
X026617Y028071D01*
X026646Y028104D01*
X026679Y028133D01*
X026713Y028160D01*
X026750Y028183D01*
X026789Y028203D01*
X026829Y028220D01*
X026871Y028233D01*
X026913Y028242D01*
X026956Y028248D01*
X027000Y028250D01*
X028000Y028250D01*
X032500Y037130D02*
X032750Y037130D01*
X033000Y037130D01*
X033000Y037380D02*
X032750Y037380D01*
X032500Y037380D01*
X031870Y010000D02*
X031870Y009750D01*
X031870Y009500D01*
X031620Y009500D02*
X031620Y009750D01*
X031620Y010000D01*
D12*
X031620Y009750D02*
X031150Y009750D01*
X030825Y009150D02*
X029175Y009150D01*
X029113Y008600D02*
X028955Y008600D01*
X029175Y009150D02*
X029138Y009099D01*
X029103Y009046D01*
X029071Y008990D01*
X029043Y008933D01*
X029019Y008874D01*
X028998Y008814D01*
X028981Y008753D01*
X028967Y008691D01*
X028958Y008628D01*
X028952Y008565D01*
X028950Y008501D01*
X028952Y008437D01*
X028958Y008374D01*
X028967Y008311D01*
X028980Y008249D01*
X028998Y008188D01*
X029018Y008128D01*
X029043Y008069D01*
X029070Y008012D01*
X029102Y007956D01*
X029136Y007903D01*
X029174Y007852D01*
X029215Y007803D01*
X029259Y007757D01*
X029305Y007713D01*
X029354Y007672D01*
X029405Y007635D01*
X029459Y007600D01*
X029514Y007569D01*
X029571Y007541D01*
X029630Y007517D01*
X029690Y007497D01*
X029751Y007480D01*
X029812Y007467D01*
X029875Y007458D01*
X029937Y007452D01*
X030000Y007450D01*
X030063Y007452D01*
X030125Y007458D01*
X030188Y007467D01*
X030249Y007480D01*
X030310Y007497D01*
X030370Y007517D01*
X030429Y007541D01*
X030486Y007569D01*
X030541Y007600D01*
X030595Y007635D01*
X030646Y007672D01*
X030695Y007713D01*
X030741Y007757D01*
X030785Y007803D01*
X030826Y007852D01*
X030864Y007903D01*
X030898Y007956D01*
X030929Y008012D01*
X030957Y008069D01*
X030982Y008128D01*
X031002Y008188D01*
X031020Y008249D01*
X031033Y008311D01*
X031042Y008374D01*
X031048Y008437D01*
X031050Y008501D01*
X031048Y008565D01*
X031042Y008628D01*
X031033Y008691D01*
X031019Y008753D01*
X031002Y008814D01*
X030981Y008874D01*
X030957Y008933D01*
X030929Y008990D01*
X030897Y009046D01*
X030862Y009099D01*
X030825Y009150D01*
X030400Y009250D02*
X033100Y009250D01*
X033117Y009252D01*
X033134Y009256D01*
X033150Y009263D01*
X033164Y009273D01*
X033177Y009286D01*
X033187Y009300D01*
X033194Y009316D01*
X033198Y009333D01*
X033200Y009350D01*
X033200Y010150D01*
X033198Y010167D01*
X033194Y010184D01*
X033187Y010200D01*
X033177Y010214D01*
X033164Y010227D01*
X033150Y010237D01*
X033134Y010244D01*
X033117Y010248D01*
X033100Y010250D01*
X030400Y010250D01*
X030383Y010248D01*
X030366Y010244D01*
X030350Y010237D01*
X030336Y010227D01*
X030323Y010214D01*
X030313Y010200D01*
X030306Y010184D01*
X030302Y010167D01*
X030300Y010150D01*
X030300Y009350D01*
X030302Y009333D01*
X030306Y009316D01*
X030313Y009300D01*
X030323Y009286D01*
X030336Y009273D01*
X030350Y009263D01*
X030366Y009256D01*
X030383Y009252D01*
X030400Y009250D01*
X030887Y008600D02*
X031045Y008600D01*
X031870Y009750D02*
X032350Y009750D01*
X035500Y012400D02*
X035500Y013100D01*
X035502Y013117D01*
X035506Y013134D01*
X035513Y013150D01*
X035523Y013164D01*
X035536Y013177D01*
X035550Y013187D01*
X035566Y013194D01*
X035583Y013198D01*
X035600Y013200D01*
X035750Y013200D01*
X035800Y013150D01*
X037700Y013150D01*
X037750Y013200D01*
X037900Y013200D01*
X037917Y013198D01*
X037934Y013194D01*
X037950Y013187D01*
X037964Y013177D01*
X037977Y013164D01*
X037987Y013150D01*
X037994Y013134D01*
X037998Y013117D01*
X038000Y013100D01*
X038000Y012400D01*
X037998Y012383D01*
X037994Y012366D01*
X037987Y012350D01*
X037977Y012336D01*
X037964Y012323D01*
X037950Y012313D01*
X037934Y012306D01*
X037917Y012302D01*
X037900Y012300D01*
X037750Y012300D01*
X037700Y012350D01*
X035800Y012350D01*
X035750Y012300D01*
X035600Y012300D01*
X035583Y012302D01*
X035566Y012306D01*
X035550Y012313D01*
X035536Y012323D01*
X035523Y012336D01*
X035513Y012350D01*
X035506Y012366D01*
X035502Y012383D01*
X035500Y012400D01*
X036040Y010710D02*
X036182Y010568D01*
X036323Y010427D01*
X034500Y010250D02*
X034502Y010348D01*
X034510Y010446D01*
X034522Y010543D01*
X034538Y010640D01*
X034560Y010736D01*
X034586Y010831D01*
X034617Y010924D01*
X034652Y011015D01*
X034692Y011105D01*
X034736Y011193D01*
X034785Y011278D01*
X034837Y011361D01*
X034894Y011441D01*
X034954Y011519D01*
X035018Y011593D01*
X035086Y011664D01*
X035157Y011732D01*
X035231Y011796D01*
X035309Y011856D01*
X035389Y011913D01*
X035472Y011965D01*
X035557Y012014D01*
X035645Y012058D01*
X035735Y012098D01*
X035826Y012133D01*
X035919Y012164D01*
X036014Y012190D01*
X036110Y012212D01*
X036207Y012228D01*
X036304Y012240D01*
X036402Y012248D01*
X036500Y012250D01*
X036598Y012248D01*
X036696Y012240D01*
X036793Y012228D01*
X036890Y012212D01*
X036986Y012190D01*
X037081Y012164D01*
X037174Y012133D01*
X037265Y012098D01*
X037355Y012058D01*
X037443Y012014D01*
X037528Y011965D01*
X037611Y011913D01*
X037691Y011856D01*
X037769Y011796D01*
X037843Y011732D01*
X037914Y011664D01*
X037982Y011593D01*
X038046Y011519D01*
X038106Y011441D01*
X038163Y011361D01*
X038215Y011278D01*
X038264Y011193D01*
X038308Y011105D01*
X038348Y011015D01*
X038383Y010924D01*
X038414Y010831D01*
X038440Y010736D01*
X038462Y010640D01*
X038478Y010543D01*
X038490Y010446D01*
X038498Y010348D01*
X038500Y010250D01*
X038498Y010152D01*
X038490Y010054D01*
X038478Y009957D01*
X038462Y009860D01*
X038440Y009764D01*
X038414Y009669D01*
X038383Y009576D01*
X038348Y009485D01*
X038308Y009395D01*
X038264Y009307D01*
X038215Y009222D01*
X038163Y009139D01*
X038106Y009059D01*
X038046Y008981D01*
X037982Y008907D01*
X037914Y008836D01*
X037843Y008768D01*
X037769Y008704D01*
X037691Y008644D01*
X037611Y008587D01*
X037528Y008535D01*
X037443Y008486D01*
X037355Y008442D01*
X037265Y008402D01*
X037174Y008367D01*
X037081Y008336D01*
X036986Y008310D01*
X036890Y008288D01*
X036793Y008272D01*
X036696Y008260D01*
X036598Y008252D01*
X036500Y008250D01*
X036402Y008252D01*
X036304Y008260D01*
X036207Y008272D01*
X036110Y008288D01*
X036014Y008310D01*
X035919Y008336D01*
X035826Y008367D01*
X035735Y008402D01*
X035645Y008442D01*
X035557Y008486D01*
X035472Y008535D01*
X035389Y008587D01*
X035309Y008644D01*
X035231Y008704D01*
X035157Y008768D01*
X035086Y008836D01*
X035018Y008907D01*
X034954Y008981D01*
X034894Y009059D01*
X034837Y009139D01*
X034785Y009222D01*
X034736Y009307D01*
X034692Y009395D01*
X034652Y009485D01*
X034617Y009576D01*
X034586Y009669D01*
X034560Y009764D01*
X034538Y009860D01*
X034522Y009957D01*
X034510Y010054D01*
X034502Y010152D01*
X034500Y010250D01*
X036253Y009861D02*
X036429Y009684D01*
X036747Y010003D01*
X037066Y010321D01*
X036889Y010497D01*
X036253Y009861D01*
X036747Y010003D02*
X036818Y009932D01*
X036960Y009790D01*
X037101Y008942D02*
X037313Y008730D01*
X037101Y008730D02*
X037313Y008942D01*
X039793Y013049D02*
X040707Y013049D01*
X040724Y013051D01*
X040741Y013055D01*
X040757Y013062D01*
X040771Y013072D01*
X040784Y013085D01*
X040794Y013099D01*
X040801Y013115D01*
X040805Y013132D01*
X040807Y013149D01*
X040807Y013299D01*
X040757Y013349D01*
X040757Y014651D01*
X040807Y014701D01*
X040807Y014851D01*
X040805Y014868D01*
X040801Y014885D01*
X040794Y014901D01*
X040784Y014915D01*
X040771Y014928D01*
X040757Y014938D01*
X040741Y014945D01*
X040724Y014949D01*
X040707Y014951D01*
X039793Y014951D01*
X039776Y014949D01*
X039759Y014945D01*
X039743Y014938D01*
X039729Y014928D01*
X039716Y014915D01*
X039706Y014901D01*
X039699Y014885D01*
X039695Y014868D01*
X039693Y014851D01*
X039693Y014701D01*
X039743Y014651D01*
X039743Y013349D01*
X039693Y013299D01*
X039693Y013149D01*
X039695Y013132D01*
X039699Y013115D01*
X039706Y013099D01*
X039716Y013085D01*
X039729Y013072D01*
X039743Y013062D01*
X039759Y013055D01*
X039776Y013051D01*
X039793Y013049D01*
X038550Y014700D02*
X038550Y015000D01*
X038700Y014850D02*
X038400Y014850D01*
X037900Y015500D02*
X037700Y015500D01*
X037600Y015500D01*
X037600Y015050D01*
X037350Y015050D01*
X037350Y015950D01*
X037600Y015950D01*
X037600Y015500D01*
X035500Y015500D02*
X035502Y015586D01*
X035508Y015672D01*
X035519Y015757D01*
X035534Y015841D01*
X035552Y015925D01*
X035575Y016008D01*
X035602Y016090D01*
X035633Y016170D01*
X035668Y016248D01*
X035707Y016325D01*
X035749Y016400D01*
X035795Y016472D01*
X035844Y016542D01*
X035897Y016610D01*
X035953Y016675D01*
X036013Y016737D01*
X036075Y016797D01*
X036140Y016853D01*
X036208Y016906D01*
X036278Y016955D01*
X036350Y017001D01*
X036425Y017043D01*
X036502Y017082D01*
X036580Y017117D01*
X036660Y017148D01*
X036742Y017175D01*
X036825Y017198D01*
X036909Y017216D01*
X036993Y017231D01*
X037078Y017242D01*
X037164Y017248D01*
X037250Y017250D01*
X037336Y017248D01*
X037422Y017242D01*
X037507Y017231D01*
X037591Y017216D01*
X037675Y017198D01*
X037758Y017175D01*
X037840Y017148D01*
X037920Y017117D01*
X037998Y017082D01*
X038075Y017043D01*
X038150Y017001D01*
X038222Y016955D01*
X038292Y016906D01*
X038360Y016853D01*
X038425Y016797D01*
X038487Y016737D01*
X038547Y016675D01*
X038603Y016610D01*
X038656Y016542D01*
X038705Y016472D01*
X038751Y016400D01*
X038793Y016325D01*
X038832Y016248D01*
X038867Y016170D01*
X038898Y016090D01*
X038925Y016008D01*
X038948Y015925D01*
X038966Y015841D01*
X038981Y015757D01*
X038992Y015672D01*
X038998Y015586D01*
X039000Y015500D01*
X038998Y015414D01*
X038992Y015328D01*
X038981Y015243D01*
X038966Y015159D01*
X038948Y015075D01*
X038925Y014992D01*
X038898Y014910D01*
X038867Y014830D01*
X038832Y014752D01*
X038793Y014675D01*
X038751Y014600D01*
X038705Y014528D01*
X038656Y014458D01*
X038603Y014390D01*
X038547Y014325D01*
X038487Y014263D01*
X038425Y014203D01*
X038360Y014147D01*
X038292Y014094D01*
X038222Y014045D01*
X038150Y013999D01*
X038075Y013957D01*
X037998Y013918D01*
X037920Y013883D01*
X037840Y013852D01*
X037758Y013825D01*
X037675Y013802D01*
X037591Y013784D01*
X037507Y013769D01*
X037422Y013758D01*
X037336Y013752D01*
X037250Y013750D01*
X037164Y013752D01*
X037078Y013758D01*
X036993Y013769D01*
X036909Y013784D01*
X036825Y013802D01*
X036742Y013825D01*
X036660Y013852D01*
X036580Y013883D01*
X036502Y013918D01*
X036425Y013957D01*
X036350Y013999D01*
X036278Y014045D01*
X036208Y014094D01*
X036140Y014147D01*
X036075Y014203D01*
X036013Y014263D01*
X035953Y014325D01*
X035897Y014390D01*
X035844Y014458D01*
X035795Y014528D01*
X035749Y014600D01*
X035707Y014675D01*
X035668Y014752D01*
X035633Y014830D01*
X035602Y014910D01*
X035575Y014992D01*
X035552Y015075D01*
X035534Y015159D01*
X035519Y015243D01*
X035508Y015328D01*
X035502Y015414D01*
X035500Y015500D01*
X035350Y016200D02*
X035350Y014800D01*
X035400Y014750D01*
X035400Y014600D01*
X035398Y014583D01*
X035394Y014566D01*
X035387Y014550D01*
X035377Y014536D01*
X035364Y014523D01*
X035350Y014513D01*
X035334Y014506D01*
X035317Y014502D01*
X035300Y014500D01*
X034700Y014500D01*
X034683Y014502D01*
X034666Y014506D01*
X034650Y014513D01*
X034636Y014523D01*
X034623Y014536D01*
X034613Y014550D01*
X034606Y014566D01*
X034602Y014583D01*
X034600Y014600D01*
X034600Y014750D01*
X034650Y014800D01*
X034650Y016200D01*
X034600Y016250D01*
X034600Y016400D01*
X034602Y016417D01*
X034606Y016434D01*
X034613Y016450D01*
X034623Y016464D01*
X034636Y016477D01*
X034650Y016487D01*
X034666Y016494D01*
X034683Y016498D01*
X034700Y016500D01*
X035300Y016500D01*
X035317Y016498D01*
X035334Y016494D01*
X035350Y016487D01*
X035364Y016477D01*
X035377Y016464D01*
X035387Y016450D01*
X035394Y016434D01*
X035398Y016417D01*
X035400Y016400D01*
X035400Y016250D01*
X035350Y016200D01*
X036600Y015500D02*
X036800Y015500D01*
X037000Y015500D01*
X039850Y018300D02*
X039850Y018650D01*
X039900Y018700D01*
X039900Y022800D01*
X039850Y022850D01*
X039850Y023200D01*
X039852Y023217D01*
X039856Y023234D01*
X039863Y023250D01*
X039873Y023264D01*
X039886Y023277D01*
X039900Y023287D01*
X039916Y023294D01*
X039933Y023298D01*
X039950Y023300D01*
X040500Y023300D01*
X041000Y023300D01*
X041550Y023300D01*
X041567Y023298D01*
X041584Y023294D01*
X041600Y023287D01*
X041614Y023277D01*
X041627Y023264D01*
X041637Y023250D01*
X041644Y023234D01*
X041648Y023217D01*
X041650Y023200D01*
X041650Y022850D01*
X041600Y022800D01*
X041600Y018700D01*
X041650Y018650D01*
X041650Y018300D01*
X041648Y018283D01*
X041644Y018266D01*
X041637Y018250D01*
X041627Y018236D01*
X041614Y018223D01*
X041600Y018213D01*
X041584Y018206D01*
X041567Y018202D01*
X041550Y018200D01*
X041000Y018200D01*
X040500Y018200D01*
X039950Y018200D01*
X039933Y018202D01*
X039916Y018206D01*
X039900Y018213D01*
X039886Y018223D01*
X039873Y018236D01*
X039863Y018250D01*
X039856Y018266D01*
X039852Y018283D01*
X039850Y018300D01*
X041400Y020275D02*
X042100Y020275D01*
X042100Y021475D01*
X041400Y021475D01*
X041400Y020275D01*
X041750Y020675D02*
X041750Y020825D01*
X041550Y020825D01*
X041550Y020925D01*
X041750Y020825D02*
X041950Y020825D01*
X041750Y020825D02*
X041550Y021225D01*
X041950Y021225D01*
X041750Y020825D01*
X041750Y021375D01*
X037250Y021500D02*
X037250Y021000D01*
X037000Y020750D01*
X036500Y020750D01*
X036250Y021000D01*
X036250Y021500D01*
X036500Y021750D01*
X037000Y021750D01*
X037250Y021500D01*
X037000Y019750D02*
X036500Y019750D01*
X036250Y019500D01*
X036250Y019000D01*
X036500Y018750D01*
X037000Y018750D01*
X037250Y019000D01*
X037250Y019500D01*
X037000Y019750D01*
X034650Y020250D02*
X034650Y020400D01*
X034648Y020417D01*
X034644Y020434D01*
X034637Y020450D01*
X034627Y020464D01*
X034614Y020477D01*
X034600Y020487D01*
X034584Y020494D01*
X034567Y020498D01*
X034550Y020500D01*
X033950Y020500D01*
X033933Y020498D01*
X033916Y020494D01*
X033900Y020487D01*
X033886Y020477D01*
X033873Y020464D01*
X033863Y020450D01*
X033856Y020434D01*
X033852Y020417D01*
X033850Y020400D01*
X033850Y020250D01*
X033900Y020200D01*
X033900Y018800D01*
X033850Y018750D01*
X033850Y018600D01*
X033852Y018583D01*
X033856Y018566D01*
X033863Y018550D01*
X033873Y018536D01*
X033886Y018523D01*
X033900Y018513D01*
X033916Y018506D01*
X033933Y018502D01*
X033950Y018500D01*
X034550Y018500D01*
X034567Y018502D01*
X034584Y018506D01*
X034600Y018513D01*
X034614Y018523D01*
X034627Y018536D01*
X034637Y018550D01*
X034644Y018566D01*
X034648Y018583D01*
X034650Y018600D01*
X034650Y018750D01*
X034600Y018800D01*
X034600Y020200D01*
X034650Y020250D01*
X033307Y020201D02*
X033307Y020351D01*
X033305Y020368D01*
X033301Y020385D01*
X033294Y020401D01*
X033284Y020415D01*
X033271Y020428D01*
X033257Y020438D01*
X033241Y020445D01*
X033224Y020449D01*
X033207Y020451D01*
X032293Y020451D01*
X032276Y020449D01*
X032259Y020445D01*
X032243Y020438D01*
X032229Y020428D01*
X032216Y020415D01*
X032206Y020401D01*
X032199Y020385D01*
X032195Y020368D01*
X032193Y020351D01*
X032193Y020201D01*
X032243Y020151D01*
X032243Y018849D01*
X032193Y018799D01*
X032193Y018649D01*
X032195Y018632D01*
X032199Y018615D01*
X032206Y018599D01*
X032216Y018585D01*
X032229Y018572D01*
X032243Y018562D01*
X032259Y018555D01*
X032276Y018551D01*
X032293Y018549D01*
X033207Y018549D01*
X033224Y018551D01*
X033241Y018555D01*
X033257Y018562D01*
X033271Y018572D01*
X033284Y018585D01*
X033294Y018599D01*
X033301Y018615D01*
X033305Y018632D01*
X033307Y018649D01*
X033307Y018799D01*
X033257Y018849D01*
X033257Y020151D01*
X033307Y020201D01*
X035550Y022950D02*
X035550Y023250D01*
X035700Y023100D02*
X035400Y023100D01*
X034900Y023750D02*
X034700Y023750D01*
X034600Y023750D01*
X034600Y023300D01*
X034350Y023300D01*
X034350Y024200D01*
X034600Y024200D01*
X034600Y023750D01*
X032500Y023750D02*
X032502Y023836D01*
X032508Y023922D01*
X032519Y024007D01*
X032534Y024091D01*
X032552Y024175D01*
X032575Y024258D01*
X032602Y024340D01*
X032633Y024420D01*
X032668Y024498D01*
X032707Y024575D01*
X032749Y024650D01*
X032795Y024722D01*
X032844Y024792D01*
X032897Y024860D01*
X032953Y024925D01*
X033013Y024987D01*
X033075Y025047D01*
X033140Y025103D01*
X033208Y025156D01*
X033278Y025205D01*
X033350Y025251D01*
X033425Y025293D01*
X033502Y025332D01*
X033580Y025367D01*
X033660Y025398D01*
X033742Y025425D01*
X033825Y025448D01*
X033909Y025466D01*
X033993Y025481D01*
X034078Y025492D01*
X034164Y025498D01*
X034250Y025500D01*
X034336Y025498D01*
X034422Y025492D01*
X034507Y025481D01*
X034591Y025466D01*
X034675Y025448D01*
X034758Y025425D01*
X034840Y025398D01*
X034920Y025367D01*
X034998Y025332D01*
X035075Y025293D01*
X035150Y025251D01*
X035222Y025205D01*
X035292Y025156D01*
X035360Y025103D01*
X035425Y025047D01*
X035487Y024987D01*
X035547Y024925D01*
X035603Y024860D01*
X035656Y024792D01*
X035705Y024722D01*
X035751Y024650D01*
X035793Y024575D01*
X035832Y024498D01*
X035867Y024420D01*
X035898Y024340D01*
X035925Y024258D01*
X035948Y024175D01*
X035966Y024091D01*
X035981Y024007D01*
X035992Y023922D01*
X035998Y023836D01*
X036000Y023750D01*
X035998Y023664D01*
X035992Y023578D01*
X035981Y023493D01*
X035966Y023409D01*
X035948Y023325D01*
X035925Y023242D01*
X035898Y023160D01*
X035867Y023080D01*
X035832Y023002D01*
X035793Y022925D01*
X035751Y022850D01*
X035705Y022778D01*
X035656Y022708D01*
X035603Y022640D01*
X035547Y022575D01*
X035487Y022513D01*
X035425Y022453D01*
X035360Y022397D01*
X035292Y022344D01*
X035222Y022295D01*
X035150Y022249D01*
X035075Y022207D01*
X034998Y022168D01*
X034920Y022133D01*
X034840Y022102D01*
X034758Y022075D01*
X034675Y022052D01*
X034591Y022034D01*
X034507Y022019D01*
X034422Y022008D01*
X034336Y022002D01*
X034250Y022000D01*
X034164Y022002D01*
X034078Y022008D01*
X033993Y022019D01*
X033909Y022034D01*
X033825Y022052D01*
X033742Y022075D01*
X033660Y022102D01*
X033580Y022133D01*
X033502Y022168D01*
X033425Y022207D01*
X033350Y022249D01*
X033278Y022295D01*
X033208Y022344D01*
X033140Y022397D01*
X033075Y022453D01*
X033013Y022513D01*
X032953Y022575D01*
X032897Y022640D01*
X032844Y022708D01*
X032795Y022778D01*
X032749Y022850D01*
X032707Y022925D01*
X032668Y023002D01*
X032633Y023080D01*
X032602Y023160D01*
X032575Y023242D01*
X032552Y023325D01*
X032534Y023409D01*
X032519Y023493D01*
X032508Y023578D01*
X032502Y023664D01*
X032500Y023750D01*
X033600Y023750D02*
X033800Y023750D01*
X034000Y023750D01*
X036250Y024000D02*
X036500Y023750D01*
X037000Y023750D01*
X037250Y024000D01*
X037250Y024500D01*
X037000Y024750D01*
X036500Y024750D01*
X036250Y024500D01*
X036250Y024000D01*
X036500Y026750D02*
X037000Y026750D01*
X037250Y027000D01*
X037250Y027500D01*
X037000Y027750D01*
X036500Y027750D01*
X036250Y027500D01*
X036250Y027000D01*
X036500Y026750D01*
X035250Y028850D02*
X035250Y029200D01*
X034750Y029200D01*
X034750Y029400D01*
X035750Y029400D01*
X035750Y029200D01*
X035250Y029200D01*
X034250Y029500D02*
X034252Y029563D01*
X034258Y029625D01*
X034268Y029687D01*
X034281Y029749D01*
X034299Y029809D01*
X034320Y029868D01*
X034345Y029926D01*
X034374Y029982D01*
X034406Y030036D01*
X034441Y030088D01*
X034479Y030137D01*
X034521Y030185D01*
X034565Y030229D01*
X034613Y030271D01*
X034662Y030309D01*
X034714Y030344D01*
X034768Y030376D01*
X034824Y030405D01*
X034882Y030430D01*
X034941Y030451D01*
X035001Y030469D01*
X035063Y030482D01*
X035125Y030492D01*
X035187Y030498D01*
X035250Y030500D01*
X035313Y030498D01*
X035375Y030492D01*
X035437Y030482D01*
X035499Y030469D01*
X035559Y030451D01*
X035618Y030430D01*
X035676Y030405D01*
X035732Y030376D01*
X035786Y030344D01*
X035838Y030309D01*
X035887Y030271D01*
X035935Y030229D01*
X035979Y030185D01*
X036021Y030137D01*
X036059Y030088D01*
X036094Y030036D01*
X036126Y029982D01*
X036155Y029926D01*
X036180Y029868D01*
X036201Y029809D01*
X036219Y029749D01*
X036232Y029687D01*
X036242Y029625D01*
X036248Y029563D01*
X036250Y029500D01*
X036248Y029437D01*
X036242Y029375D01*
X036232Y029313D01*
X036219Y029251D01*
X036201Y029191D01*
X036180Y029132D01*
X036155Y029074D01*
X036126Y029018D01*
X036094Y028964D01*
X036059Y028912D01*
X036021Y028863D01*
X035979Y028815D01*
X035935Y028771D01*
X035887Y028729D01*
X035838Y028691D01*
X035786Y028656D01*
X035732Y028624D01*
X035676Y028595D01*
X035618Y028570D01*
X035559Y028549D01*
X035499Y028531D01*
X035437Y028518D01*
X035375Y028508D01*
X035313Y028502D01*
X035250Y028500D01*
X035187Y028502D01*
X035125Y028508D01*
X035063Y028518D01*
X035001Y028531D01*
X034941Y028549D01*
X034882Y028570D01*
X034824Y028595D01*
X034768Y028624D01*
X034714Y028656D01*
X034662Y028691D01*
X034613Y028729D01*
X034565Y028771D01*
X034521Y028815D01*
X034479Y028863D01*
X034441Y028912D01*
X034406Y028964D01*
X034374Y029018D01*
X034345Y029074D01*
X034320Y029132D01*
X034299Y029191D01*
X034281Y029251D01*
X034268Y029313D01*
X034258Y029375D01*
X034252Y029437D01*
X034250Y029500D01*
X034750Y029050D02*
X034750Y028950D01*
X034650Y028950D01*
X034750Y028950D02*
X034850Y028950D01*
X034750Y028950D02*
X034750Y028850D01*
X035250Y029750D02*
X035250Y030150D01*
X034816Y031746D02*
X034818Y031787D01*
X034824Y031828D01*
X034834Y031868D01*
X034847Y031907D01*
X034864Y031945D01*
X034885Y031981D01*
X034909Y032014D01*
X034936Y032045D01*
X034966Y032074D01*
X034998Y032100D01*
X035033Y032122D01*
X035070Y032141D01*
X035108Y032156D01*
X035148Y032168D01*
X035188Y032176D01*
X035229Y032180D01*
X035271Y032180D01*
X035312Y032176D01*
X035352Y032168D01*
X035392Y032156D01*
X035430Y032141D01*
X035467Y032122D01*
X035502Y032100D01*
X035534Y032074D01*
X035564Y032045D01*
X035591Y032014D01*
X035615Y031981D01*
X035636Y031945D01*
X035653Y031907D01*
X035666Y031868D01*
X035676Y031828D01*
X035682Y031787D01*
X035684Y031746D01*
X035682Y031705D01*
X035676Y031664D01*
X035666Y031624D01*
X035653Y031585D01*
X035636Y031547D01*
X035615Y031511D01*
X035591Y031478D01*
X035564Y031447D01*
X035534Y031418D01*
X035502Y031392D01*
X035467Y031370D01*
X035430Y031351D01*
X035392Y031336D01*
X035352Y031324D01*
X035312Y031316D01*
X035271Y031312D01*
X035229Y031312D01*
X035188Y031316D01*
X035148Y031324D01*
X035108Y031336D01*
X035070Y031351D01*
X035033Y031370D01*
X034998Y031392D01*
X034966Y031418D01*
X034936Y031447D01*
X034909Y031478D01*
X034885Y031511D01*
X034864Y031547D01*
X034847Y031585D01*
X034834Y031624D01*
X034824Y031664D01*
X034818Y031705D01*
X034816Y031746D01*
X033150Y035800D02*
X032350Y035800D01*
X032333Y035802D01*
X032316Y035806D01*
X032300Y035813D01*
X032286Y035823D01*
X032273Y035836D01*
X032263Y035850D01*
X032256Y035866D01*
X032252Y035883D01*
X032250Y035900D01*
X032250Y038600D01*
X032252Y038617D01*
X032256Y038634D01*
X032263Y038650D01*
X032273Y038664D01*
X032286Y038677D01*
X032300Y038687D01*
X032316Y038694D01*
X032333Y038698D01*
X032350Y038700D01*
X033150Y038700D01*
X033167Y038698D01*
X033184Y038694D01*
X033200Y038687D01*
X033214Y038677D01*
X033227Y038664D01*
X033237Y038650D01*
X033244Y038634D01*
X033248Y038617D01*
X033250Y038600D01*
X033250Y035900D01*
X033248Y035883D01*
X033244Y035866D01*
X033237Y035850D01*
X033227Y035836D01*
X033214Y035823D01*
X033200Y035813D01*
X033184Y035806D01*
X033167Y035802D01*
X033150Y035800D01*
X032750Y036650D02*
X032750Y037130D01*
X032750Y037380D02*
X032750Y037850D01*
X026350Y037200D02*
X026350Y036550D01*
X026100Y036550D01*
X026100Y036650D01*
X026100Y037000D01*
X024350Y037000D01*
X024350Y036550D01*
X026100Y036550D01*
X026100Y036650D02*
X026250Y036650D01*
X026250Y037200D01*
X026250Y038500D01*
X026250Y038800D01*
X026250Y039350D01*
X026100Y039350D01*
X026100Y039000D01*
X024350Y039000D01*
X024350Y039450D01*
X026100Y039450D01*
X026350Y039450D01*
X026350Y038800D01*
X026350Y038500D01*
X026350Y037200D01*
X026350Y038500D02*
X026250Y038500D01*
X026100Y039350D02*
X026100Y039450D01*
X024100Y038000D02*
X023300Y038000D01*
X020700Y038000D01*
X019900Y038000D01*
X019650Y037000D02*
X019650Y036550D01*
X017900Y036550D01*
X017650Y036550D01*
X017650Y037200D01*
X017650Y037500D01*
X017650Y038800D01*
X017650Y039450D01*
X017900Y039450D01*
X017900Y039350D01*
X017900Y039000D01*
X019650Y039000D01*
X019650Y039450D01*
X017900Y039450D01*
X017900Y039350D02*
X017750Y039350D01*
X017750Y038800D01*
X017750Y037500D01*
X017750Y037200D01*
X017750Y036650D01*
X017900Y036650D01*
X017900Y037000D01*
X019650Y037000D01*
X017900Y036650D02*
X017900Y036550D01*
X017750Y037500D02*
X017650Y037500D01*
X017500Y035500D02*
X017350Y035500D01*
X016650Y035500D01*
X016500Y035500D01*
X016477Y035498D01*
X016454Y035493D01*
X016432Y035484D01*
X016412Y035471D01*
X016394Y035456D01*
X016379Y035438D01*
X016366Y035418D01*
X016357Y035396D01*
X016352Y035373D01*
X016350Y035350D01*
X016350Y033650D01*
X016352Y033627D01*
X016357Y033604D01*
X016366Y033582D01*
X016379Y033562D01*
X016394Y033544D01*
X016412Y033529D01*
X016432Y033516D01*
X016454Y033507D01*
X016477Y033502D01*
X016500Y033500D01*
X016650Y033500D01*
X017350Y033500D01*
X017500Y033500D01*
X017523Y033502D01*
X017546Y033507D01*
X017568Y033516D01*
X017588Y033529D01*
X017606Y033544D01*
X017621Y033562D01*
X017634Y033582D01*
X017643Y033604D01*
X017648Y033627D01*
X017650Y033650D01*
X017650Y035350D01*
X017648Y035373D01*
X017643Y035396D01*
X017634Y035418D01*
X017621Y035438D01*
X017606Y035456D01*
X017588Y035471D01*
X017568Y035484D01*
X017546Y035493D01*
X017523Y035498D01*
X017500Y035500D01*
X017250Y032250D02*
X015250Y032250D01*
X015250Y031750D01*
X015250Y031250D01*
X017250Y031250D01*
X017250Y031750D01*
X017250Y032250D01*
X017250Y031750D02*
X017450Y031750D01*
X018150Y031100D02*
X018150Y024400D01*
X018152Y024374D01*
X018157Y024348D01*
X018165Y024323D01*
X018177Y024300D01*
X018191Y024278D01*
X018209Y024259D01*
X018228Y024241D01*
X018250Y024227D01*
X018273Y024215D01*
X018298Y024207D01*
X018324Y024202D01*
X018350Y024200D01*
X021150Y024200D01*
X021176Y024202D01*
X021202Y024207D01*
X021227Y024215D01*
X021250Y024227D01*
X021272Y024241D01*
X021291Y024259D01*
X021309Y024278D01*
X021323Y024300D01*
X021335Y024323D01*
X021343Y024348D01*
X021348Y024374D01*
X021350Y024400D01*
X021350Y031100D01*
X021348Y031126D01*
X021343Y031152D01*
X021335Y031177D01*
X021323Y031200D01*
X021309Y031222D01*
X021291Y031241D01*
X021272Y031259D01*
X021250Y031273D01*
X021227Y031285D01*
X021202Y031293D01*
X021176Y031298D01*
X021150Y031300D01*
X018350Y031300D01*
X018324Y031298D01*
X018298Y031293D01*
X018273Y031285D01*
X018250Y031273D01*
X018228Y031259D01*
X018209Y031241D01*
X018191Y031222D01*
X018177Y031200D01*
X018165Y031177D01*
X018157Y031152D01*
X018152Y031126D01*
X018150Y031100D01*
X019750Y030150D02*
X019750Y029750D01*
X019750Y029400D02*
X019750Y025350D01*
X017750Y025575D02*
X017750Y027175D01*
X016750Y027175D01*
X016750Y025575D01*
X017750Y025575D01*
X017500Y025975D02*
X017000Y025975D01*
X017250Y026375D01*
X017000Y026375D01*
X017250Y026375D02*
X017500Y026375D01*
X017250Y026375D02*
X017250Y025775D01*
X017500Y025975D02*
X017250Y026375D01*
X017250Y026625D01*
X016250Y027325D02*
X016250Y028925D01*
X015250Y028925D01*
X015250Y027325D01*
X016250Y027325D01*
X016000Y027725D02*
X015750Y028125D01*
X015500Y028125D01*
X015750Y028125D02*
X015500Y027725D01*
X016000Y027725D01*
X015750Y027525D02*
X015750Y028125D01*
X016000Y028125D01*
X015750Y028125D02*
X015750Y028375D01*
X014151Y026746D02*
X013904Y026994D01*
X013890Y027005D01*
X013875Y027014D01*
X013859Y027020D01*
X013842Y027023D01*
X013824Y027023D01*
X013807Y027020D01*
X013791Y027014D01*
X013776Y027005D01*
X013762Y026994D01*
X013763Y026994D02*
X013374Y026605D01*
X013020Y026251D01*
X012631Y025862D01*
X012631Y025863D02*
X012620Y025849D01*
X012611Y025834D01*
X012605Y025818D01*
X012602Y025801D01*
X012602Y025783D01*
X012605Y025766D01*
X012611Y025750D01*
X012620Y025735D01*
X012631Y025721D01*
X012879Y025474D01*
X012949Y025474D01*
X015849Y022574D01*
X015849Y022504D01*
X016096Y022256D01*
X016110Y022245D01*
X016125Y022236D01*
X016141Y022230D01*
X016158Y022227D01*
X016176Y022227D01*
X016193Y022230D01*
X016209Y022236D01*
X016224Y022245D01*
X016238Y022256D01*
X016237Y022256D02*
X016626Y022645D01*
X016980Y022999D01*
X017369Y023388D01*
X017369Y023387D02*
X017380Y023401D01*
X017389Y023416D01*
X017395Y023432D01*
X017398Y023449D01*
X017398Y023467D01*
X017395Y023484D01*
X017389Y023500D01*
X017380Y023515D01*
X017369Y023529D01*
X017121Y023776D01*
X017051Y023776D01*
X014151Y026676D01*
X014151Y026746D01*
X013300Y027250D02*
X013300Y028250D01*
X011700Y028250D01*
X011700Y027250D01*
X013300Y027250D01*
X012900Y027500D02*
X012900Y028000D01*
X012500Y027750D01*
X012500Y027500D01*
X012500Y027750D02*
X012500Y028000D01*
X012500Y027750D02*
X013100Y027750D01*
X012900Y027500D02*
X012500Y027750D01*
X012250Y027750D01*
X011700Y029250D02*
X011700Y030250D01*
X013300Y030250D01*
X013300Y029250D01*
X011700Y029250D01*
X012250Y029750D02*
X012500Y029750D01*
X012500Y029500D01*
X012500Y029750D02*
X012500Y030000D01*
X012500Y029750D02*
X012900Y030000D01*
X012900Y029500D01*
X012500Y029750D01*
X013100Y029750D01*
X015050Y031750D02*
X015250Y031750D01*
X010675Y026175D02*
X010125Y026175D01*
X009625Y026175D01*
X009075Y026175D01*
X009058Y026173D01*
X009041Y026169D01*
X009025Y026162D01*
X009011Y026152D01*
X008998Y026139D01*
X008988Y026125D01*
X008981Y026109D01*
X008977Y026092D01*
X008975Y026075D01*
X008975Y025725D01*
X009025Y025675D01*
X009025Y021575D01*
X008975Y021525D01*
X008975Y021175D01*
X008977Y021158D01*
X008981Y021141D01*
X008988Y021125D01*
X008998Y021111D01*
X009011Y021098D01*
X009025Y021088D01*
X009041Y021081D01*
X009058Y021077D01*
X009075Y021075D01*
X009625Y021075D01*
X010125Y021075D01*
X010675Y021075D01*
X010692Y021077D01*
X010709Y021081D01*
X010725Y021088D01*
X010739Y021098D01*
X010752Y021111D01*
X010762Y021125D01*
X010769Y021141D01*
X010773Y021158D01*
X010775Y021175D01*
X010775Y021525D01*
X010725Y021575D01*
X010725Y025675D01*
X010775Y025725D01*
X010775Y026075D01*
X010773Y026092D01*
X010769Y026109D01*
X010762Y026125D01*
X010752Y026139D01*
X010739Y026152D01*
X010725Y026162D01*
X010709Y026169D01*
X010692Y026173D01*
X010675Y026175D01*
X011500Y024875D02*
X012500Y024875D01*
X012517Y024873D01*
X012534Y024869D01*
X012550Y024862D01*
X012564Y024852D01*
X012577Y024839D01*
X012587Y024825D01*
X012594Y024809D01*
X012598Y024792D01*
X012600Y024775D01*
X012600Y020975D01*
X012598Y020958D01*
X012594Y020941D01*
X012587Y020925D01*
X012577Y020911D01*
X012564Y020898D01*
X012550Y020888D01*
X012534Y020881D01*
X012517Y020877D01*
X012500Y020875D01*
X011500Y020875D01*
X011483Y020877D01*
X011466Y020881D01*
X011450Y020888D01*
X011436Y020898D01*
X011423Y020911D01*
X011413Y020925D01*
X011406Y020941D01*
X011402Y020958D01*
X011400Y020975D01*
X011400Y024775D01*
X011402Y024792D01*
X011406Y024809D01*
X011413Y024825D01*
X011423Y024839D01*
X011436Y024852D01*
X011450Y024862D01*
X011466Y024869D01*
X011483Y024873D01*
X011500Y024875D01*
X012000Y023875D02*
X012000Y023075D01*
X012000Y022675D02*
X012000Y021875D01*
X012450Y019675D02*
X013000Y019675D01*
X013500Y019675D01*
X014050Y019675D01*
X014067Y019673D01*
X014084Y019669D01*
X014100Y019662D01*
X014114Y019652D01*
X014127Y019639D01*
X014137Y019625D01*
X014144Y019609D01*
X014148Y019592D01*
X014150Y019575D01*
X014150Y019225D01*
X014100Y019175D01*
X014100Y015075D01*
X014150Y015025D01*
X014150Y014675D01*
X014148Y014658D01*
X014144Y014641D01*
X014137Y014625D01*
X014127Y014611D01*
X014114Y014598D01*
X014100Y014588D01*
X014084Y014581D01*
X014067Y014577D01*
X014050Y014575D01*
X013500Y014575D01*
X013000Y014575D01*
X012450Y014575D01*
X012433Y014577D01*
X012416Y014581D01*
X012400Y014588D01*
X012386Y014598D01*
X012373Y014611D01*
X012363Y014625D01*
X012356Y014641D01*
X012352Y014658D01*
X012350Y014675D01*
X012350Y015025D01*
X012400Y015075D01*
X012400Y019175D01*
X012350Y019225D01*
X012350Y019575D01*
X012352Y019592D01*
X012356Y019609D01*
X012363Y019625D01*
X012373Y019639D01*
X012386Y019652D01*
X012400Y019662D01*
X012416Y019669D01*
X012433Y019673D01*
X012450Y019675D01*
X011675Y018650D02*
X011075Y018650D01*
X011058Y018648D01*
X011041Y018644D01*
X011025Y018637D01*
X011011Y018627D01*
X010998Y018614D01*
X010988Y018600D01*
X010981Y018584D01*
X010977Y018567D01*
X010975Y018550D01*
X010975Y016950D01*
X010977Y016933D01*
X010981Y016916D01*
X010988Y016900D01*
X010998Y016886D01*
X011011Y016873D01*
X011025Y016863D01*
X011041Y016856D01*
X011058Y016852D01*
X011075Y016850D01*
X011675Y016850D01*
X011692Y016852D01*
X011709Y016856D01*
X011725Y016863D01*
X011739Y016873D01*
X011752Y016886D01*
X011762Y016900D01*
X011769Y016916D01*
X011773Y016933D01*
X011775Y016950D01*
X011775Y018550D01*
X011773Y018567D01*
X011769Y018584D01*
X011762Y018600D01*
X011752Y018614D01*
X011739Y018627D01*
X011725Y018637D01*
X011709Y018644D01*
X011692Y018648D01*
X011675Y018650D01*
X011375Y018000D02*
X011375Y017750D01*
X011125Y017750D01*
X011375Y017750D02*
X011125Y017350D01*
X011625Y017350D01*
X011375Y017750D01*
X011625Y017750D01*
X011375Y017750D02*
X011375Y017150D01*
X014725Y013150D02*
X014875Y013150D01*
X014925Y013100D01*
X016325Y013100D01*
X016375Y013150D01*
X016525Y013150D01*
X016542Y013148D01*
X016559Y013144D01*
X016575Y013137D01*
X016589Y013127D01*
X016602Y013114D01*
X016612Y013100D01*
X016619Y013084D01*
X016623Y013067D01*
X016625Y013050D01*
X016625Y012450D01*
X016623Y012433D01*
X016619Y012416D01*
X016612Y012400D01*
X016602Y012386D01*
X016589Y012373D01*
X016575Y012363D01*
X016559Y012356D01*
X016542Y012352D01*
X016525Y012350D01*
X016375Y012350D01*
X016325Y012400D01*
X014925Y012400D01*
X014875Y012350D01*
X014725Y012350D01*
X014708Y012352D01*
X014691Y012356D01*
X014675Y012363D01*
X014661Y012373D01*
X014648Y012386D01*
X014638Y012400D01*
X014631Y012416D01*
X014627Y012433D01*
X014625Y012450D01*
X014625Y013050D01*
X014627Y013067D01*
X014631Y013084D01*
X014638Y013100D01*
X014648Y013114D01*
X014661Y013127D01*
X014675Y013137D01*
X014691Y013144D01*
X014708Y013148D01*
X014725Y013150D01*
X014000Y010375D02*
X013000Y010375D01*
X012983Y010373D01*
X012966Y010369D01*
X012950Y010362D01*
X012936Y010352D01*
X012923Y010339D01*
X012913Y010325D01*
X012906Y010309D01*
X012902Y010292D01*
X012900Y010275D01*
X012900Y006475D01*
X012902Y006458D01*
X012906Y006441D01*
X012913Y006425D01*
X012923Y006411D01*
X012936Y006398D01*
X012950Y006388D01*
X012966Y006381D01*
X012983Y006377D01*
X013000Y006375D01*
X014000Y006375D01*
X014017Y006377D01*
X014034Y006381D01*
X014050Y006388D01*
X014064Y006398D01*
X014077Y006411D01*
X014087Y006425D01*
X014094Y006441D01*
X014098Y006458D01*
X014100Y006475D01*
X014100Y010275D01*
X014098Y010292D01*
X014094Y010309D01*
X014087Y010325D01*
X014077Y010339D01*
X014064Y010352D01*
X014050Y010362D01*
X014034Y010369D01*
X014017Y010373D01*
X014000Y010375D01*
X013500Y009375D02*
X013500Y008575D01*
X013500Y008175D02*
X013500Y007375D01*
X017800Y005850D02*
X017900Y005950D01*
X019050Y006000D01*
X017800Y005850D02*
X017800Y002150D01*
X017900Y002050D01*
X019050Y002000D01*
X021200Y007000D02*
X022350Y007050D01*
X022450Y007150D01*
X022450Y010850D01*
X022350Y010950D01*
X021200Y011000D01*
X023000Y011850D02*
X023000Y012600D01*
X023039Y012602D01*
X023078Y012608D01*
X023116Y012617D01*
X023153Y012630D01*
X023189Y012647D01*
X023222Y012667D01*
X023254Y012691D01*
X023283Y012717D01*
X023309Y012746D01*
X023333Y012778D01*
X023353Y012811D01*
X023370Y012847D01*
X023383Y012884D01*
X023392Y012922D01*
X023398Y012961D01*
X023400Y013000D01*
X023398Y013039D01*
X023392Y013078D01*
X023383Y013116D01*
X023370Y013153D01*
X023353Y013189D01*
X023333Y013222D01*
X023309Y013254D01*
X023283Y013283D01*
X023254Y013309D01*
X023222Y013333D01*
X023189Y013353D01*
X023153Y013370D01*
X023116Y013383D01*
X023078Y013392D01*
X023039Y013398D01*
X023000Y013400D01*
X023000Y014150D01*
X025000Y014150D01*
X025000Y011850D01*
X023000Y011850D01*
X026250Y011350D02*
X026250Y010650D01*
X026252Y010633D01*
X026256Y010616D01*
X026263Y010600D01*
X026273Y010586D01*
X026286Y010573D01*
X026300Y010563D01*
X026316Y010556D01*
X026333Y010552D01*
X026350Y010550D01*
X026500Y010550D01*
X026550Y010600D01*
X028450Y010600D01*
X028500Y010550D01*
X028650Y010550D01*
X028667Y010552D01*
X028684Y010556D01*
X028700Y010563D01*
X028714Y010573D01*
X028727Y010586D01*
X028737Y010600D01*
X028744Y010616D01*
X028748Y010633D01*
X028750Y010650D01*
X028750Y011350D01*
X028748Y011367D01*
X028744Y011384D01*
X028737Y011400D01*
X028727Y011414D01*
X028714Y011427D01*
X028700Y011437D01*
X028684Y011444D01*
X028667Y011448D01*
X028650Y011450D01*
X028500Y011450D01*
X028450Y011400D01*
X026550Y011400D01*
X026500Y011450D01*
X026350Y011450D01*
X026333Y011448D01*
X026316Y011444D01*
X026300Y011437D01*
X026286Y011427D01*
X026273Y011414D01*
X026263Y011400D01*
X026256Y011384D01*
X026252Y011367D01*
X026250Y011350D01*
X029500Y014125D02*
X030000Y014125D01*
X029750Y013875D02*
X029750Y014375D01*
X031100Y014125D02*
X031300Y014125D01*
X031400Y014125D01*
X031400Y014625D01*
X031650Y014625D01*
X031650Y013625D01*
X031400Y013625D01*
X031400Y014125D01*
X029000Y014125D02*
X029003Y014260D01*
X029013Y014395D01*
X029030Y014529D01*
X029053Y014661D01*
X029082Y014793D01*
X029118Y014923D01*
X029161Y015051D01*
X029209Y015177D01*
X029264Y015301D01*
X029325Y015421D01*
X029391Y015539D01*
X029463Y015653D01*
X029541Y015763D01*
X029624Y015870D01*
X029712Y015972D01*
X029805Y016070D01*
X029903Y016163D01*
X030005Y016251D01*
X030112Y016334D01*
X030222Y016412D01*
X030336Y016484D01*
X030454Y016550D01*
X030574Y016611D01*
X030698Y016666D01*
X030824Y016714D01*
X030952Y016757D01*
X031082Y016793D01*
X031214Y016822D01*
X031346Y016845D01*
X031480Y016862D01*
X031615Y016872D01*
X031750Y016875D01*
X031885Y016872D01*
X032020Y016862D01*
X032154Y016845D01*
X032286Y016822D01*
X032418Y016793D01*
X032548Y016757D01*
X032676Y016714D01*
X032802Y016666D01*
X032926Y016611D01*
X033046Y016550D01*
X033164Y016484D01*
X033278Y016412D01*
X033388Y016334D01*
X033495Y016251D01*
X033597Y016163D01*
X033695Y016070D01*
X033788Y015972D01*
X033876Y015870D01*
X033959Y015763D01*
X034037Y015653D01*
X034109Y015539D01*
X034175Y015421D01*
X034236Y015301D01*
X034291Y015177D01*
X034339Y015051D01*
X034382Y014923D01*
X034418Y014793D01*
X034447Y014661D01*
X034470Y014529D01*
X034487Y014395D01*
X034497Y014260D01*
X034500Y014125D01*
X034497Y013990D01*
X034487Y013855D01*
X034470Y013721D01*
X034447Y013589D01*
X034418Y013457D01*
X034382Y013327D01*
X034339Y013199D01*
X034291Y013073D01*
X034236Y012949D01*
X034175Y012829D01*
X034109Y012711D01*
X034037Y012597D01*
X033959Y012487D01*
X033876Y012380D01*
X033788Y012278D01*
X033695Y012180D01*
X033597Y012087D01*
X033495Y011999D01*
X033388Y011916D01*
X033278Y011838D01*
X033164Y011766D01*
X033046Y011700D01*
X032926Y011639D01*
X032802Y011584D01*
X032676Y011536D01*
X032548Y011493D01*
X032418Y011457D01*
X032286Y011428D01*
X032154Y011405D01*
X032020Y011388D01*
X031885Y011378D01*
X031750Y011375D01*
X031615Y011378D01*
X031480Y011388D01*
X031346Y011405D01*
X031214Y011428D01*
X031082Y011457D01*
X030952Y011493D01*
X030824Y011536D01*
X030698Y011584D01*
X030574Y011639D01*
X030454Y011700D01*
X030336Y011766D01*
X030222Y011838D01*
X030112Y011916D01*
X030005Y011999D01*
X029903Y012087D01*
X029805Y012180D01*
X029712Y012278D01*
X029624Y012380D01*
X029541Y012487D01*
X029463Y012597D01*
X029391Y012711D01*
X029325Y012829D01*
X029264Y012949D01*
X029209Y013073D01*
X029161Y013199D01*
X029118Y013327D01*
X029082Y013457D01*
X029053Y013589D01*
X029030Y013721D01*
X029013Y013855D01*
X029003Y013990D01*
X029000Y014125D01*
X027600Y016000D02*
X024900Y016000D01*
X024883Y016002D01*
X024866Y016006D01*
X024850Y016013D01*
X024836Y016023D01*
X024823Y016036D01*
X024813Y016050D01*
X024806Y016066D01*
X024802Y016083D01*
X024800Y016100D01*
X024800Y016900D01*
X024802Y016917D01*
X024806Y016934D01*
X024813Y016950D01*
X024823Y016964D01*
X024836Y016977D01*
X024850Y016987D01*
X024866Y016994D01*
X024883Y016998D01*
X024900Y017000D01*
X027600Y017000D01*
X027617Y016998D01*
X027634Y016994D01*
X027650Y016987D01*
X027664Y016977D01*
X027677Y016964D01*
X027687Y016950D01*
X027694Y016934D01*
X027698Y016917D01*
X027700Y016900D01*
X027700Y016100D01*
X027698Y016083D01*
X027694Y016066D01*
X027687Y016050D01*
X027677Y016036D01*
X027664Y016023D01*
X027650Y016013D01*
X027634Y016006D01*
X027617Y016002D01*
X027600Y016000D01*
X026850Y016500D02*
X026380Y016500D01*
X026130Y016500D02*
X025650Y016500D01*
X023900Y016500D02*
X023150Y016500D01*
X023148Y016539D01*
X023142Y016578D01*
X023133Y016616D01*
X023120Y016653D01*
X023103Y016689D01*
X023083Y016722D01*
X023059Y016754D01*
X023033Y016783D01*
X023004Y016809D01*
X022972Y016833D01*
X022939Y016853D01*
X022903Y016870D01*
X022866Y016883D01*
X022828Y016892D01*
X022789Y016898D01*
X022750Y016900D01*
X022711Y016898D01*
X022672Y016892D01*
X022634Y016883D01*
X022597Y016870D01*
X022561Y016853D01*
X022528Y016833D01*
X022496Y016809D01*
X022467Y016783D01*
X022441Y016754D01*
X022417Y016722D01*
X022397Y016689D01*
X022380Y016653D01*
X022367Y016616D01*
X022358Y016578D01*
X022352Y016539D01*
X022350Y016500D01*
X021600Y016500D01*
X021600Y020500D01*
X023900Y020500D01*
X023900Y016500D01*
X020400Y015750D02*
X020000Y015750D01*
X018650Y015750D02*
X018652Y015816D01*
X018658Y015881D01*
X018668Y015946D01*
X018681Y016011D01*
X018699Y016074D01*
X018720Y016137D01*
X018745Y016197D01*
X018774Y016257D01*
X018806Y016314D01*
X018841Y016370D01*
X018880Y016423D01*
X018922Y016474D01*
X018966Y016522D01*
X019014Y016567D01*
X019064Y016610D01*
X019117Y016649D01*
X019172Y016686D01*
X019229Y016719D01*
X019288Y016748D01*
X019348Y016774D01*
X019410Y016796D01*
X019473Y016815D01*
X019537Y016829D01*
X019602Y016840D01*
X019668Y016847D01*
X019734Y016850D01*
X019799Y016849D01*
X019865Y016844D01*
X019930Y016835D01*
X019995Y016822D01*
X020058Y016806D01*
X020121Y016786D01*
X020182Y016761D01*
X020242Y016734D01*
X020300Y016703D01*
X020356Y016668D01*
X020410Y016630D01*
X020461Y016589D01*
X020510Y016545D01*
X020556Y016498D01*
X020600Y016449D01*
X020640Y016397D01*
X020677Y016342D01*
X020711Y016286D01*
X020741Y016227D01*
X020768Y016167D01*
X020791Y016106D01*
X020810Y016043D01*
X020826Y015979D01*
X020838Y015914D01*
X020846Y015849D01*
X020850Y015783D01*
X020850Y015717D01*
X020846Y015651D01*
X020838Y015586D01*
X020826Y015521D01*
X020810Y015457D01*
X020791Y015394D01*
X020768Y015333D01*
X020741Y015273D01*
X020711Y015214D01*
X020677Y015158D01*
X020640Y015103D01*
X020600Y015051D01*
X020556Y015002D01*
X020510Y014955D01*
X020461Y014911D01*
X020410Y014870D01*
X020356Y014832D01*
X020300Y014797D01*
X020242Y014766D01*
X020182Y014739D01*
X020121Y014714D01*
X020058Y014694D01*
X019995Y014678D01*
X019930Y014665D01*
X019865Y014656D01*
X019799Y014651D01*
X019734Y014650D01*
X019668Y014653D01*
X019602Y014660D01*
X019537Y014671D01*
X019473Y014685D01*
X019410Y014704D01*
X019348Y014726D01*
X019288Y014752D01*
X019229Y014781D01*
X019172Y014814D01*
X019117Y014851D01*
X019064Y014890D01*
X019014Y014933D01*
X018966Y014978D01*
X018922Y015026D01*
X018880Y015077D01*
X018841Y015130D01*
X018806Y015186D01*
X018774Y015243D01*
X018745Y015303D01*
X018720Y015363D01*
X018699Y015426D01*
X018681Y015489D01*
X018668Y015554D01*
X018658Y015619D01*
X018652Y015684D01*
X018650Y015750D01*
X019100Y015750D02*
X019450Y015750D01*
X019450Y016250D01*
X019650Y016250D01*
X019650Y015250D01*
X019450Y015250D01*
X019450Y015750D01*
X019100Y016100D02*
X019100Y016250D01*
X019100Y016400D01*
X019100Y016250D02*
X019250Y016250D01*
X019100Y016250D02*
X018950Y016250D01*
X018300Y018850D02*
X016700Y018850D01*
X016683Y018852D01*
X016666Y018856D01*
X016650Y018863D01*
X016636Y018873D01*
X016623Y018886D01*
X016613Y018900D01*
X016606Y018916D01*
X016602Y018933D01*
X016600Y018950D01*
X016600Y019550D01*
X016602Y019567D01*
X016606Y019584D01*
X016613Y019600D01*
X016623Y019614D01*
X016636Y019627D01*
X016650Y019637D01*
X016666Y019644D01*
X016683Y019648D01*
X016700Y019650D01*
X018300Y019650D01*
X018317Y019648D01*
X018334Y019644D01*
X018350Y019637D01*
X018364Y019627D01*
X018377Y019614D01*
X018387Y019600D01*
X018394Y019584D01*
X018398Y019567D01*
X018400Y019550D01*
X018400Y018950D01*
X018398Y018933D01*
X018394Y018916D01*
X018387Y018900D01*
X018377Y018886D01*
X018364Y018873D01*
X018350Y018863D01*
X018334Y018856D01*
X018317Y018852D01*
X018300Y018850D01*
X017750Y019250D02*
X017500Y019250D01*
X017500Y019500D01*
X017500Y019250D02*
X017500Y019000D01*
X017500Y019250D02*
X017100Y019500D01*
X017100Y019000D01*
X017500Y019250D01*
X016900Y019250D01*
X016750Y019850D02*
X016600Y019850D01*
X016583Y019852D01*
X016566Y019856D01*
X016550Y019863D01*
X016536Y019873D01*
X016523Y019886D01*
X016513Y019900D01*
X016506Y019916D01*
X016502Y019933D01*
X016500Y019950D01*
X016500Y020550D01*
X016502Y020567D01*
X016506Y020584D01*
X016513Y020600D01*
X016523Y020614D01*
X016536Y020627D01*
X016550Y020637D01*
X016566Y020644D01*
X016583Y020648D01*
X016600Y020650D01*
X016750Y020650D01*
X016800Y020600D01*
X018200Y020600D01*
X018250Y020650D01*
X018400Y020650D01*
X018417Y020648D01*
X018434Y020644D01*
X018450Y020637D01*
X018464Y020627D01*
X018477Y020614D01*
X018487Y020600D01*
X018494Y020584D01*
X018498Y020567D01*
X018500Y020550D01*
X018500Y019950D01*
X018498Y019933D01*
X018494Y019916D01*
X018487Y019900D01*
X018477Y019886D01*
X018464Y019873D01*
X018450Y019863D01*
X018434Y019856D01*
X018417Y019852D01*
X018400Y019850D01*
X018250Y019850D01*
X018200Y019900D01*
X016800Y019900D01*
X016750Y019850D01*
X018600Y021200D02*
X018600Y021800D01*
X018602Y021817D01*
X018606Y021834D01*
X018613Y021850D01*
X018623Y021864D01*
X018636Y021877D01*
X018650Y021887D01*
X018666Y021894D01*
X018683Y021898D01*
X018700Y021900D01*
X020300Y021900D01*
X020317Y021898D01*
X020334Y021894D01*
X020350Y021887D01*
X020364Y021877D01*
X020377Y021864D01*
X020387Y021850D01*
X020394Y021834D01*
X020398Y021817D01*
X020400Y021800D01*
X020400Y021200D01*
X020398Y021183D01*
X020394Y021166D01*
X020387Y021150D01*
X020377Y021136D01*
X020364Y021123D01*
X020350Y021113D01*
X020334Y021106D01*
X020317Y021102D01*
X020300Y021100D01*
X018700Y021100D01*
X018683Y021102D01*
X018666Y021106D01*
X018650Y021113D01*
X018636Y021123D01*
X018623Y021136D01*
X018613Y021150D01*
X018606Y021166D01*
X018602Y021183D01*
X018600Y021200D01*
X019250Y021500D02*
X019500Y021500D01*
X019500Y021750D01*
X019600Y021750D01*
X019500Y021500D02*
X019900Y021750D01*
X019900Y021250D01*
X019500Y021500D01*
X019500Y021250D01*
X019500Y021500D02*
X020100Y021500D01*
X022300Y021650D02*
X022300Y020850D01*
X022302Y020833D01*
X022306Y020816D01*
X022313Y020800D01*
X022323Y020786D01*
X022336Y020773D01*
X022350Y020763D01*
X022366Y020756D01*
X022383Y020752D01*
X022400Y020750D01*
X025100Y020750D01*
X025117Y020752D01*
X025134Y020756D01*
X025150Y020763D01*
X025164Y020773D01*
X025177Y020786D01*
X025187Y020800D01*
X025194Y020816D01*
X025198Y020833D01*
X025200Y020850D01*
X025200Y021650D01*
X025198Y021667D01*
X025194Y021684D01*
X025187Y021700D01*
X025177Y021714D01*
X025164Y021727D01*
X025150Y021737D01*
X025134Y021744D01*
X025117Y021748D01*
X025100Y021750D01*
X022400Y021750D01*
X022383Y021748D01*
X022366Y021744D01*
X022350Y021737D01*
X022336Y021727D01*
X022323Y021714D01*
X022313Y021700D01*
X022306Y021684D01*
X022302Y021667D01*
X022300Y021650D01*
X023150Y021250D02*
X023620Y021250D01*
X023870Y021250D02*
X024350Y021250D01*
X025550Y020900D02*
X025550Y020100D01*
X025552Y020083D01*
X025556Y020066D01*
X025563Y020050D01*
X025573Y020036D01*
X025586Y020023D01*
X025600Y020013D01*
X025616Y020006D01*
X025633Y020002D01*
X025650Y020000D01*
X028350Y020000D01*
X028367Y020002D01*
X028384Y020006D01*
X028400Y020013D01*
X028414Y020023D01*
X028427Y020036D01*
X028437Y020050D01*
X028444Y020066D01*
X028448Y020083D01*
X028450Y020100D01*
X028450Y020900D01*
X028448Y020917D01*
X028444Y020934D01*
X028437Y020950D01*
X028427Y020964D01*
X028414Y020977D01*
X028400Y020987D01*
X028384Y020994D01*
X028367Y020998D01*
X028350Y021000D01*
X025650Y021000D01*
X025633Y020998D01*
X025616Y020994D01*
X025600Y020987D01*
X025586Y020977D01*
X025573Y020964D01*
X025563Y020950D01*
X025556Y020934D01*
X025552Y020917D01*
X025550Y020900D01*
X026400Y020500D02*
X026880Y020500D01*
X027130Y020500D02*
X027600Y020500D01*
X032000Y014125D02*
X032200Y014125D01*
X032150Y014125D02*
X032350Y014125D01*
X027350Y030150D02*
X027100Y030150D01*
X027050Y030200D01*
X024450Y030200D01*
X024400Y030150D01*
X024150Y030150D01*
X024133Y030152D01*
X024116Y030156D01*
X024100Y030163D01*
X024086Y030173D01*
X024073Y030186D01*
X024063Y030200D01*
X024056Y030216D01*
X024052Y030233D01*
X024050Y030250D01*
X024050Y031250D01*
X024052Y031267D01*
X024056Y031284D01*
X024063Y031300D01*
X024073Y031314D01*
X024086Y031327D01*
X024100Y031337D01*
X024116Y031344D01*
X024133Y031348D01*
X024150Y031350D01*
X024400Y031350D01*
X024450Y031300D01*
X027050Y031300D01*
X027100Y031350D01*
X027350Y031350D01*
X027367Y031348D01*
X027384Y031344D01*
X027400Y031337D01*
X027414Y031327D01*
X027427Y031314D01*
X027437Y031300D01*
X027444Y031284D01*
X027448Y031267D01*
X027450Y031250D01*
X027450Y030250D01*
X027448Y030233D01*
X027444Y030216D01*
X027437Y030200D01*
X027427Y030186D01*
X027414Y030173D01*
X027400Y030163D01*
X027384Y030156D01*
X027367Y030152D01*
X027350Y030150D01*
X001550Y017000D02*
X001555Y017218D01*
X001571Y017436D01*
X001598Y017653D01*
X001636Y017868D01*
X001683Y018081D01*
X001742Y018292D01*
X001810Y018499D01*
X001889Y018703D01*
X001977Y018903D01*
X002075Y019098D01*
X002183Y019288D01*
X002300Y019472D01*
X002426Y019651D01*
X002560Y019823D01*
X002703Y019988D01*
X002853Y020147D01*
X003012Y020297D01*
X003177Y020440D01*
X003349Y020574D01*
X003528Y020700D01*
X003712Y020817D01*
X003902Y020925D01*
X004097Y021023D01*
X004297Y021111D01*
X004501Y021190D01*
X004708Y021258D01*
X004919Y021317D01*
X005132Y021364D01*
X005347Y021402D01*
X005564Y021429D01*
X005782Y021445D01*
X006000Y021450D01*
X006218Y021445D01*
X006436Y021429D01*
X006653Y021402D01*
X006868Y021364D01*
X007081Y021317D01*
X007292Y021258D01*
X007499Y021190D01*
X007703Y021111D01*
X007903Y021023D01*
X008098Y020925D01*
X008288Y020817D01*
X008472Y020700D01*
X008651Y020574D01*
X008823Y020440D01*
X008988Y020297D01*
X009147Y020147D01*
X009297Y019988D01*
X009440Y019823D01*
X009574Y019651D01*
X009700Y019472D01*
X009817Y019288D01*
X009925Y019098D01*
X010023Y018903D01*
X010111Y018703D01*
X010190Y018499D01*
X010258Y018292D01*
X010317Y018081D01*
X010364Y017868D01*
X010402Y017653D01*
X010429Y017436D01*
X010445Y017218D01*
X010450Y017000D01*
X010445Y016782D01*
X010429Y016564D01*
X010402Y016347D01*
X010364Y016132D01*
X010317Y015919D01*
X010258Y015708D01*
X010190Y015501D01*
X010111Y015297D01*
X010023Y015097D01*
X009925Y014902D01*
X009817Y014712D01*
X009700Y014528D01*
X009574Y014349D01*
X009440Y014177D01*
X009297Y014012D01*
X009147Y013853D01*
X008988Y013703D01*
X008823Y013560D01*
X008651Y013426D01*
X008472Y013300D01*
X008288Y013183D01*
X008098Y013075D01*
X007903Y012977D01*
X007703Y012889D01*
X007499Y012810D01*
X007292Y012742D01*
X007081Y012683D01*
X006868Y012636D01*
X006653Y012598D01*
X006436Y012571D01*
X006218Y012555D01*
X006000Y012550D01*
X005782Y012555D01*
X005564Y012571D01*
X005347Y012598D01*
X005132Y012636D01*
X004919Y012683D01*
X004708Y012742D01*
X004501Y012810D01*
X004297Y012889D01*
X004097Y012977D01*
X003902Y013075D01*
X003712Y013183D01*
X003528Y013300D01*
X003349Y013426D01*
X003177Y013560D01*
X003012Y013703D01*
X002853Y013853D01*
X002703Y014012D01*
X002560Y014177D01*
X002426Y014349D01*
X002300Y014528D01*
X002183Y014712D01*
X002075Y014902D01*
X001977Y015097D01*
X001889Y015297D01*
X001810Y015501D01*
X001742Y015708D01*
X001683Y015919D01*
X001636Y016132D01*
X001598Y016347D01*
X001571Y016564D01*
X001555Y016782D01*
X001550Y017000D01*
D13*
X004650Y017750D02*
X005150Y017750D01*
X005380Y018000D02*
X005830Y018000D01*
X005830Y016000D01*
X005380Y016000D01*
X005380Y017000D01*
X005380Y018000D01*
X004900Y018000D02*
X004900Y017500D01*
X005000Y017000D02*
X005380Y017000D01*
X002500Y017000D02*
X002504Y017172D01*
X002517Y017343D01*
X002538Y017514D01*
X002567Y017683D01*
X002605Y017850D01*
X002651Y018016D01*
X002705Y018179D01*
X002766Y018339D01*
X002836Y018496D01*
X002913Y018650D01*
X002998Y018799D01*
X003090Y018944D01*
X003189Y019085D01*
X003294Y019220D01*
X003407Y019350D01*
X003525Y019475D01*
X003650Y019593D01*
X003780Y019706D01*
X003915Y019811D01*
X004056Y019910D01*
X004201Y020002D01*
X004350Y020087D01*
X004504Y020164D01*
X004661Y020234D01*
X004821Y020295D01*
X004984Y020349D01*
X005150Y020395D01*
X005317Y020433D01*
X005486Y020462D01*
X005657Y020483D01*
X005828Y020496D01*
X006000Y020500D01*
X006172Y020496D01*
X006343Y020483D01*
X006514Y020462D01*
X006683Y020433D01*
X006850Y020395D01*
X007016Y020349D01*
X007179Y020295D01*
X007339Y020234D01*
X007496Y020164D01*
X007650Y020087D01*
X007799Y020002D01*
X007944Y019910D01*
X008085Y019811D01*
X008220Y019706D01*
X008350Y019593D01*
X008475Y019475D01*
X008593Y019350D01*
X008706Y019220D01*
X008811Y019085D01*
X008910Y018944D01*
X009002Y018799D01*
X009087Y018650D01*
X009164Y018496D01*
X009234Y018339D01*
X009295Y018179D01*
X009349Y018016D01*
X009395Y017850D01*
X009433Y017683D01*
X009462Y017514D01*
X009483Y017343D01*
X009496Y017172D01*
X009500Y017000D01*
X009496Y016828D01*
X009483Y016657D01*
X009462Y016486D01*
X009433Y016317D01*
X009395Y016150D01*
X009349Y015984D01*
X009295Y015821D01*
X009234Y015661D01*
X009164Y015504D01*
X009087Y015350D01*
X009002Y015201D01*
X008910Y015056D01*
X008811Y014915D01*
X008706Y014780D01*
X008593Y014650D01*
X008475Y014525D01*
X008350Y014407D01*
X008220Y014294D01*
X008085Y014189D01*
X007944Y014090D01*
X007799Y013998D01*
X007650Y013913D01*
X007496Y013836D01*
X007339Y013766D01*
X007179Y013705D01*
X007016Y013651D01*
X006850Y013605D01*
X006683Y013567D01*
X006514Y013538D01*
X006343Y013517D01*
X006172Y013504D01*
X006000Y013500D01*
X005828Y013504D01*
X005657Y013517D01*
X005486Y013538D01*
X005317Y013567D01*
X005150Y013605D01*
X004984Y013651D01*
X004821Y013705D01*
X004661Y013766D01*
X004504Y013836D01*
X004350Y013913D01*
X004201Y013998D01*
X004056Y014090D01*
X003915Y014189D01*
X003780Y014294D01*
X003650Y014407D01*
X003525Y014525D01*
X003407Y014650D01*
X003294Y014780D01*
X003189Y014915D01*
X003090Y015056D01*
X002998Y015201D01*
X002913Y015350D01*
X002836Y015504D01*
X002766Y015661D01*
X002705Y015821D01*
X002651Y015984D01*
X002605Y016150D01*
X002567Y016317D01*
X002538Y016486D01*
X002517Y016657D01*
X002504Y016828D01*
X002500Y017000D01*
X006250Y017000D02*
X007000Y017000D01*
X015210Y018320D02*
X015210Y014680D01*
X015810Y014480D01*
X016440Y014480D01*
X016440Y018520D01*
X015810Y018520D01*
X015210Y018320D01*
X034364Y031037D02*
X034364Y034463D01*
X036136Y034463D01*
X036136Y031037D01*
X034364Y031037D01*
D14*
X035250Y031746D03*
D15*
X002077Y001827D02*
X001770Y001520D01*
X002077Y001520D01*
X002384Y001520D02*
X002384Y001980D01*
X002537Y001980D02*
X002230Y001980D01*
X002077Y001904D02*
X002000Y001980D01*
X001847Y001980D01*
X001770Y001904D01*
X002077Y001904D02*
X002077Y001827D01*
X002691Y001827D02*
X002844Y001980D01*
X002844Y001520D01*
X002691Y001520D02*
X002998Y001520D01*
X003520Y005020D02*
X003827Y005020D01*
X003673Y005020D02*
X003673Y005480D01*
X003520Y005327D01*
X003980Y005404D02*
X003980Y005097D01*
X004287Y005404D01*
X004287Y005097D01*
X004211Y005020D01*
X004057Y005020D01*
X003980Y005097D01*
X003980Y005404D02*
X004057Y005480D01*
X004211Y005480D01*
X004287Y005404D01*
X005520Y005404D02*
X005520Y005327D01*
X005597Y005250D01*
X005827Y005250D01*
X005827Y005097D02*
X005827Y005404D01*
X005750Y005480D01*
X005597Y005480D01*
X005520Y005404D01*
X005520Y005097D02*
X005597Y005020D01*
X005750Y005020D01*
X005827Y005097D01*
X007520Y005097D02*
X007520Y005173D01*
X007597Y005250D01*
X007750Y005250D01*
X007827Y005173D01*
X007827Y005097D01*
X007750Y005020D01*
X007597Y005020D01*
X007520Y005097D01*
X007597Y005250D02*
X007520Y005327D01*
X007520Y005404D01*
X007597Y005480D01*
X007750Y005480D01*
X007827Y005404D01*
X007827Y005327D01*
X007750Y005250D01*
X009520Y005097D02*
X009520Y005020D01*
X009520Y005097D02*
X009827Y005404D01*
X009827Y005480D01*
X009520Y005480D01*
X011520Y005250D02*
X011520Y005097D01*
X011597Y005020D01*
X011750Y005020D01*
X011827Y005097D01*
X011827Y005173D01*
X011750Y005250D01*
X011520Y005250D01*
X011673Y005404D01*
X011827Y005480D01*
X009827Y009020D02*
X009520Y009020D01*
X009673Y009020D02*
X009673Y009480D01*
X009520Y009327D01*
X007827Y009327D02*
X007520Y009020D01*
X007827Y009020D01*
X007827Y009327D02*
X007827Y009404D01*
X007750Y009480D01*
X007597Y009480D01*
X007520Y009404D01*
X005827Y009404D02*
X005827Y009327D01*
X005750Y009250D01*
X005827Y009173D01*
X005827Y009097D01*
X005750Y009020D01*
X005597Y009020D01*
X005520Y009097D01*
X005673Y009250D02*
X005750Y009250D01*
X005827Y009404D02*
X005750Y009480D01*
X005597Y009480D01*
X005520Y009404D01*
X003827Y009250D02*
X003520Y009250D01*
X003750Y009480D01*
X003750Y009020D01*
X001827Y009097D02*
X001750Y009020D01*
X001597Y009020D01*
X001520Y009097D01*
X001520Y009250D02*
X001673Y009327D01*
X001750Y009327D01*
X001827Y009250D01*
X001827Y009097D01*
X001520Y009250D02*
X001520Y009480D01*
X001827Y009480D01*
X001673Y005480D02*
X001673Y005020D01*
X001520Y005020D02*
X001827Y005020D01*
X001980Y005020D02*
X002287Y005020D01*
X002134Y005020D02*
X002134Y005480D01*
X001980Y005327D01*
X001673Y005480D02*
X001520Y005327D01*
X015145Y012520D02*
X015452Y012827D01*
X015452Y012904D01*
X015375Y012980D01*
X015222Y012980D01*
X015145Y012904D01*
X015145Y012520D02*
X015452Y012520D01*
X015605Y012520D02*
X015605Y012980D01*
X015836Y012980D01*
X015912Y012904D01*
X015912Y012750D01*
X015836Y012673D01*
X015605Y012673D01*
X015759Y012673D02*
X015912Y012520D01*
X016066Y012750D02*
X016373Y012750D01*
X016296Y012520D02*
X016296Y012980D01*
X016066Y012750D01*
X016203Y013770D02*
X016203Y014230D01*
X016356Y014230D02*
X016049Y014230D01*
X015896Y014230D02*
X015896Y013923D01*
X015742Y013770D01*
X015589Y013923D01*
X015589Y014230D01*
X015435Y014154D02*
X015359Y014230D01*
X015205Y014230D01*
X015128Y014154D01*
X015435Y014154D02*
X015435Y014077D01*
X015128Y013770D01*
X015435Y013770D01*
X016510Y013770D02*
X016817Y013770D01*
X016663Y013770D02*
X016663Y014230D01*
X016510Y014077D01*
X016889Y020020D02*
X017196Y020327D01*
X017196Y020404D01*
X017119Y020480D01*
X016966Y020480D01*
X016889Y020404D01*
X016889Y020020D02*
X017196Y020020D01*
X017349Y020020D02*
X017349Y020480D01*
X017579Y020480D01*
X017656Y020404D01*
X017656Y020250D01*
X017579Y020173D01*
X017349Y020173D01*
X017503Y020173D02*
X017656Y020020D01*
X017810Y020097D02*
X017886Y020020D01*
X018040Y020020D01*
X018117Y020097D01*
X018117Y020404D01*
X018040Y020480D01*
X017886Y020480D01*
X017810Y020404D01*
X017810Y020327D01*
X017886Y020250D01*
X018117Y020250D01*
X026428Y012654D02*
X026505Y012730D01*
X026659Y012730D01*
X026735Y012654D01*
X026735Y012577D01*
X026428Y012270D01*
X026735Y012270D01*
X026889Y012270D02*
X026889Y012730D01*
X027119Y012730D01*
X027196Y012654D01*
X027196Y012500D01*
X027119Y012423D01*
X026889Y012423D01*
X027042Y012423D02*
X027196Y012270D01*
X027349Y012270D02*
X027656Y012270D01*
X027503Y012270D02*
X027503Y012730D01*
X027349Y012577D01*
X027810Y012654D02*
X027886Y012730D01*
X028040Y012730D01*
X028117Y012654D01*
X028117Y012577D01*
X028040Y012500D01*
X028117Y012423D01*
X028117Y012347D01*
X028040Y012270D01*
X027886Y012270D01*
X027810Y012347D01*
X027963Y012500D02*
X028040Y012500D01*
X034096Y018770D02*
X034020Y018847D01*
X034020Y019000D01*
X034096Y019077D01*
X034173Y019077D01*
X034250Y019000D01*
X034327Y019077D01*
X034403Y019077D01*
X034480Y019000D01*
X034480Y018847D01*
X034403Y018770D01*
X034250Y018923D02*
X034250Y019000D01*
X034327Y019230D02*
X034327Y019461D01*
X034250Y019537D01*
X034096Y019537D01*
X034020Y019461D01*
X034020Y019230D01*
X034480Y019230D01*
X034327Y019384D02*
X034480Y019537D01*
X034403Y019691D02*
X034250Y019691D01*
X034250Y019921D01*
X034327Y019998D01*
X034403Y019998D01*
X034480Y019921D01*
X034480Y019768D01*
X034403Y019691D01*
X034250Y019691D02*
X034096Y019844D01*
X034020Y019998D01*
X032832Y019972D02*
X032832Y019738D01*
X032599Y019972D01*
X032540Y019972D01*
X032482Y019913D01*
X032482Y019797D01*
X032540Y019738D01*
X032832Y019613D02*
X032832Y019379D01*
X032482Y019379D01*
X032540Y019254D02*
X032599Y019254D01*
X032657Y019195D01*
X032715Y019254D01*
X032774Y019254D01*
X032832Y019195D01*
X032832Y019078D01*
X032774Y019020D01*
X032657Y019137D02*
X032657Y019195D01*
X032540Y019254D02*
X032482Y019195D01*
X032482Y019078D01*
X032540Y019020D01*
X034928Y016081D02*
X034986Y016081D01*
X035045Y016022D01*
X035045Y015847D01*
X035103Y015722D02*
X035045Y015663D01*
X035045Y015488D01*
X035162Y015488D01*
X035220Y015547D01*
X035220Y015663D01*
X035162Y015722D01*
X035103Y015722D01*
X035220Y015847D02*
X035220Y016022D01*
X035162Y016081D01*
X035103Y016081D01*
X035045Y016022D01*
X034928Y016081D02*
X034870Y016022D01*
X034870Y015847D01*
X035220Y015847D01*
X034870Y015722D02*
X034928Y015605D01*
X035045Y015488D01*
X035045Y015363D02*
X035103Y015304D01*
X035103Y015129D01*
X035103Y015246D02*
X035220Y015363D01*
X035045Y015363D02*
X034928Y015363D01*
X034870Y015304D01*
X034870Y015129D01*
X035220Y015129D01*
X035162Y015004D02*
X035220Y014945D01*
X035220Y014828D01*
X035162Y014770D01*
X035045Y014887D02*
X035045Y014945D01*
X035103Y015004D01*
X035162Y015004D01*
X035045Y014945D02*
X034986Y015004D01*
X034928Y015004D01*
X034870Y014945D01*
X034870Y014828D01*
X034928Y014770D01*
X036097Y012980D02*
X036250Y012980D01*
X036327Y012904D01*
X036327Y012827D01*
X036250Y012750D01*
X036327Y012673D01*
X036327Y012597D01*
X036250Y012520D01*
X036097Y012520D01*
X036020Y012597D01*
X036173Y012750D02*
X036250Y012750D01*
X036480Y012673D02*
X036711Y012673D01*
X036787Y012750D01*
X036787Y012904D01*
X036711Y012980D01*
X036480Y012980D01*
X036480Y012520D01*
X036634Y012673D02*
X036787Y012520D01*
X036941Y012597D02*
X037018Y012520D01*
X037171Y012520D01*
X037248Y012597D01*
X037248Y012750D01*
X037171Y012827D01*
X037094Y012827D01*
X036941Y012750D01*
X036941Y012980D01*
X037248Y012980D01*
X037401Y012904D02*
X037401Y012597D01*
X037478Y012520D01*
X037631Y012520D01*
X037708Y012597D01*
X037708Y012904D02*
X037631Y012980D01*
X037478Y012980D01*
X037401Y012904D01*
X036097Y012980D02*
X036020Y012904D01*
X039982Y013578D02*
X039982Y013695D01*
X040040Y013754D01*
X040099Y013754D01*
X040157Y013695D01*
X040215Y013754D01*
X040274Y013754D01*
X040332Y013695D01*
X040332Y013578D01*
X040274Y013520D01*
X040157Y013637D02*
X040157Y013695D01*
X040040Y013520D02*
X039982Y013578D01*
X039982Y013879D02*
X040332Y013879D01*
X040332Y014113D01*
X040332Y014238D02*
X040332Y014472D01*
X040332Y014355D02*
X039982Y014355D01*
X040099Y014238D01*
X040188Y024419D02*
X040265Y024495D01*
X040265Y024649D01*
X040188Y024726D01*
X040112Y024726D01*
X040035Y024649D01*
X040035Y024572D01*
X040035Y024649D02*
X039958Y024726D01*
X039881Y024726D01*
X039805Y024649D01*
X039805Y024495D01*
X039881Y024419D01*
X039881Y024879D02*
X040188Y024879D01*
X040265Y024956D01*
X040265Y025109D01*
X040188Y025186D01*
X040265Y025339D02*
X039805Y025339D01*
X040265Y025646D01*
X039805Y025646D01*
X039958Y025800D02*
X039805Y025953D01*
X040265Y025953D01*
X040265Y025800D02*
X040265Y026107D01*
X039881Y025186D02*
X039805Y025109D01*
X039805Y024956D01*
X039881Y024879D01*
X035811Y034977D02*
X035658Y034977D01*
X035581Y035053D01*
X035581Y035360D01*
X035658Y035437D01*
X035811Y035437D01*
X035888Y035360D01*
X035888Y035053D02*
X035811Y034977D01*
X035428Y034977D02*
X035121Y034977D01*
X035274Y034977D02*
X035274Y035437D01*
X035121Y035284D01*
X034967Y035360D02*
X034967Y035207D01*
X034891Y035130D01*
X034660Y035130D01*
X034660Y034977D02*
X034660Y035437D01*
X034891Y035437D01*
X034967Y035360D01*
X034814Y035130D02*
X034967Y034977D01*
X034507Y035207D02*
X034200Y035207D01*
X034430Y035437D01*
X034430Y034977D01*
X026594Y029230D02*
X026594Y028770D01*
X026441Y028770D02*
X026748Y028770D01*
X026441Y029077D02*
X026594Y029230D01*
X026287Y028770D02*
X025980Y028770D01*
X025980Y029230D01*
X025673Y029230D02*
X025673Y028770D01*
X025520Y028770D02*
X025827Y028770D01*
X025520Y029077D02*
X025673Y029230D01*
X022242Y033645D02*
X021935Y033645D01*
X022088Y033645D02*
X022088Y034105D01*
X021935Y033952D01*
X021781Y034029D02*
X021704Y034105D01*
X021551Y034105D01*
X021474Y034029D01*
X021474Y033722D01*
X021551Y033645D01*
X021704Y033645D01*
X021781Y033722D01*
X021321Y033645D02*
X021014Y033645D01*
X021167Y033645D02*
X021167Y034105D01*
X021014Y033952D01*
D16*
X011950Y029750D03*
X011950Y027750D03*
X019950Y015750D03*
D17*
X017125Y012750D02*
X016775Y012750D01*
X014475Y012750D02*
X014125Y012750D01*
X011375Y015750D02*
X011375Y016100D01*
X011375Y019400D02*
X011375Y019750D01*
X016000Y019250D02*
X016350Y019250D01*
X016350Y020250D02*
X016000Y020250D01*
X017500Y021500D02*
X017850Y021500D01*
X018650Y020250D02*
X019000Y020250D01*
X019000Y019250D02*
X018650Y019250D01*
X021150Y021500D02*
X021500Y021500D01*
X032750Y021000D02*
X032750Y020598D01*
X034250Y020650D02*
X034250Y021000D01*
X034250Y018350D02*
X034250Y018000D01*
X035000Y017000D02*
X035000Y016650D01*
X032750Y018000D02*
X032750Y018402D01*
X035000Y014350D02*
X035000Y014000D01*
X040250Y012902D02*
X040250Y012500D01*
X040250Y015098D02*
X040250Y015500D01*
X041750Y019375D02*
X041750Y019725D01*
X041750Y022025D02*
X041750Y022375D01*
D18*
X018575Y020250D03*
X016425Y020250D03*
X016700Y012750D03*
X014550Y012750D03*
D19*
X018150Y019250D03*
X018850Y021500D03*
D20*
X018525Y019250D03*
X016475Y019250D03*
D21*
X025500Y011000D02*
X025900Y011000D01*
X029100Y011000D02*
X029500Y011000D01*
X034750Y012750D02*
X035150Y012750D01*
X038350Y012750D02*
X038750Y012750D01*
X028250Y030750D02*
X027750Y030750D01*
X023750Y030750D02*
X023250Y030750D01*
D22*
X023880Y030750D03*
X027620Y030750D03*
X035330Y012750D03*
X038170Y012750D03*
X028920Y011000D03*
X026080Y011000D03*
D23*
X029345Y008937D02*
X029345Y008743D01*
X029394Y008695D01*
X029490Y008695D01*
X029539Y008743D01*
X029539Y008937D02*
X029490Y008985D01*
X029394Y008985D01*
X029345Y008937D01*
X029942Y008235D02*
X030039Y008138D01*
X030039Y007945D01*
X030039Y008090D02*
X029845Y008090D01*
X029845Y008138D02*
X029942Y008235D01*
X029845Y008138D02*
X029845Y007945D01*
X030345Y008695D02*
X030345Y008985D01*
X030490Y008985D01*
X030539Y008937D01*
X030539Y008840D01*
X030490Y008792D01*
X030345Y008792D01*
X030442Y008792D02*
X030539Y008695D01*
D24*
X006380Y017000D03*
D25*
X006384Y018635D02*
X006384Y018740D01*
X006804Y019160D01*
X006804Y019266D01*
X006384Y019266D01*
X006160Y019160D02*
X006055Y019266D01*
X005845Y019266D01*
X005740Y019160D01*
X005740Y018740D01*
X005845Y018635D01*
X006055Y018635D01*
X006160Y018740D01*
X005515Y018635D02*
X005095Y018635D01*
X005305Y018635D02*
X005305Y019266D01*
X005095Y019055D01*
X026910Y037660D02*
X027330Y037660D01*
X027120Y037660D02*
X027120Y038291D01*
X026910Y038080D01*
X027555Y037975D02*
X027765Y037975D01*
X027555Y037660D02*
X027555Y038291D01*
X027975Y038291D01*
X028199Y038080D02*
X028409Y038291D01*
X028409Y037660D01*
X028199Y037660D02*
X028619Y037660D01*
X030900Y015911D02*
X030795Y015805D01*
X030900Y015911D02*
X031110Y015911D01*
X031215Y015805D01*
X031215Y015700D01*
X031110Y015595D01*
X031215Y015490D01*
X031215Y015385D01*
X031110Y015280D01*
X030900Y015280D01*
X030795Y015385D01*
X031005Y015595D02*
X031110Y015595D01*
X031440Y015805D02*
X031440Y015385D01*
X031545Y015280D01*
X031755Y015280D01*
X031860Y015385D01*
X032084Y015280D02*
X032504Y015700D01*
X032504Y015805D01*
X032399Y015911D01*
X032189Y015911D01*
X032084Y015805D01*
X031860Y015805D02*
X031755Y015911D01*
X031545Y015911D01*
X031440Y015805D01*
X032084Y015280D02*
X032504Y015280D01*
D26*
X016730Y016500D03*
D27*
X012350Y022675D02*
X012000Y022675D01*
X011650Y022675D01*
X011650Y023075D02*
X012000Y023075D01*
X012350Y023075D01*
X019250Y029400D02*
X019750Y029400D01*
X020250Y029400D01*
X020250Y029750D02*
X019750Y029750D01*
X019250Y029750D01*
X013850Y008575D02*
X013500Y008575D01*
X013150Y008575D01*
X013150Y008175D02*
X013500Y008175D01*
X013850Y008175D01*
D28*
X016550Y033600D02*
X017450Y033600D01*
X017467Y033602D01*
X017484Y033606D01*
X017500Y033613D01*
X017514Y033623D01*
X017527Y033636D01*
X017537Y033650D01*
X017544Y033666D01*
X017548Y033683D01*
X017550Y033700D01*
X017550Y034150D01*
X017548Y034167D01*
X017544Y034184D01*
X017537Y034200D01*
X017527Y034214D01*
X017514Y034227D01*
X017500Y034237D01*
X017484Y034244D01*
X017467Y034248D01*
X017450Y034250D01*
X016550Y034250D01*
X016533Y034248D01*
X016516Y034244D01*
X016500Y034237D01*
X016486Y034227D01*
X016473Y034214D01*
X016463Y034200D01*
X016456Y034184D01*
X016452Y034167D01*
X016450Y034150D01*
X016450Y033700D01*
X016452Y033683D01*
X016456Y033666D01*
X016463Y033650D01*
X016473Y033636D01*
X016486Y033623D01*
X016500Y033613D01*
X016516Y033606D01*
X016533Y033602D01*
X016550Y033600D01*
X016550Y034750D02*
X017450Y034750D01*
X017467Y034752D01*
X017484Y034756D01*
X017500Y034763D01*
X017514Y034773D01*
X017527Y034786D01*
X017537Y034800D01*
X017544Y034816D01*
X017548Y034833D01*
X017550Y034850D01*
X017550Y035300D01*
X017548Y035317D01*
X017544Y035334D01*
X017537Y035350D01*
X017527Y035364D01*
X017514Y035377D01*
X017500Y035387D01*
X017484Y035394D01*
X017467Y035398D01*
X017450Y035400D01*
X016550Y035400D01*
X016533Y035398D01*
X016516Y035394D01*
X016500Y035387D01*
X016486Y035377D01*
X016473Y035364D01*
X016463Y035350D01*
X016456Y035334D01*
X016452Y035317D01*
X016450Y035300D01*
X016450Y034850D01*
X016452Y034833D01*
X016456Y034816D01*
X016463Y034800D01*
X016473Y034786D01*
X016486Y034773D01*
X016500Y034763D01*
X016516Y034756D01*
X016533Y034752D01*
X016550Y034750D01*
X019900Y036850D02*
X024100Y036850D01*
X024100Y039150D02*
X019900Y039150D01*
D29*
X018125Y038000D03*
X025875Y038000D03*
D30*
X024225Y036975D03*
X024225Y039025D03*
X019775Y039025D03*
X019775Y036975D03*
D31*
X019775Y038000D03*
X024225Y038000D03*
D32*
X023850Y037250D03*
X023850Y038750D03*
X020150Y038750D03*
X020150Y037250D03*
D33*
X018775Y037100D03*
D34*
X022000Y037250D03*
X022000Y038750D03*
D35*
X019600Y038775D03*
X018250Y038775D03*
X018250Y037225D03*
X019600Y037225D03*
X024400Y037225D03*
X025750Y037225D03*
X025750Y038775D03*
X024400Y038775D03*
D36*
X025075Y038775D03*
X025075Y037225D03*
X018925Y037225D03*
X018925Y038775D03*
D37*
X018850Y038900D03*
X025150Y038900D03*
X025150Y037100D03*
D38*
X011375Y018400D03*
D39*
X011375Y019025D03*
X011375Y016475D03*
X021150Y010725D03*
X021150Y007275D03*
X019100Y005725D03*
X019100Y002275D03*
D40*
X017250Y024375D02*
X017250Y024775D01*
X015750Y026125D02*
X015750Y026525D01*
X014500Y027750D02*
X014100Y027750D01*
X014100Y029750D02*
X014500Y029750D01*
X015750Y029725D02*
X015750Y030125D01*
X017250Y028375D02*
X017250Y027975D01*
X010900Y027750D02*
X010500Y027750D01*
X010500Y029750D02*
X010900Y029750D01*
D41*
X011325Y029750D03*
X011325Y027750D03*
X013675Y027750D03*
X013675Y029750D03*
D42*
X015750Y028675D03*
X017250Y026925D03*
X035250Y029700D03*
D43*
X017250Y027550D03*
X015750Y026950D03*
X017250Y025200D03*
X015750Y029300D03*
D44*
X018225Y021500D03*
X020775Y021500D03*
D45*
X017121Y022504D02*
X016945Y022680D01*
X013250Y020125D02*
X013250Y019875D01*
X009875Y020625D02*
X009875Y020875D01*
X009875Y026375D02*
X009875Y026625D01*
X012879Y026746D02*
X013055Y026570D01*
X013250Y014375D02*
X013250Y014125D01*
X040750Y017750D02*
X040750Y018000D01*
X040750Y023500D02*
X040750Y023750D01*
D46*
G36*
X016916Y022934D02*
X017071Y022779D01*
X016846Y022554D01*
X016691Y022709D01*
X016916Y022934D01*
G37*
G36*
X013154Y026696D02*
X013309Y026541D01*
X013084Y026316D01*
X012929Y026471D01*
X013154Y026696D01*
G37*
D47*
X009875Y026285D03*
X009875Y020965D03*
X013250Y019785D03*
X013250Y014465D03*
X040750Y018090D03*
X040750Y023410D03*
D48*
X022210Y007230D03*
X018040Y005770D03*
D49*
X019350Y004000D03*
X020900Y009000D03*
D50*
X021150Y008500D03*
X021150Y009500D03*
X019100Y004500D03*
X019100Y003500D03*
D51*
X019100Y003000D03*
X019100Y004000D03*
X019100Y005000D03*
X021150Y008000D03*
X021150Y009000D03*
X021150Y010000D03*
D52*
X031975Y014125D03*
D53*
G36*
X036570Y010815D02*
X036747Y010638D01*
X036112Y010003D01*
X035935Y010180D01*
X036570Y010815D01*
G37*
X037025Y015500D03*
X034025Y023750D03*
D54*
X034250Y020575D03*
X032750Y020526D03*
X032750Y018474D03*
X034250Y018425D03*
X035000Y016575D03*
X035000Y014425D03*
X040250Y015026D03*
X040250Y012974D03*
D55*
X036750Y019250D03*
X036750Y021250D03*
X036750Y024250D03*
X036750Y027250D03*
D56*
X041750Y020500D03*
D57*
X041750Y020000D03*
X041750Y021750D03*
M02*
