G75*
G70*
%OFA0B0*%
%FSLAX24Y24*%
%IPPOS*%
%LPD*%
%AMOC8*
5,1,8,0,0,1.08239X$1,22.5*
%
%ADD10C,0.0180*%
%ADD11R,0.1575X0.1969*%
%ADD12R,0.1969X0.1575*%
%ADD13R,0.0260X0.0800*%
%ADD14OC8,0.0832*%
%ADD15C,0.0752*%
%ADD16R,0.0709X0.0551*%
%ADD17R,0.0709X0.0630*%
%ADD18C,0.0832*%
%ADD19R,0.0710X0.0630*%
%ADD20R,0.0512X0.0591*%
%ADD21R,0.0512X0.0630*%
%ADD22C,0.0832*%
%ADD23R,0.0630X0.0710*%
%ADD24C,0.1810*%
%ADD25OC8,0.1810*%
%ADD26C,0.0912*%
%ADD27R,0.0591X0.0512*%
%ADD28C,0.1181*%
%ADD29C,0.0166*%
%ADD30C,0.1032*%
%ADD31C,0.0952*%
%ADD32C,0.1000*%
%ADD33OC8,0.0912*%
%ADD34OC8,0.1000*%
%ADD35C,0.0866*%
%ADD36R,0.0787X0.0630*%
%ADD37R,0.0630X0.0787*%
%ADD38R,0.0551X0.0709*%
%ADD39C,0.0160*%
%ADD40C,0.0320*%
%ADD41C,0.0760*%
%ADD42C,0.0500*%
%ADD43C,0.0860*%
%ADD44C,0.0900*%
%ADD45C,0.1000*%
%ADD46C,0.0560*%
%ADD47C,0.0660*%
%ADD48C,0.0240*%
%ADD49C,0.0400*%
%ADD50C,0.0906*%
D10*
X001427Y035090D02*
X001768Y035090D01*
X001938Y035260D01*
X001257Y035941D01*
X001257Y035260D01*
X001427Y035090D01*
X001938Y035260D02*
X001938Y035941D01*
X001768Y036111D01*
X001427Y036111D01*
X001257Y035941D01*
X002320Y035260D02*
X002320Y035090D01*
X002490Y035090D01*
X002490Y035260D01*
X002320Y035260D01*
X002915Y035090D02*
X003595Y035090D01*
X003255Y035090D02*
X003255Y036111D01*
X003595Y035771D01*
X004020Y035430D02*
X004020Y036111D01*
X004700Y036111D02*
X004700Y035430D01*
X004360Y035090D01*
X004020Y035430D01*
X005124Y035090D02*
X005805Y035090D01*
X005805Y036111D01*
X005124Y036111D01*
X005465Y035600D02*
X005805Y035600D01*
X006229Y035600D02*
X006400Y035430D01*
X006910Y035430D01*
X006910Y035090D02*
X006910Y036111D01*
X006400Y036111D01*
X006229Y035941D01*
X006229Y035600D01*
X006570Y035430D02*
X006229Y035090D01*
X006345Y037890D02*
X006515Y038060D01*
X005834Y038741D01*
X005834Y038060D01*
X006005Y037890D01*
X006345Y037890D01*
X006515Y038060D02*
X006515Y038741D01*
X006345Y038911D01*
X006005Y038911D01*
X005834Y038741D01*
X006939Y037890D02*
X007620Y037890D01*
X007280Y037890D02*
X007280Y038911D01*
X007620Y038571D01*
X008044Y038400D02*
X008725Y038400D01*
X009149Y038741D02*
X009149Y038911D01*
X009830Y038911D01*
X010254Y038911D02*
X010935Y038911D01*
X010935Y037890D01*
X010935Y038400D02*
X010594Y038400D01*
X009830Y038060D02*
X009830Y037890D01*
X009149Y037890D01*
X009830Y038060D02*
X009149Y038741D01*
X012450Y038571D02*
X012620Y038571D01*
X012960Y038230D01*
X012960Y037890D02*
X012960Y038571D01*
X013385Y038400D02*
X013385Y038060D01*
X013555Y037890D01*
X013895Y037890D01*
X014065Y038060D01*
X014065Y038400D01*
X013895Y038571D01*
X013555Y038571D01*
X013385Y038400D01*
X014462Y038400D02*
X014802Y038400D01*
X014632Y038741D02*
X014462Y038911D01*
X014632Y038741D02*
X014632Y037890D01*
D11*
X012902Y033571D03*
X010146Y033571D03*
D12*
X006406Y027272D03*
X006406Y024516D03*
D13*
X036500Y032040D03*
X037000Y032040D03*
X037500Y032040D03*
X038000Y032040D03*
X038500Y032040D03*
X039000Y032040D03*
X039500Y032040D03*
X039500Y034460D03*
X039000Y034460D03*
X038500Y034460D03*
X038000Y034460D03*
X037500Y034460D03*
X037000Y034460D03*
X036500Y034460D03*
D14*
X032750Y036250D03*
X032750Y038250D03*
X027000Y038500D03*
X024000Y038500D03*
X022000Y034750D03*
X027000Y034750D03*
X034750Y028750D03*
X033500Y022500D03*
X033500Y019500D03*
X035000Y017000D03*
X035000Y014000D03*
X034750Y012750D03*
X032750Y009750D03*
X030750Y009750D03*
X029500Y010000D03*
X029500Y008500D03*
X030000Y007750D03*
X030500Y008500D03*
X025500Y010000D03*
X018500Y011000D03*
X018500Y014000D03*
X018500Y015750D03*
X019000Y018500D03*
X016000Y018500D03*
X010250Y021250D03*
X008250Y021250D03*
X015250Y025000D03*
X015250Y028000D03*
X013250Y028000D03*
X022750Y021250D03*
X024750Y021250D03*
X025750Y019000D03*
X027750Y019000D03*
X027750Y017000D03*
X025750Y017000D03*
X038750Y012750D03*
D15*
X035250Y031750D03*
X035250Y032750D03*
X035250Y033750D03*
D16*
X032750Y033331D03*
X032750Y032669D03*
X032750Y031331D03*
X032750Y034669D03*
D17*
X033750Y036699D03*
X033750Y037801D03*
X040500Y033926D03*
X040500Y032824D03*
D18*
X040791Y029875D02*
X039959Y029875D01*
X039959Y028875D02*
X040791Y028875D01*
X040791Y027875D02*
X039959Y027875D01*
X040750Y022666D02*
X040750Y021834D01*
X040750Y019666D02*
X040750Y018834D01*
X024666Y019000D02*
X023834Y019000D01*
X023834Y018000D02*
X024666Y018000D01*
X024666Y017000D02*
X023834Y017000D01*
X023750Y015332D02*
X023750Y014500D01*
X024750Y014500D02*
X024750Y015332D01*
X021666Y017000D02*
X020834Y017000D01*
X020834Y018000D02*
X021666Y018000D01*
X021666Y019000D02*
X020834Y019000D01*
X020834Y020000D02*
X021666Y020000D01*
X021916Y021250D02*
X021084Y021250D01*
X019416Y019500D02*
X018584Y019500D01*
X017916Y021250D02*
X017084Y021250D01*
X016416Y019500D02*
X015584Y019500D01*
X011250Y020834D02*
X011250Y021666D01*
X011250Y017666D02*
X011250Y016834D01*
X013334Y011000D02*
X014166Y011000D01*
X016334Y011000D02*
X017166Y011000D01*
X023750Y010668D02*
X023750Y011500D01*
X024750Y011500D02*
X024750Y010668D01*
X024666Y020000D02*
X023834Y020000D01*
X025000Y036334D02*
X025000Y037166D01*
X027000Y037166D02*
X027000Y036334D01*
D19*
X033750Y034560D03*
X033750Y033440D03*
X033750Y032560D03*
X033750Y031440D03*
X033000Y026810D03*
X033000Y025690D03*
X029000Y018560D03*
X029000Y017440D03*
X022750Y017060D03*
X022750Y015940D03*
X032250Y008560D03*
X032250Y007440D03*
D20*
X021624Y014500D03*
X020876Y014500D03*
D21*
X026376Y015750D03*
X027124Y015750D03*
D22*
X019500Y015750D03*
X013250Y025000D03*
X035750Y028750D03*
X038010Y027180D03*
X038010Y026180D03*
X038010Y025180D03*
X038010Y024180D03*
X038010Y023180D03*
X038010Y022180D03*
X038010Y021180D03*
X038010Y020180D03*
X038010Y019180D03*
X039010Y018680D03*
X039010Y019680D03*
X039010Y020680D03*
X039010Y021680D03*
X039010Y022680D03*
X039010Y023680D03*
X039010Y024680D03*
X039010Y025680D03*
X039010Y026680D03*
D23*
X039060Y028125D03*
X039060Y029125D03*
X037940Y029125D03*
X037940Y028125D03*
X037940Y030500D03*
X039060Y030500D03*
X034560Y027750D03*
X033440Y027750D03*
X027310Y020000D03*
X026190Y020000D03*
X025940Y011000D03*
X027060Y011000D03*
X029940Y011000D03*
X031060Y011000D03*
D24*
X004000Y017000D03*
D25*
X008000Y017000D03*
D26*
X014794Y016250D02*
X015706Y016250D01*
X015706Y015250D02*
X014794Y015250D01*
X014794Y014250D02*
X015706Y014250D01*
X021294Y009750D02*
X022206Y009750D01*
X022206Y008750D02*
X021294Y008750D01*
X021294Y007750D02*
X022206Y007750D01*
X019206Y004500D02*
X018294Y004500D01*
X018294Y003500D02*
X019206Y003500D01*
X019206Y002500D02*
X018294Y002500D01*
D27*
X013250Y012126D03*
X013250Y012874D03*
X013000Y013626D03*
X013000Y014374D03*
X012000Y014374D03*
X012000Y013626D03*
X012000Y012874D03*
X012000Y012126D03*
D28*
X009650Y010650D03*
X007681Y010650D03*
X005713Y010650D03*
X003744Y010650D03*
X001776Y010650D03*
X001776Y003957D03*
X003744Y003957D03*
X005713Y003957D03*
X007681Y003957D03*
X009650Y003957D03*
X011618Y003957D03*
X018960Y032303D03*
X027966Y032303D03*
D29*
X014708Y009652D02*
X014625Y009569D01*
X014625Y009845D01*
X014819Y010039D01*
X015095Y010039D01*
X015289Y009845D01*
X015289Y009569D01*
X015095Y009375D01*
X014819Y009375D01*
X014625Y009569D01*
X014750Y009621D01*
X014750Y009793D01*
X014871Y009914D01*
X015043Y009914D01*
X015164Y009793D01*
X015164Y009621D01*
X015043Y009500D01*
X014871Y009500D01*
X014750Y009621D01*
X014875Y009673D01*
X014875Y009741D01*
X014923Y009789D01*
X014991Y009789D01*
X015039Y009741D01*
X015039Y009673D01*
X014991Y009625D01*
X014923Y009625D01*
X014875Y009673D01*
X013294Y008238D02*
X013211Y008155D01*
X013211Y008431D01*
X013405Y008625D01*
X013681Y008625D01*
X013875Y008431D01*
X013875Y008155D01*
X013681Y007961D01*
X013405Y007961D01*
X013211Y008155D01*
X013336Y008207D01*
X013336Y008379D01*
X013457Y008500D01*
X013629Y008500D01*
X013750Y008379D01*
X013750Y008207D01*
X013629Y008086D01*
X013457Y008086D01*
X013336Y008207D01*
X013461Y008259D01*
X013461Y008327D01*
X013509Y008375D01*
X013577Y008375D01*
X013625Y008327D01*
X013625Y008259D01*
X013577Y008211D01*
X013509Y008211D01*
X013461Y008259D01*
D30*
X015707Y033753D02*
X015191Y034647D01*
X016923Y035647D02*
X017439Y034753D01*
X021077Y036853D02*
X020561Y037747D01*
X022293Y038747D02*
X022809Y037853D01*
D31*
X017250Y029000D03*
X015250Y029000D03*
X013250Y029000D03*
X011500Y029000D03*
X011500Y025000D03*
X013250Y025000D03*
X015250Y025000D03*
X017250Y025000D03*
D32*
X023500Y024750D03*
X023500Y028750D03*
X028500Y028750D03*
X028500Y024750D03*
X036000Y025250D03*
X038250Y015500D03*
X036500Y009250D03*
X030750Y014750D03*
D33*
X036750Y019250D03*
X036750Y021250D03*
X036750Y023500D03*
X036750Y027250D03*
X040750Y023750D03*
X040750Y017750D03*
X019750Y023800D03*
X017250Y023250D03*
X011250Y023250D03*
X009750Y022750D03*
X009750Y028750D03*
X019750Y029700D03*
D34*
X034000Y025250D03*
X036250Y015500D03*
X032750Y014750D03*
X036500Y011250D03*
D35*
X040250Y012500D03*
X040250Y015500D03*
X033811Y023561D03*
X031689Y021439D03*
D36*
X041500Y015301D03*
X041500Y014199D03*
D37*
X039801Y014000D03*
X038699Y014000D03*
D38*
X039956Y031000D03*
X041294Y031000D03*
D39*
X041294Y032030D01*
X040500Y032824D01*
X041375Y032750D02*
X041375Y033625D01*
X041074Y033926D01*
X040500Y033926D01*
X039500Y034460D01*
X039000Y034460D02*
X039000Y035000D01*
X038500Y035000D01*
X038500Y035500D01*
X037750Y036250D01*
X035500Y036250D01*
X035250Y036500D01*
X035250Y037250D01*
X034699Y037801D01*
X033750Y037801D01*
X034250Y037250D02*
X034625Y036875D01*
X034625Y036375D01*
X035125Y035750D01*
X037500Y035750D01*
X038000Y035250D01*
X038000Y034460D01*
X037500Y034460D02*
X037500Y035000D01*
X037250Y035250D01*
X034750Y035250D01*
X033750Y036500D01*
X033750Y036699D01*
X034250Y037250D02*
X032375Y037250D01*
X032000Y036875D01*
X032000Y035625D01*
X032250Y035375D01*
X034000Y035375D01*
X034750Y034625D01*
X036125Y034625D01*
X036290Y034460D01*
X036500Y034460D01*
X036460Y034500D01*
X036500Y034460D02*
X036500Y033750D01*
X037000Y033750D01*
X037000Y034460D01*
X037500Y034460D02*
X037500Y033750D01*
X037750Y033500D01*
X038750Y033500D01*
X039000Y033250D01*
X039000Y032750D01*
X039000Y032040D01*
X038500Y032040D02*
X038500Y032750D01*
X037500Y032750D01*
X036250Y032750D01*
X035250Y031750D01*
X033750Y031440D01*
X032750Y031331D01*
X032750Y032669D02*
X033750Y032560D01*
X035250Y032750D01*
X035250Y033750D02*
X033750Y034560D01*
X032750Y034669D01*
X032206Y034669D01*
X031500Y035250D01*
X031500Y037375D01*
X032750Y038250D01*
X033750Y033440D02*
X033750Y032560D01*
X032750Y032669D02*
X032750Y033331D01*
X034875Y030125D02*
X033440Y028690D01*
X033440Y027750D01*
X033000Y026810D01*
X033000Y025690D02*
X034000Y025250D01*
X034560Y027750D02*
X034750Y028750D01*
X034750Y029125D01*
X035250Y029625D01*
X037000Y029625D01*
X037125Y029750D01*
X038250Y029750D01*
X038500Y030000D01*
X038500Y031000D01*
X038750Y031250D01*
X039706Y031250D01*
X039956Y031000D01*
X039060Y030500D02*
X040375Y029875D01*
X040375Y028875D02*
X039060Y029125D01*
X039060Y028125D01*
X037940Y028125D02*
X038010Y027180D01*
X036750Y027250D01*
X035750Y028750D02*
X036000Y029000D01*
X037940Y029125D01*
X036750Y030125D02*
X034875Y030125D01*
X036750Y030125D02*
X037250Y030750D01*
X037250Y031250D01*
X037000Y031500D01*
X037000Y032040D01*
X036500Y032040D02*
X036500Y031625D01*
X037500Y032040D02*
X037500Y032750D01*
X038000Y032040D02*
X038000Y031435D01*
X037940Y030500D01*
X039500Y032040D02*
X039500Y032750D01*
X039000Y032750D01*
X038500Y034460D02*
X038500Y035000D01*
X041375Y032750D02*
X042000Y032125D01*
X042000Y031000D01*
X042125Y030875D01*
X042125Y027375D01*
X041750Y026625D01*
X038010Y021180D02*
X036750Y021250D01*
D40*
X033000Y025690D02*
X032560Y025690D01*
X032000Y026250D01*
X032000Y028375D01*
X034500Y030875D01*
X035750Y030875D01*
X032750Y036250D02*
X033750Y036699D01*
X033750Y037801D02*
X032750Y038250D01*
X032250Y007440D02*
X032000Y007250D01*
D41*
X032750Y009750D02*
X032750Y011500D01*
X034000Y012750D01*
X034750Y012750D01*
X039010Y018680D02*
X039010Y019180D01*
X039010Y019680D01*
X039010Y019180D02*
X038010Y019180D01*
X038010Y020180D02*
X038010Y021180D01*
X038010Y022180D01*
X038010Y022430D01*
X038010Y023180D01*
X038010Y022680D01*
X039010Y022680D01*
X039010Y023680D01*
X039010Y024680D02*
X039010Y025680D01*
X039010Y026680D01*
X039010Y025680D02*
X038010Y025680D01*
X038010Y025500D01*
X036000Y025250D01*
X035750Y024250D01*
X035635Y024173D01*
X033811Y023561D01*
X038010Y023180D02*
X038010Y024180D01*
X038010Y025180D02*
X038010Y025500D01*
X038010Y025680D02*
X038010Y026180D01*
X039010Y022680D02*
X039010Y021680D01*
X039010Y020680D01*
X015250Y015250D02*
X013750Y015250D01*
X012250Y016250D01*
X011250Y017250D01*
D42*
X010500Y016500D01*
X010500Y013750D01*
X012000Y013626D02*
X012000Y012874D01*
X012000Y012126D02*
X007807Y012126D01*
X007681Y012000D01*
X009650Y010650D02*
X012150Y010650D01*
X012500Y011000D01*
X013750Y011000D01*
X013250Y012126D02*
X015250Y012126D01*
X016750Y012126D01*
X017250Y012500D01*
X020000Y012500D01*
X020876Y013376D01*
X020876Y014500D01*
X021624Y014500D02*
X023750Y014500D01*
X024750Y014500D02*
X026750Y014500D01*
X027124Y014874D01*
X027124Y015750D01*
X027750Y017000D01*
X029000Y017440D01*
X027310Y020000D02*
X027310Y021440D01*
X026500Y022250D01*
X023000Y022250D01*
X022750Y022000D01*
X022750Y021250D01*
X021500Y021250D01*
X021250Y021000D01*
X021250Y020000D01*
X021250Y019000D02*
X019000Y019000D01*
X019000Y019500D01*
X019000Y019000D02*
X019000Y018500D01*
X019500Y017250D02*
X020250Y018000D01*
X021250Y018000D01*
X019500Y017250D02*
X019500Y017000D01*
X018500Y017000D01*
X017500Y018000D01*
X017500Y021250D01*
X016000Y018500D02*
X015250Y016250D01*
X015250Y014250D02*
X013000Y014374D01*
X013000Y013626D02*
X013250Y012874D01*
X013250Y012126D02*
X012000Y012126D01*
X015250Y010750D02*
X014957Y009707D01*
X015250Y010750D02*
X015250Y012126D01*
X017250Y012500D02*
X017250Y014500D01*
X018500Y015750D01*
X019500Y015750D02*
X019500Y015000D01*
X018500Y014000D01*
X019500Y015750D02*
X019500Y017000D01*
X021500Y021250D02*
X021500Y021500D01*
X020750Y022250D01*
X015250Y027000D02*
X014500Y026500D01*
X012000Y026500D01*
X011750Y027000D01*
X011500Y029000D01*
X013250Y029000D02*
X013250Y028000D01*
X013250Y029000D02*
X013250Y029500D01*
X014000Y030250D01*
X016500Y030250D01*
X017250Y029500D01*
X017250Y029000D01*
X032250Y023500D02*
X032250Y022250D01*
X033750Y020750D01*
X035500Y020750D01*
X035500Y021875D01*
X036055Y022430D01*
X038010Y022430D01*
X039010Y023680D02*
X040750Y023750D01*
X040750Y027500D01*
X040375Y027875D01*
X039750Y026625D02*
X039010Y026680D01*
X036000Y025250D02*
X035750Y028750D01*
X034000Y025250D02*
X032250Y023500D01*
X035500Y020750D02*
X035500Y018750D01*
X036250Y018000D01*
X036250Y015500D01*
X038250Y015500D02*
X040250Y015500D01*
X040750Y015500D01*
X040750Y017750D01*
X040750Y019250D01*
X039010Y019180D01*
X038010Y019180D02*
X036750Y019250D01*
X040750Y022250D02*
X040750Y023750D01*
X040750Y015500D02*
X041301Y015500D01*
X041500Y015301D01*
X041500Y014199D02*
X041301Y014000D01*
X039801Y014000D01*
X038699Y014000D02*
X038750Y012750D01*
X032750Y009750D02*
X032250Y008560D01*
X031560Y008560D01*
X030500Y008500D01*
X029500Y008500D02*
X029500Y010000D01*
X029500Y010560D02*
X029940Y011000D01*
X031060Y011000D02*
X030750Y009750D01*
X023750Y011500D02*
X023690Y011500D01*
X018750Y004500D02*
X017000Y004500D01*
X017000Y002500D01*
X018750Y002500D01*
X001776Y003957D02*
X001750Y003982D01*
D43*
X018750Y003500D02*
X023500Y003500D01*
X025500Y005500D01*
X033500Y005500D01*
X036500Y008500D01*
X036500Y009250D01*
X037250Y009250D01*
X040250Y012250D01*
X040250Y012500D01*
X036500Y013500D02*
X036500Y011250D01*
X034750Y012750D02*
X035000Y014000D01*
X036500Y013500D02*
X036250Y015500D01*
X034000Y015500D01*
X033250Y014750D01*
X032750Y014750D01*
X031689Y015689D02*
X030750Y014750D01*
X028000Y012250D01*
X027500Y010750D01*
X030000Y007750D02*
X030000Y007250D01*
X031689Y015689D02*
X031689Y021439D01*
X033500Y022500D02*
X033811Y023561D01*
X035635Y024173D02*
X036750Y023500D01*
X033500Y019500D02*
X033500Y018500D01*
X035000Y017000D01*
D44*
X039750Y026625D03*
X041750Y026625D03*
D45*
X003750Y003951D02*
X003750Y002750D01*
X005000Y001500D01*
X009500Y001500D01*
X011618Y003957D02*
X015661Y008000D01*
X020000Y008000D01*
X019750Y006250D02*
X020250Y005750D01*
X023000Y005750D01*
X024500Y007250D01*
X030000Y007250D01*
X032000Y007250D01*
X033000Y007250D01*
X034750Y009000D01*
X034750Y010000D01*
X035750Y011250D01*
X036500Y011250D01*
X022800Y023800D02*
X023500Y024750D01*
X022800Y023800D02*
X019750Y023800D01*
X018300Y027000D01*
X015250Y027000D01*
X015250Y028000D01*
X015250Y029000D01*
X017250Y029000D02*
X019750Y029000D01*
X019750Y029700D01*
X019750Y029000D02*
X023000Y026750D01*
X026500Y026750D01*
X028500Y024750D01*
X028500Y028750D02*
X027966Y029534D01*
X027966Y032303D01*
X027966Y034034D01*
X027000Y034750D01*
X027000Y036750D01*
X027000Y038500D01*
X025000Y036750D02*
X023500Y034750D01*
X022000Y034750D01*
X022500Y032250D01*
X020013Y032250D01*
X018960Y032303D01*
X017906Y031500D01*
X009000Y031500D01*
X006406Y028906D01*
X006406Y027272D01*
X006421Y024500D02*
X003750Y024500D01*
X002750Y025500D01*
X002750Y029750D01*
X007500Y034500D01*
X009217Y034500D01*
X010146Y033571D01*
X012902Y033571D02*
X013531Y034200D01*
X015449Y034200D01*
X009750Y028750D02*
X009750Y025000D01*
X009875Y024875D01*
X010000Y025000D01*
X011250Y025000D01*
X011250Y023250D01*
X009750Y022750D02*
X010250Y021250D01*
X011250Y021250D01*
X011750Y019250D02*
X010000Y019250D01*
X008000Y017000D01*
X007681Y016681D01*
X007681Y012000D01*
X007681Y010650D01*
X004500Y013750D02*
X003744Y012744D01*
X003744Y010650D01*
X001776Y010650D02*
X001776Y014776D01*
X004000Y017000D01*
X004000Y019500D01*
X005500Y021000D01*
X007750Y021000D01*
X008250Y021250D01*
X008250Y023250D01*
X009875Y024875D01*
X011250Y025000D02*
X011500Y025000D01*
X013250Y025000D01*
X015250Y025000D02*
X015250Y022750D01*
X011750Y019250D01*
X016000Y019500D02*
X016000Y018500D01*
X017500Y021250D02*
X017250Y021500D01*
X017250Y023250D01*
X017250Y025000D02*
X015250Y025000D01*
X023500Y028750D02*
X022500Y032250D01*
X022551Y038300D02*
X022751Y038500D01*
X024000Y038500D01*
X018500Y011000D02*
X016750Y011000D01*
X016500Y006250D02*
X013500Y003250D01*
X013500Y001500D02*
X016000Y001500D01*
X017000Y002500D01*
X016500Y006250D02*
X019750Y006250D01*
X003750Y003951D02*
X003744Y003957D01*
D46*
X009650Y003957D02*
X009650Y003100D01*
X010250Y002500D01*
X012750Y002500D01*
X013500Y003250D01*
X013500Y001500D02*
X009500Y001500D01*
X021750Y008750D02*
X024500Y008750D01*
X023690Y008810D01*
X023690Y011500D01*
X024750Y011500D02*
X025500Y010000D01*
X025940Y011000D01*
X027060Y011000D02*
X028000Y012250D01*
X027500Y010750D02*
X027500Y010000D01*
X026250Y008750D01*
X024500Y008750D01*
X029500Y010000D02*
X029500Y010560D01*
X022750Y015940D02*
X021624Y015940D01*
X021624Y014500D01*
X021624Y015940D02*
X021250Y015940D01*
X021250Y017000D01*
D47*
X021750Y009750D02*
X020000Y009750D01*
X020000Y008000D01*
X020250Y007750D01*
X021750Y007750D01*
X013543Y008293D02*
X010750Y005500D01*
X009650Y005500D01*
X009650Y003957D01*
X009650Y005500D02*
X001750Y005500D01*
X001750Y003982D01*
D48*
X035750Y030875D02*
X036500Y031625D01*
X040375Y027875D02*
X041250Y027875D01*
X041625Y028250D01*
X041625Y030581D01*
X041294Y031000D01*
D49*
X029000Y018560D02*
X027750Y019000D01*
X027310Y020000D01*
X026190Y020000D02*
X025750Y019000D01*
X024250Y019000D01*
X024250Y018000D02*
X027750Y018000D01*
X027750Y017000D01*
X026376Y015750D02*
X025750Y017000D01*
X024250Y017000D01*
X022750Y017060D02*
X022750Y020000D01*
X024250Y020000D01*
X024750Y021250D01*
X020750Y022250D02*
X019250Y022250D01*
X017250Y025000D01*
X007000Y024500D02*
X006421Y024500D01*
X006406Y024516D01*
X012000Y014374D02*
X013000Y014374D01*
X013000Y013626D02*
X012000Y013626D01*
D50*
X010500Y013750D03*
X004500Y013750D03*
M02*
