G75*
G70*
%OFA0B0*%
%FSLAX24Y24*%
%IPPOS*%
%LPD*%
%AMOC8*
5,1,8,0,0,1.08239X$1,22.5*
%
%ADD10C,0.0180*%
%ADD11R,0.1575X0.1969*%
%ADD12R,0.1969X0.1575*%
%ADD13R,0.0260X0.0800*%
%ADD14OC8,0.0832*%
%ADD15C,0.0752*%
%ADD16R,0.0551X0.0709*%
%ADD17R,0.0630X0.0709*%
%ADD18R,0.0709X0.0630*%
%ADD19C,0.0832*%
%ADD20R,0.0710X0.0630*%
%ADD21R,0.0512X0.0591*%
%ADD22R,0.0512X0.0630*%
%ADD23C,0.0832*%
%ADD24R,0.0630X0.0710*%
%ADD25C,0.1810*%
%ADD26OC8,0.1810*%
%ADD27C,0.0912*%
%ADD28R,0.0591X0.0512*%
%ADD29C,0.1181*%
%ADD30C,0.1032*%
%ADD31C,0.0952*%
%ADD32C,0.1000*%
%ADD33OC8,0.0912*%
%ADD34OC8,0.1000*%
%ADD35C,0.0866*%
%ADD36R,0.0787X0.0630*%
%ADD37R,0.0630X0.0787*%
%ADD38C,0.0760*%
%ADD39C,0.0500*%
%ADD40C,0.0400*%
%ADD41C,0.1000*%
%ADD42R,0.0396X0.0396*%
D10*
X001427Y042003D02*
X001257Y042173D01*
X001257Y042854D01*
X001938Y042173D01*
X001768Y042003D01*
X001427Y042003D01*
X001938Y042173D02*
X001938Y042854D01*
X001768Y043024D01*
X001427Y043024D01*
X001257Y042854D01*
X002320Y042173D02*
X002320Y042003D01*
X002490Y042003D01*
X002490Y042173D01*
X002320Y042173D01*
X002915Y042003D02*
X003595Y042003D01*
X003255Y042003D02*
X003255Y043024D01*
X003595Y042684D01*
X004020Y042343D02*
X004020Y043024D01*
X004700Y043024D02*
X004700Y042343D01*
X004360Y042003D01*
X004020Y042343D01*
X005124Y042003D02*
X005805Y042003D01*
X005805Y043024D01*
X005124Y043024D01*
X005465Y042513D02*
X005805Y042513D01*
X006229Y042513D02*
X006229Y042854D01*
X006400Y043024D01*
X006910Y043024D01*
X006910Y042003D01*
X006910Y042343D02*
X006400Y042343D01*
X006229Y042513D01*
X006570Y042343D02*
X006229Y042003D01*
X006345Y044803D02*
X006005Y044803D01*
X005834Y044973D01*
X005834Y045654D01*
X006515Y044973D01*
X006345Y044803D01*
X006515Y044973D02*
X006515Y045654D01*
X006345Y045824D01*
X006005Y045824D01*
X005834Y045654D01*
X006939Y044803D02*
X007620Y044803D01*
X007280Y044803D02*
X007280Y045824D01*
X007620Y045484D01*
X008044Y045313D02*
X008725Y045313D01*
X009149Y045654D02*
X009830Y044973D01*
X009830Y044803D01*
X009149Y044803D01*
X009149Y045654D02*
X009149Y045824D01*
X009830Y045824D01*
X010254Y045824D02*
X010935Y045824D01*
X010935Y044803D01*
X010935Y045313D02*
X010594Y045313D01*
X012450Y045484D02*
X012620Y045484D01*
X012960Y045143D01*
X012960Y044803D02*
X012960Y045484D01*
X013385Y045313D02*
X013385Y044973D01*
X013555Y044803D01*
X013895Y044803D01*
X014065Y044973D01*
X014065Y045313D01*
X013895Y045484D01*
X013555Y045484D01*
X013385Y045313D01*
X014462Y045313D02*
X014802Y045313D01*
X014632Y045654D02*
X014632Y044803D01*
X014632Y045654D02*
X014462Y045824D01*
D11*
X012902Y040484D03*
X010146Y040484D03*
D12*
X006406Y034185D03*
X006406Y031429D03*
D13*
X036000Y037953D03*
X036500Y037953D03*
X037000Y037953D03*
X037500Y037953D03*
X038000Y037953D03*
X038500Y037953D03*
X039000Y037953D03*
X039000Y040373D03*
X038500Y040373D03*
X038000Y040373D03*
X037500Y040373D03*
X037000Y040373D03*
X036500Y040373D03*
X036000Y040373D03*
D14*
X034750Y040913D03*
X033000Y040913D03*
X033000Y038913D03*
X034750Y038913D03*
X034750Y035663D03*
X028500Y041913D03*
X027500Y045413D03*
X024500Y045413D03*
X023500Y041913D03*
X015250Y034913D03*
X013250Y034913D03*
X015250Y031913D03*
X016750Y026663D03*
X021500Y024663D03*
X023500Y024663D03*
X025500Y022163D03*
X027500Y022163D03*
X027500Y020163D03*
X025500Y020163D03*
X029750Y018913D03*
X029750Y016913D03*
X027750Y014413D03*
X027250Y013663D03*
X026750Y014413D03*
X034000Y019913D03*
X038000Y019913D03*
X014000Y016913D03*
X014000Y014913D03*
X010000Y028413D03*
X008000Y028413D03*
D15*
X032500Y042663D03*
X033500Y042663D03*
X034500Y042663D03*
D16*
X033831Y044413D03*
X032919Y044663D03*
X031581Y044663D03*
X035169Y044413D03*
X040331Y037913D03*
X041669Y037913D03*
X017419Y025163D03*
X016081Y025163D03*
D17*
X036699Y036413D03*
X037801Y036413D03*
D18*
X035000Y039112D03*
X035000Y040214D03*
X033750Y040714D03*
X033750Y039612D03*
D19*
X028000Y043497D02*
X028000Y044329D01*
X026000Y044329D02*
X026000Y043497D01*
X018166Y028163D02*
X017334Y028163D01*
X015166Y028163D02*
X014334Y028163D01*
X011000Y027997D02*
X011000Y028829D01*
X011000Y024829D02*
X011000Y023997D01*
X015620Y020533D02*
X016208Y021121D01*
X013380Y018293D02*
X012792Y017705D01*
X020584Y020163D02*
X021416Y020163D01*
X021416Y021163D02*
X020584Y021163D01*
X020584Y022163D02*
X021416Y022163D01*
X021416Y023163D02*
X020584Y023163D01*
X023584Y023163D02*
X024416Y023163D01*
X024416Y022163D02*
X023584Y022163D01*
X023584Y021163D02*
X024416Y021163D01*
X024416Y020163D02*
X023584Y020163D01*
X023750Y019245D02*
X023750Y018413D01*
X024750Y018413D02*
X024750Y019245D01*
X024750Y015413D02*
X024750Y014581D01*
X023750Y014581D02*
X023750Y015413D01*
X040750Y025497D02*
X040750Y026329D01*
X040750Y028497D02*
X040750Y029329D01*
X041084Y034663D02*
X041916Y034663D01*
X041916Y035663D02*
X041084Y035663D01*
X041084Y036663D02*
X041916Y036663D01*
D20*
X033750Y037223D03*
X033750Y036103D03*
X033250Y034973D03*
X033250Y033853D03*
X029250Y021723D03*
X029250Y020603D03*
X028500Y017973D03*
X028500Y016853D03*
X029500Y015473D03*
X029500Y014353D03*
X022500Y019103D03*
X022500Y020223D03*
D21*
X020374Y019413D03*
X019626Y019413D03*
D22*
X026126Y018913D03*
X026874Y018913D03*
X040626Y032913D03*
X041374Y032913D03*
D23*
X039010Y032593D03*
X039010Y033593D03*
X038010Y034093D03*
X038010Y033093D03*
X038010Y032093D03*
X038010Y031093D03*
X038010Y030093D03*
X038010Y029093D03*
X039010Y029593D03*
X039010Y030593D03*
X039010Y031593D03*
X039010Y028593D03*
X039010Y027593D03*
X039010Y026593D03*
X039010Y025593D03*
X038010Y026093D03*
X038010Y027093D03*
X038010Y028093D03*
X035750Y035663D03*
X017750Y026663D03*
X013250Y031913D03*
D24*
X016190Y024163D03*
X017310Y024163D03*
X017690Y022163D03*
X018810Y022163D03*
X025940Y023163D03*
X027060Y023163D03*
X027310Y016413D03*
X026190Y016413D03*
X024810Y013413D03*
X023690Y013413D03*
X039190Y034913D03*
X040310Y034913D03*
X040060Y036163D03*
X038940Y036163D03*
X033810Y043663D03*
X032690Y043663D03*
X033940Y045663D03*
X035060Y045663D03*
D25*
X004000Y023913D03*
D26*
X008000Y023913D03*
D27*
X013750Y023119D02*
X013750Y022207D01*
X014750Y022207D02*
X014750Y023119D01*
X015750Y023119D02*
X015750Y022207D01*
X020794Y016163D02*
X021706Y016163D01*
X021706Y015163D02*
X020794Y015163D01*
X020794Y014163D02*
X021706Y014163D01*
X018206Y011413D02*
X017294Y011413D01*
X017294Y010413D02*
X018206Y010413D01*
X018206Y009413D02*
X017294Y009413D01*
D28*
X013500Y019539D03*
X013500Y020287D03*
X013500Y021039D03*
X013500Y021787D03*
X012500Y021787D03*
X012500Y021039D03*
X012500Y020287D03*
X012500Y019539D03*
D29*
X009650Y017563D03*
X007681Y017563D03*
X005713Y017563D03*
X003744Y017563D03*
X001776Y017563D03*
X001776Y010870D03*
X003744Y010870D03*
X005713Y010870D03*
X007681Y010870D03*
X009650Y010870D03*
X011618Y010870D03*
X019960Y039216D03*
X028966Y039216D03*
D30*
X022809Y044766D02*
X022293Y045660D01*
X020561Y044660D02*
X021077Y043766D01*
X017439Y041666D02*
X016923Y042560D01*
X015191Y041560D02*
X015707Y040666D01*
D31*
X015250Y035913D03*
X017250Y035913D03*
X017250Y031913D03*
X015250Y031913D03*
X013250Y031913D03*
X011500Y031913D03*
X011500Y035913D03*
X013250Y035913D03*
D32*
X023500Y035663D03*
X023500Y031663D03*
X028500Y031663D03*
X028500Y035663D03*
X036000Y032163D03*
X033750Y025163D03*
X038000Y022413D03*
X036500Y016413D03*
D33*
X040750Y024413D03*
X036750Y026163D03*
X036750Y028163D03*
X036750Y030413D03*
X036750Y034163D03*
X040750Y030413D03*
X019750Y030713D03*
X017750Y030163D03*
X011750Y030163D03*
X009750Y029663D03*
X009750Y035663D03*
X019750Y036613D03*
D34*
X031750Y025163D03*
X036000Y022413D03*
X034500Y016413D03*
X034000Y032163D03*
D35*
X034500Y030163D03*
X034500Y027163D03*
X040250Y022413D03*
X040250Y019413D03*
D36*
X041750Y021112D03*
X041750Y022214D03*
X033000Y021464D03*
X033000Y020362D03*
D37*
X039199Y020663D03*
X040301Y020663D03*
D38*
X036000Y022413D02*
X034500Y016413D01*
X031750Y025163D02*
X032000Y027913D01*
X034500Y030163D02*
X035750Y031163D01*
X036000Y032163D01*
X038010Y032413D01*
X038010Y032593D01*
X039010Y032593D01*
X039010Y033593D01*
X039010Y032593D02*
X039010Y031593D01*
X039010Y030593D02*
X039010Y029593D01*
X039010Y028593D01*
X039010Y027593D01*
X039010Y026593D02*
X039010Y026093D01*
X039010Y025593D01*
X039010Y026093D02*
X038010Y026093D01*
X038010Y027093D02*
X038010Y028093D01*
X038010Y029093D01*
X038010Y030093D01*
X038010Y029593D01*
X039010Y029593D01*
X038010Y030093D02*
X038010Y031093D01*
X038010Y032093D02*
X038010Y032413D01*
X038010Y032593D02*
X038010Y033093D01*
X019626Y019413D02*
X015500Y018913D01*
X014750Y022663D02*
X014750Y024163D01*
X014500Y024413D01*
D39*
X014000Y008413D02*
X005250Y008413D01*
X003744Y010870D01*
X001776Y010870D02*
X001750Y012413D01*
X009500Y012413D01*
X013150Y014913D01*
X014118Y012913D02*
X015750Y014663D01*
X019500Y014663D01*
X019500Y016163D01*
X021250Y016163D01*
X021250Y015163D02*
X023742Y015156D01*
X023750Y015413D01*
X023742Y015156D02*
X023690Y013413D01*
X024810Y013413D02*
X024780Y016404D01*
X026190Y016413D01*
X024780Y016404D02*
X024750Y015413D01*
X027250Y013663D02*
X029500Y013413D01*
X029500Y014353D01*
X032000Y014413D01*
X034500Y016413D01*
X036500Y016413D02*
X036500Y015913D01*
X032000Y011413D01*
X025750Y011413D01*
X024500Y010413D01*
X017750Y010413D01*
X017750Y011413D02*
X016000Y010913D01*
X016000Y009413D01*
X015750Y009413D01*
X014000Y008413D01*
X013000Y009413D02*
X016500Y013413D01*
X018500Y013413D01*
X019750Y012163D01*
X019500Y014163D02*
X019500Y014663D01*
X019500Y014163D02*
X021250Y014163D01*
X017750Y009413D02*
X016000Y009413D01*
X013000Y009413D02*
X010500Y009413D01*
X009650Y010870D01*
X009650Y011913D01*
X009500Y012413D01*
X011618Y010870D02*
X014118Y012913D01*
X015000Y017413D02*
X015500Y018413D01*
X015500Y018913D01*
X013500Y019539D01*
X012500Y019539D01*
X011626Y019539D01*
X010500Y018913D01*
X008000Y018913D01*
X008000Y023913D01*
X010750Y023663D02*
X010750Y021163D01*
X010500Y020413D01*
X012500Y020287D02*
X012500Y021039D01*
X013500Y021039D02*
X013500Y020287D01*
X013500Y021787D02*
X013750Y022663D01*
X017310Y024163D02*
X017810Y024163D01*
X021000Y022163D01*
X014500Y033413D02*
X012000Y033413D01*
X011750Y033913D01*
X011500Y035913D01*
X013250Y035913D02*
X013250Y034913D01*
X013250Y035913D02*
X013250Y036413D01*
X014000Y037163D01*
X016500Y037163D01*
X017250Y036413D01*
X017250Y035913D01*
X015250Y033913D02*
X014500Y033413D01*
X004500Y020413D02*
X004000Y019819D01*
X003744Y017563D01*
X032250Y022913D02*
X031750Y025163D01*
X033750Y025163D02*
X034500Y027163D01*
X033250Y029163D02*
X032500Y029163D01*
X032000Y027913D01*
X032500Y029163D02*
X034000Y032163D01*
X036000Y032163D02*
X035750Y035663D01*
X038010Y029093D02*
X033250Y029163D01*
X036750Y026163D02*
X038010Y026093D01*
X040750Y025913D02*
X040750Y024413D01*
X040250Y022413D02*
X038000Y022413D01*
X036000Y022413D02*
X032250Y022913D01*
X036500Y016413D02*
X040250Y019413D01*
D40*
X029250Y021723D02*
X027500Y022163D01*
X027060Y023163D01*
X024500Y025663D01*
X023000Y025663D01*
X021500Y024663D01*
X021000Y023163D01*
X022500Y023163D02*
X024000Y023163D01*
X023500Y024663D01*
X022500Y023163D02*
X022500Y020223D01*
X022500Y019103D02*
X021000Y019163D01*
X021000Y020163D01*
X021000Y021163D02*
X019500Y022913D01*
X018810Y022163D01*
X017310Y024163D02*
X017419Y025163D01*
X016081Y025163D02*
X016190Y024163D01*
X015750Y022663D01*
X013500Y021787D02*
X012500Y021787D01*
X012500Y021039D02*
X013500Y021039D01*
X013086Y017999D02*
X011500Y017413D01*
X009650Y017563D01*
X008000Y018063D02*
X008000Y018913D01*
X008000Y018063D02*
X007681Y017563D01*
X013150Y014913D02*
X014000Y014913D01*
X014000Y016913D02*
X015000Y017413D01*
X019750Y012163D02*
X026500Y012163D01*
X027250Y013663D01*
X026126Y018913D02*
X025500Y020163D01*
X024000Y020163D01*
X024000Y021163D02*
X027500Y021163D01*
X027500Y020163D01*
X025500Y022163D02*
X025940Y023163D01*
X025500Y022163D02*
X024000Y022163D01*
X011000Y024413D02*
X010750Y023663D01*
X007000Y031413D02*
X006421Y031413D01*
X006406Y031429D01*
D41*
X006421Y031413D02*
X003750Y031413D01*
X002750Y032413D01*
X002750Y036663D01*
X007500Y041413D01*
X009217Y041413D01*
X010146Y040484D01*
X009000Y038413D02*
X019156Y038413D01*
X019960Y039216D01*
X020013Y039163D01*
X023500Y039163D01*
X023500Y041913D01*
X024000Y041913D01*
X026000Y043913D01*
X024500Y045413D02*
X022751Y045413D01*
X022551Y045213D01*
X027500Y045413D02*
X028000Y044913D01*
X028000Y043913D01*
X028500Y043413D01*
X028500Y041913D01*
X028966Y041447D01*
X028966Y039216D01*
X028966Y036447D01*
X028500Y035663D01*
X026500Y033663D02*
X023000Y033663D01*
X019750Y035913D01*
X017250Y035913D01*
X015250Y035913D02*
X015250Y034913D01*
X015250Y033913D01*
X018300Y033913D01*
X019750Y030713D01*
X022800Y030713D01*
X023500Y031663D01*
X026500Y033663D02*
X028500Y031663D01*
X023500Y035663D02*
X023500Y039163D01*
X019750Y036613D02*
X019750Y035913D01*
X017250Y031913D02*
X015250Y031913D01*
X015250Y028663D01*
X014750Y028163D01*
X013750Y028163D01*
X012250Y026413D01*
X009750Y026413D01*
X008000Y024663D01*
X008000Y023913D01*
X011000Y024413D02*
X014500Y024413D01*
X011000Y028413D02*
X010000Y028413D01*
X009750Y029663D01*
X008000Y029913D02*
X009875Y031788D01*
X009750Y031913D01*
X009750Y035663D01*
X009000Y038413D02*
X006406Y035819D01*
X006406Y034185D01*
X009875Y031788D02*
X010000Y031913D01*
X011500Y031913D01*
X011750Y030163D01*
X011500Y031913D02*
X013250Y031913D01*
X008000Y029913D02*
X008000Y028413D01*
X007500Y027913D01*
X005500Y027913D01*
X004000Y026413D01*
X004000Y023913D01*
X001776Y021689D01*
X001776Y017563D01*
X012902Y040484D02*
X013531Y041113D01*
X015449Y041113D01*
D42*
X010500Y020413D03*
X004500Y020413D03*
M02*
