%
M48
M72
T01C0.0236
T02C0.0240
T03C0.0320
T04C0.0354
T05C0.0394
T06C0.0400
T07C0.0440
T08C0.0520
T09C0.0787
T10C0.0790
T11C0.1181
T12C0.1575
%
T01
X4500Y20413
X10500Y20413
T02
X32500Y42663
X33500Y42663
X34500Y42663
T03
X34750Y40913
X33000Y40913
X33000Y38913
X34750Y38913
X34750Y35663
X35750Y35663
X38010Y34093
X38010Y33093
X38010Y32093
X38010Y31093
X38010Y30093
X38010Y29093
X39010Y29593
X39010Y30593
X39010Y31593
X39010Y32593
X39010Y33593
X41500Y34663
X41500Y35663
X41500Y36663
X40750Y28913
X39010Y28593
X39010Y27593
X39010Y26593
X39010Y25593
X38010Y26093
X38010Y27093
X38010Y28093
X40750Y25913
X38000Y19913
X34000Y19913
X29750Y18913
X29750Y16913
X27750Y14413
X27250Y13663
X26750Y14413
X24750Y15413
X23750Y15413
X23750Y18413
X24750Y18413
X24000Y20163
X24000Y21163
X24000Y22163
X24000Y23163
X23500Y24663
X21500Y24663
X21000Y23163
X21000Y22163
X21000Y21163
X21000Y20163
X25500Y20163
X25500Y22163
X27500Y22163
X27500Y20163
X17750Y26663
X16750Y26663
X17750Y28163
X14750Y28163
X11000Y28413
X10000Y28413
X8000Y28413
X11000Y24413
X15914Y20827
X13086Y17999
X14000Y16913
X14000Y14913
X13250Y31913
X15250Y31913
X15250Y34913
X13250Y34913
X23500Y41913
X26000Y43913
X24500Y45413
X27500Y45413
X28000Y43913
X28500Y41913
T04
X34500Y30163
X34500Y27163
X40250Y22413
X40250Y19413
T05
X1776Y10870
X3744Y10870
X5713Y10870
X7681Y10870
X9650Y10870
X11618Y10870
X9650Y17563
X7681Y17563
X5713Y17563
X3744Y17563
X1776Y17563
X6012Y31429
X6799Y31429
X6799Y34185
X6012Y34185
X10146Y40090
X10146Y40878
X12902Y40878
X12902Y40090
X19960Y39216
X23500Y35663
X23500Y31663
X28500Y31663
X28500Y35663
X28966Y39216
T06
X34000Y32163
X36000Y32163
X36750Y30413
X36750Y28163
X36750Y26163
X33750Y25163
X31750Y25163
X36000Y22413
X38000Y22413
X40750Y24413
X40750Y30413
X36750Y34163
X36500Y16413
X34500Y16413
X21250Y16163
X21250Y15163
X21250Y14163
X17750Y11413
X17750Y10413
X17750Y9413
X15750Y22663
X14750Y22663
X13750Y22663
X9750Y29663
X11750Y30163
X9750Y35663
X17750Y30163
X19750Y30713
X19750Y36613
T07
X17250Y35913
X15250Y35913
X13250Y35913
X11500Y35913
X11500Y31913
X13250Y31913
X15250Y31913
X17250Y31913
T08
X15449Y41113
X17181Y42113
X20819Y44213
X22551Y45213
T09
X11130Y42649
X8374Y40484
X4240Y32413
X6406Y29657
T10
X8000Y23913
X4000Y23913
T11
X3256Y40484
X24122Y8594
T12
X28059Y8594
X3256Y44421
X37902Y45602
M30
