%
M48
M72
T01C0.0240
T02C0.0276
T03C0.0315
T04C0.0320
T05C0.0354
T06C0.0394
T07C0.0400
T08C0.0440
T09C0.0520
T10C0.0787
T11C0.0790
T12C0.1181
T13C0.1575
%
T01
X35250Y31750
X35250Y32750
X35250Y33750
T02
X39750Y26625
X41750Y26625
T03
X10500Y13750
X4500Y13750
T04
X11250Y17250
X11250Y21250
X10250Y21250
X8250Y21250
X13250Y25000
X15250Y25000
X15250Y28000
X13250Y28000
X17500Y21250
X16000Y19500
X16000Y18500
X19000Y18500
X19000Y19500
X21250Y19000
X21250Y18000
X21250Y17000
X19500Y15750
X18500Y15750
X18500Y14000
X18500Y11000
X16750Y11000
X14957Y9707
X13750Y11000
X13543Y8293
X23750Y11500
X24750Y11500
X25500Y10000
X29500Y10000
X30750Y9750
X30500Y8500
X30000Y7750
X29500Y8500
X32750Y9750
X34750Y12750
X35000Y14000
X35000Y17000
X33500Y19500
X33500Y22500
X38010Y22180
X38010Y23180
X38010Y24180
X38010Y25180
X38010Y26180
X38010Y27180
X39010Y26680
X39010Y25680
X39010Y24680
X39010Y23680
X39010Y22680
X39010Y21680
X39010Y20680
X39010Y19680
X39010Y18680
X38010Y19180
X38010Y20180
X38010Y21180
X40750Y22250
X40750Y19250
X38750Y12750
X27750Y17000
X25750Y17000
X24250Y17000
X24250Y18000
X24250Y19000
X24250Y20000
X24750Y21250
X22750Y21250
X21500Y21250
X21250Y20000
X25750Y19000
X27750Y19000
X24750Y14500
X23750Y14500
X34750Y28750
X35750Y28750
X40375Y28875
X40375Y29875
X40375Y27875
X32750Y36250
X32750Y38250
X27000Y38500
X27000Y36750
X27000Y34750
X25000Y36750
X24000Y38500
X22000Y34750
T05
X33811Y23561
X31689Y21439
X40250Y15500
X40250Y12500
T06
X1776Y3957
X3744Y3957
X5713Y3957
X7681Y3957
X9650Y3957
X11618Y3957
X9650Y10650
X7681Y10650
X5713Y10650
X3744Y10650
X1776Y10650
X6012Y24516
X6799Y24516
X6799Y27272
X6012Y27272
X10146Y33177
X10146Y33965
X12902Y33965
X12902Y33177
X18960Y32303
X23500Y28750
X23500Y24750
X28500Y24750
X28500Y28750
X27966Y32303
T07
X34000Y25250
X36000Y25250
X36750Y23500
X36750Y21250
X36750Y19250
X36250Y15500
X38250Y15500
X40750Y17750
X40750Y23750
X36750Y27250
X32750Y14750
X30750Y14750
X36500Y11250
X36500Y9250
X21750Y8750
X21750Y7750
X21750Y9750
X18750Y4500
X18750Y3500
X18750Y2500
X15250Y14250
X15250Y15250
X15250Y16250
X9750Y22750
X11250Y23250
X9750Y28750
X17250Y23250
X19750Y23800
X19750Y29700
T08
X17250Y29000
X15250Y29000
X13250Y29000
X11500Y29000
X11500Y25000
X13250Y25000
X15250Y25000
X17250Y25000
T09
X15449Y34200
X17181Y35200
X20819Y37300
X22551Y38300
T10
X11130Y35736
X8374Y33571
X4240Y25500
X6406Y22744
T11
X8000Y17000
X4000Y17000
T12
X3256Y33571
X24122Y1681
T13
X28059Y1681
X3256Y37508
X37902Y38689
M30
