G75*
G70*
%OFA0B0*%
%FSLAX24Y24*%
%IPPOS*%
%LPD*%
%AMOC8*
5,1,8,0,0,1.08239X$1,22.5*
%
%ADD10C,0.0051*%
%ADD11C,0.0110*%
%ADD12OC8,0.0832*%
%ADD13C,0.0752*%
%ADD14C,0.0832*%
%ADD15C,0.0832*%
%ADD16C,0.1810*%
%ADD17OC8,0.1810*%
%ADD18C,0.0912*%
%ADD19C,0.1181*%
%ADD20C,0.1032*%
%ADD21C,0.0952*%
%ADD22C,0.1000*%
%ADD23OC8,0.0912*%
%ADD24OC8,0.1000*%
%ADD25C,0.0866*%
%ADD26R,0.0396X0.0396*%
%ADD27C,0.0500*%
D10*
X027953Y000913D02*
X030000Y000913D01*
X028976Y000811D01*
X028976Y000787D02*
X030000Y000913D01*
X028976Y001015D01*
X028976Y001039D02*
X028976Y000787D01*
X028976Y000862D02*
X030000Y000913D01*
X028976Y000964D01*
X028976Y001039D02*
X030000Y000913D01*
X030000Y000126D02*
X030000Y028913D01*
X032000Y028913D02*
X032000Y000126D01*
X032000Y000913D02*
X033024Y000811D01*
X033024Y000787D02*
X032000Y000913D01*
X033024Y001015D01*
X033024Y001039D02*
X033024Y000787D01*
X033024Y000862D02*
X032000Y000913D01*
X033024Y000964D01*
X033024Y001039D02*
X032000Y000913D01*
X036861Y000913D01*
D11*
X036885Y001362D02*
X036462Y001362D01*
X036251Y001573D01*
X036251Y001785D01*
X036462Y001996D01*
X036885Y001996D01*
X037097Y001785D01*
X037097Y001573D01*
X036885Y001362D01*
X036885Y001996D02*
X037097Y002208D01*
X037097Y002419D01*
X036885Y002631D01*
X036462Y002631D01*
X036251Y002419D01*
X036251Y002208D01*
X036462Y001996D01*
X035828Y001573D02*
X035616Y001362D01*
X035193Y001362D01*
X034982Y001573D01*
X035828Y002419D01*
X035828Y001573D01*
X034982Y001573D02*
X034982Y002419D01*
X035193Y002631D01*
X035616Y002631D01*
X035828Y002419D01*
X034559Y001573D02*
X034559Y001362D01*
X034347Y001362D01*
X034347Y001573D01*
X034559Y001573D01*
X033925Y001573D02*
X033925Y001996D01*
X033713Y002208D01*
X033502Y002208D01*
X033079Y001996D01*
X033079Y002631D01*
X033925Y002631D01*
X033925Y001573D02*
X033713Y001362D01*
X033290Y001362D01*
X033079Y001573D01*
D12*
X027250Y013663D03*
X026750Y014413D03*
X027750Y014413D03*
X029750Y016913D03*
X029750Y018913D03*
X027500Y020163D03*
X027500Y022163D03*
X025500Y022163D03*
X025500Y020163D03*
X023500Y024663D03*
X021500Y024663D03*
X016750Y026663D03*
X015250Y031913D03*
X015250Y034913D03*
X013250Y034913D03*
X010000Y028413D03*
X008000Y028413D03*
X014000Y016913D03*
X014000Y014913D03*
X034000Y019913D03*
X038000Y019913D03*
X034750Y035663D03*
X034750Y038913D03*
X033000Y038913D03*
X033000Y040913D03*
X034750Y040913D03*
X028500Y041913D03*
X027500Y045413D03*
X024500Y045413D03*
X023500Y041913D03*
D13*
X032500Y042663D03*
X033500Y042663D03*
X034500Y042663D03*
D14*
X028000Y043497D02*
X028000Y044329D01*
X026000Y044329D02*
X026000Y043497D01*
X018166Y028163D02*
X017334Y028163D01*
X015166Y028163D02*
X014334Y028163D01*
X011000Y027997D02*
X011000Y028829D01*
X011000Y024829D02*
X011000Y023997D01*
X015620Y020533D02*
X016208Y021121D01*
X013380Y018293D02*
X012792Y017705D01*
X020584Y020163D02*
X021416Y020163D01*
X021416Y021163D02*
X020584Y021163D01*
X020584Y022163D02*
X021416Y022163D01*
X021416Y023163D02*
X020584Y023163D01*
X023584Y023163D02*
X024416Y023163D01*
X024416Y022163D02*
X023584Y022163D01*
X023584Y021163D02*
X024416Y021163D01*
X024416Y020163D02*
X023584Y020163D01*
X023750Y019245D02*
X023750Y018413D01*
X024750Y018413D02*
X024750Y019245D01*
X024750Y015413D02*
X024750Y014581D01*
X023750Y014581D02*
X023750Y015413D01*
X040750Y025497D02*
X040750Y026329D01*
X040750Y028497D02*
X040750Y029329D01*
X041084Y034663D02*
X041916Y034663D01*
X041916Y035663D02*
X041084Y035663D01*
X041084Y036663D02*
X041916Y036663D01*
D15*
X039010Y033593D03*
X039010Y032593D03*
X039010Y031593D03*
X039010Y030593D03*
X039010Y029593D03*
X038010Y030093D03*
X038010Y031093D03*
X038010Y032093D03*
X038010Y033093D03*
X038010Y034093D03*
X035750Y035663D03*
X038010Y029093D03*
X039010Y028593D03*
X039010Y027593D03*
X039010Y026593D03*
X039010Y025593D03*
X038010Y026093D03*
X038010Y027093D03*
X038010Y028093D03*
X017750Y026663D03*
X013250Y031913D03*
D16*
X004000Y023913D03*
D17*
X008000Y023913D03*
D18*
X013750Y023119D02*
X013750Y022207D01*
X014750Y022207D02*
X014750Y023119D01*
X015750Y023119D02*
X015750Y022207D01*
X020794Y016163D02*
X021706Y016163D01*
X021706Y015163D02*
X020794Y015163D01*
X020794Y014163D02*
X021706Y014163D01*
X018206Y011413D02*
X017294Y011413D01*
X017294Y010413D02*
X018206Y010413D01*
X018206Y009413D02*
X017294Y009413D01*
D19*
X001776Y010870D03*
X003744Y010870D03*
X005713Y010870D03*
X007681Y010870D03*
X009650Y010870D03*
X011618Y010870D03*
X009650Y017563D03*
X007681Y017563D03*
X005713Y017563D03*
X003744Y017563D03*
X001776Y017563D03*
X019960Y039216D03*
X028966Y039216D03*
D20*
X022809Y044766D02*
X022293Y045660D01*
X020561Y044660D02*
X021077Y043766D01*
X017439Y041666D02*
X016923Y042560D01*
X015191Y041560D02*
X015707Y040666D01*
D21*
X015250Y035913D03*
X017250Y035913D03*
X017250Y031913D03*
X015250Y031913D03*
X013250Y031913D03*
X011500Y031913D03*
X011500Y035913D03*
X013250Y035913D03*
D22*
X023500Y035663D03*
X023500Y031663D03*
X028500Y031663D03*
X028500Y035663D03*
X036000Y032163D03*
X033750Y025163D03*
X038000Y022413D03*
X036500Y016413D03*
D23*
X040750Y024413D03*
X036750Y026163D03*
X036750Y028163D03*
X036750Y030413D03*
X036750Y034163D03*
X040750Y030413D03*
X019750Y030713D03*
X017750Y030163D03*
X011750Y030163D03*
X009750Y029663D03*
X009750Y035663D03*
X019750Y036613D03*
D24*
X031750Y025163D03*
X036000Y022413D03*
X034500Y016413D03*
X034000Y032163D03*
D25*
X034500Y030163D03*
X034500Y027163D03*
X040250Y022413D03*
X040250Y019413D03*
D26*
X010500Y020413D03*
X004500Y020413D03*
D27*
X010500Y020413D01*
M02*
