G75*
G70*
%OFA0B0*%
%FSLAX24Y24*%
%IPPOS*%
%LPD*%
%AMOC8*
5,1,8,0,0,1.08239X$1,22.5*
%
%ADD10C,0.0060*%
%ADD11R,0.0200X0.0450*%
%ADD12C,0.0050*%
%ADD13C,0.0080*%
%ADD14R,0.0220X0.0680*%
%ADD15R,0.0240X0.0620*%
%ADD16C,0.0040*%
%ADD17R,0.0295X0.0669*%
%ADD18R,0.0669X0.0295*%
%ADD19R,0.0690X0.0290*%
%ADD20R,0.0295X0.0571*%
%ADD21R,0.0140X0.0560*%
%ADD22R,0.0290X0.0690*%
%ADD23R,0.0551X0.0256*%
%ADD24R,0.0720X0.0230*%
%ADD25R,0.0230X0.0720*%
D10*
X012250Y019752D02*
X012250Y020074D01*
X012750Y020074D02*
X012750Y019752D01*
X013250Y019752D02*
X013250Y020074D01*
X013750Y020074D02*
X013750Y019752D01*
X013750Y021252D02*
X013750Y021574D01*
X013250Y021574D02*
X013250Y021252D01*
X012750Y021252D02*
X012750Y021574D01*
X012250Y021574D02*
X012250Y021252D01*
X016375Y023843D02*
X017130Y023843D01*
X017130Y024483D02*
X016375Y024483D01*
X016230Y024853D02*
X017270Y024853D01*
X017270Y025473D02*
X016230Y025473D01*
X017875Y022483D02*
X018630Y022483D01*
X018630Y021843D02*
X017875Y021843D01*
X022180Y020043D02*
X022180Y019288D01*
X022820Y019288D02*
X022820Y020043D01*
X026220Y019163D02*
X026780Y019163D01*
X026780Y018663D02*
X026220Y018663D01*
X026375Y016733D02*
X027130Y016733D01*
X027130Y016093D02*
X026375Y016093D01*
X028180Y017033D02*
X028180Y017788D01*
X028820Y017788D02*
X028820Y017033D01*
X029180Y015288D02*
X029180Y014533D01*
X029820Y014533D02*
X029820Y015288D01*
X032670Y020463D02*
X032670Y021363D01*
X033330Y021363D02*
X033330Y020463D01*
X029570Y020788D02*
X029570Y021543D01*
X028930Y021543D02*
X028930Y020788D01*
X026875Y022843D02*
X026120Y022843D01*
X026120Y023483D02*
X026875Y023483D01*
X024630Y013733D02*
X023875Y013733D01*
X023875Y013093D02*
X024630Y013093D01*
X039300Y020333D02*
X040200Y020333D01*
X040200Y020993D02*
X039300Y020993D01*
X041420Y021213D02*
X041420Y022113D01*
X042080Y022113D02*
X042080Y021213D01*
X041280Y032663D02*
X040720Y032663D01*
X040720Y033163D02*
X041280Y033163D01*
X040125Y034593D02*
X039370Y034593D01*
X039370Y035233D02*
X040125Y035233D01*
X039880Y035843D02*
X039125Y035843D01*
X039125Y036483D02*
X039880Y036483D01*
X040480Y037603D02*
X041520Y037603D01*
X041520Y038223D02*
X040480Y038223D01*
X039250Y038543D02*
X039250Y039783D01*
X039250Y039793D02*
X035750Y039793D01*
X035750Y039783D02*
X035750Y039363D01*
X035750Y038963D01*
X035750Y038543D01*
X035752Y038520D01*
X035757Y038497D01*
X035766Y038475D01*
X035779Y038455D01*
X035794Y038437D01*
X035812Y038422D01*
X035832Y038409D01*
X035854Y038400D01*
X035877Y038395D01*
X035900Y038393D01*
X039100Y038393D01*
X039123Y038395D01*
X039146Y038400D01*
X039168Y038409D01*
X039188Y038422D01*
X039206Y038437D01*
X039221Y038455D01*
X039234Y038475D01*
X039243Y038497D01*
X039248Y038520D01*
X039250Y038543D01*
X039250Y039783D02*
X039248Y039806D01*
X039243Y039829D01*
X039234Y039851D01*
X039221Y039871D01*
X039206Y039889D01*
X039188Y039904D01*
X039168Y039917D01*
X039146Y039926D01*
X039123Y039931D01*
X039100Y039933D01*
X035900Y039933D01*
X035877Y039931D01*
X035854Y039926D01*
X035832Y039917D01*
X035812Y039904D01*
X035794Y039889D01*
X035779Y039871D01*
X035766Y039851D01*
X035757Y039829D01*
X035752Y039806D01*
X035750Y039783D01*
X035750Y039363D02*
X035777Y039361D01*
X035804Y039356D01*
X035830Y039346D01*
X035854Y039334D01*
X035876Y039318D01*
X035896Y039300D01*
X035913Y039278D01*
X035928Y039255D01*
X035938Y039230D01*
X035946Y039204D01*
X035950Y039177D01*
X035950Y039149D01*
X035946Y039122D01*
X035938Y039096D01*
X035928Y039071D01*
X035913Y039048D01*
X035896Y039026D01*
X035876Y039008D01*
X035854Y038992D01*
X035830Y038980D01*
X035804Y038970D01*
X035777Y038965D01*
X035750Y038963D01*
X034070Y037043D02*
X034070Y036288D01*
X033430Y036288D02*
X033430Y037043D01*
X033570Y034788D02*
X033570Y034033D01*
X032930Y034033D02*
X032930Y034788D01*
X032870Y043343D02*
X033625Y043343D01*
X033625Y043983D02*
X032870Y043983D01*
X032770Y044353D02*
X031730Y044353D01*
X031730Y044973D02*
X032770Y044973D01*
X033980Y044723D02*
X035020Y044723D01*
X035020Y044103D02*
X033980Y044103D01*
X034120Y045343D02*
X034875Y045343D01*
X034875Y045983D02*
X034120Y045983D01*
D11*
X036000Y040158D03*
X036500Y040158D03*
X037000Y040148D03*
X037500Y040158D03*
X038000Y040158D03*
X038500Y040158D03*
X039000Y040158D03*
X039000Y038168D03*
X038500Y038168D03*
X038000Y038168D03*
X037500Y038168D03*
X037000Y038168D03*
X036500Y038168D03*
X036000Y038168D03*
D12*
X035625Y038272D02*
X035400Y038046D01*
X035400Y038347D01*
X035175Y038272D02*
X035625Y038272D01*
X035625Y038507D02*
X035175Y038507D01*
X035175Y038732D01*
X035250Y038807D01*
X035550Y038807D01*
X035625Y038732D01*
X035625Y038507D01*
X035625Y038967D02*
X035175Y038967D01*
X035175Y039192D01*
X035250Y039267D01*
X035550Y039267D01*
X035625Y039192D01*
X035625Y038967D01*
X035475Y039428D02*
X035625Y039578D01*
X035175Y039578D01*
X035175Y039428D02*
X035175Y039728D01*
X017625Y026063D02*
X017550Y026138D01*
X017400Y026138D01*
X017325Y026063D01*
X017325Y025988D01*
X017625Y025688D01*
X017325Y025688D01*
X017165Y025838D02*
X017014Y025688D01*
X016864Y025838D01*
X016864Y026138D01*
X016704Y026138D02*
X016479Y026138D01*
X016404Y026063D01*
X016404Y025763D01*
X016479Y025688D01*
X016704Y025688D01*
X016704Y026138D01*
X017165Y026138D02*
X017165Y025838D01*
X016244Y025763D02*
X016169Y025688D01*
X016019Y025688D01*
X015944Y025763D01*
X015944Y025838D01*
X016019Y025913D01*
X016094Y025913D01*
X016019Y025913D02*
X015944Y025988D01*
X015944Y026063D01*
X016019Y026138D01*
X016169Y026138D01*
X016244Y026063D01*
D13*
X016503Y025399D02*
X016503Y024927D01*
X016897Y025163D01*
X016503Y025399D01*
X032003Y044427D02*
X032003Y044899D01*
X032397Y044663D01*
X032003Y044427D01*
X034353Y044413D02*
X034747Y044649D01*
X034747Y044177D01*
X034353Y044413D01*
X040853Y037913D02*
X041247Y038149D01*
X041247Y037677D01*
X040853Y037913D01*
D14*
X040380Y037913D03*
X041620Y037913D03*
X035120Y044413D03*
X033880Y044413D03*
X032870Y044663D03*
X031630Y044663D03*
X017370Y025163D03*
X016130Y025163D03*
D15*
X016970Y025163D03*
X034280Y044413D03*
X032470Y044663D03*
X040780Y037913D03*
D16*
X040764Y037443D02*
X040610Y037443D01*
X040533Y037367D01*
X040533Y037290D01*
X040610Y037213D01*
X040533Y037136D01*
X040533Y037060D01*
X040610Y036983D01*
X040764Y036983D01*
X040840Y037060D01*
X040994Y037060D02*
X041071Y036983D01*
X041301Y036983D01*
X041301Y037443D01*
X041071Y037443D01*
X040994Y037367D01*
X040994Y037060D01*
X040840Y037367D02*
X040764Y037443D01*
X040687Y037213D02*
X040610Y037213D01*
X039980Y036913D02*
X039673Y036913D01*
X039520Y036836D02*
X039289Y036836D01*
X039213Y036913D01*
X039213Y037067D01*
X039289Y037143D01*
X039520Y037143D01*
X039520Y036683D01*
X039366Y036836D02*
X039213Y036683D01*
X039059Y036760D02*
X038982Y036683D01*
X038829Y036683D01*
X038752Y036760D01*
X038752Y036913D01*
X038829Y036990D01*
X038906Y036990D01*
X039059Y036913D01*
X039059Y037143D01*
X038752Y037143D01*
X039750Y037143D02*
X039980Y036913D01*
X039750Y036683D02*
X039750Y037143D01*
X041454Y037136D02*
X041608Y036983D01*
X041761Y037136D01*
X041761Y037443D01*
X041991Y037443D02*
X042222Y037213D01*
X041915Y037213D01*
X041991Y036983D02*
X041991Y037443D01*
X041454Y037443D02*
X041454Y037136D01*
X040381Y034393D02*
X040611Y034163D01*
X040304Y034163D01*
X040151Y034086D02*
X039921Y034086D01*
X039844Y034163D01*
X039844Y034317D01*
X039921Y034393D01*
X040151Y034393D01*
X040151Y033933D01*
X040252Y033893D02*
X040406Y033817D01*
X040559Y033663D01*
X040329Y033663D01*
X040252Y033586D01*
X040252Y033510D01*
X040329Y033433D01*
X040482Y033433D01*
X040559Y033510D01*
X040559Y033663D01*
X040713Y033663D02*
X040789Y033586D01*
X041020Y033586D01*
X041020Y033433D02*
X041020Y033893D01*
X040789Y033893D01*
X040713Y033817D01*
X040713Y033663D01*
X040866Y033586D02*
X040713Y033433D01*
X041173Y033663D02*
X041480Y033663D01*
X041250Y033893D01*
X041250Y033433D01*
X040381Y033933D02*
X040381Y034393D01*
X039997Y034086D02*
X039844Y033933D01*
X039690Y034163D02*
X039383Y034163D01*
X039460Y033933D02*
X039460Y034393D01*
X039690Y034163D01*
X037630Y036103D02*
X036870Y036103D01*
X036870Y036723D02*
X037630Y036723D01*
X037500Y036933D02*
X037500Y037393D01*
X037730Y037163D01*
X037423Y037163D01*
X037270Y037010D02*
X037193Y036933D01*
X037039Y036933D01*
X036963Y037010D01*
X036809Y036933D02*
X036502Y036933D01*
X036656Y036933D02*
X036656Y037393D01*
X036809Y037240D01*
X036963Y037317D02*
X037039Y037393D01*
X037193Y037393D01*
X037270Y037317D01*
X037270Y037010D01*
X035310Y039283D02*
X035310Y040043D01*
X034690Y040043D02*
X034690Y039283D01*
X034480Y039339D02*
X034404Y039262D01*
X034480Y039339D02*
X034480Y039492D01*
X034404Y039569D01*
X034327Y039569D01*
X034020Y039262D01*
X034020Y039569D01*
X034097Y039723D02*
X034020Y039799D01*
X034020Y039953D01*
X034097Y040030D01*
X034060Y039783D02*
X034060Y040543D01*
X034404Y040030D02*
X034480Y039953D01*
X034480Y039799D01*
X034404Y039723D01*
X034097Y039723D01*
X034097Y039109D02*
X034020Y039032D01*
X034020Y038879D01*
X034097Y038802D01*
X034404Y038802D01*
X034480Y038879D01*
X034480Y039032D01*
X034404Y039109D01*
X034250Y038648D02*
X034250Y038341D01*
X034480Y038572D01*
X034020Y038572D01*
X033230Y039072D02*
X033000Y038841D01*
X033000Y039148D01*
X032847Y039302D02*
X032770Y039379D01*
X032770Y039532D01*
X032847Y039609D01*
X032770Y039762D02*
X033077Y040069D01*
X033154Y040069D01*
X033230Y039992D01*
X033230Y039839D01*
X033154Y039762D01*
X033154Y039609D02*
X033230Y039532D01*
X033230Y039379D01*
X033154Y039302D01*
X032847Y039302D01*
X032770Y039072D02*
X033230Y039072D01*
X033440Y039783D02*
X033440Y040543D01*
X033230Y040453D02*
X033230Y040223D01*
X032770Y040223D01*
X032770Y040453D01*
X032847Y040530D01*
X033154Y040530D01*
X033230Y040453D01*
X032770Y040069D02*
X032770Y039762D01*
X032770Y037030D02*
X032770Y036723D01*
X033077Y037030D01*
X033154Y037030D01*
X033230Y036953D01*
X033230Y036799D01*
X033154Y036723D01*
X033154Y036569D02*
X033000Y036569D01*
X032923Y036492D01*
X032923Y036262D01*
X032770Y036262D02*
X033230Y036262D01*
X033230Y036492D01*
X033154Y036569D01*
X032923Y036416D02*
X032770Y036569D01*
X033000Y036109D02*
X033000Y035802D01*
X033230Y036032D01*
X032770Y036032D01*
X033770Y035084D02*
X033770Y034931D01*
X033847Y034854D01*
X033770Y034700D02*
X033923Y034547D01*
X033923Y034624D02*
X033923Y034393D01*
X033770Y034393D02*
X034230Y034393D01*
X034230Y034624D01*
X034154Y034700D01*
X034000Y034700D01*
X033923Y034624D01*
X034154Y034854D02*
X034230Y034931D01*
X034230Y035084D01*
X034154Y035161D01*
X034077Y035161D01*
X034000Y035084D01*
X033923Y035161D01*
X033847Y035161D01*
X033770Y035084D01*
X034000Y035084D02*
X034000Y035007D01*
X034000Y034240D02*
X034000Y033933D01*
X034230Y034163D01*
X033770Y034163D01*
X033804Y042683D02*
X033958Y042836D01*
X033881Y042836D02*
X034111Y042836D01*
X034111Y042683D02*
X034111Y043143D01*
X033881Y043143D01*
X033804Y043067D01*
X033804Y042913D01*
X033881Y042836D01*
X033651Y042683D02*
X033344Y042683D01*
X033497Y042683D02*
X033497Y043143D01*
X033651Y042990D01*
X033190Y042990D02*
X033190Y042683D01*
X033190Y042913D02*
X032883Y042913D01*
X032883Y042990D02*
X032883Y042683D01*
X032883Y042990D02*
X033037Y043143D01*
X033190Y042990D01*
X034033Y043483D02*
X034340Y043483D01*
X034033Y043790D01*
X034033Y043867D01*
X034110Y043943D01*
X034264Y043943D01*
X034340Y043867D01*
X034494Y043867D02*
X034571Y043943D01*
X034801Y043943D01*
X034801Y043483D01*
X034571Y043483D01*
X034494Y043560D01*
X034494Y043867D01*
X034954Y043943D02*
X034954Y043636D01*
X035108Y043483D01*
X035261Y043636D01*
X035261Y043943D01*
X035491Y043943D02*
X035722Y043713D01*
X035415Y043713D01*
X035491Y043483D02*
X035491Y043943D01*
X035591Y044683D02*
X035591Y045143D01*
X035822Y044913D01*
X035515Y044913D01*
X035361Y044836D02*
X035131Y044836D01*
X035054Y044913D01*
X035054Y045067D01*
X035131Y045143D01*
X035361Y045143D01*
X035361Y044683D01*
X035208Y044836D02*
X035054Y044683D01*
X034901Y044683D02*
X034594Y044683D01*
X034747Y044683D02*
X034747Y045143D01*
X034901Y044990D01*
X034440Y044913D02*
X034210Y044913D01*
X034133Y044836D01*
X034133Y044760D01*
X034210Y044683D01*
X034440Y044683D01*
X034440Y045143D01*
X034210Y045143D01*
X034133Y045067D01*
X034133Y044990D01*
X034210Y044913D01*
X032830Y045363D02*
X032523Y045363D01*
X032370Y045286D02*
X032216Y045133D01*
X032063Y045286D01*
X032063Y045593D01*
X031909Y045593D02*
X031679Y045593D01*
X031602Y045517D01*
X031602Y045210D01*
X031679Y045133D01*
X031909Y045133D01*
X031909Y045593D01*
X032370Y045593D02*
X032370Y045286D01*
X032600Y045133D02*
X032600Y045593D01*
X032830Y045363D01*
X031449Y045440D02*
X031295Y045593D01*
X031295Y045133D01*
X031142Y045133D02*
X031449Y045133D01*
X034265Y042913D02*
X034572Y042913D01*
X034341Y043143D01*
X034341Y042683D01*
X017153Y025143D02*
X017230Y025067D01*
X017153Y025143D02*
X017000Y025143D01*
X016923Y025067D01*
X016923Y024990D01*
X017230Y024683D01*
X016923Y024683D01*
X016770Y024683D02*
X016770Y025143D01*
X016539Y025143D01*
X016463Y025067D01*
X016463Y024913D01*
X016539Y024836D01*
X016770Y024836D01*
X016616Y024836D02*
X016463Y024683D01*
X016309Y024760D02*
X016232Y024683D01*
X016079Y024683D01*
X016002Y024760D01*
X016002Y025067D01*
X016079Y025143D01*
X016232Y025143D01*
X016309Y025067D01*
X016309Y024990D01*
X016232Y024913D01*
X016002Y024913D01*
X014404Y023331D02*
X014327Y023331D01*
X014250Y023255D01*
X014250Y023025D01*
X014250Y023255D02*
X014173Y023331D01*
X014097Y023331D01*
X014020Y023255D01*
X014020Y023025D01*
X014480Y023025D01*
X014480Y023255D01*
X014404Y023331D01*
X014020Y022871D02*
X014020Y022564D01*
X014020Y022411D02*
X014020Y022104D01*
X014020Y022257D02*
X014480Y022257D01*
X014327Y022104D01*
X014404Y021950D02*
X014250Y021950D01*
X014173Y021874D01*
X014173Y021643D01*
X014020Y021643D02*
X014480Y021643D01*
X014480Y021874D01*
X014404Y021950D01*
X014404Y021831D02*
X014480Y021755D01*
X014480Y021525D01*
X014020Y021525D01*
X014020Y021755D01*
X014097Y021831D01*
X014404Y021831D01*
X014173Y021797D02*
X014020Y021950D01*
X014020Y021490D02*
X014020Y021183D01*
X014327Y021490D01*
X014404Y021490D01*
X014480Y021413D01*
X014480Y021260D01*
X014404Y021183D01*
X014480Y021218D02*
X014020Y021218D01*
X014020Y021371D02*
X014020Y021064D01*
X014020Y020911D02*
X014020Y020604D01*
X014020Y020757D02*
X014480Y020757D01*
X014327Y020604D01*
X014404Y020450D02*
X014250Y020450D01*
X014173Y020374D01*
X014173Y020143D01*
X014020Y020143D02*
X014480Y020143D01*
X014480Y020374D01*
X014404Y020450D01*
X014173Y020297D02*
X014020Y020450D01*
X014020Y019990D02*
X014020Y019683D01*
X014327Y019990D01*
X014404Y019990D01*
X014480Y019913D01*
X014480Y019760D01*
X014404Y019683D01*
X013480Y019760D02*
X013404Y019683D01*
X013480Y019760D02*
X013480Y019913D01*
X013404Y019990D01*
X013327Y019990D01*
X013020Y019683D01*
X013020Y019990D01*
X013020Y020143D02*
X013480Y020143D01*
X013480Y020374D01*
X013404Y020450D01*
X013250Y020450D01*
X013173Y020374D01*
X013173Y020143D01*
X013173Y020297D02*
X013020Y020450D01*
X013020Y020604D02*
X013020Y020911D01*
X013020Y021064D02*
X013020Y021371D01*
X013020Y021490D02*
X013020Y021183D01*
X013327Y021490D01*
X013404Y021490D01*
X013480Y021413D01*
X013480Y021260D01*
X013404Y021183D01*
X013480Y021218D02*
X013327Y021064D01*
X013480Y021218D02*
X013020Y021218D01*
X013097Y021525D02*
X013020Y021601D01*
X013020Y021755D01*
X013097Y021831D01*
X013173Y021797D02*
X013020Y021950D01*
X013020Y022104D02*
X013020Y022411D01*
X013020Y022564D02*
X013020Y022871D01*
X013020Y022718D02*
X013480Y022718D01*
X013327Y022564D01*
X013480Y022257D02*
X013020Y022257D01*
X013327Y022104D02*
X013480Y022257D01*
X013404Y021950D02*
X013250Y021950D01*
X013173Y021874D01*
X013173Y021643D01*
X013097Y021525D02*
X013404Y021525D01*
X013480Y021601D01*
X013480Y021755D01*
X013404Y021831D01*
X013480Y021874D02*
X013404Y021950D01*
X013480Y021874D02*
X013480Y021643D01*
X013020Y021643D01*
X013020Y020757D02*
X013480Y020757D01*
X013327Y020604D01*
X014327Y021064D02*
X014480Y021218D01*
X014327Y022564D02*
X014480Y022718D01*
X014020Y022718D01*
X013480Y023178D02*
X013327Y023331D01*
X013020Y023331D01*
X013250Y023331D02*
X013250Y023025D01*
X013327Y023025D02*
X013480Y023178D01*
X013327Y023025D02*
X013020Y023025D01*
X017502Y022913D02*
X017809Y022913D01*
X017579Y023143D01*
X017579Y022683D01*
X017963Y022683D02*
X018116Y022836D01*
X018039Y022836D02*
X018270Y022836D01*
X018270Y022683D02*
X018270Y023143D01*
X018039Y023143D01*
X017963Y023067D01*
X017963Y022913D01*
X018039Y022836D01*
X018423Y022683D02*
X018730Y022683D01*
X018423Y022990D01*
X018423Y023067D01*
X018500Y023143D01*
X018653Y023143D01*
X018730Y023067D01*
X019252Y020393D02*
X019406Y020317D01*
X019559Y020163D01*
X019329Y020163D01*
X019252Y020086D01*
X019252Y020010D01*
X019329Y019933D01*
X019482Y019933D01*
X019559Y020010D01*
X019559Y020163D01*
X019713Y020010D02*
X019789Y019933D01*
X019943Y019933D01*
X020020Y020010D01*
X020020Y020317D01*
X019943Y020393D01*
X019789Y020393D01*
X019713Y020317D01*
X020173Y020317D02*
X020250Y020393D01*
X020403Y020393D01*
X020480Y020317D01*
X020173Y020317D02*
X020173Y020240D01*
X020480Y019933D01*
X020173Y019933D01*
X020150Y019673D02*
X019850Y019673D01*
X019850Y019153D02*
X020140Y019153D01*
X021520Y019109D02*
X021520Y018802D01*
X021827Y019109D01*
X021904Y019109D01*
X021980Y019032D01*
X021980Y018879D01*
X021904Y018802D01*
X021980Y019262D02*
X021520Y019262D01*
X021673Y019262D02*
X021673Y019492D01*
X021750Y019569D01*
X021904Y019569D01*
X021980Y019492D01*
X021980Y019262D01*
X021673Y019416D02*
X021520Y019569D01*
X021597Y019723D02*
X021673Y019723D01*
X021750Y019799D01*
X021750Y019953D01*
X021673Y020030D01*
X021597Y020030D01*
X021520Y019953D01*
X021520Y019799D01*
X021597Y019723D01*
X021750Y019799D02*
X021827Y019723D01*
X021904Y019723D01*
X021980Y019799D01*
X021980Y019953D01*
X021904Y020030D01*
X021827Y020030D01*
X021750Y019953D01*
X025542Y017317D02*
X025542Y017240D01*
X025619Y017163D01*
X025542Y017086D01*
X025542Y017010D01*
X025619Y016933D01*
X025772Y016933D01*
X025849Y017010D01*
X026002Y016933D02*
X026309Y016933D01*
X026156Y016933D02*
X026156Y017393D01*
X026309Y017240D01*
X026463Y017317D02*
X026463Y017163D01*
X026539Y017086D01*
X026770Y017086D01*
X026770Y016933D02*
X026770Y017393D01*
X026539Y017393D01*
X026463Y017317D01*
X026616Y017086D02*
X026463Y016933D01*
X026923Y016933D02*
X027230Y016933D01*
X026923Y017240D01*
X026923Y017317D01*
X027000Y017393D01*
X027153Y017393D01*
X027230Y017317D01*
X025849Y017317D02*
X025772Y017393D01*
X025619Y017393D01*
X025542Y017317D01*
X025619Y017163D02*
X025695Y017163D01*
X025829Y019433D02*
X025982Y019433D01*
X026059Y019510D01*
X026059Y019663D02*
X025906Y019740D01*
X025829Y019740D01*
X025752Y019663D01*
X025752Y019510D01*
X025829Y019433D01*
X026059Y019663D02*
X026059Y019893D01*
X025752Y019893D01*
X026213Y019817D02*
X026213Y019663D01*
X026289Y019586D01*
X026520Y019586D01*
X026520Y019433D02*
X026520Y019893D01*
X026289Y019893D01*
X026213Y019817D01*
X026366Y019586D02*
X026213Y019433D01*
X026673Y019433D02*
X026980Y019433D01*
X026673Y019740D01*
X026673Y019817D01*
X026750Y019893D01*
X026903Y019893D01*
X026980Y019817D01*
X028270Y020302D02*
X028577Y020609D01*
X028654Y020609D01*
X028730Y020532D01*
X028730Y020379D01*
X028654Y020302D01*
X028270Y020302D02*
X028270Y020609D01*
X028270Y020762D02*
X028730Y020762D01*
X028730Y020992D01*
X028654Y021069D01*
X028500Y021069D01*
X028423Y020992D01*
X028423Y020762D01*
X028423Y020916D02*
X028270Y021069D01*
X028270Y021223D02*
X028347Y021223D01*
X028654Y021530D01*
X028730Y021530D01*
X028730Y021223D01*
X027822Y022183D02*
X027515Y022490D01*
X027515Y022567D01*
X027591Y022643D01*
X027745Y022643D01*
X027822Y022567D01*
X027822Y022183D02*
X027515Y022183D01*
X027361Y022183D02*
X027361Y022643D01*
X027131Y022643D01*
X027054Y022567D01*
X027054Y022413D01*
X027131Y022336D01*
X027361Y022336D01*
X027208Y022336D02*
X027054Y022183D01*
X026901Y022183D02*
X026594Y022183D01*
X026747Y022183D02*
X026747Y022643D01*
X026901Y022490D01*
X026440Y022567D02*
X026364Y022643D01*
X026210Y022643D01*
X026133Y022567D01*
X026440Y022260D01*
X026364Y022183D01*
X026210Y022183D01*
X026133Y022260D01*
X026133Y022567D01*
X026440Y022567D02*
X026440Y022260D01*
X029020Y018544D02*
X029480Y018544D01*
X029250Y018314D01*
X029250Y018621D01*
X029020Y018161D02*
X029020Y017854D01*
X029020Y018007D02*
X029480Y018007D01*
X029327Y017854D01*
X029404Y017700D02*
X029250Y017700D01*
X029173Y017624D01*
X029173Y017393D01*
X029020Y017393D02*
X029480Y017393D01*
X029480Y017624D01*
X029404Y017700D01*
X029173Y017547D02*
X029020Y017700D01*
X029020Y017240D02*
X029020Y016933D01*
X029327Y017240D01*
X029404Y017240D01*
X029480Y017163D01*
X029480Y017010D01*
X029404Y016933D01*
X030097Y016121D02*
X030173Y016121D01*
X030250Y016044D01*
X030250Y015814D01*
X030097Y015814D01*
X030020Y015891D01*
X030020Y016044D01*
X030097Y016121D01*
X030404Y015968D02*
X030250Y015814D01*
X030404Y015968D02*
X030480Y016121D01*
X030480Y015507D02*
X030020Y015507D01*
X030020Y015354D02*
X030020Y015661D01*
X030327Y015354D02*
X030480Y015507D01*
X030404Y015200D02*
X030250Y015200D01*
X030173Y015124D01*
X030173Y014893D01*
X030020Y014893D02*
X030480Y014893D01*
X030480Y015124D01*
X030404Y015200D01*
X030173Y015047D02*
X030020Y015200D01*
X030020Y014740D02*
X030020Y014433D01*
X030327Y014740D01*
X030404Y014740D01*
X030480Y014663D01*
X030480Y014510D01*
X030404Y014433D01*
X024730Y014317D02*
X024653Y014393D01*
X024500Y014393D01*
X024423Y014317D01*
X024423Y014240D01*
X024730Y013933D01*
X024423Y013933D01*
X024270Y013933D02*
X024270Y014393D01*
X024039Y014393D01*
X023963Y014317D01*
X023963Y014163D01*
X024039Y014086D01*
X024270Y014086D01*
X024116Y014086D02*
X023963Y013933D01*
X023809Y013933D02*
X023502Y013933D01*
X023349Y013933D02*
X023042Y014240D01*
X023042Y014317D01*
X023119Y014393D01*
X023272Y014393D01*
X023349Y014317D01*
X023656Y014393D02*
X023656Y013933D01*
X023349Y013933D02*
X023042Y013933D01*
X023656Y014393D02*
X023809Y014240D01*
X033520Y020510D02*
X033597Y020433D01*
X033520Y020510D02*
X033520Y020663D01*
X033597Y020740D01*
X033673Y020740D01*
X033750Y020663D01*
X033750Y020586D01*
X033750Y020663D02*
X033827Y020740D01*
X033904Y020740D01*
X033980Y020663D01*
X033980Y020510D01*
X033904Y020433D01*
X033980Y020893D02*
X033520Y020893D01*
X033673Y020893D02*
X033673Y021124D01*
X033750Y021200D01*
X033904Y021200D01*
X033980Y021124D01*
X033980Y020893D01*
X033673Y021047D02*
X033520Y021200D01*
X033597Y021354D02*
X033520Y021431D01*
X033520Y021584D01*
X033597Y021661D01*
X033673Y021661D01*
X033750Y021584D01*
X033750Y021354D01*
X033597Y021354D01*
X033750Y021354D02*
X033904Y021507D01*
X033980Y021661D01*
X039383Y020067D02*
X039383Y019990D01*
X039460Y019913D01*
X039690Y019913D01*
X039844Y019913D02*
X039844Y019760D01*
X039921Y019683D01*
X040074Y019683D01*
X040151Y019760D01*
X040151Y019913D02*
X039997Y019990D01*
X039921Y019990D01*
X039844Y019913D01*
X039844Y020143D02*
X040151Y020143D01*
X040151Y019913D01*
X040304Y019913D02*
X040381Y019836D01*
X040611Y019836D01*
X040611Y019683D02*
X040611Y020143D01*
X040381Y020143D01*
X040304Y020067D01*
X040304Y019913D01*
X040458Y019836D02*
X040304Y019683D01*
X040765Y019760D02*
X040841Y019683D01*
X040995Y019683D01*
X041072Y019760D01*
X040918Y019913D02*
X040841Y019913D01*
X040765Y019836D01*
X040765Y019760D01*
X040841Y019913D02*
X040765Y019990D01*
X040765Y020067D01*
X040841Y020143D01*
X040995Y020143D01*
X041072Y020067D01*
X039690Y020143D02*
X039690Y019683D01*
X039460Y019683D01*
X039383Y019760D01*
X039383Y019836D01*
X039460Y019913D01*
X039383Y020067D02*
X039460Y020143D01*
X039690Y020143D01*
X042270Y021260D02*
X042347Y021183D01*
X042270Y021260D02*
X042270Y021413D01*
X042347Y021490D01*
X042423Y021490D01*
X042500Y021413D01*
X042500Y021336D01*
X042500Y021413D02*
X042577Y021490D01*
X042654Y021490D01*
X042730Y021413D01*
X042730Y021260D01*
X042654Y021183D01*
X042730Y021643D02*
X042270Y021643D01*
X042423Y021643D02*
X042423Y021874D01*
X042500Y021950D01*
X042654Y021950D01*
X042730Y021874D01*
X042730Y021643D01*
X042423Y021797D02*
X042270Y021950D01*
X042347Y022104D02*
X042270Y022181D01*
X042270Y022334D01*
X042347Y022411D01*
X042500Y022411D01*
X042577Y022334D01*
X042577Y022257D01*
X042500Y022104D01*
X042730Y022104D01*
X042730Y022411D01*
X042577Y022564D02*
X042730Y022718D01*
X042577Y022871D01*
X042270Y022871D01*
X042500Y022871D02*
X042500Y022564D01*
X042577Y022564D02*
X042270Y022564D01*
D17*
X037772Y036413D03*
X036728Y036413D03*
D18*
X035000Y039141D03*
X035000Y040185D03*
X033750Y040685D03*
X033750Y039641D03*
D19*
X033750Y037183D03*
X033750Y036143D03*
X033250Y034933D03*
X033250Y033893D03*
X029250Y021683D03*
X029250Y020643D03*
X028500Y017933D03*
X028500Y016893D03*
X029500Y015433D03*
X029500Y014393D03*
X022500Y019143D03*
X022500Y020183D03*
D20*
X020282Y019413D03*
X019712Y019413D03*
D21*
X026160Y018913D03*
X026840Y018913D03*
X040660Y032913D03*
X041340Y032913D03*
D22*
X040270Y034913D03*
X039230Y034913D03*
X038980Y036163D03*
X040020Y036163D03*
X033770Y043663D03*
X032730Y043663D03*
X033980Y045663D03*
X035020Y045663D03*
X017270Y024163D03*
X016230Y024163D03*
X017730Y022163D03*
X018770Y022163D03*
X025980Y023163D03*
X027020Y023163D03*
X027270Y016413D03*
X026230Y016413D03*
X024770Y013413D03*
X023730Y013413D03*
D23*
X012501Y019621D03*
X012501Y020201D03*
X012501Y021121D03*
X012501Y021701D03*
X013501Y021701D03*
X013501Y021121D03*
X013501Y020201D03*
X013501Y019621D03*
D24*
X033000Y020358D03*
X033000Y021468D03*
X041750Y021108D03*
X041750Y022218D03*
D25*
X040305Y020663D03*
X039195Y020663D03*
M02*
