G75*
G70*
%OFA0B0*%
%FSLAX24Y24*%
%IPPOS*%
%LPD*%
%AMOC8*
5,1,8,0,0,1.08239X$1,22.5*
%
%ADD10R,0.2362X0.2362*%
%ADD11C,0.1181*%
%ADD12C,0.1575*%
%ADD13C,0.0906*%
%ADD14OC8,0.0832*%
%ADD15C,0.0752*%
%ADD16C,0.0832*%
%ADD17C,0.0832*%
%ADD18C,0.1810*%
%ADD19OC8,0.1810*%
%ADD20C,0.0912*%
%ADD21OC8,0.0872*%
%ADD22C,0.1032*%
%ADD23C,0.0952*%
%ADD24C,0.1000*%
%ADD25C,0.0182*%
%ADD26OC8,0.0912*%
%ADD27OC8,0.1000*%
%ADD28C,0.0200*%
%ADD29C,0.0866*%
%ADD30C,0.0160*%
D10*
X024122Y001681D03*
X028059Y001681D03*
X037902Y038689D03*
D11*
X001776Y003957D03*
X003744Y003957D03*
X005713Y003957D03*
X007681Y003957D03*
X009650Y003957D03*
X011618Y003957D03*
X009650Y010650D03*
X007681Y010650D03*
X005713Y010650D03*
X003744Y010650D03*
X001776Y010650D03*
X003256Y033571D03*
X018960Y033553D03*
X027966Y033553D03*
D12*
X003256Y037508D03*
D13*
X008374Y033571D03*
X011130Y035736D03*
X004240Y025500D03*
X006406Y022744D03*
X031000Y007000D03*
X031000Y003500D03*
D14*
X030000Y007750D03*
X029500Y008500D03*
X030500Y008500D03*
X030750Y009750D03*
X029500Y011000D03*
X032750Y009750D03*
X034750Y012750D03*
X035000Y014000D03*
X035000Y017000D03*
X034250Y018000D03*
X034250Y021000D03*
X028000Y020500D03*
X026000Y020500D03*
X024750Y021250D03*
X022750Y021250D03*
X019000Y020250D03*
X016000Y020250D03*
X020250Y015750D03*
X016625Y012000D03*
X013625Y012000D03*
X025500Y011000D03*
X025250Y016500D03*
X027250Y016500D03*
X038750Y012750D03*
X035250Y030000D03*
X032750Y036250D03*
X032750Y038250D03*
X028250Y030750D03*
X023250Y030750D03*
X017750Y031750D03*
X014750Y031750D03*
D15*
X035250Y031750D03*
X035250Y032750D03*
X035250Y033750D03*
D16*
X039959Y030000D02*
X040791Y030000D01*
X040791Y029000D02*
X039959Y029000D01*
X039959Y028000D02*
X040791Y028000D01*
X041750Y022791D02*
X041750Y021959D01*
X041750Y019791D02*
X041750Y018959D01*
X024666Y019000D02*
X023834Y019000D01*
X023834Y020000D02*
X024666Y020000D01*
X024666Y018000D02*
X023834Y018000D01*
X023834Y017000D02*
X024666Y017000D01*
X024500Y015332D02*
X024500Y014500D01*
X023500Y014500D02*
X023500Y015332D01*
X021666Y017000D02*
X020834Y017000D01*
X020834Y018000D02*
X021666Y018000D01*
X021666Y019000D02*
X020834Y019000D01*
X020834Y020000D02*
X021666Y020000D01*
X021916Y021500D02*
X021084Y021500D01*
X019416Y019250D02*
X018584Y019250D01*
X016416Y019250D02*
X015584Y019250D01*
X017084Y021500D02*
X017916Y021500D01*
X011375Y019666D02*
X011375Y018834D01*
X011375Y015666D02*
X011375Y014834D01*
X023500Y011500D02*
X023500Y010668D01*
X024500Y010668D02*
X024500Y011500D01*
X017416Y033500D02*
X016584Y033500D01*
X016584Y035500D02*
X017416Y035500D01*
D17*
X035250Y029000D03*
X038010Y027180D03*
X038010Y026180D03*
X039010Y025680D03*
X039010Y026680D03*
X038010Y025180D03*
X038010Y024180D03*
X039010Y023680D03*
X039010Y024680D03*
X038010Y023180D03*
X038010Y022180D03*
X039010Y021680D03*
X039010Y022680D03*
X038010Y021180D03*
X038010Y020180D03*
X039010Y019680D03*
X039010Y020680D03*
X038010Y019180D03*
X039010Y018680D03*
X019250Y015750D03*
D18*
X004000Y017000D03*
D19*
X008000Y017000D03*
D20*
X014794Y016500D02*
X015706Y016500D01*
X015706Y017500D02*
X014794Y017500D01*
X014794Y015500D02*
X015706Y015500D01*
X021294Y010000D02*
X022206Y010000D01*
X022206Y009000D02*
X021294Y009000D01*
X021294Y008000D02*
X022206Y008000D01*
X018956Y004500D02*
X018044Y004500D01*
X018044Y003500D02*
X018956Y003500D01*
X018956Y002500D02*
X018044Y002500D01*
D21*
X013500Y007500D03*
X013500Y010500D03*
X012000Y021375D03*
X012000Y024375D03*
D22*
X017900Y037484D02*
X017900Y038516D01*
X019900Y038516D02*
X019900Y037484D01*
X024100Y037484D02*
X024100Y038516D01*
X026100Y038516D02*
X026100Y037484D01*
D23*
X017250Y028125D03*
X015500Y029875D03*
X014000Y029500D03*
X014000Y028000D03*
X015500Y025875D03*
X017250Y024125D03*
X010000Y028000D03*
X010000Y029500D03*
D24*
X023500Y028250D03*
X023500Y024250D03*
X028500Y024250D03*
X028500Y028250D03*
X035250Y023750D03*
X038250Y015500D03*
X037207Y009543D03*
X030750Y014125D03*
D25*
X016811Y022527D02*
X016720Y022618D01*
X017022Y022618D01*
X017235Y022405D01*
X017235Y022103D01*
X017022Y021890D01*
X016720Y021890D01*
X016507Y022103D01*
X016507Y022405D01*
X016720Y022618D01*
X016777Y022481D01*
X016965Y022481D01*
X017098Y022348D01*
X017098Y022160D01*
X016965Y022027D01*
X016777Y022027D01*
X016644Y022160D01*
X016644Y022348D01*
X016777Y022481D01*
X016833Y022344D01*
X016909Y022344D01*
X016961Y022292D01*
X016961Y022216D01*
X016909Y022164D01*
X016833Y022164D01*
X016781Y022216D01*
X016781Y022292D01*
X016833Y022344D01*
X012569Y026769D02*
X012478Y026860D01*
X012780Y026860D01*
X012993Y026647D01*
X012993Y026345D01*
X012780Y026132D01*
X012478Y026132D01*
X012265Y026345D01*
X012265Y026647D01*
X012478Y026860D01*
X012535Y026723D01*
X012723Y026723D01*
X012856Y026590D01*
X012856Y026402D01*
X012723Y026269D01*
X012535Y026269D01*
X012402Y026402D01*
X012402Y026590D01*
X012535Y026723D01*
X012591Y026586D01*
X012667Y026586D01*
X012719Y026534D01*
X012719Y026458D01*
X012667Y026406D01*
X012591Y026406D01*
X012539Y026458D01*
X012539Y026534D01*
X012591Y026586D01*
D26*
X009875Y026625D03*
X009875Y020625D03*
X013250Y019500D03*
X013250Y013500D03*
X019750Y024550D03*
X019750Y030450D03*
X036750Y027250D03*
X036750Y024250D03*
X036750Y021250D03*
X036750Y019250D03*
X040750Y017750D03*
X040750Y023750D03*
D27*
X033250Y023750D03*
X036250Y015500D03*
X032750Y014125D03*
D28*
X035727Y011256D02*
X035627Y011356D01*
X035959Y011356D01*
X036192Y011123D01*
X036192Y010791D01*
X035959Y010558D01*
X035627Y010558D01*
X035394Y010791D01*
X035394Y011123D01*
X035627Y011356D01*
X035690Y011206D01*
X035896Y011206D01*
X036042Y011060D01*
X036042Y010854D01*
X035896Y010708D01*
X035690Y010708D01*
X035544Y010854D01*
X035544Y011060D01*
X035690Y011206D01*
X035752Y011056D01*
X035834Y011056D01*
X035892Y010998D01*
X035892Y010916D01*
X035834Y010858D01*
X035752Y010858D01*
X035694Y010916D01*
X035694Y010998D01*
X035752Y011056D01*
D29*
X040250Y012500D03*
X040250Y015500D03*
X032750Y018000D03*
X032750Y021000D03*
D30*
X031000Y007000D02*
X031000Y003500D01*
M02*
