G75*
G70*
%OFA0B0*%
%FSLAX24Y24*%
%IPPOS*%
%LPD*%
%AMOC8*
5,1,8,0,0,1.08239X$1,22.5*
%
%ADD10C,0.0060*%
%ADD11R,0.0200X0.0450*%
%ADD12C,0.0050*%
%ADD13C,0.0080*%
%ADD14R,0.0680X0.0220*%
%ADD15R,0.0620X0.0240*%
%ADD16C,0.0040*%
%ADD17R,0.0669X0.0295*%
%ADD18R,0.0690X0.0290*%
%ADD19R,0.0295X0.0571*%
%ADD20R,0.0140X0.0560*%
%ADD21R,0.0290X0.0690*%
%ADD22R,0.0551X0.0256*%
%ADD23R,0.0720X0.0230*%
%ADD24R,0.0230X0.0720*%
%ADD25R,0.0220X0.0680*%
%ADD26R,0.0240X0.0620*%
D10*
X011750Y012339D02*
X011750Y012661D01*
X012250Y012661D02*
X012250Y012339D01*
X013000Y012339D02*
X013000Y012661D01*
X013500Y012661D02*
X013500Y012339D01*
X013250Y013839D02*
X013250Y014161D01*
X012750Y014161D02*
X012750Y013839D01*
X012250Y013839D02*
X012250Y014161D01*
X011750Y014161D02*
X011750Y013839D01*
X022430Y016125D02*
X022430Y016880D01*
X023070Y016880D02*
X023070Y016125D01*
X026470Y016000D02*
X027030Y016000D01*
X027030Y015500D02*
X026470Y015500D01*
X028680Y017625D02*
X028680Y018380D01*
X029320Y018380D02*
X029320Y017625D01*
X027125Y019680D02*
X026370Y019680D01*
X026370Y020320D02*
X027125Y020320D01*
X032680Y025870D02*
X032680Y026625D01*
X033320Y026625D02*
X033320Y025870D01*
X033620Y027430D02*
X034375Y027430D01*
X034375Y028070D02*
X033620Y028070D01*
X033060Y031480D02*
X033060Y032520D01*
X033430Y032380D02*
X033430Y031625D01*
X034070Y031625D02*
X034070Y032380D01*
X033060Y033480D02*
X033060Y034520D01*
X033430Y034380D02*
X033430Y033625D01*
X034070Y033625D02*
X034070Y034380D01*
X032440Y034520D02*
X032440Y033480D01*
X032440Y032520D02*
X032440Y031480D01*
X036250Y032620D02*
X039750Y032620D01*
X039750Y032630D02*
X039750Y033050D01*
X039750Y033450D01*
X039750Y033870D01*
X039748Y033893D01*
X039743Y033916D01*
X039734Y033938D01*
X039721Y033958D01*
X039706Y033976D01*
X039688Y033991D01*
X039668Y034004D01*
X039646Y034013D01*
X039623Y034018D01*
X039600Y034020D01*
X036400Y034020D01*
X036377Y034018D01*
X036354Y034013D01*
X036332Y034004D01*
X036312Y033991D01*
X036294Y033976D01*
X036279Y033958D01*
X036266Y033938D01*
X036257Y033916D01*
X036252Y033893D01*
X036250Y033870D01*
X036250Y032630D01*
X036252Y032607D01*
X036257Y032584D01*
X036266Y032562D01*
X036279Y032542D01*
X036294Y032524D01*
X036312Y032509D01*
X036332Y032496D01*
X036354Y032487D01*
X036377Y032482D01*
X036400Y032480D01*
X039600Y032480D01*
X039623Y032482D01*
X039646Y032487D01*
X039668Y032496D01*
X039688Y032509D01*
X039706Y032524D01*
X039721Y032542D01*
X039734Y032562D01*
X039743Y032584D01*
X039748Y032607D01*
X039750Y032630D01*
X039750Y033050D02*
X039723Y033052D01*
X039696Y033057D01*
X039670Y033067D01*
X039646Y033079D01*
X039624Y033095D01*
X039604Y033113D01*
X039587Y033135D01*
X039572Y033158D01*
X039562Y033183D01*
X039554Y033209D01*
X039550Y033236D01*
X039550Y033264D01*
X039554Y033291D01*
X039562Y033317D01*
X039572Y033342D01*
X039587Y033365D01*
X039604Y033387D01*
X039624Y033405D01*
X039646Y033421D01*
X039670Y033433D01*
X039696Y033443D01*
X039723Y033448D01*
X039750Y033450D01*
X040105Y031310D02*
X041145Y031310D01*
X041145Y030690D02*
X040105Y030690D01*
X038875Y030820D02*
X038120Y030820D01*
X038120Y030180D02*
X038875Y030180D01*
X038880Y029445D02*
X038125Y029445D01*
X038125Y028805D02*
X038880Y028805D01*
X038880Y028445D02*
X038125Y028445D01*
X038125Y027805D02*
X038880Y027805D01*
X041170Y015200D02*
X041170Y014300D01*
X041830Y014300D02*
X041830Y015200D01*
X039700Y014330D02*
X038800Y014330D01*
X038800Y013670D02*
X039700Y013670D01*
X032570Y008375D02*
X032570Y007620D01*
X031930Y007620D02*
X031930Y008375D01*
X030875Y010680D02*
X030120Y010680D01*
X030120Y011320D02*
X030875Y011320D01*
X026875Y011320D02*
X026120Y011320D01*
X026120Y010680D02*
X026875Y010680D01*
D11*
X036500Y032255D03*
X037000Y032255D03*
X037500Y032255D03*
X038000Y032255D03*
X038500Y032265D03*
X039000Y032255D03*
X039500Y032255D03*
X039500Y034245D03*
X039000Y034245D03*
X038500Y034245D03*
X038000Y034245D03*
X037500Y034245D03*
X037000Y034245D03*
X036500Y034245D03*
D12*
X037894Y033575D02*
X037894Y033125D01*
X038044Y033125D02*
X037744Y033125D01*
X038044Y033425D02*
X037894Y033575D01*
X038204Y033500D02*
X038279Y033575D01*
X038504Y033575D01*
X038504Y033125D01*
X038279Y033125D01*
X038204Y033200D01*
X038204Y033500D01*
X038664Y033500D02*
X038739Y033575D01*
X038965Y033575D01*
X038965Y033125D01*
X038739Y033125D01*
X038664Y033200D01*
X038664Y033500D01*
X039125Y033350D02*
X039425Y033350D01*
X039200Y033575D01*
X039200Y033125D01*
D13*
X040478Y031000D02*
X040872Y031236D01*
X040872Y030764D01*
X040478Y031000D01*
X032986Y031753D02*
X032514Y031753D01*
X032750Y032147D01*
X032986Y031753D01*
X032750Y033853D02*
X032514Y034247D01*
X032986Y034247D01*
X032750Y033853D01*
D14*
X032750Y033380D03*
X032750Y032620D03*
X032750Y031380D03*
X032750Y034620D03*
D15*
X032750Y033780D03*
X032750Y032220D03*
D16*
X011827Y009275D02*
X011520Y008968D01*
X011520Y009275D01*
X011520Y009428D02*
X011980Y009428D01*
X011980Y009659D01*
X011904Y009735D01*
X011750Y009735D01*
X011673Y009659D01*
X011673Y009428D01*
X011673Y009582D02*
X011520Y009735D01*
X011520Y009889D02*
X011520Y010196D01*
X011520Y010349D02*
X011520Y010656D01*
X011520Y010503D02*
X011980Y010503D01*
X011827Y010349D01*
X011980Y010042D02*
X011827Y009889D01*
X011980Y010042D02*
X011520Y010042D01*
X012270Y010042D02*
X012730Y010042D01*
X012577Y009889D01*
X012654Y009735D02*
X012500Y009735D01*
X012423Y009659D01*
X012423Y009428D01*
X012270Y009428D02*
X012730Y009428D01*
X012730Y009659D01*
X012654Y009735D01*
X012423Y009582D02*
X012270Y009735D01*
X012270Y009889D02*
X012270Y010196D01*
X012270Y010349D02*
X012270Y010656D01*
X012270Y010503D02*
X012730Y010503D01*
X012577Y010349D01*
X012730Y010810D02*
X012270Y010810D01*
X012270Y011040D01*
X012347Y011117D01*
X012654Y011117D01*
X012730Y011040D01*
X012730Y010810D01*
X011980Y010886D02*
X011904Y010810D01*
X011597Y010810D01*
X011520Y010886D01*
X011520Y011040D01*
X011597Y011117D01*
X011904Y011117D02*
X011980Y011040D01*
X011980Y010886D01*
X011904Y009275D02*
X011980Y009198D01*
X011980Y009045D01*
X011904Y008968D01*
X011904Y009275D02*
X011827Y009275D01*
X012270Y009275D02*
X012270Y008968D01*
X012577Y009275D01*
X012654Y009275D01*
X012730Y009198D01*
X012730Y009045D01*
X012654Y008968D01*
X012770Y015020D02*
X013077Y015327D01*
X013154Y015327D01*
X013230Y015250D01*
X013230Y015097D01*
X013154Y015020D01*
X012770Y015020D02*
X012770Y015327D01*
X012770Y015480D02*
X013230Y015480D01*
X013230Y015711D01*
X013154Y015787D01*
X013000Y015787D01*
X012923Y015711D01*
X012923Y015480D01*
X012923Y015634D02*
X012770Y015787D01*
X012770Y015941D02*
X012770Y016248D01*
X012770Y016401D02*
X012770Y016708D01*
X012770Y016555D02*
X013230Y016555D01*
X013077Y016401D01*
X013230Y016094D02*
X012770Y016094D01*
X012480Y016094D02*
X012020Y016094D01*
X012020Y015941D02*
X012020Y016248D01*
X012020Y016401D02*
X012020Y016708D01*
X012020Y016555D02*
X012480Y016555D01*
X012327Y016401D01*
X012480Y016094D02*
X012327Y015941D01*
X012404Y015787D02*
X012250Y015787D01*
X012173Y015711D01*
X012173Y015480D01*
X012020Y015480D02*
X012480Y015480D01*
X012480Y015711D01*
X012404Y015787D01*
X012173Y015634D02*
X012020Y015787D01*
X012020Y015327D02*
X012020Y015020D01*
X012327Y015327D01*
X012404Y015327D01*
X012480Y015250D01*
X012480Y015097D01*
X012404Y015020D01*
X013077Y015941D02*
X013230Y016094D01*
X013230Y016862D02*
X012770Y016862D01*
X012770Y017092D01*
X012847Y017168D01*
X012923Y017168D01*
X013000Y017092D01*
X013000Y016862D01*
X013000Y017092D02*
X013077Y017168D01*
X013154Y017168D01*
X013230Y017092D01*
X013230Y016862D01*
X012480Y017015D02*
X012327Y017168D01*
X012020Y017168D01*
X012250Y017168D02*
X012250Y016862D01*
X012327Y016862D02*
X012480Y017015D01*
X012327Y016862D02*
X012020Y016862D01*
X020752Y013980D02*
X020906Y013904D01*
X021059Y013750D01*
X020829Y013750D01*
X020752Y013673D01*
X020752Y013597D01*
X020829Y013520D01*
X020982Y013520D01*
X021059Y013597D01*
X021059Y013750D01*
X021213Y013597D02*
X021289Y013520D01*
X021443Y013520D01*
X021520Y013597D01*
X021520Y013904D01*
X021443Y013980D01*
X021289Y013980D01*
X021213Y013904D01*
X021100Y014240D02*
X021390Y014240D01*
X021673Y013904D02*
X021750Y013980D01*
X021903Y013980D01*
X021980Y013904D01*
X021673Y013904D02*
X021673Y013827D01*
X021980Y013520D01*
X021673Y013520D01*
X021400Y014760D02*
X021100Y014760D01*
X022520Y017639D02*
X022827Y017946D01*
X022904Y017946D01*
X022980Y017869D01*
X022980Y017716D01*
X022904Y017639D01*
X022520Y017639D02*
X022520Y017946D01*
X022520Y018099D02*
X022980Y018099D01*
X022980Y018329D01*
X022904Y018406D01*
X022750Y018406D01*
X022673Y018329D01*
X022673Y018099D01*
X022673Y018253D02*
X022520Y018406D01*
X022597Y018560D02*
X022673Y018560D01*
X022750Y018636D01*
X022750Y018790D01*
X022673Y018867D01*
X022597Y018867D01*
X022520Y018790D01*
X022520Y018636D01*
X022597Y018560D01*
X022750Y018636D02*
X022827Y018560D01*
X022904Y018560D01*
X022980Y018636D01*
X022980Y018790D01*
X022904Y018867D01*
X022827Y018867D01*
X022750Y018790D01*
X026133Y020597D02*
X026210Y020520D01*
X026364Y020520D01*
X026440Y020597D01*
X026133Y020904D01*
X026133Y020597D01*
X026133Y020904D02*
X026210Y020980D01*
X026364Y020980D01*
X026440Y020904D01*
X026440Y020597D01*
X026594Y020520D02*
X026901Y020520D01*
X027054Y020520D02*
X027208Y020673D01*
X027131Y020673D02*
X027361Y020673D01*
X027361Y020520D02*
X027361Y020980D01*
X027131Y020980D01*
X027054Y020904D01*
X027054Y020750D01*
X027131Y020673D01*
X026901Y020827D02*
X026747Y020980D01*
X026747Y020520D01*
X027515Y020520D02*
X027822Y020520D01*
X027515Y020827D01*
X027515Y020904D01*
X027591Y020980D01*
X027745Y020980D01*
X027822Y020904D01*
X027789Y018230D02*
X027713Y018154D01*
X027713Y018000D01*
X027789Y017923D01*
X028020Y017923D01*
X028020Y017770D02*
X028020Y018230D01*
X027789Y018230D01*
X027559Y018230D02*
X027252Y018230D01*
X027252Y018154D01*
X027559Y017847D01*
X027559Y017770D01*
X027713Y017770D02*
X027866Y017923D01*
X028173Y017770D02*
X028480Y017770D01*
X028173Y018077D01*
X028173Y018154D01*
X028250Y018230D01*
X028403Y018230D01*
X028480Y018154D01*
X027403Y015230D02*
X027250Y015230D01*
X027173Y015154D01*
X027173Y015077D01*
X027480Y014770D01*
X027173Y014770D01*
X027020Y014770D02*
X027020Y015230D01*
X026789Y015230D01*
X026713Y015154D01*
X026713Y015000D01*
X026789Y014923D01*
X027020Y014923D01*
X026866Y014923D02*
X026713Y014770D01*
X026559Y014847D02*
X026482Y014770D01*
X026329Y014770D01*
X026252Y014847D01*
X026252Y015000D01*
X026329Y015077D01*
X026406Y015077D01*
X026559Y015000D01*
X026559Y015230D01*
X026252Y015230D01*
X027403Y015230D02*
X027480Y015154D01*
X029960Y012230D02*
X030190Y012000D01*
X029883Y012000D01*
X029960Y011770D02*
X029960Y012230D01*
X030497Y012230D02*
X030497Y011770D01*
X030344Y011770D02*
X030651Y011770D01*
X030804Y011770D02*
X030958Y011923D01*
X030881Y011923D02*
X031111Y011923D01*
X031111Y011770D02*
X031111Y012230D01*
X030881Y012230D01*
X030804Y012154D01*
X030804Y012000D01*
X030881Y011923D01*
X030651Y012077D02*
X030497Y012230D01*
X031265Y012154D02*
X031341Y012230D01*
X031495Y012230D01*
X031572Y012154D01*
X031265Y012154D02*
X031265Y012077D01*
X031572Y011770D01*
X031265Y011770D01*
X027572Y011904D02*
X027495Y011980D01*
X027341Y011980D01*
X027265Y011904D01*
X027265Y011827D01*
X027572Y011520D01*
X027265Y011520D01*
X027111Y011520D02*
X027111Y011980D01*
X026881Y011980D01*
X026804Y011904D01*
X026804Y011750D01*
X026881Y011673D01*
X027111Y011673D01*
X026958Y011673D02*
X026804Y011520D01*
X026651Y011520D02*
X026344Y011520D01*
X026497Y011520D02*
X026497Y011980D01*
X026651Y011827D01*
X026190Y011904D02*
X026114Y011980D01*
X025960Y011980D01*
X025883Y011904D01*
X025883Y011827D01*
X026190Y011520D01*
X025883Y011520D01*
X031292Y006730D02*
X031445Y006654D01*
X031599Y006500D01*
X031369Y006500D01*
X031292Y006423D01*
X031292Y006347D01*
X031369Y006270D01*
X031522Y006270D01*
X031599Y006347D01*
X031599Y006500D01*
X031752Y006270D02*
X032059Y006270D01*
X031906Y006270D02*
X031906Y006730D01*
X032059Y006577D01*
X032213Y006654D02*
X032213Y006500D01*
X032289Y006423D01*
X032520Y006423D01*
X032520Y006270D02*
X032520Y006730D01*
X032289Y006730D01*
X032213Y006654D01*
X032366Y006423D02*
X032213Y006270D01*
X032673Y006270D02*
X032980Y006270D01*
X032673Y006577D01*
X032673Y006654D01*
X032750Y006730D01*
X032903Y006730D01*
X032980Y006654D01*
X036369Y013770D02*
X036292Y013847D01*
X036292Y013923D01*
X036369Y014000D01*
X036599Y014000D01*
X036752Y014000D02*
X036752Y013847D01*
X036829Y013770D01*
X036982Y013770D01*
X037059Y013847D01*
X037059Y014000D02*
X036906Y014077D01*
X036829Y014077D01*
X036752Y014000D01*
X036752Y014230D02*
X037059Y014230D01*
X037059Y014000D01*
X037213Y014000D02*
X037289Y013923D01*
X037520Y013923D01*
X037520Y013770D02*
X037520Y014230D01*
X037289Y014230D01*
X037213Y014154D01*
X037213Y014000D01*
X037366Y013923D02*
X037213Y013770D01*
X037673Y013847D02*
X037750Y013770D01*
X037903Y013770D01*
X037980Y013847D01*
X037827Y014000D02*
X037750Y014000D01*
X037673Y013923D01*
X037673Y013847D01*
X037750Y014000D02*
X037673Y014077D01*
X037673Y014154D01*
X037750Y014230D01*
X037903Y014230D01*
X037980Y014154D01*
X036599Y014230D02*
X036599Y013770D01*
X036369Y013770D01*
X036369Y014000D02*
X036292Y014077D01*
X036292Y014154D01*
X036369Y014230D01*
X036599Y014230D01*
X039792Y016020D02*
X039792Y016327D01*
X039945Y016480D01*
X040099Y016327D01*
X040099Y016020D01*
X040252Y016097D02*
X040329Y016020D01*
X040482Y016020D01*
X040559Y016097D01*
X040559Y016250D02*
X040406Y016327D01*
X040329Y016327D01*
X040252Y016250D01*
X040252Y016097D01*
X040099Y016250D02*
X039792Y016250D01*
X040252Y016480D02*
X040559Y016480D01*
X040559Y016250D01*
X040713Y016250D02*
X040713Y016404D01*
X040789Y016480D01*
X041020Y016480D01*
X041020Y016020D01*
X041020Y016173D02*
X040789Y016173D01*
X040713Y016250D01*
X040866Y016173D02*
X040713Y016020D01*
X041173Y016097D02*
X041250Y016020D01*
X041403Y016020D01*
X041480Y016097D01*
X041327Y016250D02*
X041250Y016250D01*
X041173Y016173D01*
X041173Y016097D01*
X041250Y016250D02*
X041173Y016327D01*
X041173Y016404D01*
X041250Y016480D01*
X041403Y016480D01*
X041480Y016404D01*
X032000Y026020D02*
X032000Y026480D01*
X032230Y026250D01*
X031923Y026250D01*
X031770Y026173D02*
X031539Y026173D01*
X031463Y026250D01*
X031463Y026404D01*
X031539Y026480D01*
X031770Y026480D01*
X031770Y026020D01*
X031616Y026173D02*
X031463Y026020D01*
X031309Y026097D02*
X031232Y026020D01*
X031079Y026020D01*
X031002Y026097D01*
X031002Y026173D01*
X031079Y026250D01*
X031156Y026250D01*
X031079Y026250D02*
X031002Y026327D01*
X031002Y026404D01*
X031079Y026480D01*
X031232Y026480D01*
X031309Y026404D01*
X031502Y027520D02*
X031809Y027520D01*
X031502Y027827D01*
X031502Y027904D01*
X031579Y027980D01*
X031732Y027980D01*
X031809Y027904D01*
X031963Y027904D02*
X031963Y027750D01*
X032039Y027673D01*
X032270Y027673D01*
X032270Y027520D02*
X032270Y027980D01*
X032039Y027980D01*
X031963Y027904D01*
X032116Y027673D02*
X031963Y027520D01*
X032423Y027750D02*
X032730Y027750D01*
X032500Y027980D01*
X032500Y027520D01*
X032000Y030770D02*
X032000Y031077D01*
X031923Y031230D02*
X031923Y031461D01*
X032000Y031537D01*
X032154Y031537D01*
X032230Y031461D01*
X032230Y031230D01*
X031770Y031230D01*
X031923Y031384D02*
X031770Y031537D01*
X031770Y031691D02*
X031770Y031998D01*
X031770Y032151D02*
X031770Y032381D01*
X031847Y032458D01*
X031923Y032458D01*
X032000Y032381D01*
X032000Y032151D01*
X031770Y032151D02*
X032230Y032151D01*
X032230Y032381D01*
X032154Y032458D01*
X032077Y032458D01*
X032000Y032381D01*
X031430Y032281D02*
X031430Y032128D01*
X031354Y032051D01*
X031354Y031898D02*
X031047Y031898D01*
X030970Y031821D01*
X030970Y031591D01*
X031430Y031591D01*
X031430Y031821D01*
X031354Y031898D01*
X031430Y032281D02*
X031354Y032358D01*
X031277Y032358D01*
X030970Y032051D01*
X030970Y032358D01*
X031123Y031437D02*
X031430Y031437D01*
X031123Y031437D02*
X030970Y031284D01*
X031123Y031130D01*
X031430Y031130D01*
X031430Y030900D02*
X031200Y030670D01*
X031200Y030977D01*
X030970Y030900D02*
X031430Y030900D01*
X031770Y031000D02*
X032230Y031000D01*
X032000Y030770D01*
X032077Y031691D02*
X032230Y031844D01*
X031770Y031844D01*
X032000Y033270D02*
X032000Y033577D01*
X031923Y033730D02*
X031923Y033961D01*
X032000Y034037D01*
X032154Y034037D01*
X032230Y033961D01*
X032230Y033730D01*
X031770Y033730D01*
X031923Y033884D02*
X031770Y034037D01*
X031770Y034191D02*
X031770Y034498D01*
X031770Y034651D02*
X032077Y034651D01*
X032230Y034805D01*
X032077Y034958D01*
X031770Y034958D01*
X032000Y034958D02*
X032000Y034651D01*
X032230Y034344D02*
X031770Y034344D01*
X031430Y034341D02*
X031430Y034571D01*
X031354Y034648D01*
X031047Y034648D01*
X030970Y034571D01*
X030970Y034341D01*
X031430Y034341D01*
X031430Y034187D02*
X031123Y034187D01*
X030970Y034034D01*
X031123Y033880D01*
X031430Y033880D01*
X031430Y033650D02*
X031200Y033420D01*
X031200Y033727D01*
X030970Y033650D02*
X031430Y033650D01*
X031770Y033500D02*
X032230Y033500D01*
X032000Y033270D01*
X032077Y034191D02*
X032230Y034344D01*
X031430Y034955D02*
X030970Y034955D01*
X030970Y035108D02*
X030970Y034801D01*
X031277Y034801D02*
X031430Y034955D01*
X033440Y036870D02*
X033440Y037630D01*
X034060Y037630D02*
X034060Y036870D01*
X034520Y036807D02*
X034597Y036730D01*
X034904Y036730D01*
X034980Y036807D01*
X034980Y036961D01*
X034904Y037037D01*
X034904Y037191D02*
X034980Y037268D01*
X034980Y037421D01*
X034904Y037498D01*
X034827Y037498D01*
X034520Y037191D01*
X034520Y037498D01*
X034597Y037651D02*
X034520Y037728D01*
X034520Y037881D01*
X034597Y037958D01*
X034904Y037958D02*
X034980Y037881D01*
X034980Y037728D01*
X034904Y037651D01*
X034597Y037651D01*
X034597Y037037D02*
X034520Y036961D01*
X034520Y036807D01*
X034520Y036500D02*
X034980Y036500D01*
X034750Y036270D01*
X034750Y036577D01*
X040033Y031829D02*
X040033Y031752D01*
X040110Y031675D01*
X040033Y031598D01*
X040033Y031522D01*
X040110Y031445D01*
X040264Y031445D01*
X040340Y031522D01*
X040494Y031522D02*
X040494Y031829D01*
X040571Y031905D01*
X040801Y031905D01*
X040801Y031445D01*
X040571Y031445D01*
X040494Y031522D01*
X040340Y031829D02*
X040264Y031905D01*
X040110Y031905D01*
X040033Y031829D01*
X040110Y031675D02*
X040187Y031675D01*
X040954Y031598D02*
X040954Y031905D01*
X040954Y031598D02*
X041108Y031445D01*
X041261Y031598D01*
X041261Y031905D01*
X041491Y031905D02*
X041491Y031445D01*
X041415Y031675D02*
X041722Y031675D01*
X041491Y031905D01*
X041250Y032514D02*
X041250Y032821D01*
X041097Y032974D02*
X041020Y033051D01*
X041020Y033204D01*
X041097Y033281D01*
X041020Y033435D02*
X041020Y033742D01*
X041020Y033588D02*
X041480Y033588D01*
X041327Y033435D01*
X041404Y033281D02*
X041480Y033204D01*
X041480Y033051D01*
X041404Y032974D01*
X041097Y032974D01*
X041020Y032744D02*
X041480Y032744D01*
X041250Y032514D01*
X040810Y032995D02*
X040810Y033755D01*
X040190Y033755D02*
X040190Y032995D01*
X037230Y030500D02*
X036923Y030500D01*
X036770Y030423D02*
X036539Y030423D01*
X036463Y030500D01*
X036463Y030654D01*
X036539Y030730D01*
X036770Y030730D01*
X036770Y030270D01*
X036616Y030423D02*
X036463Y030270D01*
X036309Y030500D02*
X036002Y030500D01*
X036079Y030270D02*
X036079Y030730D01*
X036309Y030500D01*
X037000Y030270D02*
X037000Y030730D01*
X037230Y030500D01*
X037250Y029355D02*
X037480Y029125D01*
X037173Y029125D01*
X037020Y029048D02*
X036789Y029048D01*
X036713Y029125D01*
X036713Y029279D01*
X036789Y029355D01*
X037020Y029355D01*
X037020Y028895D01*
X036866Y029048D02*
X036713Y028895D01*
X036559Y028972D02*
X036482Y028895D01*
X036329Y028895D01*
X036252Y028972D01*
X036252Y029125D01*
X036329Y029202D01*
X036406Y029202D01*
X036559Y029125D01*
X036559Y029355D01*
X036252Y029355D01*
X037250Y029355D02*
X037250Y028895D01*
X037125Y028355D02*
X037355Y028125D01*
X037048Y028125D01*
X036895Y028048D02*
X036664Y028048D01*
X036588Y028125D01*
X036588Y028279D01*
X036664Y028355D01*
X036895Y028355D01*
X036895Y027895D01*
X036741Y028048D02*
X036588Y027895D01*
X036434Y027972D02*
X036357Y027895D01*
X036204Y027895D01*
X036127Y027972D01*
X036127Y028048D01*
X036204Y028125D01*
X036434Y028125D01*
X036434Y027972D01*
X036434Y028125D02*
X036281Y028279D01*
X036127Y028355D01*
X037125Y028355D02*
X037125Y027895D01*
D17*
X040500Y032853D03*
X040500Y033897D03*
X033750Y036728D03*
X033750Y037772D03*
D18*
X033750Y034520D03*
X033750Y033480D03*
X033750Y032520D03*
X033750Y031480D03*
X033000Y026770D03*
X033000Y025730D03*
X029000Y018520D03*
X029000Y017480D03*
X022750Y017020D03*
X022750Y015980D03*
X032250Y008520D03*
X032250Y007480D03*
D19*
X021532Y014500D03*
X020962Y014500D03*
D20*
X026410Y015750D03*
X027090Y015750D03*
D21*
X027270Y020000D03*
X026230Y020000D03*
X033480Y027750D03*
X034520Y027750D03*
X037980Y028125D03*
X037980Y029125D03*
X039020Y029125D03*
X039020Y028125D03*
X039020Y030500D03*
X037980Y030500D03*
X031020Y011000D03*
X029980Y011000D03*
X027020Y011000D03*
X025980Y011000D03*
D22*
X013251Y012208D03*
X013251Y012788D03*
X012001Y012788D03*
X012001Y012208D03*
X012001Y013708D03*
X012001Y014288D03*
X013001Y014288D03*
X013001Y013708D03*
D23*
X041500Y014195D03*
X041500Y015305D03*
D24*
X039805Y014000D03*
X038695Y014000D03*
D25*
X040005Y031000D03*
X041245Y031000D03*
D26*
X040405Y031000D03*
M02*
