G75*
G70*
%OFA0B0*%
%FSLAX24Y24*%
%IPPOS*%
%LPD*%
%AMOC8*
5,1,8,0,0,1.08239X$1,22.5*
%
%ADD10C,0.0180*%
%ADD11R,0.3750X0.3000*%
%ADD12R,0.1575X0.1969*%
%ADD13R,0.1969X0.1575*%
%ADD14R,0.3937X0.3150*%
%ADD15R,0.2362X0.2362*%
%ADD16C,0.0050*%
%ADD17C,0.1181*%
%ADD18C,0.1575*%
%ADD19C,0.0906*%
%ADD20C,0.0120*%
%ADD21R,0.0260X0.0800*%
%ADD22OC8,0.0832*%
%ADD23C,0.0752*%
%ADD24R,0.0709X0.0551*%
%ADD25R,0.0512X0.0591*%
%ADD26R,0.0709X0.0630*%
%ADD27C,0.0832*%
%ADD28R,0.0512X0.0630*%
%ADD29C,0.0166*%
%ADD30C,0.0832*%
%ADD31R,0.0710X0.0630*%
%ADD32C,0.1810*%
%ADD33OC8,0.1810*%
%ADD34C,0.0912*%
%ADD35OC8,0.0872*%
%ADD36C,0.1032*%
%ADD37R,0.0630X0.0710*%
%ADD38C,0.0952*%
%ADD39C,0.1000*%
%ADD40C,0.0182*%
%ADD41OC8,0.0912*%
%ADD42OC8,0.1000*%
%ADD43C,0.0200*%
%ADD44C,0.0866*%
%ADD45R,0.0787X0.0630*%
%ADD46R,0.0630X0.0787*%
%ADD47R,0.1339X0.0748*%
%ADD48C,0.0320*%
%ADD49C,0.0160*%
%ADD50C,0.0500*%
%ADD51C,0.0240*%
%ADD52C,0.0760*%
%ADD53C,0.0700*%
%ADD54C,0.0400*%
%ADD55C,0.1000*%
%ADD56C,0.0560*%
%ADD57C,0.0660*%
%ADD58C,0.0860*%
%ADD59C,0.0000*%
%ADD60C,0.0001*%
D10*
X001060Y016932D02*
X000890Y017102D01*
X000890Y017442D01*
X001060Y017613D01*
X001400Y017613D01*
X001400Y017272D01*
X001060Y016932D02*
X001741Y016932D01*
X001911Y017102D01*
X001911Y017442D01*
X001741Y017613D01*
X001911Y018037D02*
X001911Y018377D01*
X001911Y018207D02*
X000890Y018207D01*
X000890Y018037D02*
X000890Y018377D01*
X000890Y019114D02*
X001911Y019114D01*
X001911Y018774D02*
X001911Y019454D01*
X001911Y019878D02*
X000890Y019878D01*
X001400Y019878D02*
X001400Y020559D01*
X000890Y020559D02*
X001911Y020559D01*
X001911Y020983D02*
X001060Y020983D01*
X000890Y021154D01*
X000890Y021494D01*
X001060Y021664D01*
X001911Y021664D01*
X001911Y022088D02*
X001911Y022599D01*
X001741Y022769D01*
X001571Y022769D01*
X001400Y022599D01*
X001400Y022088D01*
X000890Y022088D02*
X000890Y022599D01*
X001060Y022769D01*
X001230Y022769D01*
X001400Y022599D01*
X001060Y023193D02*
X001060Y023363D01*
X000890Y023363D01*
X000890Y023193D01*
X001060Y023193D01*
X001060Y023746D02*
X000890Y023916D01*
X000890Y024256D01*
X001060Y024426D01*
X001060Y024851D02*
X000890Y025021D01*
X000890Y025361D01*
X001060Y025531D01*
X001741Y025531D01*
X001911Y025361D01*
X001911Y025021D01*
X001741Y024851D01*
X001060Y024851D01*
X001741Y024426D02*
X001911Y024256D01*
X001911Y023916D01*
X001741Y023746D01*
X001060Y023746D01*
X000890Y022088D02*
X001911Y022088D01*
X001911Y025956D02*
X000890Y025956D01*
X001571Y026296D02*
X001911Y026636D01*
X000890Y026636D01*
X000890Y027061D02*
X001911Y027741D01*
X001911Y028166D02*
X001911Y028846D01*
X001741Y028846D01*
X001060Y028166D01*
X000890Y028166D01*
X001400Y029270D02*
X001400Y029951D01*
X000890Y029781D02*
X001911Y029781D01*
X001400Y029270D01*
X000890Y030375D02*
X000890Y031056D01*
X001060Y031480D02*
X000890Y031651D01*
X000890Y031991D01*
X001060Y032161D01*
X001230Y032161D01*
X001400Y031991D01*
X001400Y031651D01*
X001571Y031480D01*
X001741Y031480D01*
X001911Y031651D01*
X001911Y031991D01*
X001741Y032161D01*
X001741Y032585D02*
X001911Y032755D01*
X001911Y033096D01*
X001741Y033266D01*
X001060Y032585D01*
X000890Y032755D01*
X000890Y033096D01*
X001060Y033266D01*
X001741Y033266D01*
X001741Y033690D02*
X001911Y033860D01*
X001911Y034201D01*
X001741Y034371D01*
X001060Y033690D01*
X000890Y033860D01*
X000890Y034201D01*
X001060Y034371D01*
X001741Y034371D01*
X001741Y033690D02*
X001060Y033690D01*
X000890Y034795D02*
X001911Y035476D01*
X001741Y035900D02*
X001911Y036070D01*
X001911Y036411D01*
X001741Y036581D01*
X001571Y036581D01*
X001400Y036411D01*
X001230Y036581D01*
X001060Y036581D01*
X000890Y036411D01*
X000890Y036070D01*
X001060Y035900D01*
X001400Y036240D02*
X001400Y036411D01*
X000890Y037005D02*
X000890Y037516D01*
X001060Y037686D01*
X001741Y037686D01*
X001911Y037516D01*
X001911Y037005D01*
X000890Y037005D01*
X001060Y038110D02*
X000890Y038280D01*
X000890Y038620D01*
X001060Y038791D01*
X001741Y038791D01*
X001911Y038620D01*
X001911Y038280D01*
X001741Y038110D01*
X001060Y038110D01*
X005192Y038510D02*
X005362Y038340D01*
X005703Y038340D01*
X005873Y038510D01*
X005192Y039191D01*
X005192Y038510D01*
X005192Y039191D02*
X005362Y039361D01*
X005703Y039361D01*
X005873Y039191D01*
X005873Y038510D01*
X006297Y038340D02*
X006978Y038340D01*
X006638Y038340D02*
X006638Y039361D01*
X006978Y039021D01*
X007402Y038850D02*
X008083Y038850D01*
X008507Y039191D02*
X008507Y039361D01*
X009188Y039361D01*
X009612Y039361D02*
X010293Y039361D01*
X010293Y038340D01*
X010499Y037861D02*
X011180Y037861D01*
X011180Y036840D01*
X010499Y036840D01*
X010075Y037180D02*
X009735Y036840D01*
X009395Y037180D01*
X009395Y037861D01*
X009188Y038340D02*
X008507Y038340D01*
X008630Y037861D02*
X008630Y036840D01*
X008970Y036840D02*
X008290Y036840D01*
X007865Y036840D02*
X007695Y036840D01*
X007695Y037010D01*
X007865Y037010D01*
X007865Y036840D01*
X007313Y036840D02*
X006632Y036840D01*
X006972Y036840D02*
X006972Y037861D01*
X007313Y037521D01*
X008630Y037861D02*
X008970Y037521D01*
X009188Y038340D02*
X009188Y038510D01*
X008507Y039191D01*
X009952Y038850D02*
X010293Y038850D01*
X010075Y037861D02*
X010075Y037180D01*
X010840Y037350D02*
X011180Y037350D01*
X011604Y037350D02*
X011775Y037180D01*
X012285Y037180D01*
X012285Y036840D02*
X012285Y037861D01*
X011775Y037861D01*
X011604Y037691D01*
X011604Y037350D01*
X011945Y037180D02*
X011604Y036840D01*
X012318Y038340D02*
X012318Y039021D01*
X011978Y039021D02*
X012318Y038680D01*
X012743Y038510D02*
X012743Y038850D01*
X012913Y039021D01*
X013253Y039021D01*
X013423Y038850D01*
X013423Y038510D01*
X013253Y038340D01*
X012913Y038340D01*
X012743Y038510D01*
X011978Y039021D02*
X011808Y039021D01*
X013820Y038850D02*
X014160Y038850D01*
X013990Y039191D02*
X013820Y039361D01*
X013990Y039191D02*
X013990Y038340D01*
X007623Y031875D02*
X006660Y031875D01*
X006540Y031995D01*
X006540Y032236D01*
X006781Y032477D01*
X007021Y032477D01*
X007623Y031875D02*
X007141Y031394D01*
X006841Y031094D02*
X005879Y031094D01*
X005759Y031214D01*
X005759Y031455D01*
X005999Y031695D01*
X006240Y031695D01*
X006841Y031094D02*
X006360Y030612D01*
X005940Y030433D02*
X005940Y030192D01*
X005699Y029951D01*
X005459Y029951D01*
X004977Y030433D01*
X005940Y030433D01*
X005459Y030914D01*
X005218Y030914D01*
X004977Y030673D01*
X004977Y030433D01*
X004557Y030253D02*
X005038Y029772D01*
X005038Y029290D01*
X004557Y029290D01*
X004076Y029772D01*
X001911Y030375D02*
X000890Y030375D01*
X001060Y032585D02*
X001741Y032585D01*
X001571Y026296D02*
X001911Y025956D01*
D11*
X037875Y038250D03*
D12*
X012902Y033571D03*
X010146Y033571D03*
D13*
X006406Y027272D03*
X006406Y024516D03*
D14*
X037902Y038295D03*
D15*
X037902Y038689D03*
X028059Y001681D03*
X024122Y001681D03*
D16*
X022756Y003071D02*
X029819Y003071D01*
X029771Y003119D02*
X022804Y003119D01*
X022853Y003168D02*
X029722Y003168D01*
X029674Y003216D02*
X022901Y003216D01*
X022950Y003265D02*
X029625Y003265D01*
X029577Y003313D02*
X022998Y003313D01*
X023047Y003362D02*
X029528Y003362D01*
X029480Y003410D02*
X023095Y003410D01*
X023144Y003459D02*
X029431Y003459D01*
X029383Y003507D02*
X023192Y003507D01*
X023241Y003556D02*
X029334Y003556D01*
X029286Y003604D02*
X023289Y003604D01*
X023335Y003650D02*
X029240Y003650D01*
X030028Y002862D01*
X030028Y000500D01*
X022154Y000500D01*
X022154Y002469D01*
X023335Y003650D01*
X022707Y003022D02*
X029868Y003022D01*
X029916Y002974D02*
X022659Y002974D01*
X022610Y002925D02*
X029965Y002925D01*
X030013Y002877D02*
X022562Y002877D01*
X022513Y002828D02*
X030028Y002828D01*
X030028Y002780D02*
X022465Y002780D01*
X022416Y002731D02*
X030028Y002731D01*
X030028Y002683D02*
X022368Y002683D01*
X022319Y002634D02*
X030028Y002634D01*
X030028Y002586D02*
X022271Y002586D01*
X022222Y002537D02*
X030028Y002537D01*
X030028Y002489D02*
X022174Y002489D01*
X022154Y002440D02*
X030028Y002440D01*
X030028Y002392D02*
X022154Y002392D01*
X022154Y002343D02*
X030028Y002343D01*
X030028Y002295D02*
X022154Y002295D01*
X022154Y002246D02*
X030028Y002246D01*
X030028Y002198D02*
X022154Y002198D01*
X022154Y002149D02*
X030028Y002149D01*
X030028Y002101D02*
X022154Y002101D01*
X022154Y002052D02*
X030028Y002052D01*
X030028Y002004D02*
X022154Y002004D01*
X022154Y001955D02*
X030028Y001955D01*
X030028Y001907D02*
X022154Y001907D01*
X022154Y001858D02*
X030028Y001858D01*
X030028Y001810D02*
X022154Y001810D01*
X022154Y001761D02*
X030028Y001761D01*
X030028Y001713D02*
X022154Y001713D01*
X022154Y001664D02*
X030028Y001664D01*
X030028Y001616D02*
X022154Y001616D01*
X022154Y001567D02*
X030028Y001567D01*
X030028Y001519D02*
X022154Y001519D01*
X022154Y001470D02*
X030028Y001470D01*
X030028Y001422D02*
X022154Y001422D01*
X022154Y001373D02*
X030028Y001373D01*
X030028Y001325D02*
X022154Y001325D01*
X022154Y001276D02*
X030028Y001276D01*
X030028Y001228D02*
X022154Y001228D01*
X022154Y001179D02*
X030028Y001179D01*
X030028Y001131D02*
X022154Y001131D01*
X022154Y001082D02*
X030028Y001082D01*
X030028Y001034D02*
X022154Y001034D01*
X022154Y000985D02*
X030028Y000985D01*
X030028Y000937D02*
X022154Y000937D01*
X022154Y000888D02*
X030028Y000888D01*
X030028Y000840D02*
X022154Y000840D01*
X022154Y000791D02*
X030028Y000791D01*
X030028Y000743D02*
X022154Y000743D01*
X022154Y000694D02*
X030028Y000694D01*
X030028Y000646D02*
X022154Y000646D01*
X022154Y000597D02*
X030028Y000597D01*
X030028Y000549D02*
X022154Y000549D01*
X022154Y000500D02*
X030028Y000500D01*
D17*
X011618Y003957D03*
X009650Y003957D03*
X007681Y003957D03*
X005713Y003957D03*
X003744Y003957D03*
X001776Y003957D03*
X001776Y010650D03*
X003744Y010650D03*
X005713Y010650D03*
X007681Y010650D03*
X009650Y010650D03*
X003256Y033571D03*
X018960Y033553D03*
X027966Y033553D03*
D18*
X003256Y037508D03*
D19*
X008374Y033571D03*
X011130Y035736D03*
X004240Y025500D03*
X006406Y022744D03*
X031000Y007000D03*
X031000Y003500D03*
D20*
X001681Y000500D02*
X000500Y000500D01*
X000500Y001681D01*
X029634Y000500D02*
X030815Y000500D01*
X031406Y001091D01*
X042035Y012114D02*
X042626Y012705D01*
X042626Y013886D01*
X042626Y033768D02*
X042626Y034949D01*
X041445Y034949D01*
X041051Y034949D02*
X039870Y034949D01*
X039870Y036130D01*
X039870Y038689D02*
X039870Y039870D01*
X038689Y039870D01*
X001681Y039870D02*
X000500Y039870D01*
X000500Y038689D01*
D21*
X036500Y034460D03*
X037000Y034460D03*
X037500Y034460D03*
X038000Y034460D03*
X038500Y034460D03*
X039000Y034460D03*
X039500Y034460D03*
X039500Y032040D03*
X039000Y032040D03*
X038500Y032040D03*
X038000Y032040D03*
X037500Y032040D03*
X037000Y032040D03*
X036500Y032040D03*
D22*
X035250Y030000D03*
X032750Y036250D03*
X032750Y038250D03*
X028250Y030750D03*
X023250Y030750D03*
X017500Y031750D03*
X014500Y031750D03*
X022750Y021250D03*
X024750Y021250D03*
X026250Y019750D03*
X028250Y019750D03*
X027250Y016500D03*
X025250Y016500D03*
X022250Y014250D03*
X025500Y011000D03*
X029500Y011000D03*
X030750Y009750D03*
X030500Y008500D03*
X030000Y007750D03*
X029500Y008500D03*
X032750Y009750D03*
X034750Y012750D03*
X035000Y014000D03*
X035000Y017000D03*
X034250Y018000D03*
X034250Y021000D03*
X038750Y012750D03*
X019000Y020250D03*
X016000Y020250D03*
X018250Y014250D03*
X016000Y012500D03*
X012000Y012500D03*
D23*
X035250Y031750D03*
X035250Y032750D03*
X035250Y033750D03*
D24*
X032750Y033206D03*
X032750Y032544D03*
X032750Y031206D03*
X032750Y034544D03*
X034250Y026419D03*
X034250Y025081D03*
X010875Y012294D03*
X010875Y010956D03*
D25*
X020126Y013000D03*
X020874Y013000D03*
X021376Y016000D03*
X022124Y016000D03*
X026876Y018250D03*
X027624Y018250D03*
X040501Y033250D03*
X041249Y033250D03*
D26*
X033750Y036699D03*
X033750Y037801D03*
D27*
X039959Y030000D02*
X040791Y030000D01*
X040791Y029000D02*
X039959Y029000D01*
X039959Y028000D02*
X040791Y028000D01*
X041750Y022791D02*
X041750Y021959D01*
X041750Y019791D02*
X041750Y018959D01*
X024666Y019000D02*
X023834Y019000D01*
X023834Y020000D02*
X024666Y020000D01*
X024666Y018000D02*
X023834Y018000D01*
X023834Y017000D02*
X024666Y017000D01*
X024500Y015332D02*
X024500Y014500D01*
X023500Y014500D02*
X023500Y015332D01*
X021666Y017000D02*
X020834Y017000D01*
X020834Y018000D02*
X021666Y018000D01*
X021666Y019000D02*
X020834Y019000D01*
X020834Y020000D02*
X021666Y020000D01*
X021916Y021500D02*
X021084Y021500D01*
X019416Y019250D02*
X018584Y019250D01*
X016416Y019250D02*
X015584Y019250D01*
X017084Y021500D02*
X017916Y021500D01*
X011375Y020166D02*
X011375Y019334D01*
X011375Y016166D02*
X011375Y015334D01*
X023500Y011500D02*
X023500Y010668D01*
X024500Y010668D02*
X024500Y011500D01*
X017416Y033500D02*
X016584Y033500D01*
X016584Y035500D02*
X017416Y035500D01*
D28*
X025876Y015500D03*
X026624Y015500D03*
X014249Y012500D03*
X013501Y012500D03*
D29*
X019409Y011897D02*
X019492Y011814D01*
X019216Y011814D01*
X019022Y012008D01*
X019022Y012284D01*
X019216Y012478D01*
X019492Y012478D01*
X019686Y012284D01*
X019686Y012008D01*
X019492Y011814D01*
X019440Y011939D01*
X019268Y011939D01*
X019147Y012060D01*
X019147Y012232D01*
X019268Y012353D01*
X019440Y012353D01*
X019561Y012232D01*
X019561Y012060D01*
X019440Y011939D01*
X019388Y012064D01*
X019320Y012064D01*
X019272Y012112D01*
X019272Y012180D01*
X019320Y012228D01*
X019388Y012228D01*
X019436Y012180D01*
X019436Y012112D01*
X019388Y012064D01*
D30*
X018646Y012854D03*
X035250Y029000D03*
X038010Y027180D03*
X038010Y026180D03*
X038010Y025180D03*
X038010Y024180D03*
X038010Y023180D03*
X038010Y022180D03*
X038010Y021180D03*
X038010Y020180D03*
X038010Y019180D03*
X039010Y018680D03*
X039010Y019680D03*
X039010Y020680D03*
X039010Y021680D03*
X039010Y022680D03*
X039010Y023680D03*
X039010Y024680D03*
X039010Y025680D03*
X039010Y026680D03*
D31*
X038875Y027940D03*
X038875Y029060D03*
X037625Y029185D03*
X037625Y028065D03*
X035250Y026185D03*
X035250Y025065D03*
X033750Y031315D03*
X033750Y032435D03*
X033750Y033315D03*
X033750Y034435D03*
X031000Y011810D03*
X031000Y010690D03*
X032250Y008935D03*
X032250Y007815D03*
X024500Y008690D03*
X024500Y009810D03*
D32*
X004000Y017000D03*
D33*
X008000Y017000D03*
D34*
X015294Y017250D02*
X016206Y017250D01*
X016206Y016250D02*
X015294Y016250D01*
X015294Y015250D02*
X016206Y015250D01*
X021294Y010000D02*
X022206Y010000D01*
X022206Y009000D02*
X021294Y009000D01*
X021294Y008000D02*
X022206Y008000D01*
X018956Y005000D02*
X018044Y005000D01*
X018044Y004000D02*
X018956Y004000D01*
X018956Y003000D02*
X018044Y003000D01*
D35*
X013500Y006875D03*
X013500Y009875D03*
X012000Y021375D03*
X012000Y024375D03*
D36*
X017900Y037484D02*
X017900Y038516D01*
X019900Y038516D02*
X019900Y037484D01*
X024100Y037484D02*
X024100Y038516D01*
X026100Y038516D02*
X026100Y037484D01*
D37*
X037940Y030625D03*
X039060Y030625D03*
D38*
X017250Y028375D03*
X015750Y030125D03*
X014500Y029750D03*
X014500Y027750D03*
X015750Y026125D03*
X017250Y024375D03*
X010500Y027750D03*
X010500Y029750D03*
D39*
X023500Y028250D03*
X023500Y024250D03*
X028500Y024250D03*
X028500Y028250D03*
X035250Y023750D03*
X038250Y015500D03*
X037207Y009543D03*
X030750Y014125D03*
D40*
X017061Y022777D02*
X016970Y022868D01*
X017272Y022868D01*
X017485Y022655D01*
X017485Y022353D01*
X017272Y022140D01*
X016970Y022140D01*
X016757Y022353D01*
X016757Y022655D01*
X016970Y022868D01*
X017027Y022731D01*
X017215Y022731D01*
X017348Y022598D01*
X017348Y022410D01*
X017215Y022277D01*
X017027Y022277D01*
X016894Y022410D01*
X016894Y022598D01*
X017027Y022731D01*
X017083Y022594D01*
X017159Y022594D01*
X017211Y022542D01*
X017211Y022466D01*
X017159Y022414D01*
X017083Y022414D01*
X017031Y022466D01*
X017031Y022542D01*
X017083Y022594D01*
X012819Y027019D02*
X012728Y027110D01*
X013030Y027110D01*
X013243Y026897D01*
X013243Y026595D01*
X013030Y026382D01*
X012728Y026382D01*
X012515Y026595D01*
X012515Y026897D01*
X012728Y027110D01*
X012785Y026973D01*
X012973Y026973D01*
X013106Y026840D01*
X013106Y026652D01*
X012973Y026519D01*
X012785Y026519D01*
X012652Y026652D01*
X012652Y026840D01*
X012785Y026973D01*
X012841Y026836D01*
X012917Y026836D01*
X012969Y026784D01*
X012969Y026708D01*
X012917Y026656D01*
X012841Y026656D01*
X012789Y026708D01*
X012789Y026784D01*
X012841Y026836D01*
D41*
X009875Y026625D03*
X009875Y020625D03*
X013250Y020125D03*
X013250Y014125D03*
X019750Y024800D03*
X019750Y030700D03*
X036750Y027250D03*
X036750Y024250D03*
X036750Y021250D03*
X036750Y019250D03*
X040750Y017750D03*
X040750Y023750D03*
D42*
X033250Y023750D03*
X036250Y015500D03*
X032750Y014125D03*
D43*
X035727Y011256D02*
X035627Y011356D01*
X035959Y011356D01*
X036192Y011123D01*
X036192Y010791D01*
X035959Y010558D01*
X035627Y010558D01*
X035394Y010791D01*
X035394Y011123D01*
X035627Y011356D01*
X035690Y011206D01*
X035896Y011206D01*
X036042Y011060D01*
X036042Y010854D01*
X035896Y010708D01*
X035690Y010708D01*
X035544Y010854D01*
X035544Y011060D01*
X035690Y011206D01*
X035752Y011056D01*
X035834Y011056D01*
X035892Y010998D01*
X035892Y010916D01*
X035834Y010858D01*
X035752Y010858D01*
X035694Y010916D01*
X035694Y010998D01*
X035752Y011056D01*
D44*
X040250Y012500D03*
X040250Y015500D03*
X032750Y018000D03*
X032750Y021000D03*
D45*
X041500Y015301D03*
X041500Y014199D03*
D46*
X039801Y014000D03*
X038699Y014000D03*
D47*
X033500Y027607D03*
X033500Y029143D03*
D48*
X035250Y029000D02*
X035750Y029000D01*
X037000Y030500D01*
X037000Y031125D01*
X036375Y031375D02*
X035250Y030000D01*
X035250Y033750D02*
X033750Y034435D01*
X032750Y036250D02*
X033750Y036699D01*
X033750Y037801D02*
X032750Y038250D01*
X040501Y033250D02*
X040501Y031751D01*
X040324Y031574D01*
X041249Y031501D02*
X041249Y033250D01*
X041249Y031501D02*
X041625Y031125D01*
X032250Y007815D02*
X032000Y007250D01*
X016000Y012500D02*
X014249Y012500D01*
X013501Y012500D02*
X012000Y012500D01*
X011419Y012500D01*
X010875Y012294D01*
D49*
X032206Y034544D02*
X031500Y035250D01*
X031500Y037375D01*
X032750Y038250D01*
X032375Y037250D02*
X032000Y036875D01*
X032000Y035625D01*
X032250Y035375D01*
X034125Y035375D01*
X034750Y034625D01*
X036375Y034625D01*
X036540Y034460D01*
X036500Y034460D01*
X036460Y034500D01*
X036500Y034460D02*
X036500Y033625D01*
X037000Y033625D01*
X037000Y034460D01*
X037500Y034460D02*
X037500Y035000D01*
X037250Y035250D01*
X034875Y035250D01*
X033875Y036500D01*
X033750Y036699D01*
X034250Y037250D02*
X032375Y037250D01*
X033750Y037801D02*
X034699Y037801D01*
X035250Y037250D01*
X035250Y036500D01*
X035500Y036250D01*
X037750Y036250D01*
X038500Y035500D01*
X038500Y035125D01*
X038500Y034460D01*
X038000Y034460D02*
X038000Y035250D01*
X037500Y035750D01*
X035125Y035750D01*
X034625Y036375D01*
X034625Y036875D01*
X034250Y037250D01*
X032750Y034544D02*
X032206Y034544D01*
X036250Y033000D02*
X037500Y033000D01*
X038500Y033000D01*
X038500Y032040D01*
X039000Y032040D02*
X039000Y032875D01*
X039000Y033250D01*
X038750Y033500D01*
X037750Y033500D01*
X037500Y033750D01*
X037500Y034460D01*
X038500Y035125D02*
X039000Y035125D01*
X039000Y034460D01*
X039000Y032875D02*
X039500Y032875D01*
X039500Y032040D01*
X040000Y031250D02*
X038625Y031250D01*
X038500Y031125D01*
X038500Y030000D01*
X038375Y029875D01*
X037125Y029875D01*
X037500Y032040D02*
X037500Y033000D01*
D50*
X035250Y032750D02*
X033750Y032750D01*
X033750Y032875D01*
X033750Y033315D01*
X033750Y032875D02*
X032750Y032875D01*
X032750Y032544D01*
X032750Y032875D02*
X032750Y033206D01*
X031750Y033500D02*
X031750Y030500D01*
X032125Y030125D01*
X032125Y030000D01*
X033500Y030000D01*
X035250Y030000D01*
X035250Y029000D02*
X034875Y028625D01*
X034875Y026419D01*
X035000Y026419D01*
X035250Y026185D01*
X034875Y026419D02*
X034250Y026419D01*
X033956Y026794D01*
X033500Y027250D01*
X033500Y027607D01*
X032125Y026875D02*
X032125Y030000D01*
X032750Y031206D02*
X033750Y031315D01*
X035250Y031750D01*
X033750Y032435D02*
X033750Y032750D01*
X031750Y033500D02*
X030750Y034500D01*
X030750Y039500D01*
X036250Y039500D01*
X033750Y034435D02*
X032750Y034544D01*
X033500Y030000D02*
X033500Y029143D01*
X032125Y026875D02*
X033250Y025750D01*
X033250Y023750D01*
X031750Y022250D01*
X031750Y020250D01*
X032500Y019500D01*
X035500Y019500D01*
X035500Y022000D01*
X036180Y022680D01*
X038010Y022680D01*
X039010Y023680D02*
X040750Y023680D01*
X040750Y023750D01*
X040750Y027250D01*
X040375Y028000D01*
X040375Y029000D02*
X039810Y029060D01*
X038875Y029060D01*
X037625Y029185D01*
X037625Y028065D02*
X037625Y027336D01*
X037498Y027208D01*
X038010Y027180D01*
X037498Y027208D02*
X036750Y027250D01*
X036690Y027310D01*
X036750Y025250D02*
X036750Y025065D01*
X035250Y025065D01*
X034984Y025081D01*
X034250Y025081D01*
X039010Y027305D02*
X038875Y027940D01*
X039010Y027305D02*
X039010Y026680D01*
X040750Y023750D02*
X041750Y022375D01*
X041750Y019375D02*
X041750Y019180D01*
X040750Y019180D01*
X040750Y017750D01*
X040750Y015500D01*
X041051Y015500D01*
X041500Y015301D01*
X040750Y015500D02*
X040250Y015500D01*
X038250Y015500D01*
X038699Y014000D02*
X038750Y012750D01*
X039801Y014000D02*
X041051Y014000D01*
X041500Y014199D01*
X040750Y019180D02*
X039010Y019180D01*
X036250Y017625D02*
X035500Y018625D01*
X035500Y019500D01*
X036250Y017625D02*
X036250Y015500D01*
X031000Y010690D02*
X030750Y009750D01*
X031435Y008810D02*
X030500Y008500D01*
X031435Y008810D02*
X032250Y008935D01*
X032750Y009750D01*
X029500Y008500D02*
X029500Y011000D01*
X026250Y014500D02*
X026624Y014874D01*
X026624Y015500D01*
X027250Y016500D01*
X027250Y017250D01*
X026876Y017624D01*
X026876Y018250D01*
X026626Y018000D01*
X024250Y018000D01*
X024250Y019000D02*
X025690Y019000D01*
X026000Y019310D01*
X026250Y019750D01*
X027624Y018250D02*
X028000Y018250D01*
X028250Y018500D01*
X028250Y019750D01*
X026000Y022250D01*
X023250Y022250D01*
X022750Y021750D01*
X022750Y021250D01*
X021500Y021500D02*
X021250Y021000D01*
X021250Y020000D01*
X021250Y019000D02*
X019500Y019000D01*
X019000Y019250D01*
X019000Y020250D01*
X017500Y021500D02*
X017500Y018500D01*
X018000Y018000D01*
X019250Y018000D01*
X019250Y013707D01*
X018646Y012854D01*
X018293Y012500D01*
X016000Y012500D01*
X013500Y009875D02*
X012250Y009875D01*
X011125Y009250D01*
X006500Y009250D01*
X005713Y010037D01*
X005713Y010650D01*
X001750Y003982D02*
X001776Y003957D01*
X017000Y004500D02*
X017000Y003000D01*
X018500Y003000D01*
X017000Y004500D02*
X017500Y005000D01*
X018500Y005000D01*
X023500Y009000D02*
X023810Y008690D01*
X024500Y008690D01*
X024500Y009810D02*
X024500Y011500D01*
X024500Y014500D02*
X026250Y014500D01*
X021250Y018000D02*
X019250Y018000D01*
X016000Y019250D02*
X016000Y020250D01*
X019876Y012919D02*
X020126Y013000D01*
X019876Y012919D02*
X019354Y012146D01*
X039060Y030625D02*
X040375Y030000D01*
D51*
X041625Y031125D02*
X041625Y028375D01*
X041250Y028000D01*
X040375Y028000D01*
X037940Y030625D02*
X038000Y031185D01*
X038000Y032040D01*
X037000Y032040D02*
X037000Y031125D01*
X036500Y031500D02*
X036375Y031375D01*
X036500Y031500D02*
X036500Y032040D01*
X035875Y032250D02*
X036250Y033000D01*
X035875Y032250D02*
X035375Y031750D01*
X035250Y031750D01*
X037125Y029875D02*
X036750Y029125D01*
X036750Y028750D01*
X035875Y027875D01*
X035875Y026875D01*
X036250Y026375D01*
X040000Y031250D02*
X040324Y031574D01*
X040501Y033250D02*
X039500Y034460D01*
X024250Y020000D02*
X023250Y020000D01*
X022500Y019250D01*
X022500Y016501D01*
X022124Y016000D01*
X021376Y016000D02*
X021250Y015876D01*
X021250Y017000D01*
X023000Y016000D02*
X023000Y018750D01*
X023250Y019000D01*
X024250Y019000D01*
X023000Y016000D02*
X022250Y015000D01*
X022250Y014250D01*
D52*
X016500Y008250D02*
X014000Y005250D01*
X013036Y005250D01*
X014250Y003250D02*
X017000Y006500D01*
X018500Y004000D02*
X021375Y004000D01*
X022375Y004500D01*
X024750Y005500D01*
X029750Y002500D02*
X031000Y003500D01*
X031000Y007000D02*
X031000Y007250D01*
X032750Y009750D02*
X032750Y010500D01*
X034750Y012750D01*
X039010Y018680D02*
X039010Y019180D01*
X039010Y019680D01*
X039010Y019180D02*
X038010Y019180D01*
X036750Y019250D01*
X038010Y020180D02*
X038010Y021180D01*
X038010Y022180D01*
X038010Y022680D01*
X038010Y023180D01*
X038010Y024180D01*
X038010Y025180D02*
X038010Y025375D01*
X038010Y025680D01*
X039010Y025680D01*
X039010Y026680D01*
X039010Y025680D02*
X039010Y024680D01*
X039010Y023680D02*
X039010Y022680D01*
X039010Y021680D01*
X039010Y020680D01*
X039010Y022680D02*
X038010Y022680D01*
X035250Y023750D02*
X034250Y022500D01*
X034250Y021000D01*
X032750Y021000D01*
X038010Y025680D02*
X038010Y026180D01*
X018960Y033553D02*
X017000Y033500D01*
X014500Y031750D02*
X013250Y031250D01*
X008500Y031250D01*
X006406Y029156D01*
X006406Y027272D01*
D53*
X012625Y015750D02*
X013625Y016250D01*
X015750Y016250D01*
X012625Y015750D02*
X011375Y015750D01*
X021750Y009000D02*
X023500Y009000D01*
X023500Y011500D01*
X035250Y023750D02*
X036750Y024250D01*
X036750Y025250D01*
X036750Y025440D01*
X038010Y025440D01*
X038010Y025375D01*
X038500Y025125D02*
X038500Y026250D01*
X038500Y023750D02*
X038500Y020625D01*
D54*
X036750Y025440D02*
X036250Y026375D01*
X025250Y016500D02*
X024250Y017000D01*
X025250Y016500D02*
X025876Y015500D01*
X023500Y014500D02*
X023500Y014000D01*
X022750Y013250D01*
X021124Y013250D01*
X020874Y013000D01*
X020812Y014188D01*
X020812Y015186D01*
X021376Y016000D01*
X007000Y024500D02*
X006421Y024500D01*
X006406Y024516D01*
D55*
X006421Y024500D02*
X003750Y024500D01*
X002750Y025500D01*
X002750Y030000D01*
X007250Y034500D01*
X009217Y034500D01*
X010146Y033571D01*
X012902Y033571D02*
X013571Y033571D01*
X014250Y034250D01*
X014250Y036500D01*
X015750Y038000D01*
X017900Y038000D01*
X017250Y038000D01*
X017900Y038000D02*
X019250Y038000D01*
X017000Y035500D02*
X024250Y035500D01*
X026019Y035500D01*
X027966Y033553D01*
X028250Y030750D01*
X028500Y028250D01*
X026500Y026250D02*
X022250Y026250D01*
X019750Y029000D01*
X019750Y030000D01*
X019375Y030125D01*
X015750Y030125D01*
X014500Y029750D01*
X014500Y027750D02*
X017250Y028375D01*
X019750Y024800D01*
X020800Y024250D01*
X023500Y024250D01*
X026500Y026250D02*
X028500Y024250D01*
X023500Y028250D02*
X023250Y030750D01*
X020447Y033553D01*
X018960Y033553D01*
X019750Y030700D02*
X019750Y030000D01*
X015750Y026125D02*
X016313Y025313D01*
X016313Y024938D01*
X014125Y022750D01*
X014125Y020875D01*
X013250Y020125D01*
X013250Y018750D01*
X012125Y017625D01*
X010000Y017625D01*
X008000Y017000D01*
X007681Y016431D01*
X005681Y014500D01*
X005713Y010650D01*
X007681Y010650D02*
X007681Y012056D01*
X011375Y015750D01*
X011375Y019750D02*
X011065Y021045D01*
X012000Y021375D01*
X011065Y021045D02*
X009875Y020625D01*
X007126Y021000D02*
X005500Y021000D01*
X004000Y019500D01*
X004000Y017000D01*
X001776Y014776D01*
X001776Y010650D01*
X003744Y003957D02*
X003750Y003951D01*
X003750Y002750D01*
X005000Y001500D01*
X009250Y001500D01*
X011618Y003957D02*
X013036Y005250D01*
X013500Y003250D02*
X014250Y003250D01*
X013750Y001500D02*
X015500Y001500D01*
X017000Y003000D01*
X020000Y006500D02*
X020500Y006250D01*
X022625Y006250D01*
X024375Y007000D01*
X029750Y007000D01*
X031000Y007250D01*
X032000Y007250D01*
X033000Y007750D01*
X034000Y008750D01*
X034750Y009750D01*
X035793Y010957D01*
X036750Y012000D01*
X036750Y014000D01*
X036250Y015500D01*
X032750Y018000D02*
X030750Y015750D01*
X030750Y014125D01*
X019750Y008250D02*
X016500Y008250D01*
X017000Y006500D02*
X020000Y006500D01*
X007126Y021000D02*
X009875Y023749D01*
X009875Y024250D01*
X010000Y024375D01*
X012000Y024375D01*
X009875Y024250D02*
X009875Y026625D01*
X012879Y026746D01*
X010500Y027750D02*
X010500Y029750D01*
X010500Y027750D02*
X009875Y026625D01*
X016313Y025313D02*
X017250Y024375D01*
X017121Y022504D02*
X017500Y021500D01*
X024250Y035500D02*
X024250Y038000D01*
X026100Y038000D01*
D56*
X030750Y014125D02*
X027750Y011750D01*
X027750Y010250D01*
X026190Y008690D01*
X024500Y008690D01*
X025500Y011000D02*
X024500Y011500D01*
X021750Y010000D02*
X020500Y010000D01*
X019875Y009375D01*
X019875Y008125D01*
X019750Y008250D01*
X019875Y008125D02*
X020250Y008000D01*
X021750Y008000D01*
X019354Y012146D02*
X017957Y011000D01*
X014625Y011000D01*
X013500Y009875D01*
X010875Y010956D02*
X009650Y010650D01*
X009650Y003957D02*
X009650Y003100D01*
X010250Y002500D01*
X012750Y002500D01*
X013500Y003250D01*
X013750Y001500D02*
X009250Y001500D01*
X029500Y011000D02*
X029750Y011500D01*
X030310Y011810D01*
X031000Y011810D01*
D57*
X024250Y020000D02*
X024750Y021250D01*
X022750Y021250D02*
X021500Y021500D01*
X020500Y021500D01*
X018875Y023000D01*
X017250Y024375D01*
X016000Y019250D02*
X015750Y018500D01*
X015750Y017250D01*
X013500Y006875D02*
X012250Y006875D01*
X010625Y005500D01*
X009650Y005500D01*
X009650Y003957D01*
X009650Y005500D02*
X001750Y005500D01*
X001750Y003982D01*
D58*
X013250Y014125D02*
X013250Y014250D01*
X015750Y014250D01*
X015750Y015250D01*
X015750Y014250D02*
X018250Y014250D01*
X024750Y005500D02*
X033250Y005500D01*
X036500Y008500D01*
X037207Y009543D01*
X038000Y010000D01*
X040250Y012250D01*
X040250Y012500D01*
X036250Y015500D02*
X034000Y015500D01*
X032750Y014125D01*
X035000Y014000D02*
X034750Y012750D01*
X035000Y017000D02*
X034250Y018000D01*
X036750Y021250D02*
X038010Y021180D01*
X030000Y007750D02*
X029750Y007000D01*
X017500Y031750D02*
X017000Y033500D01*
D59*
X017000Y017000D02*
X017750Y017000D01*
X018250Y016500D01*
X018250Y016000D01*
X017750Y015500D01*
X017000Y015500D01*
X016750Y015750D01*
X016250Y016000D01*
X016250Y016500D01*
X016750Y016750D01*
X017000Y017000D01*
D60*
X017750Y017000D01*
X017751Y016999D02*
X016999Y016999D01*
X016998Y016998D02*
X017752Y016998D01*
X017753Y016997D02*
X016997Y016997D01*
X016996Y016996D02*
X017754Y016996D01*
X017755Y016995D02*
X016995Y016995D01*
X016994Y016994D02*
X017756Y016994D01*
X017757Y016993D02*
X016993Y016993D01*
X016992Y016992D02*
X017758Y016992D01*
X017759Y016991D02*
X016991Y016991D01*
X016990Y016990D02*
X017760Y016990D01*
X017761Y016989D02*
X016989Y016989D01*
X016988Y016988D02*
X017762Y016988D01*
X017763Y016987D02*
X016987Y016987D01*
X016986Y016986D02*
X017764Y016986D01*
X017765Y016985D02*
X016985Y016985D01*
X016984Y016984D02*
X017766Y016984D01*
X017767Y016983D02*
X016983Y016983D01*
X016982Y016982D02*
X017768Y016982D01*
X017769Y016981D02*
X016981Y016981D01*
X016980Y016980D02*
X017770Y016980D01*
X017771Y016979D02*
X016979Y016979D01*
X016978Y016978D02*
X017772Y016978D01*
X017773Y016977D02*
X016977Y016977D01*
X016976Y016976D02*
X017774Y016976D01*
X017775Y016975D02*
X016975Y016975D01*
X016974Y016974D02*
X017776Y016974D01*
X017777Y016973D02*
X016973Y016973D01*
X016972Y016972D02*
X017778Y016972D01*
X017779Y016971D02*
X016971Y016971D01*
X016970Y016970D02*
X017780Y016970D01*
X017781Y016969D02*
X016969Y016969D01*
X016968Y016968D02*
X017782Y016968D01*
X017783Y016967D02*
X016967Y016967D01*
X016966Y016966D02*
X017784Y016966D01*
X017785Y016965D02*
X016965Y016965D01*
X016964Y016964D02*
X017786Y016964D01*
X017787Y016963D02*
X016963Y016963D01*
X016962Y016962D02*
X017788Y016962D01*
X017789Y016961D02*
X016961Y016961D01*
X016960Y016960D02*
X017790Y016960D01*
X017791Y016959D02*
X016959Y016959D01*
X016958Y016958D02*
X017792Y016958D01*
X017793Y016957D02*
X016957Y016957D01*
X016956Y016956D02*
X017794Y016956D01*
X017795Y016955D02*
X016955Y016955D01*
X016954Y016954D02*
X017796Y016954D01*
X017797Y016953D02*
X016953Y016953D01*
X016952Y016952D02*
X017798Y016952D01*
X017799Y016951D02*
X016951Y016951D01*
X016950Y016950D02*
X017800Y016950D01*
X017801Y016949D02*
X016949Y016949D01*
X016948Y016948D02*
X017802Y016948D01*
X017803Y016947D02*
X016947Y016947D01*
X016946Y016946D02*
X017804Y016946D01*
X017805Y016945D02*
X016945Y016945D01*
X016944Y016944D02*
X017806Y016944D01*
X017807Y016943D02*
X016943Y016943D01*
X016942Y016942D02*
X017808Y016942D01*
X017809Y016941D02*
X016941Y016941D01*
X016940Y016940D02*
X017810Y016940D01*
X017811Y016939D02*
X016939Y016939D01*
X016938Y016938D02*
X017812Y016938D01*
X017813Y016937D02*
X016937Y016937D01*
X016936Y016936D02*
X017814Y016936D01*
X017815Y016935D02*
X016935Y016935D01*
X016934Y016934D02*
X017816Y016934D01*
X017817Y016933D02*
X016933Y016933D01*
X016932Y016932D02*
X017818Y016932D01*
X017819Y016931D02*
X016931Y016931D01*
X016930Y016930D02*
X017820Y016930D01*
X017821Y016929D02*
X016929Y016929D01*
X016928Y016928D02*
X017822Y016928D01*
X017823Y016927D02*
X016927Y016927D01*
X016926Y016926D02*
X017824Y016926D01*
X017825Y016925D02*
X016925Y016925D01*
X016924Y016924D02*
X017826Y016924D01*
X017827Y016923D02*
X016923Y016923D01*
X016922Y016922D02*
X017828Y016922D01*
X017829Y016921D02*
X016921Y016921D01*
X016920Y016920D02*
X017830Y016920D01*
X017831Y016919D02*
X016919Y016919D01*
X016918Y016918D02*
X017832Y016918D01*
X017833Y016917D02*
X016917Y016917D01*
X016916Y016916D02*
X017834Y016916D01*
X017835Y016915D02*
X016915Y016915D01*
X016914Y016914D02*
X017836Y016914D01*
X017837Y016913D02*
X016913Y016913D01*
X016912Y016912D02*
X017838Y016912D01*
X017839Y016911D02*
X016911Y016911D01*
X016910Y016910D02*
X017840Y016910D01*
X017841Y016909D02*
X016909Y016909D01*
X016908Y016908D02*
X017842Y016908D01*
X017843Y016907D02*
X016907Y016907D01*
X016906Y016906D02*
X017844Y016906D01*
X017845Y016905D02*
X016905Y016905D01*
X016904Y016904D02*
X017846Y016904D01*
X017847Y016903D02*
X016903Y016903D01*
X016902Y016902D02*
X017848Y016902D01*
X017849Y016901D02*
X016901Y016901D01*
X016900Y016900D02*
X017850Y016900D01*
X017851Y016899D02*
X016899Y016899D01*
X016898Y016898D02*
X017852Y016898D01*
X017853Y016897D02*
X016897Y016897D01*
X016896Y016896D02*
X017854Y016896D01*
X017855Y016895D02*
X016895Y016895D01*
X016894Y016894D02*
X017856Y016894D01*
X017857Y016893D02*
X016893Y016893D01*
X016892Y016892D02*
X017858Y016892D01*
X017859Y016891D02*
X016891Y016891D01*
X016890Y016890D02*
X017860Y016890D01*
X017861Y016889D02*
X016889Y016889D01*
X016888Y016888D02*
X017862Y016888D01*
X017863Y016887D02*
X016887Y016887D01*
X016886Y016886D02*
X017864Y016886D01*
X017865Y016885D02*
X016885Y016885D01*
X016884Y016884D02*
X017866Y016884D01*
X017867Y016883D02*
X016883Y016883D01*
X016882Y016882D02*
X017868Y016882D01*
X017869Y016881D02*
X016881Y016881D01*
X016880Y016880D02*
X017870Y016880D01*
X017871Y016879D02*
X016879Y016879D01*
X016878Y016878D02*
X017872Y016878D01*
X017873Y016877D02*
X016877Y016877D01*
X016876Y016876D02*
X017874Y016876D01*
X017875Y016875D02*
X016875Y016875D01*
X016874Y016874D02*
X017876Y016874D01*
X017877Y016873D02*
X016873Y016873D01*
X016872Y016872D02*
X017878Y016872D01*
X017879Y016871D02*
X016871Y016871D01*
X016870Y016870D02*
X017880Y016870D01*
X017881Y016869D02*
X016869Y016869D01*
X016868Y016868D02*
X017882Y016868D01*
X017883Y016867D02*
X016867Y016867D01*
X016866Y016866D02*
X017884Y016866D01*
X017885Y016865D02*
X016865Y016865D01*
X016864Y016864D02*
X017886Y016864D01*
X017887Y016863D02*
X016863Y016863D01*
X016862Y016862D02*
X017888Y016862D01*
X017889Y016861D02*
X016861Y016861D01*
X016860Y016860D02*
X017890Y016860D01*
X017891Y016859D02*
X016859Y016859D01*
X016858Y016858D02*
X017892Y016858D01*
X017893Y016857D02*
X016857Y016857D01*
X016856Y016856D02*
X017894Y016856D01*
X017895Y016855D02*
X016855Y016855D01*
X016854Y016854D02*
X017896Y016854D01*
X017897Y016853D02*
X016853Y016853D01*
X016852Y016852D02*
X017898Y016852D01*
X017899Y016851D02*
X016851Y016851D01*
X016850Y016850D02*
X017900Y016850D01*
X017901Y016849D02*
X016849Y016849D01*
X016848Y016848D02*
X017902Y016848D01*
X017903Y016847D02*
X016847Y016847D01*
X016846Y016846D02*
X017904Y016846D01*
X017905Y016845D02*
X016845Y016845D01*
X016844Y016844D02*
X017906Y016844D01*
X017907Y016843D02*
X016843Y016843D01*
X016842Y016842D02*
X017908Y016842D01*
X017909Y016841D02*
X016841Y016841D01*
X016840Y016840D02*
X017910Y016840D01*
X017911Y016839D02*
X016839Y016839D01*
X016838Y016838D02*
X017912Y016838D01*
X017913Y016837D02*
X016837Y016837D01*
X016836Y016836D02*
X017914Y016836D01*
X017915Y016835D02*
X016835Y016835D01*
X016834Y016834D02*
X017916Y016834D01*
X017917Y016833D02*
X016833Y016833D01*
X016832Y016832D02*
X017918Y016832D01*
X017919Y016831D02*
X016831Y016831D01*
X016830Y016830D02*
X017920Y016830D01*
X017921Y016829D02*
X016829Y016829D01*
X016828Y016828D02*
X017922Y016828D01*
X017923Y016827D02*
X016827Y016827D01*
X016826Y016826D02*
X017924Y016826D01*
X017925Y016825D02*
X016825Y016825D01*
X016824Y016824D02*
X017926Y016824D01*
X017927Y016823D02*
X016823Y016823D01*
X016822Y016822D02*
X017928Y016822D01*
X017929Y016821D02*
X016821Y016821D01*
X016820Y016820D02*
X017930Y016820D01*
X017931Y016819D02*
X016819Y016819D01*
X016818Y016818D02*
X017932Y016818D01*
X017933Y016817D02*
X016817Y016817D01*
X016816Y016816D02*
X017934Y016816D01*
X017935Y016815D02*
X016815Y016815D01*
X016814Y016814D02*
X017936Y016814D01*
X017937Y016813D02*
X016813Y016813D01*
X016812Y016812D02*
X017938Y016812D01*
X017939Y016811D02*
X016811Y016811D01*
X016810Y016810D02*
X017940Y016810D01*
X017941Y016809D02*
X016809Y016809D01*
X016808Y016808D02*
X017942Y016808D01*
X017943Y016807D02*
X016807Y016807D01*
X016806Y016806D02*
X017944Y016806D01*
X017945Y016805D02*
X016805Y016805D01*
X016804Y016804D02*
X017946Y016804D01*
X017947Y016803D02*
X016803Y016803D01*
X016802Y016802D02*
X017948Y016802D01*
X017949Y016801D02*
X016801Y016801D01*
X016800Y016800D02*
X017950Y016800D01*
X017951Y016799D02*
X016799Y016799D01*
X016798Y016798D02*
X017952Y016798D01*
X017953Y016797D02*
X016797Y016797D01*
X016796Y016796D02*
X017954Y016796D01*
X017955Y016795D02*
X016795Y016795D01*
X016794Y016794D02*
X017956Y016794D01*
X017957Y016793D02*
X016793Y016793D01*
X016792Y016792D02*
X017958Y016792D01*
X017959Y016791D02*
X016791Y016791D01*
X016790Y016790D02*
X017960Y016790D01*
X017961Y016789D02*
X016789Y016789D01*
X016788Y016788D02*
X017962Y016788D01*
X017963Y016787D02*
X016787Y016787D01*
X016786Y016786D02*
X017964Y016786D01*
X017965Y016785D02*
X016785Y016785D01*
X016784Y016784D02*
X017966Y016784D01*
X017967Y016783D02*
X016783Y016783D01*
X016782Y016782D02*
X017968Y016782D01*
X017969Y016781D02*
X016781Y016781D01*
X016780Y016780D02*
X017970Y016780D01*
X017971Y016779D02*
X016779Y016779D01*
X016778Y016778D02*
X017972Y016778D01*
X017973Y016777D02*
X016777Y016777D01*
X016776Y016776D02*
X017974Y016776D01*
X017975Y016775D02*
X016775Y016775D01*
X016774Y016774D02*
X017976Y016774D01*
X017977Y016773D02*
X016773Y016773D01*
X016772Y016772D02*
X017978Y016772D01*
X017979Y016771D02*
X016771Y016771D01*
X016770Y016770D02*
X017980Y016770D01*
X017981Y016769D02*
X016769Y016769D01*
X016768Y016768D02*
X017982Y016768D01*
X017983Y016767D02*
X016767Y016767D01*
X016766Y016766D02*
X017984Y016766D01*
X017985Y016765D02*
X016765Y016765D01*
X016764Y016764D02*
X017986Y016764D01*
X017987Y016763D02*
X016763Y016763D01*
X016762Y016762D02*
X017988Y016762D01*
X017989Y016761D02*
X016761Y016761D01*
X016760Y016760D02*
X017990Y016760D01*
X017991Y016759D02*
X016759Y016759D01*
X016758Y016758D02*
X017992Y016758D01*
X017993Y016757D02*
X016757Y016757D01*
X016756Y016756D02*
X017994Y016756D01*
X017995Y016755D02*
X016755Y016755D01*
X016754Y016754D02*
X017996Y016754D01*
X017997Y016753D02*
X016753Y016753D01*
X016752Y016752D02*
X017998Y016752D01*
X017999Y016751D02*
X016751Y016751D01*
X016750Y016750D02*
X018000Y016750D01*
X018001Y016749D02*
X016748Y016749D01*
X016746Y016748D02*
X018002Y016748D01*
X018003Y016747D02*
X016744Y016747D01*
X016742Y016746D02*
X018004Y016746D01*
X018005Y016745D02*
X016740Y016745D01*
X016738Y016744D02*
X018006Y016744D01*
X018007Y016743D02*
X016736Y016743D01*
X016734Y016742D02*
X018008Y016742D01*
X018009Y016741D02*
X016732Y016741D01*
X016730Y016740D02*
X018010Y016740D01*
X018011Y016739D02*
X016728Y016739D01*
X016726Y016738D02*
X018012Y016738D01*
X018013Y016737D02*
X016724Y016737D01*
X016722Y016736D02*
X018014Y016736D01*
X018015Y016735D02*
X016720Y016735D01*
X016718Y016734D02*
X018016Y016734D01*
X018017Y016733D02*
X016716Y016733D01*
X016714Y016732D02*
X018018Y016732D01*
X018019Y016731D02*
X016712Y016731D01*
X016710Y016730D02*
X018020Y016730D01*
X018021Y016729D02*
X016708Y016729D01*
X016706Y016728D02*
X018022Y016728D01*
X018023Y016727D02*
X016704Y016727D01*
X016702Y016726D02*
X018024Y016726D01*
X018025Y016725D02*
X016700Y016725D01*
X016698Y016724D02*
X018026Y016724D01*
X018027Y016723D02*
X016696Y016723D01*
X016694Y016722D02*
X018028Y016722D01*
X018029Y016721D02*
X016692Y016721D01*
X016690Y016720D02*
X018030Y016720D01*
X018031Y016719D02*
X016688Y016719D01*
X016686Y016718D02*
X018032Y016718D01*
X018033Y016717D02*
X016684Y016717D01*
X016682Y016716D02*
X018034Y016716D01*
X018035Y016715D02*
X016680Y016715D01*
X016678Y016714D02*
X018036Y016714D01*
X018037Y016713D02*
X016676Y016713D01*
X016674Y016712D02*
X018038Y016712D01*
X018039Y016711D02*
X016672Y016711D01*
X016670Y016710D02*
X018040Y016710D01*
X018041Y016709D02*
X016668Y016709D01*
X016666Y016708D02*
X018042Y016708D01*
X018043Y016707D02*
X016664Y016707D01*
X016662Y016706D02*
X018044Y016706D01*
X018045Y016705D02*
X016660Y016705D01*
X016658Y016704D02*
X018046Y016704D01*
X018047Y016703D02*
X016656Y016703D01*
X016654Y016702D02*
X018048Y016702D01*
X018049Y016701D02*
X016652Y016701D01*
X016650Y016700D02*
X018050Y016700D01*
X018051Y016699D02*
X016648Y016699D01*
X016646Y016698D02*
X018052Y016698D01*
X018053Y016697D02*
X016644Y016697D01*
X016642Y016696D02*
X018054Y016696D01*
X018055Y016695D02*
X016640Y016695D01*
X016638Y016694D02*
X018056Y016694D01*
X018057Y016693D02*
X016636Y016693D01*
X016634Y016692D02*
X018058Y016692D01*
X018059Y016691D02*
X016632Y016691D01*
X016630Y016690D02*
X018060Y016690D01*
X018061Y016689D02*
X016628Y016689D01*
X016626Y016688D02*
X018062Y016688D01*
X018063Y016687D02*
X016624Y016687D01*
X016622Y016686D02*
X018064Y016686D01*
X018065Y016685D02*
X016620Y016685D01*
X016618Y016684D02*
X018066Y016684D01*
X018067Y016683D02*
X016616Y016683D01*
X016614Y016682D02*
X018068Y016682D01*
X018069Y016681D02*
X016612Y016681D01*
X016610Y016680D02*
X018070Y016680D01*
X018071Y016679D02*
X016608Y016679D01*
X016606Y016678D02*
X018072Y016678D01*
X018073Y016677D02*
X016604Y016677D01*
X016602Y016676D02*
X018074Y016676D01*
X018075Y016675D02*
X016600Y016675D01*
X016598Y016674D02*
X018076Y016674D01*
X018077Y016673D02*
X016596Y016673D01*
X016594Y016672D02*
X018078Y016672D01*
X018079Y016671D02*
X016592Y016671D01*
X016590Y016670D02*
X018080Y016670D01*
X018081Y016669D02*
X016588Y016669D01*
X016586Y016668D02*
X018082Y016668D01*
X018083Y016667D02*
X016584Y016667D01*
X016582Y016666D02*
X018084Y016666D01*
X018085Y016665D02*
X016580Y016665D01*
X016578Y016664D02*
X018086Y016664D01*
X018087Y016663D02*
X016576Y016663D01*
X016574Y016662D02*
X018088Y016662D01*
X018089Y016661D02*
X016572Y016661D01*
X016570Y016660D02*
X018090Y016660D01*
X018091Y016659D02*
X016568Y016659D01*
X016566Y016658D02*
X018092Y016658D01*
X018093Y016657D02*
X016564Y016657D01*
X016562Y016656D02*
X018094Y016656D01*
X018095Y016655D02*
X016560Y016655D01*
X016558Y016654D02*
X018096Y016654D01*
X018097Y016653D02*
X016556Y016653D01*
X016554Y016652D02*
X018098Y016652D01*
X018099Y016651D02*
X016552Y016651D01*
X016550Y016650D02*
X018100Y016650D01*
X018101Y016649D02*
X016548Y016649D01*
X016546Y016648D02*
X018102Y016648D01*
X018103Y016647D02*
X016544Y016647D01*
X016542Y016646D02*
X018104Y016646D01*
X018105Y016645D02*
X016540Y016645D01*
X016538Y016644D02*
X018106Y016644D01*
X018107Y016643D02*
X016536Y016643D01*
X016534Y016642D02*
X018108Y016642D01*
X018109Y016641D02*
X016532Y016641D01*
X016530Y016640D02*
X018110Y016640D01*
X018111Y016639D02*
X016528Y016639D01*
X016526Y016638D02*
X018112Y016638D01*
X018113Y016637D02*
X016524Y016637D01*
X016522Y016636D02*
X018114Y016636D01*
X018115Y016635D02*
X016520Y016635D01*
X016518Y016634D02*
X018116Y016634D01*
X018117Y016633D02*
X016516Y016633D01*
X016514Y016632D02*
X018118Y016632D01*
X018119Y016631D02*
X016512Y016631D01*
X016510Y016630D02*
X018120Y016630D01*
X018121Y016629D02*
X016508Y016629D01*
X016506Y016628D02*
X018122Y016628D01*
X018123Y016627D02*
X016504Y016627D01*
X016502Y016626D02*
X018124Y016626D01*
X018125Y016625D02*
X016500Y016625D01*
X016498Y016624D02*
X018126Y016624D01*
X018127Y016623D02*
X016496Y016623D01*
X016494Y016622D02*
X018128Y016622D01*
X018129Y016621D02*
X016492Y016621D01*
X016490Y016620D02*
X018130Y016620D01*
X018131Y016619D02*
X016488Y016619D01*
X016486Y016618D02*
X018132Y016618D01*
X018133Y016617D02*
X016484Y016617D01*
X016482Y016616D02*
X018134Y016616D01*
X018135Y016615D02*
X016480Y016615D01*
X016478Y016614D02*
X018136Y016614D01*
X018137Y016613D02*
X016476Y016613D01*
X016474Y016612D02*
X018138Y016612D01*
X018139Y016611D02*
X016472Y016611D01*
X016470Y016610D02*
X018140Y016610D01*
X018141Y016609D02*
X016468Y016609D01*
X016466Y016608D02*
X018142Y016608D01*
X018143Y016607D02*
X016464Y016607D01*
X016462Y016606D02*
X018144Y016606D01*
X018145Y016605D02*
X016460Y016605D01*
X016458Y016604D02*
X018146Y016604D01*
X018147Y016603D02*
X016456Y016603D01*
X016454Y016602D02*
X018148Y016602D01*
X018149Y016601D02*
X016452Y016601D01*
X016450Y016600D02*
X018150Y016600D01*
X018151Y016599D02*
X016448Y016599D01*
X016446Y016598D02*
X018152Y016598D01*
X018153Y016597D02*
X016444Y016597D01*
X016442Y016596D02*
X018154Y016596D01*
X018155Y016595D02*
X016440Y016595D01*
X016438Y016594D02*
X018156Y016594D01*
X018157Y016593D02*
X016436Y016593D01*
X016434Y016592D02*
X018158Y016592D01*
X018159Y016591D02*
X016432Y016591D01*
X016430Y016590D02*
X018160Y016590D01*
X018161Y016589D02*
X016428Y016589D01*
X016426Y016588D02*
X018162Y016588D01*
X018163Y016587D02*
X016424Y016587D01*
X016422Y016586D02*
X018164Y016586D01*
X018165Y016585D02*
X016420Y016585D01*
X016418Y016584D02*
X018166Y016584D01*
X018167Y016583D02*
X016416Y016583D01*
X016414Y016582D02*
X018168Y016582D01*
X018169Y016581D02*
X016412Y016581D01*
X016410Y016580D02*
X018170Y016580D01*
X018171Y016579D02*
X016408Y016579D01*
X016406Y016578D02*
X018172Y016578D01*
X018173Y016577D02*
X016404Y016577D01*
X016402Y016576D02*
X018174Y016576D01*
X018175Y016575D02*
X016400Y016575D01*
X016398Y016574D02*
X018176Y016574D01*
X018177Y016573D02*
X016396Y016573D01*
X016394Y016572D02*
X018178Y016572D01*
X018179Y016571D02*
X016392Y016571D01*
X016390Y016570D02*
X018180Y016570D01*
X018181Y016569D02*
X016388Y016569D01*
X016386Y016568D02*
X018182Y016568D01*
X018183Y016567D02*
X016384Y016567D01*
X016382Y016566D02*
X018184Y016566D01*
X018185Y016565D02*
X016380Y016565D01*
X016378Y016564D02*
X018186Y016564D01*
X018187Y016563D02*
X016376Y016563D01*
X016374Y016562D02*
X018188Y016562D01*
X018189Y016561D02*
X016372Y016561D01*
X016370Y016560D02*
X018190Y016560D01*
X018191Y016559D02*
X016368Y016559D01*
X016366Y016558D02*
X018192Y016558D01*
X018193Y016557D02*
X016364Y016557D01*
X016362Y016556D02*
X018194Y016556D01*
X018195Y016555D02*
X016360Y016555D01*
X016358Y016554D02*
X018196Y016554D01*
X018197Y016553D02*
X016356Y016553D01*
X016354Y016552D02*
X018198Y016552D01*
X018199Y016551D02*
X016352Y016551D01*
X016350Y016550D02*
X018200Y016550D01*
X018201Y016549D02*
X016348Y016549D01*
X016346Y016548D02*
X018202Y016548D01*
X018203Y016547D02*
X016344Y016547D01*
X016342Y016546D02*
X018204Y016546D01*
X018205Y016545D02*
X016340Y016545D01*
X016338Y016544D02*
X018206Y016544D01*
X018207Y016543D02*
X016336Y016543D01*
X016334Y016542D02*
X018208Y016542D01*
X018209Y016541D02*
X016332Y016541D01*
X016330Y016540D02*
X018210Y016540D01*
X018211Y016539D02*
X016328Y016539D01*
X016326Y016538D02*
X018212Y016538D01*
X018213Y016537D02*
X016324Y016537D01*
X016322Y016536D02*
X018214Y016536D01*
X018215Y016535D02*
X016320Y016535D01*
X016318Y016534D02*
X018216Y016534D01*
X018217Y016533D02*
X016316Y016533D01*
X016314Y016532D02*
X018218Y016532D01*
X018219Y016531D02*
X016312Y016531D01*
X016310Y016530D02*
X018220Y016530D01*
X018221Y016529D02*
X016308Y016529D01*
X016306Y016528D02*
X018222Y016528D01*
X018223Y016527D02*
X016304Y016527D01*
X016302Y016526D02*
X018224Y016526D01*
X018225Y016525D02*
X016300Y016525D01*
X016298Y016524D02*
X018226Y016524D01*
X018227Y016523D02*
X016296Y016523D01*
X016294Y016522D02*
X018228Y016522D01*
X018229Y016521D02*
X016292Y016521D01*
X016290Y016520D02*
X018230Y016520D01*
X018231Y016519D02*
X016288Y016519D01*
X016286Y016518D02*
X018232Y016518D01*
X018233Y016517D02*
X016284Y016517D01*
X016282Y016516D02*
X018234Y016516D01*
X018235Y016515D02*
X016280Y016515D01*
X016278Y016514D02*
X018236Y016514D01*
X018237Y016513D02*
X016276Y016513D01*
X016274Y016512D02*
X018238Y016512D01*
X018239Y016511D02*
X016272Y016511D01*
X016270Y016510D02*
X018240Y016510D01*
X018241Y016509D02*
X016268Y016509D01*
X016266Y016508D02*
X018242Y016508D01*
X018243Y016507D02*
X016264Y016507D01*
X016262Y016506D02*
X018244Y016506D01*
X018245Y016505D02*
X016260Y016505D01*
X016258Y016504D02*
X018246Y016504D01*
X018247Y016503D02*
X016256Y016503D01*
X016254Y016502D02*
X018248Y016502D01*
X018249Y016501D02*
X016252Y016501D01*
X016250Y016500D02*
X018250Y016500D01*
X018250Y016499D02*
X016250Y016499D01*
X016250Y016498D02*
X018250Y016498D01*
X018250Y016497D02*
X016250Y016497D01*
X016250Y016496D02*
X018250Y016496D01*
X018250Y016495D02*
X016250Y016495D01*
X016250Y016494D02*
X018250Y016494D01*
X018250Y016493D02*
X016250Y016493D01*
X016250Y016492D02*
X018250Y016492D01*
X018250Y016491D02*
X016250Y016491D01*
X016250Y016490D02*
X018250Y016490D01*
X018250Y016489D02*
X016250Y016489D01*
X016250Y016488D02*
X018250Y016488D01*
X018250Y016487D02*
X016250Y016487D01*
X016250Y016486D02*
X018250Y016486D01*
X018250Y016485D02*
X016250Y016485D01*
X016250Y016484D02*
X018250Y016484D01*
X018250Y016483D02*
X016250Y016483D01*
X016250Y016482D02*
X018250Y016482D01*
X018250Y016481D02*
X016250Y016481D01*
X016250Y016480D02*
X018250Y016480D01*
X018250Y016479D02*
X016250Y016479D01*
X016250Y016478D02*
X018250Y016478D01*
X018250Y016477D02*
X016250Y016477D01*
X016250Y016476D02*
X018250Y016476D01*
X018250Y016475D02*
X016250Y016475D01*
X016250Y016474D02*
X018250Y016474D01*
X018250Y016473D02*
X016250Y016473D01*
X016250Y016472D02*
X018250Y016472D01*
X018250Y016471D02*
X016250Y016471D01*
X016250Y016470D02*
X018250Y016470D01*
X018250Y016469D02*
X016250Y016469D01*
X016250Y016468D02*
X018250Y016468D01*
X018250Y016467D02*
X016250Y016467D01*
X016250Y016466D02*
X018250Y016466D01*
X018250Y016465D02*
X016250Y016465D01*
X016250Y016464D02*
X018250Y016464D01*
X018250Y016463D02*
X016250Y016463D01*
X016250Y016462D02*
X018250Y016462D01*
X018250Y016461D02*
X016250Y016461D01*
X016250Y016460D02*
X018250Y016460D01*
X018250Y016459D02*
X016250Y016459D01*
X016250Y016458D02*
X018250Y016458D01*
X018250Y016457D02*
X016250Y016457D01*
X016250Y016456D02*
X018250Y016456D01*
X018250Y016455D02*
X016250Y016455D01*
X016250Y016454D02*
X018250Y016454D01*
X018250Y016453D02*
X016250Y016453D01*
X016250Y016452D02*
X018250Y016452D01*
X018250Y016451D02*
X016250Y016451D01*
X016250Y016450D02*
X018250Y016450D01*
X018250Y016449D02*
X016250Y016449D01*
X016250Y016448D02*
X018250Y016448D01*
X018250Y016447D02*
X016250Y016447D01*
X016250Y016446D02*
X018250Y016446D01*
X018250Y016445D02*
X016250Y016445D01*
X016250Y016444D02*
X018250Y016444D01*
X018250Y016443D02*
X016250Y016443D01*
X016250Y016442D02*
X018250Y016442D01*
X018250Y016441D02*
X016250Y016441D01*
X016250Y016440D02*
X018250Y016440D01*
X018250Y016439D02*
X016250Y016439D01*
X016250Y016438D02*
X018250Y016438D01*
X018250Y016437D02*
X016250Y016437D01*
X016250Y016436D02*
X018250Y016436D01*
X018250Y016435D02*
X016250Y016435D01*
X016250Y016434D02*
X018250Y016434D01*
X018250Y016433D02*
X016250Y016433D01*
X016250Y016432D02*
X018250Y016432D01*
X018250Y016431D02*
X016250Y016431D01*
X016250Y016430D02*
X018250Y016430D01*
X018250Y016429D02*
X016250Y016429D01*
X016250Y016428D02*
X018250Y016428D01*
X018250Y016427D02*
X016250Y016427D01*
X016250Y016426D02*
X018250Y016426D01*
X018250Y016425D02*
X016250Y016425D01*
X016250Y016424D02*
X018250Y016424D01*
X018250Y016423D02*
X016250Y016423D01*
X016250Y016422D02*
X018250Y016422D01*
X018250Y016421D02*
X016250Y016421D01*
X016250Y016420D02*
X018250Y016420D01*
X018250Y016419D02*
X016250Y016419D01*
X016250Y016418D02*
X018250Y016418D01*
X018250Y016417D02*
X016250Y016417D01*
X016250Y016416D02*
X018250Y016416D01*
X018250Y016415D02*
X016250Y016415D01*
X016250Y016414D02*
X018250Y016414D01*
X018250Y016413D02*
X016250Y016413D01*
X016250Y016412D02*
X018250Y016412D01*
X018250Y016411D02*
X016250Y016411D01*
X016250Y016410D02*
X018250Y016410D01*
X018250Y016409D02*
X016250Y016409D01*
X016250Y016408D02*
X018250Y016408D01*
X018250Y016407D02*
X016250Y016407D01*
X016250Y016406D02*
X018250Y016406D01*
X018250Y016405D02*
X016250Y016405D01*
X016250Y016404D02*
X018250Y016404D01*
X018250Y016403D02*
X016250Y016403D01*
X016250Y016402D02*
X018250Y016402D01*
X018250Y016401D02*
X016250Y016401D01*
X016250Y016400D02*
X018250Y016400D01*
X018250Y016399D02*
X016250Y016399D01*
X016250Y016398D02*
X018250Y016398D01*
X018250Y016397D02*
X016250Y016397D01*
X016250Y016396D02*
X018250Y016396D01*
X018250Y016395D02*
X016250Y016395D01*
X016250Y016394D02*
X018250Y016394D01*
X018250Y016393D02*
X016250Y016393D01*
X016250Y016392D02*
X018250Y016392D01*
X018250Y016391D02*
X016250Y016391D01*
X016250Y016390D02*
X018250Y016390D01*
X018250Y016389D02*
X016250Y016389D01*
X016250Y016388D02*
X018250Y016388D01*
X018250Y016387D02*
X016250Y016387D01*
X016250Y016386D02*
X018250Y016386D01*
X018250Y016385D02*
X016250Y016385D01*
X016250Y016384D02*
X018250Y016384D01*
X018250Y016383D02*
X016250Y016383D01*
X016250Y016382D02*
X018250Y016382D01*
X018250Y016381D02*
X016250Y016381D01*
X016250Y016380D02*
X018250Y016380D01*
X018250Y016379D02*
X016250Y016379D01*
X016250Y016378D02*
X018250Y016378D01*
X018250Y016377D02*
X016250Y016377D01*
X016250Y016376D02*
X018250Y016376D01*
X018250Y016375D02*
X016250Y016375D01*
X016250Y016374D02*
X018250Y016374D01*
X018250Y016373D02*
X016250Y016373D01*
X016250Y016372D02*
X018250Y016372D01*
X018250Y016371D02*
X016250Y016371D01*
X016250Y016370D02*
X018250Y016370D01*
X018250Y016369D02*
X016250Y016369D01*
X016250Y016368D02*
X018250Y016368D01*
X018250Y016367D02*
X016250Y016367D01*
X016250Y016366D02*
X018250Y016366D01*
X018250Y016365D02*
X016250Y016365D01*
X016250Y016364D02*
X018250Y016364D01*
X018250Y016363D02*
X016250Y016363D01*
X016250Y016362D02*
X018250Y016362D01*
X018250Y016361D02*
X016250Y016361D01*
X016250Y016360D02*
X018250Y016360D01*
X018250Y016359D02*
X016250Y016359D01*
X016250Y016358D02*
X018250Y016358D01*
X018250Y016357D02*
X016250Y016357D01*
X016250Y016356D02*
X018250Y016356D01*
X018250Y016355D02*
X016250Y016355D01*
X016250Y016354D02*
X018250Y016354D01*
X018250Y016353D02*
X016250Y016353D01*
X016250Y016352D02*
X018250Y016352D01*
X018250Y016351D02*
X016250Y016351D01*
X016250Y016350D02*
X018250Y016350D01*
X018250Y016349D02*
X016250Y016349D01*
X016250Y016348D02*
X018250Y016348D01*
X018250Y016347D02*
X016250Y016347D01*
X016250Y016346D02*
X018250Y016346D01*
X018250Y016345D02*
X016250Y016345D01*
X016250Y016344D02*
X018250Y016344D01*
X018250Y016343D02*
X016250Y016343D01*
X016250Y016342D02*
X018250Y016342D01*
X018250Y016341D02*
X016250Y016341D01*
X016250Y016340D02*
X018250Y016340D01*
X018250Y016339D02*
X016250Y016339D01*
X016250Y016338D02*
X018250Y016338D01*
X018250Y016337D02*
X016250Y016337D01*
X016250Y016336D02*
X018250Y016336D01*
X018250Y016335D02*
X016250Y016335D01*
X016250Y016334D02*
X018250Y016334D01*
X018250Y016333D02*
X016250Y016333D01*
X016250Y016332D02*
X018250Y016332D01*
X018250Y016331D02*
X016250Y016331D01*
X016250Y016330D02*
X018250Y016330D01*
X018250Y016329D02*
X016250Y016329D01*
X016250Y016328D02*
X018250Y016328D01*
X018250Y016327D02*
X016250Y016327D01*
X016250Y016326D02*
X018250Y016326D01*
X018250Y016325D02*
X016250Y016325D01*
X016250Y016324D02*
X018250Y016324D01*
X018250Y016323D02*
X016250Y016323D01*
X016250Y016322D02*
X018250Y016322D01*
X018250Y016321D02*
X016250Y016321D01*
X016250Y016320D02*
X018250Y016320D01*
X018250Y016319D02*
X016250Y016319D01*
X016250Y016318D02*
X018250Y016318D01*
X018250Y016317D02*
X016250Y016317D01*
X016250Y016316D02*
X018250Y016316D01*
X018250Y016315D02*
X016250Y016315D01*
X016250Y016314D02*
X018250Y016314D01*
X018250Y016313D02*
X016250Y016313D01*
X016250Y016312D02*
X018250Y016312D01*
X018250Y016311D02*
X016250Y016311D01*
X016250Y016310D02*
X018250Y016310D01*
X018250Y016309D02*
X016250Y016309D01*
X016250Y016308D02*
X018250Y016308D01*
X018250Y016307D02*
X016250Y016307D01*
X016250Y016306D02*
X018250Y016306D01*
X018250Y016305D02*
X016250Y016305D01*
X016250Y016304D02*
X018250Y016304D01*
X018250Y016303D02*
X016250Y016303D01*
X016250Y016302D02*
X018250Y016302D01*
X018250Y016301D02*
X016250Y016301D01*
X016250Y016300D02*
X018250Y016300D01*
X018250Y016299D02*
X016250Y016299D01*
X016250Y016298D02*
X018250Y016298D01*
X018250Y016297D02*
X016250Y016297D01*
X016250Y016296D02*
X018250Y016296D01*
X018250Y016295D02*
X016250Y016295D01*
X016250Y016294D02*
X018250Y016294D01*
X018250Y016293D02*
X016250Y016293D01*
X016250Y016292D02*
X018250Y016292D01*
X018250Y016291D02*
X016250Y016291D01*
X016250Y016290D02*
X018250Y016290D01*
X018250Y016289D02*
X016250Y016289D01*
X016250Y016288D02*
X018250Y016288D01*
X018250Y016287D02*
X016250Y016287D01*
X016250Y016286D02*
X018250Y016286D01*
X018250Y016285D02*
X016250Y016285D01*
X016250Y016284D02*
X018250Y016284D01*
X018250Y016283D02*
X016250Y016283D01*
X016250Y016282D02*
X018250Y016282D01*
X018250Y016281D02*
X016250Y016281D01*
X016250Y016280D02*
X018250Y016280D01*
X018250Y016279D02*
X016250Y016279D01*
X016250Y016278D02*
X018250Y016278D01*
X018250Y016277D02*
X016250Y016277D01*
X016250Y016276D02*
X018250Y016276D01*
X018250Y016275D02*
X016250Y016275D01*
X016250Y016274D02*
X018250Y016274D01*
X018250Y016273D02*
X016250Y016273D01*
X016250Y016272D02*
X018250Y016272D01*
X018250Y016271D02*
X016250Y016271D01*
X016250Y016270D02*
X018250Y016270D01*
X018250Y016269D02*
X016250Y016269D01*
X016250Y016268D02*
X018250Y016268D01*
X018250Y016267D02*
X016250Y016267D01*
X016250Y016266D02*
X018250Y016266D01*
X018250Y016265D02*
X016250Y016265D01*
X016250Y016264D02*
X018250Y016264D01*
X018250Y016263D02*
X016250Y016263D01*
X016250Y016262D02*
X018250Y016262D01*
X018250Y016261D02*
X016250Y016261D01*
X016250Y016260D02*
X018250Y016260D01*
X018250Y016259D02*
X016250Y016259D01*
X016250Y016258D02*
X018250Y016258D01*
X018250Y016257D02*
X016250Y016257D01*
X016250Y016256D02*
X018250Y016256D01*
X018250Y016255D02*
X016250Y016255D01*
X016250Y016254D02*
X018250Y016254D01*
X018250Y016253D02*
X016250Y016253D01*
X016250Y016252D02*
X018250Y016252D01*
X018250Y016251D02*
X016250Y016251D01*
X016250Y016250D02*
X018250Y016250D01*
X018250Y016249D02*
X016250Y016249D01*
X016250Y016248D02*
X018250Y016248D01*
X018250Y016247D02*
X016250Y016247D01*
X016250Y016246D02*
X018250Y016246D01*
X018250Y016245D02*
X016250Y016245D01*
X016250Y016244D02*
X018250Y016244D01*
X018250Y016243D02*
X016250Y016243D01*
X016250Y016242D02*
X018250Y016242D01*
X018250Y016241D02*
X016250Y016241D01*
X016250Y016240D02*
X018250Y016240D01*
X018250Y016239D02*
X016250Y016239D01*
X016250Y016238D02*
X018250Y016238D01*
X018250Y016237D02*
X016250Y016237D01*
X016250Y016236D02*
X018250Y016236D01*
X018250Y016235D02*
X016250Y016235D01*
X016250Y016234D02*
X018250Y016234D01*
X018250Y016233D02*
X016250Y016233D01*
X018250Y016233D01*
X018250Y016232D02*
X016250Y016232D01*
X016250Y016231D02*
X018250Y016231D01*
X018250Y016230D02*
X016250Y016230D01*
X016250Y016229D02*
X018250Y016229D01*
X018250Y016228D02*
X016250Y016228D01*
X016250Y016227D02*
X018250Y016227D01*
X018250Y016226D02*
X016250Y016226D01*
X016250Y016225D02*
X018250Y016225D01*
X018250Y016224D02*
X016250Y016224D01*
X016250Y016223D02*
X018250Y016223D01*
X018250Y016222D02*
X016250Y016222D01*
X016250Y016221D02*
X018250Y016221D01*
X018250Y016220D02*
X016250Y016220D01*
X016250Y016219D02*
X018250Y016219D01*
X018250Y016218D02*
X016250Y016218D01*
X016250Y016217D02*
X018250Y016217D01*
X018250Y016216D02*
X016250Y016216D01*
X016250Y016215D02*
X018250Y016215D01*
X018250Y016214D02*
X016250Y016214D01*
X016250Y016213D02*
X018250Y016213D01*
X018250Y016212D02*
X016250Y016212D01*
X016250Y016211D02*
X018250Y016211D01*
X018250Y016210D02*
X016250Y016210D01*
X016250Y016209D02*
X018250Y016209D01*
X018250Y016208D02*
X016250Y016208D01*
X016250Y016207D02*
X018250Y016207D01*
X018250Y016206D02*
X016250Y016206D01*
X016250Y016205D02*
X018250Y016205D01*
X018250Y016204D02*
X016250Y016204D01*
X016250Y016203D02*
X018250Y016203D01*
X018250Y016202D02*
X016250Y016202D01*
X016250Y016201D02*
X018250Y016201D01*
X018250Y016200D02*
X016250Y016200D01*
X016250Y016199D02*
X018250Y016199D01*
X018250Y016198D02*
X016250Y016198D01*
X016250Y016197D02*
X018250Y016197D01*
X018250Y016196D02*
X016250Y016196D01*
X016250Y016195D02*
X018250Y016195D01*
X018250Y016194D02*
X016250Y016194D01*
X016250Y016193D02*
X018250Y016193D01*
X018250Y016192D02*
X016250Y016192D01*
X016250Y016191D02*
X018250Y016191D01*
X018250Y016190D02*
X016250Y016190D01*
X016250Y016189D02*
X018250Y016189D01*
X018250Y016188D02*
X016250Y016188D01*
X016250Y016187D02*
X018250Y016187D01*
X018250Y016186D02*
X016250Y016186D01*
X016250Y016185D02*
X018250Y016185D01*
X018250Y016184D02*
X016250Y016184D01*
X016250Y016183D02*
X018250Y016183D01*
X018250Y016182D02*
X016250Y016182D01*
X016250Y016181D02*
X018250Y016181D01*
X018250Y016180D02*
X016250Y016180D01*
X016250Y016179D02*
X018250Y016179D01*
X018250Y016178D02*
X016250Y016178D01*
X016250Y016177D02*
X018250Y016177D01*
X018250Y016176D02*
X016250Y016176D01*
X016250Y016175D02*
X018250Y016175D01*
X018250Y016174D02*
X016250Y016174D01*
X016250Y016173D02*
X018250Y016173D01*
X018250Y016172D02*
X016250Y016172D01*
X016250Y016171D02*
X018250Y016171D01*
X018250Y016170D02*
X016250Y016170D01*
X016250Y016169D02*
X018250Y016169D01*
X018250Y016168D02*
X016250Y016168D01*
X016250Y016167D02*
X018250Y016167D01*
X018250Y016166D02*
X016250Y016166D01*
X016250Y016165D02*
X018250Y016165D01*
X018250Y016164D02*
X016250Y016164D01*
X016250Y016163D02*
X018250Y016163D01*
X018250Y016162D02*
X016250Y016162D01*
X016250Y016161D02*
X018250Y016161D01*
X018250Y016160D02*
X016250Y016160D01*
X016250Y016159D02*
X018250Y016159D01*
X018250Y016158D02*
X016250Y016158D01*
X016250Y016157D02*
X018250Y016157D01*
X018250Y016156D02*
X016250Y016156D01*
X016250Y016155D02*
X018250Y016155D01*
X018250Y016154D02*
X016250Y016154D01*
X016250Y016153D02*
X018250Y016153D01*
X018250Y016152D02*
X016250Y016152D01*
X016250Y016151D02*
X018250Y016151D01*
X018250Y016150D02*
X016250Y016150D01*
X016250Y016149D02*
X018250Y016149D01*
X018250Y016148D02*
X016250Y016148D01*
X016250Y016147D02*
X018250Y016147D01*
X018250Y016146D02*
X016250Y016146D01*
X016250Y016145D02*
X018250Y016145D01*
X018250Y016144D02*
X016250Y016144D01*
X016250Y016143D02*
X018250Y016143D01*
X018250Y016142D02*
X016250Y016142D01*
X016250Y016141D02*
X018250Y016141D01*
X018250Y016140D02*
X016250Y016140D01*
X016250Y016139D02*
X018250Y016139D01*
X018250Y016138D02*
X016250Y016138D01*
X016250Y016137D02*
X018250Y016137D01*
X018250Y016136D02*
X016250Y016136D01*
X016250Y016135D02*
X018250Y016135D01*
X018250Y016134D02*
X016250Y016134D01*
X016250Y016133D02*
X018250Y016133D01*
X018250Y016132D02*
X016250Y016132D01*
X016250Y016131D02*
X018250Y016131D01*
X018250Y016130D02*
X016250Y016130D01*
X016250Y016129D02*
X018250Y016129D01*
X018250Y016128D02*
X016250Y016128D01*
X016250Y016127D02*
X018250Y016127D01*
X018250Y016126D02*
X016250Y016126D01*
X016250Y016125D02*
X018250Y016125D01*
X018250Y016124D02*
X016250Y016124D01*
X016250Y016123D02*
X018250Y016123D01*
X018250Y016122D02*
X016250Y016122D01*
X016250Y016121D02*
X018250Y016121D01*
X018250Y016120D02*
X016250Y016120D01*
X016250Y016119D02*
X018250Y016119D01*
X018250Y016118D02*
X016250Y016118D01*
X016250Y016117D02*
X018250Y016117D01*
X018250Y016116D02*
X016250Y016116D01*
X016250Y016115D02*
X018250Y016115D01*
X018250Y016114D02*
X016250Y016114D01*
X016250Y016113D02*
X018250Y016113D01*
X018250Y016112D02*
X016250Y016112D01*
X016250Y016111D02*
X018250Y016111D01*
X018250Y016110D02*
X016250Y016110D01*
X016250Y016109D02*
X018250Y016109D01*
X018250Y016108D02*
X016250Y016108D01*
X016250Y016107D02*
X018250Y016107D01*
X018250Y016106D02*
X016250Y016106D01*
X016250Y016105D02*
X018250Y016105D01*
X018250Y016104D02*
X016250Y016104D01*
X016250Y016103D02*
X018250Y016103D01*
X018250Y016102D02*
X016250Y016102D01*
X016250Y016101D02*
X018250Y016101D01*
X018250Y016100D02*
X016250Y016100D01*
X016250Y016099D02*
X018250Y016099D01*
X018250Y016098D02*
X016250Y016098D01*
X016250Y016097D02*
X018250Y016097D01*
X018250Y016096D02*
X016250Y016096D01*
X016250Y016095D02*
X018250Y016095D01*
X018250Y016094D02*
X016250Y016094D01*
X016250Y016093D02*
X018250Y016093D01*
X018250Y016092D02*
X016250Y016092D01*
X016250Y016091D02*
X018250Y016091D01*
X018250Y016090D02*
X016250Y016090D01*
X016250Y016089D02*
X018250Y016089D01*
X018250Y016088D02*
X016250Y016088D01*
X016250Y016087D02*
X018250Y016087D01*
X018250Y016086D02*
X016250Y016086D01*
X016250Y016085D02*
X018250Y016085D01*
X018250Y016084D02*
X016250Y016084D01*
X016250Y016083D02*
X018250Y016083D01*
X018250Y016082D02*
X016250Y016082D01*
X016250Y016081D02*
X018250Y016081D01*
X018250Y016080D02*
X016250Y016080D01*
X016250Y016079D02*
X018250Y016079D01*
X018250Y016078D02*
X016250Y016078D01*
X016250Y016077D02*
X018250Y016077D01*
X018250Y016076D02*
X016250Y016076D01*
X016250Y016075D02*
X018250Y016075D01*
X018250Y016074D02*
X016250Y016074D01*
X016250Y016073D02*
X018250Y016073D01*
X018250Y016072D02*
X016250Y016072D01*
X016250Y016071D02*
X018250Y016071D01*
X018250Y016070D02*
X016250Y016070D01*
X016250Y016069D02*
X018250Y016069D01*
X018250Y016068D02*
X016250Y016068D01*
X016250Y016067D02*
X018250Y016067D01*
X018250Y016066D02*
X016250Y016066D01*
X016250Y016065D02*
X018250Y016065D01*
X018250Y016064D02*
X016250Y016064D01*
X016250Y016063D02*
X018250Y016063D01*
X018250Y016062D02*
X016250Y016062D01*
X016250Y016061D02*
X018250Y016061D01*
X018250Y016060D02*
X016250Y016060D01*
X016250Y016059D02*
X018250Y016059D01*
X018250Y016058D02*
X016250Y016058D01*
X016250Y016057D02*
X018250Y016057D01*
X018250Y016056D02*
X016250Y016056D01*
X016250Y016055D02*
X018250Y016055D01*
X018250Y016054D02*
X016250Y016054D01*
X016250Y016053D02*
X018250Y016053D01*
X018250Y016052D02*
X016250Y016052D01*
X016250Y016051D02*
X018250Y016051D01*
X018250Y016050D02*
X016250Y016050D01*
X016250Y016049D02*
X018250Y016049D01*
X018250Y016048D02*
X016250Y016048D01*
X016250Y016047D02*
X018250Y016047D01*
X018250Y016046D02*
X016250Y016046D01*
X016250Y016045D02*
X018250Y016045D01*
X018250Y016044D02*
X016250Y016044D01*
X016250Y016043D02*
X018250Y016043D01*
X018250Y016042D02*
X016250Y016042D01*
X016250Y016041D02*
X018250Y016041D01*
X018250Y016040D02*
X016250Y016040D01*
X016250Y016039D02*
X018250Y016039D01*
X018250Y016038D02*
X016250Y016038D01*
X016250Y016037D02*
X018250Y016037D01*
X018250Y016036D02*
X016250Y016036D01*
X016250Y016035D02*
X018250Y016035D01*
X018250Y016034D02*
X016250Y016034D01*
X016250Y016033D02*
X018250Y016033D01*
X018250Y016032D02*
X016250Y016032D01*
X016250Y016031D02*
X018250Y016031D01*
X018250Y016030D02*
X016250Y016030D01*
X016250Y016029D02*
X018250Y016029D01*
X018250Y016028D02*
X016250Y016028D01*
X016250Y016027D02*
X018250Y016027D01*
X018250Y016026D02*
X016250Y016026D01*
X016250Y016025D02*
X018250Y016025D01*
X018250Y016024D02*
X016250Y016024D01*
X016250Y016023D02*
X018250Y016023D01*
X018250Y016022D02*
X016250Y016022D01*
X016250Y016021D02*
X018250Y016021D01*
X018250Y016020D02*
X016250Y016020D01*
X016250Y016019D02*
X018250Y016019D01*
X018250Y016018D02*
X016250Y016018D01*
X016250Y016017D02*
X018250Y016017D01*
X018250Y016016D02*
X016250Y016016D01*
X016250Y016015D02*
X018250Y016015D01*
X018250Y016014D02*
X016250Y016014D01*
X016250Y016013D02*
X018250Y016013D01*
X018250Y016012D02*
X016250Y016012D01*
X016250Y016011D02*
X018250Y016011D01*
X018250Y016010D02*
X016250Y016010D01*
X016250Y016009D02*
X018250Y016009D01*
X018250Y016008D02*
X016250Y016008D01*
X016250Y016007D02*
X018250Y016007D01*
X018250Y016006D02*
X016250Y016006D01*
X016250Y016005D02*
X018250Y016005D01*
X018250Y016004D02*
X016250Y016004D01*
X016250Y016003D02*
X018250Y016003D01*
X018250Y016002D02*
X016250Y016002D01*
X016250Y016001D02*
X018250Y016001D01*
X018250Y016000D02*
X016251Y016000D01*
X016253Y015999D02*
X018249Y015999D01*
X018248Y015998D02*
X016255Y015998D01*
X016257Y015997D02*
X018247Y015997D01*
X018246Y015996D02*
X016259Y015996D01*
X016261Y015995D02*
X018245Y015995D01*
X018244Y015994D02*
X016263Y015994D01*
X016265Y015993D02*
X018243Y015993D01*
X018242Y015992D02*
X016267Y015992D01*
X016269Y015991D02*
X018241Y015991D01*
X018240Y015990D02*
X016271Y015990D01*
X016273Y015989D02*
X018239Y015989D01*
X018238Y015988D02*
X016275Y015988D01*
X016277Y015987D02*
X018237Y015987D01*
X018236Y015986D02*
X016279Y015986D01*
X016281Y015985D02*
X018235Y015985D01*
X018234Y015984D02*
X016283Y015984D01*
X016285Y015983D02*
X018233Y015983D01*
X018232Y015982D02*
X016287Y015982D01*
X016289Y015981D02*
X018231Y015981D01*
X018230Y015980D02*
X016291Y015980D01*
X016293Y015979D02*
X018229Y015979D01*
X018228Y015978D02*
X016294Y015978D01*
X016296Y015977D02*
X018227Y015977D01*
X018226Y015976D02*
X016298Y015976D01*
X016300Y015975D02*
X018225Y015975D01*
X018224Y015974D02*
X016302Y015974D01*
X016304Y015973D02*
X018223Y015973D01*
X018222Y015972D02*
X016306Y015972D01*
X016308Y015971D02*
X018221Y015971D01*
X018220Y015970D02*
X016310Y015970D01*
X016312Y015969D02*
X018219Y015969D01*
X018218Y015968D02*
X016314Y015968D01*
X016316Y015967D02*
X018217Y015967D01*
X018216Y015966D02*
X016318Y015966D01*
X016320Y015965D02*
X018215Y015965D01*
X018214Y015964D02*
X016322Y015964D01*
X016324Y015963D02*
X018213Y015963D01*
X018212Y015962D02*
X016326Y015962D01*
X016328Y015961D02*
X018211Y015961D01*
X018210Y015960D02*
X016330Y015960D01*
X016332Y015959D02*
X018209Y015959D01*
X018208Y015958D02*
X016334Y015958D01*
X016336Y015957D02*
X018207Y015957D01*
X018206Y015956D02*
X016338Y015956D01*
X016340Y015955D02*
X018205Y015955D01*
X018204Y015954D02*
X016342Y015954D01*
X016344Y015953D02*
X018203Y015953D01*
X018202Y015952D02*
X016346Y015952D01*
X016348Y015951D02*
X018201Y015951D01*
X018200Y015950D02*
X016350Y015950D01*
X016352Y015949D02*
X018199Y015949D01*
X018198Y015948D02*
X016354Y015948D01*
X016356Y015947D02*
X018197Y015947D01*
X018196Y015946D02*
X016358Y015946D01*
X016360Y015945D02*
X018195Y015945D01*
X018194Y015944D02*
X016362Y015944D01*
X016364Y015943D02*
X018193Y015943D01*
X018192Y015942D02*
X016366Y015942D01*
X016368Y015941D02*
X018191Y015941D01*
X018190Y015940D02*
X016370Y015940D01*
X016372Y015939D02*
X018189Y015939D01*
X018188Y015938D02*
X016374Y015938D01*
X016376Y015937D02*
X018187Y015937D01*
X018186Y015936D02*
X016378Y015936D01*
X016380Y015935D02*
X018185Y015935D01*
X018184Y015934D02*
X016382Y015934D01*
X016384Y015933D02*
X018183Y015933D01*
X018182Y015932D02*
X016386Y015932D01*
X016388Y015931D02*
X018181Y015931D01*
X018180Y015930D02*
X016390Y015930D01*
X016392Y015929D02*
X018179Y015929D01*
X018178Y015928D02*
X016394Y015928D01*
X016396Y015927D02*
X018177Y015927D01*
X018176Y015926D02*
X016398Y015926D01*
X016400Y015925D02*
X018175Y015925D01*
X018174Y015924D02*
X016402Y015924D01*
X016404Y015923D02*
X018173Y015923D01*
X018172Y015922D02*
X016406Y015922D01*
X016408Y015921D02*
X018171Y015921D01*
X018170Y015920D02*
X016410Y015920D01*
X016412Y015919D02*
X018169Y015919D01*
X018168Y015918D02*
X016414Y015918D01*
X016416Y015917D02*
X018167Y015917D01*
X018166Y015916D02*
X016418Y015916D01*
X016420Y015915D02*
X018165Y015915D01*
X018164Y015914D02*
X016422Y015914D01*
X016424Y015913D02*
X018163Y015913D01*
X018162Y015912D02*
X016426Y015912D01*
X016428Y015911D02*
X018161Y015911D01*
X018160Y015910D02*
X016430Y015910D01*
X016432Y015909D02*
X018159Y015909D01*
X018158Y015908D02*
X016434Y015908D01*
X016436Y015907D02*
X018157Y015907D01*
X018156Y015906D02*
X016438Y015906D01*
X016440Y015905D02*
X018155Y015905D01*
X018154Y015904D02*
X016442Y015904D01*
X016444Y015903D02*
X018153Y015903D01*
X018152Y015902D02*
X016446Y015902D01*
X016448Y015901D02*
X018151Y015901D01*
X018150Y015900D02*
X016450Y015900D01*
X016452Y015899D02*
X018149Y015899D01*
X018148Y015898D02*
X016454Y015898D01*
X016456Y015897D02*
X018147Y015897D01*
X018146Y015896D02*
X016458Y015896D01*
X016460Y015895D02*
X018145Y015895D01*
X018144Y015894D02*
X016462Y015894D01*
X016464Y015893D02*
X018143Y015893D01*
X018142Y015892D02*
X016466Y015892D01*
X016468Y015891D02*
X018141Y015891D01*
X018140Y015890D02*
X016470Y015890D01*
X016472Y015889D02*
X018139Y015889D01*
X018138Y015888D02*
X016474Y015888D01*
X016476Y015887D02*
X018137Y015887D01*
X018136Y015886D02*
X016478Y015886D01*
X016480Y015885D02*
X018135Y015885D01*
X018134Y015884D02*
X016482Y015884D01*
X016484Y015883D02*
X018133Y015883D01*
X018132Y015882D02*
X016486Y015882D01*
X016488Y015881D02*
X018131Y015881D01*
X018130Y015880D02*
X016490Y015880D01*
X016492Y015879D02*
X018129Y015879D01*
X018128Y015878D02*
X016494Y015878D01*
X016496Y015877D02*
X018127Y015877D01*
X018126Y015876D02*
X016498Y015876D01*
X016500Y015875D02*
X018125Y015875D01*
X018124Y015874D02*
X016502Y015874D01*
X016504Y015873D02*
X018123Y015873D01*
X018122Y015872D02*
X016506Y015872D01*
X016508Y015871D02*
X018121Y015871D01*
X018120Y015870D02*
X016510Y015870D01*
X016512Y015869D02*
X018119Y015869D01*
X018118Y015868D02*
X016514Y015868D01*
X016516Y015867D02*
X018117Y015867D01*
X018116Y015866D02*
X016518Y015866D01*
X016520Y015865D02*
X018115Y015865D01*
X018114Y015864D02*
X016522Y015864D01*
X016524Y015863D02*
X018113Y015863D01*
X018112Y015862D02*
X016526Y015862D01*
X016528Y015861D02*
X018111Y015861D01*
X018110Y015860D02*
X016530Y015860D01*
X016532Y015859D02*
X018109Y015859D01*
X018108Y015858D02*
X016534Y015858D01*
X016536Y015857D02*
X018107Y015857D01*
X018106Y015856D02*
X016538Y015856D01*
X016540Y015855D02*
X018105Y015855D01*
X018104Y015854D02*
X016542Y015854D01*
X016544Y015853D02*
X018103Y015853D01*
X018102Y015852D02*
X016546Y015852D01*
X016548Y015851D02*
X018101Y015851D01*
X018100Y015850D02*
X016550Y015850D01*
X016552Y015849D02*
X018099Y015849D01*
X018098Y015848D02*
X016554Y015848D01*
X016556Y015847D02*
X018097Y015847D01*
X018096Y015846D02*
X016558Y015846D01*
X016560Y015845D02*
X018095Y015845D01*
X018094Y015844D02*
X016562Y015844D01*
X016564Y015843D02*
X018093Y015843D01*
X018092Y015842D02*
X016566Y015842D01*
X016568Y015841D02*
X018091Y015841D01*
X018090Y015840D02*
X016570Y015840D01*
X016572Y015839D02*
X018089Y015839D01*
X018088Y015838D02*
X016574Y015838D01*
X016576Y015837D02*
X018087Y015837D01*
X018086Y015836D02*
X016578Y015836D01*
X016580Y015835D02*
X018085Y015835D01*
X018084Y015834D02*
X016582Y015834D01*
X016584Y015833D02*
X018083Y015833D01*
X018082Y015832D02*
X016586Y015832D01*
X016588Y015831D02*
X018081Y015831D01*
X018080Y015830D02*
X016590Y015830D01*
X016592Y015829D02*
X018079Y015829D01*
X018078Y015828D02*
X016594Y015828D01*
X016596Y015827D02*
X018077Y015827D01*
X018076Y015826D02*
X016598Y015826D01*
X016600Y015825D02*
X018075Y015825D01*
X018074Y015824D02*
X016602Y015824D01*
X016604Y015823D02*
X018073Y015823D01*
X018072Y015822D02*
X016606Y015822D01*
X016608Y015821D02*
X018071Y015821D01*
X018070Y015820D02*
X016610Y015820D01*
X016612Y015819D02*
X018069Y015819D01*
X018068Y015818D02*
X016614Y015818D01*
X016616Y015817D02*
X018067Y015817D01*
X018066Y015816D02*
X016618Y015816D01*
X016620Y015815D02*
X018065Y015815D01*
X018064Y015814D02*
X016622Y015814D01*
X016624Y015813D02*
X018063Y015813D01*
X018062Y015812D02*
X016626Y015812D01*
X016628Y015811D02*
X018061Y015811D01*
X018060Y015810D02*
X016630Y015810D01*
X016632Y015809D02*
X018059Y015809D01*
X018058Y015808D02*
X016634Y015808D01*
X016636Y015807D02*
X018057Y015807D01*
X018056Y015806D02*
X016638Y015806D01*
X016640Y015805D02*
X018055Y015805D01*
X018054Y015804D02*
X016642Y015804D01*
X016644Y015803D02*
X018053Y015803D01*
X018052Y015802D02*
X016646Y015802D01*
X016648Y015801D02*
X018051Y015801D01*
X018050Y015800D02*
X016650Y015800D01*
X016652Y015799D02*
X018049Y015799D01*
X018048Y015798D02*
X016654Y015798D01*
X016656Y015797D02*
X018047Y015797D01*
X018046Y015796D02*
X016658Y015796D01*
X016660Y015795D02*
X018045Y015795D01*
X018044Y015794D02*
X016662Y015794D01*
X016664Y015793D02*
X018043Y015793D01*
X018042Y015792D02*
X016666Y015792D01*
X016668Y015791D02*
X018041Y015791D01*
X018040Y015790D02*
X016670Y015790D01*
X016672Y015789D02*
X018039Y015789D01*
X018038Y015788D02*
X016674Y015788D01*
X016676Y015787D02*
X018037Y015787D01*
X018036Y015786D02*
X016678Y015786D01*
X016680Y015785D02*
X018035Y015785D01*
X018034Y015784D02*
X016682Y015784D01*
X016684Y015783D02*
X018033Y015783D01*
X018032Y015782D02*
X016686Y015782D01*
X016688Y015781D02*
X018031Y015781D01*
X018030Y015780D02*
X016690Y015780D01*
X016692Y015779D02*
X018029Y015779D01*
X018028Y015778D02*
X016694Y015778D01*
X016696Y015777D02*
X018027Y015777D01*
X018026Y015776D02*
X016698Y015776D01*
X016700Y015775D02*
X018025Y015775D01*
X018024Y015774D02*
X016702Y015774D01*
X016704Y015773D02*
X018023Y015773D01*
X018022Y015772D02*
X016706Y015772D01*
X016708Y015771D02*
X018021Y015771D01*
X018020Y015770D02*
X016710Y015770D01*
X016712Y015769D02*
X018019Y015769D01*
X018018Y015768D02*
X016714Y015768D01*
X016716Y015767D02*
X018017Y015767D01*
X018016Y015766D02*
X016718Y015766D01*
X016720Y015765D02*
X018015Y015765D01*
X018014Y015764D02*
X016722Y015764D01*
X016724Y015763D02*
X018013Y015763D01*
X018012Y015762D02*
X016726Y015762D01*
X016728Y015761D02*
X018011Y015761D01*
X018010Y015760D02*
X016730Y015760D01*
X016732Y015759D02*
X018009Y015759D01*
X018008Y015758D02*
X016734Y015758D01*
X016736Y015757D02*
X018007Y015757D01*
X018006Y015756D02*
X016738Y015756D01*
X016740Y015755D02*
X018005Y015755D01*
X018004Y015754D02*
X016742Y015754D01*
X016744Y015753D02*
X018003Y015753D01*
X018002Y015752D02*
X016746Y015752D01*
X016748Y015751D02*
X018001Y015751D01*
X018000Y015750D02*
X016750Y015750D01*
X016751Y015749D02*
X017999Y015749D01*
X017998Y015748D02*
X016752Y015748D01*
X016753Y015747D02*
X017997Y015747D01*
X017996Y015746D02*
X016754Y015746D01*
X016755Y015745D02*
X017995Y015745D01*
X017994Y015744D02*
X016756Y015744D01*
X016757Y015743D02*
X017993Y015743D01*
X017992Y015742D02*
X016758Y015742D01*
X016759Y015741D02*
X017991Y015741D01*
X017990Y015740D02*
X016760Y015740D01*
X016761Y015739D02*
X017989Y015739D01*
X017988Y015738D02*
X016762Y015738D01*
X016763Y015737D02*
X017987Y015737D01*
X017986Y015736D02*
X016764Y015736D01*
X016765Y015735D02*
X017985Y015735D01*
X017984Y015734D02*
X016766Y015734D01*
X016767Y015733D02*
X017983Y015733D01*
X017982Y015732D02*
X016768Y015732D01*
X016769Y015731D02*
X017981Y015731D01*
X017980Y015730D02*
X016770Y015730D01*
X016771Y015729D02*
X017979Y015729D01*
X017978Y015728D02*
X016772Y015728D01*
X016773Y015727D02*
X017977Y015727D01*
X017976Y015726D02*
X016774Y015726D01*
X016775Y015725D02*
X017975Y015725D01*
X017974Y015724D02*
X016776Y015724D01*
X016777Y015723D02*
X017973Y015723D01*
X017972Y015722D02*
X016778Y015722D01*
X016779Y015721D02*
X017971Y015721D01*
X017970Y015720D02*
X016780Y015720D01*
X016781Y015719D02*
X017969Y015719D01*
X017968Y015718D02*
X016782Y015718D01*
X016783Y015717D02*
X017967Y015717D01*
X017966Y015716D02*
X016784Y015716D01*
X016785Y015715D02*
X017965Y015715D01*
X017964Y015714D02*
X016786Y015714D01*
X016787Y015713D02*
X017963Y015713D01*
X017962Y015712D02*
X016788Y015712D01*
X016789Y015711D02*
X017961Y015711D01*
X017960Y015710D02*
X016790Y015710D01*
X016791Y015709D02*
X017959Y015709D01*
X017958Y015708D02*
X016792Y015708D01*
X016793Y015707D02*
X017957Y015707D01*
X017956Y015706D02*
X016794Y015706D01*
X016795Y015705D02*
X017955Y015705D01*
X017954Y015704D02*
X016796Y015704D01*
X016797Y015703D02*
X017953Y015703D01*
X017952Y015702D02*
X016798Y015702D01*
X016799Y015701D02*
X017951Y015701D01*
X017950Y015700D02*
X016800Y015700D01*
X016801Y015699D02*
X017949Y015699D01*
X017948Y015698D02*
X016802Y015698D01*
X016803Y015697D02*
X017947Y015697D01*
X017946Y015696D02*
X016804Y015696D01*
X016805Y015695D02*
X017945Y015695D01*
X017944Y015694D02*
X016806Y015694D01*
X016807Y015693D02*
X017943Y015693D01*
X017942Y015692D02*
X016808Y015692D01*
X016809Y015691D02*
X017941Y015691D01*
X017940Y015690D02*
X016810Y015690D01*
X016811Y015689D02*
X017939Y015689D01*
X017938Y015688D02*
X016812Y015688D01*
X016813Y015687D02*
X017937Y015687D01*
X017936Y015686D02*
X016814Y015686D01*
X016815Y015685D02*
X017935Y015685D01*
X017934Y015684D02*
X016816Y015684D01*
X016817Y015683D02*
X017933Y015683D01*
X017932Y015682D02*
X016818Y015682D01*
X016819Y015681D02*
X017931Y015681D01*
X017930Y015680D02*
X016820Y015680D01*
X016821Y015679D02*
X017929Y015679D01*
X017928Y015678D02*
X016822Y015678D01*
X016823Y015677D02*
X017927Y015677D01*
X017926Y015676D02*
X016824Y015676D01*
X016825Y015675D02*
X017925Y015675D01*
X017924Y015674D02*
X016826Y015674D01*
X016827Y015673D02*
X017923Y015673D01*
X017922Y015672D02*
X016828Y015672D01*
X016829Y015671D02*
X017921Y015671D01*
X017920Y015670D02*
X016830Y015670D01*
X016831Y015669D02*
X017919Y015669D01*
X017918Y015668D02*
X016832Y015668D01*
X016833Y015667D02*
X017917Y015667D01*
X017916Y015666D02*
X016834Y015666D01*
X016835Y015665D02*
X017915Y015665D01*
X017914Y015664D02*
X016836Y015664D01*
X016837Y015663D02*
X017913Y015663D01*
X017912Y015662D02*
X016838Y015662D01*
X016839Y015661D02*
X017911Y015661D01*
X017910Y015660D02*
X016840Y015660D01*
X016841Y015659D02*
X017909Y015659D01*
X017908Y015658D02*
X016842Y015658D01*
X016843Y015657D02*
X017907Y015657D01*
X017906Y015656D02*
X016844Y015656D01*
X016845Y015655D02*
X017905Y015655D01*
X017904Y015654D02*
X016846Y015654D01*
X016847Y015653D02*
X017903Y015653D01*
X017902Y015652D02*
X016848Y015652D01*
X016849Y015651D02*
X017901Y015651D01*
X017900Y015650D02*
X016850Y015650D01*
X016851Y015649D02*
X017899Y015649D01*
X017898Y015648D02*
X016852Y015648D01*
X016853Y015647D02*
X017897Y015647D01*
X017896Y015646D02*
X016854Y015646D01*
X016855Y015645D02*
X017895Y015645D01*
X017894Y015644D02*
X016856Y015644D01*
X016857Y015643D02*
X017893Y015643D01*
X017892Y015642D02*
X016858Y015642D01*
X016859Y015641D02*
X017891Y015641D01*
X017890Y015640D02*
X016860Y015640D01*
X016861Y015639D02*
X017889Y015639D01*
X017888Y015638D02*
X016862Y015638D01*
X016863Y015637D02*
X017887Y015637D01*
X017886Y015636D02*
X016864Y015636D01*
X016865Y015635D02*
X017885Y015635D01*
X017884Y015634D02*
X016866Y015634D01*
X016867Y015633D02*
X017883Y015633D01*
X017882Y015632D02*
X016868Y015632D01*
X016869Y015631D02*
X017881Y015631D01*
X017880Y015630D02*
X016870Y015630D01*
X016871Y015629D02*
X017879Y015629D01*
X017878Y015628D02*
X016872Y015628D01*
X016873Y015627D02*
X017877Y015627D01*
X017876Y015626D02*
X016874Y015626D01*
X016875Y015625D02*
X017875Y015625D01*
X017874Y015624D02*
X016876Y015624D01*
X016877Y015623D02*
X017873Y015623D01*
X017872Y015622D02*
X016878Y015622D01*
X016879Y015621D02*
X017871Y015621D01*
X017870Y015620D02*
X016880Y015620D01*
X016881Y015619D02*
X017869Y015619D01*
X017868Y015618D02*
X016882Y015618D01*
X016883Y015617D02*
X017867Y015617D01*
X017866Y015616D02*
X016884Y015616D01*
X016885Y015615D02*
X017865Y015615D01*
X017864Y015614D02*
X016886Y015614D01*
X016887Y015613D02*
X017863Y015613D01*
X017862Y015612D02*
X016888Y015612D01*
X016889Y015611D02*
X017861Y015611D01*
X017860Y015610D02*
X016890Y015610D01*
X016891Y015609D02*
X017859Y015609D01*
X017858Y015608D02*
X016892Y015608D01*
X016893Y015607D02*
X017857Y015607D01*
X017856Y015606D02*
X016894Y015606D01*
X016895Y015605D02*
X017855Y015605D01*
X017854Y015604D02*
X016896Y015604D01*
X016897Y015603D02*
X017853Y015603D01*
X017852Y015602D02*
X016898Y015602D01*
X016899Y015601D02*
X017851Y015601D01*
X017850Y015600D02*
X016900Y015600D01*
X016901Y015599D02*
X017849Y015599D01*
X017848Y015598D02*
X016902Y015598D01*
X016903Y015597D02*
X017847Y015597D01*
X017846Y015596D02*
X016904Y015596D01*
X016905Y015595D02*
X017845Y015595D01*
X017844Y015594D02*
X016906Y015594D01*
X016907Y015593D02*
X017843Y015593D01*
X017842Y015592D02*
X016908Y015592D01*
X016909Y015591D02*
X017841Y015591D01*
X017840Y015590D02*
X016910Y015590D01*
X016911Y015589D02*
X017839Y015589D01*
X017838Y015588D02*
X016912Y015588D01*
X016913Y015587D02*
X017837Y015587D01*
X017836Y015586D02*
X016914Y015586D01*
X016915Y015585D02*
X017835Y015585D01*
X017834Y015584D02*
X016916Y015584D01*
X016917Y015583D02*
X017833Y015583D01*
X017832Y015582D02*
X016918Y015582D01*
X016919Y015581D02*
X017831Y015581D01*
X017830Y015580D02*
X016920Y015580D01*
X016921Y015579D02*
X017829Y015579D01*
X017828Y015578D02*
X016922Y015578D01*
X016923Y015577D02*
X017827Y015577D01*
X017826Y015576D02*
X016924Y015576D01*
X016925Y015575D02*
X017825Y015575D01*
X017824Y015574D02*
X016926Y015574D01*
X016927Y015573D02*
X017823Y015573D01*
X017822Y015572D02*
X016928Y015572D01*
X016929Y015571D02*
X017821Y015571D01*
X017820Y015570D02*
X016930Y015570D01*
X016931Y015569D02*
X017819Y015569D01*
X017818Y015568D02*
X016932Y015568D01*
X016933Y015567D02*
X017817Y015567D01*
X017816Y015566D02*
X016934Y015566D01*
X016935Y015565D02*
X017815Y015565D01*
X017814Y015564D02*
X016936Y015564D01*
X016937Y015563D02*
X017813Y015563D01*
X017812Y015562D02*
X016938Y015562D01*
X016939Y015561D02*
X017811Y015561D01*
X017810Y015560D02*
X016940Y015560D01*
X016941Y015559D02*
X017809Y015559D01*
X017808Y015558D02*
X016942Y015558D01*
X016943Y015557D02*
X017807Y015557D01*
X017806Y015556D02*
X016944Y015556D01*
X016945Y015555D02*
X017805Y015555D01*
X017804Y015554D02*
X016946Y015554D01*
X016947Y015553D02*
X017803Y015553D01*
X017802Y015552D02*
X016948Y015552D01*
X016949Y015551D02*
X017801Y015551D01*
X017800Y015550D02*
X016950Y015550D01*
X016951Y015549D02*
X017799Y015549D01*
X017798Y015548D02*
X016952Y015548D01*
X016953Y015547D02*
X017797Y015547D01*
X017796Y015546D02*
X016954Y015546D01*
X016955Y015545D02*
X017795Y015545D01*
X017794Y015544D02*
X016956Y015544D01*
X016957Y015543D02*
X017793Y015543D01*
X017792Y015542D02*
X016958Y015542D01*
X016959Y015541D02*
X017791Y015541D01*
X017790Y015540D02*
X016960Y015540D01*
X016961Y015539D02*
X017789Y015539D01*
X017788Y015538D02*
X016962Y015538D01*
X016963Y015537D02*
X017787Y015537D01*
X017786Y015536D02*
X016964Y015536D01*
X016965Y015535D02*
X017785Y015535D01*
X017784Y015534D02*
X016966Y015534D01*
X016967Y015533D02*
X017783Y015533D01*
X017782Y015532D02*
X016968Y015532D01*
X016969Y015531D02*
X017781Y015531D01*
X017780Y015530D02*
X016970Y015530D01*
X016971Y015529D02*
X017779Y015529D01*
X017778Y015528D02*
X016972Y015528D01*
X016973Y015527D02*
X017777Y015527D01*
X017776Y015526D02*
X016974Y015526D01*
X016975Y015525D02*
X017775Y015525D01*
X017774Y015524D02*
X016976Y015524D01*
X016977Y015523D02*
X017773Y015523D01*
X017772Y015522D02*
X016978Y015522D01*
X016979Y015521D02*
X017771Y015521D01*
X017770Y015520D02*
X016980Y015520D01*
X016981Y015519D02*
X017769Y015519D01*
X017768Y015518D02*
X016982Y015518D01*
X016983Y015517D02*
X017767Y015517D01*
X017766Y015516D02*
X016984Y015516D01*
X016985Y015515D02*
X017765Y015515D01*
X017764Y015514D02*
X016986Y015514D01*
X016987Y015513D02*
X017763Y015513D01*
X017762Y015512D02*
X016988Y015512D01*
X016989Y015511D02*
X017761Y015511D01*
X017760Y015510D02*
X016990Y015510D01*
X016991Y015509D02*
X017759Y015509D01*
X017758Y015508D02*
X016992Y015508D01*
X016993Y015507D02*
X017757Y015507D01*
X017756Y015506D02*
X016994Y015506D01*
X016995Y015505D02*
X017755Y015505D01*
X017754Y015504D02*
X016996Y015504D01*
X016997Y015503D02*
X017753Y015503D01*
X017752Y015502D02*
X016998Y015502D01*
X016999Y015501D02*
X017751Y015501D01*
X017750Y015500D02*
X017000Y015500D01*
M02*
