G75*
G70*
%OFA0B0*%
%FSLAX24Y24*%
%IPPOS*%
%LPD*%
%AMOC8*
5,1,8,0,0,1.08239X$1,22.5*
%
%ADD10C,0.0051*%
%ADD11C,0.0110*%
%ADD12C,0.0050*%
%ADD13R,0.3937X0.3150*%
%ADD14C,0.0120*%
%ADD15C,0.0060*%
%ADD16C,0.0100*%
%ADD17R,0.0827X0.0118*%
%ADD18C,0.0040*%
%ADD19R,0.0200X0.1000*%
%ADD20C,0.0030*%
%ADD21R,0.0500X0.2000*%
%ADD22C,0.0070*%
%ADD23R,0.4160X0.0560*%
%ADD24C,0.0200*%
%ADD25R,0.0200X0.0800*%
%ADD26R,0.0750X0.0200*%
%ADD27C,0.0020*%
%ADD28R,0.0150X0.1600*%
%ADD29R,0.0250X0.0450*%
%ADD30R,0.0250X0.1600*%
%ADD31R,0.0500X0.0200*%
%ADD32R,0.1750X0.0200*%
%ADD33R,0.3200X0.0200*%
%ADD34R,0.0100X0.0050*%
%ADD35R,0.1250X0.0050*%
%ADD36R,0.1600X0.0200*%
%ADD37R,0.0800X0.0200*%
%ADD38R,0.0200X0.0750*%
%ADD39C,0.0300*%
%ADD40R,0.1000X0.0200*%
%ADD41R,0.0300X0.0750*%
%ADD42R,0.0150X0.0700*%
%ADD43R,0.0550X0.0200*%
%ADD44C,0.0320*%
%ADD45R,0.0220X0.0320*%
%ADD46R,0.0320X0.0220*%
%ADD47C,0.0200*%
%ADD48R,0.0300X0.4200*%
%ADD49R,0.0200X0.0300*%
%ADD50R,0.0200X0.0700*%
%ADD51R,0.0250X0.1000*%
%ADD52R,0.0250X0.0900*%
%ADD53R,0.0200X0.0150*%
%ADD54C,0.0240*%
%ADD55R,0.0340X0.0240*%
%ADD56R,0.0300X0.0350*%
%ADD57R,0.0500X0.0100*%
%ADD58C,0.0160*%
%ADD59R,0.0200X0.0200*%
%ADD60R,0.0700X0.0150*%
%ADD61R,0.0200X0.0550*%
%ADD62C,0.0000*%
D10*
X000500Y001626D02*
X000500Y005413D01*
X000500Y002413D02*
X001524Y002311D01*
X001524Y002287D02*
X000500Y002413D01*
X001524Y002515D01*
X001524Y002539D02*
X001524Y002287D01*
X001524Y002362D02*
X000500Y002413D01*
X001524Y002464D01*
X001524Y002539D02*
X000500Y002413D01*
X012500Y002413D01*
X011476Y002311D01*
X011476Y002287D02*
X012500Y002413D01*
X011476Y002515D01*
X011476Y002539D02*
X011476Y002287D01*
X011476Y002362D02*
X012500Y002413D01*
X011476Y002464D01*
X011476Y002539D02*
X012500Y002413D01*
X012500Y001626D02*
X012500Y011413D01*
D11*
X009163Y004131D02*
X008740Y004131D01*
X008529Y003919D01*
X008529Y003708D01*
X008740Y003496D01*
X009163Y003496D01*
X009375Y003285D01*
X009375Y003073D01*
X009163Y002862D01*
X008740Y002862D01*
X008529Y003073D01*
X008529Y003285D01*
X008740Y003496D01*
X009163Y003496D02*
X009375Y003708D01*
X009375Y003919D01*
X009163Y004131D01*
X008106Y003496D02*
X007260Y003496D01*
X007895Y004131D01*
X007895Y002862D01*
X006837Y002862D02*
X006626Y002862D01*
X006626Y003073D01*
X006837Y003073D01*
X006837Y002862D01*
X006203Y003073D02*
X005991Y002862D01*
X005568Y002862D01*
X005357Y003073D01*
X006203Y003919D01*
X006203Y003073D01*
X005357Y003073D02*
X005357Y003919D01*
X005568Y004131D01*
X005991Y004131D01*
X006203Y003919D01*
X004934Y003919D02*
X004934Y003708D01*
X004723Y003496D01*
X004934Y003285D01*
X004934Y003073D01*
X004723Y002862D01*
X004300Y002862D01*
X004088Y003073D01*
X004511Y003496D02*
X004723Y003496D01*
X004934Y003919D02*
X004723Y004131D01*
X004300Y004131D01*
X004088Y003919D01*
D12*
X000594Y009689D02*
X000594Y018744D01*
X011618Y018744D01*
X012799Y017563D01*
X012799Y009689D01*
X000594Y009689D01*
X014241Y018305D02*
X014241Y018412D01*
X014347Y018518D01*
X014453Y018518D01*
X014506Y018465D01*
X014506Y018040D01*
X014718Y018252D01*
X014725Y018472D02*
X014938Y018472D01*
X014938Y018684D01*
X014725Y018896D01*
X014839Y019010D02*
X015157Y018691D01*
X015316Y018850D01*
X015316Y018957D01*
X015104Y019169D01*
X014998Y019169D01*
X014839Y019010D01*
X014513Y018684D02*
X014725Y018472D01*
X015270Y019229D02*
X015270Y019441D01*
X015589Y019123D01*
X015483Y019017D02*
X015695Y019229D01*
X015125Y017128D02*
X015125Y016828D01*
X015125Y016978D02*
X014675Y016978D01*
X014825Y016828D01*
X015125Y016667D02*
X015125Y016367D01*
X015125Y016517D02*
X014675Y016517D01*
X014825Y016367D01*
X014750Y016207D02*
X014675Y016132D01*
X014675Y015982D01*
X014750Y015907D01*
X015050Y015907D01*
X015125Y015982D01*
X015125Y016132D01*
X015050Y016207D01*
X015125Y015747D02*
X015125Y015446D01*
X014825Y015747D01*
X014750Y015747D01*
X014675Y015672D01*
X014675Y015521D01*
X014750Y015446D01*
X018655Y009969D02*
X019105Y009969D01*
X019105Y009819D02*
X019105Y010119D01*
X018805Y009819D02*
X018655Y009969D01*
X018730Y009659D02*
X018655Y009584D01*
X018655Y009359D01*
X019105Y009359D01*
X019105Y009584D01*
X019030Y009659D01*
X018730Y009659D01*
X018655Y009199D02*
X018955Y009199D01*
X019105Y009049D01*
X018955Y008898D01*
X018655Y008898D01*
X018730Y008738D02*
X018655Y008663D01*
X018655Y008513D01*
X018730Y008438D01*
X018880Y008588D02*
X018880Y008663D01*
X018955Y008738D01*
X019030Y008738D01*
X019105Y008663D01*
X019105Y008513D01*
X019030Y008438D01*
X018880Y008663D02*
X018805Y008738D01*
X018730Y008738D01*
X022230Y013188D02*
X022155Y013263D01*
X022155Y013413D01*
X022230Y013488D01*
X022305Y013488D01*
X022380Y013413D01*
X022455Y013488D01*
X022530Y013488D01*
X022605Y013413D01*
X022605Y013263D01*
X022530Y013188D01*
X022380Y013338D02*
X022380Y013413D01*
X022455Y013648D02*
X022155Y013648D01*
X022455Y013648D02*
X022605Y013799D01*
X022455Y013949D01*
X022155Y013949D01*
X022155Y014109D02*
X022155Y014334D01*
X022230Y014409D01*
X022530Y014409D01*
X022605Y014334D01*
X022605Y014109D01*
X022155Y014109D01*
X022230Y014569D02*
X022155Y014644D01*
X022155Y014794D01*
X022230Y014869D01*
X022305Y014869D01*
X022605Y014569D01*
X022605Y014869D01*
X022775Y015888D02*
X022625Y016038D01*
X023075Y016038D01*
X023075Y015888D02*
X023075Y016188D01*
X023075Y016348D02*
X022625Y016348D01*
X022625Y016574D01*
X022700Y016649D01*
X022850Y016649D01*
X022925Y016574D01*
X022925Y016348D01*
X023000Y016809D02*
X023075Y016884D01*
X023075Y017034D01*
X023000Y017109D01*
X023075Y017269D02*
X023075Y017569D01*
X023075Y017419D02*
X022625Y017419D01*
X022775Y017269D01*
X022700Y017109D02*
X022625Y017034D01*
X022625Y016884D01*
X022700Y016809D01*
X023000Y016809D01*
X023054Y019088D02*
X023054Y019388D01*
X022904Y019538D01*
X022754Y019388D01*
X022754Y019088D01*
X022594Y019163D02*
X022594Y019463D01*
X022519Y019538D01*
X022294Y019538D01*
X022294Y019088D01*
X022519Y019088D01*
X022594Y019163D01*
X022754Y019313D02*
X023054Y019313D01*
X023215Y019388D02*
X023365Y019538D01*
X023365Y019088D01*
X023215Y019088D02*
X023515Y019088D01*
X022134Y019088D02*
X021833Y019088D01*
X021984Y019088D02*
X021984Y019538D01*
X021833Y019388D01*
X025175Y020838D02*
X025475Y021138D01*
X025475Y021213D01*
X025400Y021288D01*
X025250Y021288D01*
X025175Y021213D01*
X025175Y020838D02*
X025475Y020838D01*
X025635Y020913D02*
X025710Y020838D01*
X025861Y020838D01*
X025936Y020913D01*
X026096Y021063D02*
X026321Y021288D01*
X026321Y020838D01*
X026396Y021063D02*
X026096Y021063D01*
X025936Y021213D02*
X025861Y021288D01*
X025710Y021288D01*
X025635Y021213D01*
X025635Y020913D01*
X025710Y022838D02*
X025635Y022913D01*
X025635Y023213D01*
X025710Y023288D01*
X025861Y023288D01*
X025936Y023213D01*
X026096Y023288D02*
X026396Y023288D01*
X026396Y023213D01*
X026096Y022913D01*
X026096Y022838D01*
X025936Y022913D02*
X025861Y022838D01*
X025710Y022838D01*
X025475Y022838D02*
X025175Y022838D01*
X025475Y023138D01*
X025475Y023213D01*
X025400Y023288D01*
X025250Y023288D01*
X025175Y023213D01*
X023715Y023613D02*
X023640Y023538D01*
X023490Y023538D01*
X023415Y023613D01*
X023415Y023763D02*
X023565Y023838D01*
X023640Y023838D01*
X023715Y023763D01*
X023715Y023613D01*
X023415Y023763D02*
X023415Y023988D01*
X023715Y023988D01*
X023254Y023913D02*
X023179Y023988D01*
X023029Y023988D01*
X022954Y023913D01*
X022954Y023613D01*
X023029Y023538D01*
X023179Y023538D01*
X023254Y023613D01*
X022794Y023538D02*
X022494Y023538D01*
X022794Y023838D01*
X022794Y023913D01*
X022719Y023988D01*
X022569Y023988D01*
X022494Y023913D01*
X017165Y028628D02*
X016865Y028628D01*
X017015Y028628D02*
X017015Y029078D01*
X016865Y028928D01*
X016704Y028853D02*
X016629Y028778D01*
X016404Y028778D01*
X016404Y028628D02*
X016404Y029078D01*
X016629Y029078D01*
X016704Y029003D01*
X016704Y028853D01*
X016554Y028778D02*
X016704Y028628D01*
X016244Y028628D02*
X015944Y028628D01*
X016244Y028928D01*
X016244Y029003D01*
X016169Y029078D01*
X016019Y029078D01*
X015944Y029003D01*
X015954Y027688D02*
X016179Y027688D01*
X016254Y027613D01*
X016254Y027313D01*
X016179Y027238D01*
X015954Y027238D01*
X015954Y027688D01*
X015794Y027688D02*
X015794Y027388D01*
X015644Y027238D01*
X015494Y027388D01*
X015494Y027688D01*
X015334Y027613D02*
X015259Y027688D01*
X015108Y027688D01*
X015033Y027613D01*
X015334Y027613D02*
X015334Y027538D01*
X015033Y027238D01*
X015334Y027238D01*
X015340Y026538D02*
X015490Y026538D01*
X015565Y026463D01*
X015565Y026388D01*
X015490Y026313D01*
X015565Y026238D01*
X015565Y026163D01*
X015490Y026088D01*
X015340Y026088D01*
X015265Y026163D01*
X015104Y026163D02*
X015029Y026088D01*
X014879Y026088D01*
X014804Y026163D01*
X014804Y026463D01*
X014879Y026538D01*
X015029Y026538D01*
X015104Y026463D01*
X015265Y026463D02*
X015340Y026538D01*
X015415Y026313D02*
X015490Y026313D01*
X014644Y026388D02*
X014644Y026463D01*
X014569Y026538D01*
X014419Y026538D01*
X014344Y026463D01*
X014644Y026388D02*
X014344Y026088D01*
X014644Y026088D01*
X016415Y027463D02*
X016715Y027463D01*
X016640Y027238D02*
X016640Y027688D01*
X016415Y027463D01*
X011975Y026928D02*
X011975Y026628D01*
X011675Y026928D01*
X011600Y026928D01*
X011525Y026853D01*
X011525Y026703D01*
X011600Y026628D01*
X011600Y026467D02*
X011525Y026392D01*
X011525Y026167D01*
X011975Y026167D01*
X011975Y026392D01*
X011900Y026467D01*
X011600Y026467D01*
X011525Y026007D02*
X011825Y026007D01*
X011975Y025857D01*
X011825Y025707D01*
X011525Y025707D01*
X011600Y025547D02*
X011525Y025472D01*
X011525Y025321D01*
X011600Y025246D01*
X011600Y025547D02*
X011675Y025547D01*
X011975Y025246D01*
X011975Y025547D01*
X008896Y029088D02*
X008596Y029088D01*
X008896Y029388D01*
X008896Y029463D01*
X008821Y029538D01*
X008671Y029538D01*
X008596Y029463D01*
X008436Y029463D02*
X008361Y029538D01*
X008210Y029538D01*
X008135Y029463D01*
X008135Y029163D01*
X008210Y029088D01*
X008361Y029088D01*
X008436Y029163D01*
X008177Y029067D02*
X008177Y034775D01*
X003453Y034775D01*
X003453Y029067D01*
X008177Y029067D01*
X007975Y029088D02*
X007675Y029088D01*
X007975Y029388D01*
X007975Y029463D01*
X007900Y029538D01*
X007750Y029538D01*
X007675Y029463D01*
X008290Y030138D02*
X008215Y030213D01*
X008215Y030363D01*
X008290Y030438D01*
X008365Y030438D01*
X008665Y030138D01*
X008665Y030438D01*
X008665Y030598D02*
X008215Y030598D01*
X008215Y030824D01*
X008290Y030899D01*
X008440Y030899D01*
X008515Y030824D01*
X008515Y030598D01*
X008515Y030749D02*
X008665Y030899D01*
X008590Y031059D02*
X008665Y031134D01*
X008665Y031284D01*
X008590Y031359D01*
X008515Y031359D01*
X008440Y031284D01*
X008440Y031209D01*
X008440Y031284D02*
X008365Y031359D01*
X008290Y031359D01*
X008215Y031284D01*
X008215Y031134D01*
X008290Y031059D01*
X010375Y033288D02*
X010825Y033288D01*
X010825Y033138D02*
X010825Y033438D01*
X010675Y033598D02*
X010825Y033749D01*
X010675Y033899D01*
X010375Y033899D01*
X010375Y034059D02*
X010375Y034284D01*
X010450Y034359D01*
X010750Y034359D01*
X010825Y034284D01*
X010825Y034059D01*
X010375Y034059D01*
X010375Y033598D02*
X010675Y033598D01*
X010375Y033288D02*
X010525Y033138D01*
X010450Y034519D02*
X010375Y034594D01*
X010375Y034744D01*
X010450Y034819D01*
X010525Y034819D01*
X010825Y034519D01*
X010825Y034819D01*
X012125Y034419D02*
X012575Y034419D01*
X012575Y034269D02*
X012575Y034569D01*
X012275Y034269D02*
X012125Y034419D01*
X012200Y034109D02*
X012125Y034034D01*
X012125Y033809D01*
X012575Y033809D01*
X012575Y034034D01*
X012500Y034109D01*
X012200Y034109D01*
X012125Y033649D02*
X012425Y033649D01*
X012575Y033499D01*
X012425Y033348D01*
X012125Y033348D01*
X012125Y033038D02*
X012575Y033038D01*
X012575Y032888D02*
X012575Y033188D01*
X012275Y032888D02*
X012125Y033038D01*
X013025Y033588D02*
X013325Y033588D01*
X013175Y033588D02*
X013175Y034038D01*
X013025Y033888D01*
X013485Y033738D02*
X013636Y033588D01*
X013786Y033738D01*
X013786Y034038D01*
X013946Y034038D02*
X013946Y033588D01*
X014171Y033588D01*
X014246Y033663D01*
X014246Y033963D01*
X014171Y034038D01*
X013946Y034038D01*
X013485Y034038D02*
X013485Y033738D01*
X014406Y033588D02*
X014706Y033588D01*
X014556Y033588D02*
X014556Y034038D01*
X014406Y033888D01*
X014867Y033813D02*
X015092Y033813D01*
X015167Y033738D01*
X015167Y033663D01*
X015092Y033588D01*
X014867Y033588D01*
X014867Y034038D01*
X015092Y034038D01*
X015167Y033963D01*
X015167Y033888D01*
X015092Y033813D01*
X015925Y033817D02*
X015925Y034042D01*
X016000Y034117D01*
X016300Y034117D01*
X016375Y034042D01*
X016375Y033817D01*
X015925Y033817D01*
X015925Y033657D02*
X016225Y033657D01*
X016375Y033507D01*
X016225Y033357D01*
X015925Y033357D01*
X015925Y033047D02*
X016375Y033047D01*
X016375Y033197D02*
X016375Y032896D01*
X016075Y032896D02*
X015925Y033047D01*
X016150Y034278D02*
X015925Y034503D01*
X016375Y034503D01*
X016150Y034578D02*
X016150Y034278D01*
X017925Y034353D02*
X017925Y034503D01*
X018000Y034578D01*
X018075Y034578D01*
X018150Y034503D01*
X018225Y034578D01*
X018300Y034578D01*
X018375Y034503D01*
X018375Y034353D01*
X018300Y034278D01*
X018300Y034117D02*
X018000Y034117D01*
X017925Y034042D01*
X017925Y033817D01*
X018375Y033817D01*
X018375Y034042D01*
X018300Y034117D01*
X018000Y034278D02*
X017925Y034353D01*
X018150Y034428D02*
X018150Y034503D01*
X018225Y033657D02*
X017925Y033657D01*
X018225Y033657D02*
X018375Y033507D01*
X018225Y033357D01*
X017925Y033357D01*
X017925Y033047D02*
X018375Y033047D01*
X018375Y033197D02*
X018375Y032896D01*
X018075Y032896D02*
X017925Y033047D01*
X021525Y035807D02*
X021975Y035807D01*
X021975Y035657D02*
X021975Y035957D01*
X021900Y036117D02*
X021975Y036192D01*
X021975Y036342D01*
X021900Y036417D01*
X021975Y036578D02*
X021675Y036878D01*
X021600Y036878D01*
X021525Y036803D01*
X021525Y036653D01*
X021600Y036578D01*
X021600Y036417D02*
X021525Y036342D01*
X021525Y036192D01*
X021600Y036117D01*
X021900Y036117D01*
X021975Y036578D02*
X021975Y036878D01*
X021525Y035807D02*
X021675Y035657D01*
X019344Y037444D02*
X019344Y040988D01*
X029581Y040988D01*
X029581Y037444D01*
X019344Y037444D01*
X023475Y042998D02*
X023775Y042998D01*
X023625Y042998D02*
X023625Y043448D01*
X023475Y043298D01*
X023935Y043148D02*
X024161Y043148D01*
X024236Y043223D01*
X024236Y043373D01*
X024161Y043448D01*
X023935Y043448D01*
X023935Y042998D01*
X024086Y043148D02*
X024236Y042998D01*
X024396Y042998D02*
X024696Y042998D01*
X024546Y042998D02*
X024546Y043448D01*
X024396Y043298D01*
X026183Y042988D02*
X026334Y043138D01*
X026334Y042688D01*
X026484Y042688D02*
X026183Y042688D01*
X026644Y042688D02*
X026644Y043138D01*
X026869Y043138D01*
X026944Y043063D01*
X026944Y042913D01*
X026869Y042838D01*
X026644Y042838D01*
X026794Y042838D02*
X026944Y042688D01*
X027104Y042688D02*
X027404Y042688D01*
X027565Y042688D02*
X027865Y042688D01*
X027715Y042688D02*
X027715Y043138D01*
X027565Y042988D01*
X027404Y043063D02*
X027104Y042763D01*
X027104Y042688D01*
X027104Y043138D02*
X027404Y043138D01*
X027404Y043063D01*
X026706Y046088D02*
X026406Y046088D01*
X026556Y046088D02*
X026556Y046538D01*
X026406Y046388D01*
X026246Y046313D02*
X025946Y046313D01*
X025946Y046088D02*
X025946Y046538D01*
X025786Y046538D02*
X025485Y046538D01*
X025636Y046538D02*
X025636Y046088D01*
X025325Y046088D02*
X025025Y046088D01*
X025175Y046088D02*
X025175Y046538D01*
X025025Y046388D01*
X026246Y046538D02*
X026246Y046088D01*
X033675Y040978D02*
X033825Y041128D01*
X034125Y041128D01*
X033900Y041128D02*
X033900Y040828D01*
X033825Y040828D02*
X033675Y040978D01*
X033825Y040828D02*
X034125Y040828D01*
X034125Y040667D02*
X034125Y040367D01*
X033825Y040667D01*
X033750Y040667D01*
X033675Y040592D01*
X033675Y040442D01*
X033750Y040367D01*
X033750Y040207D02*
X033675Y040132D01*
X033675Y039982D01*
X033750Y039907D01*
X034050Y039907D01*
X034125Y039982D01*
X034125Y040132D01*
X034050Y040207D01*
X033900Y039747D02*
X033900Y039446D01*
X033675Y039672D01*
X034125Y039672D01*
X035425Y039672D02*
X035650Y039446D01*
X035650Y039747D01*
X035500Y039907D02*
X035800Y039907D01*
X035875Y039982D01*
X035875Y040132D01*
X035800Y040207D01*
X035875Y040367D02*
X035575Y040667D01*
X035500Y040667D01*
X035425Y040592D01*
X035425Y040442D01*
X035500Y040367D01*
X035500Y040207D02*
X035425Y040132D01*
X035425Y039982D01*
X035500Y039907D01*
X035425Y039672D02*
X035875Y039672D01*
X035875Y040367D02*
X035875Y040667D01*
X035875Y040828D02*
X035425Y040828D01*
X035425Y041053D01*
X035500Y041128D01*
X035575Y041128D01*
X035650Y041053D01*
X035650Y040828D01*
X035650Y041053D02*
X035725Y041128D01*
X035800Y041128D01*
X035875Y041053D01*
X035875Y040828D01*
X040850Y036488D02*
X040850Y034838D01*
X041450Y034614D02*
X041450Y035110D01*
X041450Y035216D01*
X041450Y036110D01*
X041450Y036216D01*
X041450Y036712D01*
X041053Y036613D02*
X040999Y036586D01*
X040948Y036556D01*
X040898Y036523D01*
X040850Y036488D01*
X041450Y034614D02*
X041514Y034613D01*
X041578Y034616D01*
X041642Y034623D01*
X041705Y034633D01*
X041767Y034648D01*
X041828Y034666D01*
X041889Y034688D01*
X041947Y034713D01*
X042725Y035072D02*
X042950Y034846D01*
X042950Y035147D01*
X043025Y035307D02*
X043175Y035457D01*
X043025Y035607D01*
X042725Y035607D01*
X042725Y035767D02*
X042725Y036067D01*
X042725Y035917D02*
X043175Y035917D01*
X043175Y036228D02*
X043175Y036528D01*
X043175Y036378D02*
X042725Y036378D01*
X042875Y036228D01*
X042725Y035307D02*
X043025Y035307D01*
X043175Y035072D02*
X042725Y035072D01*
X041062Y034709D02*
X041006Y034736D01*
X040952Y034767D01*
X040900Y034801D01*
X040850Y034838D01*
X041947Y034713D02*
X042004Y034742D01*
X042060Y034775D01*
X042113Y034810D01*
X042164Y034850D01*
X042212Y034892D01*
X042258Y034937D01*
X042301Y034984D01*
X042341Y035034D01*
X042378Y035087D01*
X042411Y035142D01*
X042442Y035198D01*
X042468Y035257D01*
X042491Y035317D01*
X042511Y035378D01*
X042526Y035440D01*
X042538Y035503D01*
X042546Y035567D01*
X042550Y035631D01*
X042550Y035695D01*
X042546Y035759D01*
X042538Y035823D01*
X042526Y035886D01*
X042511Y035948D01*
X042491Y036009D01*
X042468Y036069D01*
X042442Y036128D01*
X042411Y036184D01*
X042378Y036239D01*
X042341Y036292D01*
X042301Y036342D01*
X042258Y036389D01*
X042212Y036434D01*
X042164Y036476D01*
X042113Y036516D01*
X042060Y036551D01*
X042004Y036584D01*
X041947Y036613D01*
X041889Y036638D01*
X041828Y036660D01*
X041767Y036678D01*
X041705Y036693D01*
X041642Y036703D01*
X041578Y036710D01*
X041514Y036713D01*
X041450Y036712D01*
X041391Y036707D01*
X041333Y036700D01*
X041275Y036689D01*
X041218Y036674D01*
X041162Y036657D01*
X041107Y036637D01*
X041053Y036613D01*
X041053Y034713D02*
X041107Y034689D01*
X041162Y034669D01*
X041218Y034652D01*
X041275Y034637D01*
X041333Y034626D01*
X041391Y034619D01*
X041450Y034614D01*
X039494Y034961D02*
X037526Y034961D01*
X037526Y025315D01*
X038116Y024725D01*
X039494Y024725D01*
X039494Y034961D01*
X039476Y034972D02*
X039476Y024736D01*
X038098Y024736D01*
X037508Y025326D01*
X037508Y034972D01*
X039476Y034972D01*
X037926Y034908D02*
X037926Y035358D01*
X037626Y035358D02*
X037626Y034908D01*
X037466Y034983D02*
X037466Y035283D01*
X037391Y035358D01*
X037241Y035358D01*
X037166Y035283D01*
X037166Y034983D01*
X037241Y034908D01*
X037391Y034908D01*
X037466Y034983D01*
X037626Y035358D02*
X037926Y034908D01*
X037006Y034908D02*
X037006Y035358D01*
X036856Y035208D01*
X036705Y035358D01*
X036705Y034908D01*
X036470Y034983D02*
X036470Y035358D01*
X036395Y035358D02*
X036545Y035358D01*
X036470Y034983D02*
X036395Y034908D01*
X036320Y034908D01*
X036245Y034983D01*
X035410Y033238D02*
X035485Y033163D01*
X035485Y033088D01*
X035410Y033013D01*
X035485Y032938D01*
X035485Y032863D01*
X035410Y032788D01*
X035260Y032788D01*
X035185Y032863D01*
X035024Y032863D02*
X034949Y032788D01*
X034799Y032788D01*
X034724Y032863D01*
X034724Y033163D01*
X034799Y033238D01*
X034949Y033238D01*
X035024Y033163D01*
X035185Y033163D02*
X035260Y033238D01*
X035410Y033238D01*
X035410Y033013D02*
X035335Y033013D01*
X034564Y032938D02*
X034564Y032863D01*
X034489Y032788D01*
X034339Y032788D01*
X034264Y032863D01*
X034414Y033013D02*
X034489Y033013D01*
X034564Y032938D01*
X034489Y033013D02*
X034564Y033088D01*
X034564Y033163D01*
X034489Y033238D01*
X034339Y033238D01*
X034264Y033163D01*
X034090Y034688D02*
X033940Y034688D01*
X033865Y034763D01*
X033704Y034763D02*
X033629Y034688D01*
X033479Y034688D01*
X033404Y034763D01*
X033404Y035063D01*
X033479Y035138D01*
X033629Y035138D01*
X033704Y035063D01*
X033865Y035063D02*
X033940Y035138D01*
X034090Y035138D01*
X034165Y035063D01*
X034165Y034988D01*
X034090Y034913D01*
X034165Y034838D01*
X034165Y034763D01*
X034090Y034688D01*
X034090Y034913D02*
X034015Y034913D01*
X033244Y034913D02*
X032944Y034913D01*
X033169Y035138D01*
X033169Y034688D01*
X036395Y031608D02*
X036545Y031608D01*
X036470Y031608D02*
X036470Y031233D01*
X036395Y031158D01*
X036320Y031158D01*
X036245Y031233D01*
X036705Y031233D02*
X036780Y031158D01*
X036931Y031158D01*
X037006Y031233D01*
X037006Y031383D01*
X036931Y031458D01*
X036856Y031458D01*
X036705Y031383D01*
X036705Y031608D01*
X037006Y031608D01*
X037166Y031608D02*
X037166Y031308D01*
X037316Y031158D01*
X037466Y031308D01*
X037466Y031608D01*
X037466Y029358D02*
X037466Y028908D01*
X037166Y029358D01*
X037166Y028908D01*
X037006Y028983D02*
X037006Y029133D01*
X036856Y029133D01*
X037006Y028983D02*
X036931Y028908D01*
X036780Y028908D01*
X036705Y028983D01*
X036705Y029283D01*
X036780Y029358D01*
X036931Y029358D01*
X037006Y029283D01*
X036545Y029358D02*
X036395Y029358D01*
X036470Y029358D02*
X036470Y028983D01*
X036395Y028908D01*
X036320Y028908D01*
X036245Y028983D01*
X037626Y028908D02*
X037851Y028908D01*
X037926Y028983D01*
X037926Y029283D01*
X037851Y029358D01*
X037626Y029358D01*
X037626Y028908D01*
X037466Y027358D02*
X037466Y027058D01*
X037316Y026908D01*
X037166Y027058D01*
X037166Y027358D01*
X037006Y027283D02*
X036931Y027358D01*
X036780Y027358D01*
X036705Y027283D01*
X036705Y027208D01*
X036780Y027133D01*
X037006Y027133D01*
X037006Y026983D02*
X037006Y027283D01*
X037006Y026983D02*
X036931Y026908D01*
X036780Y026908D01*
X036705Y026983D01*
X036470Y026983D02*
X036470Y027358D01*
X036395Y027358D02*
X036545Y027358D01*
X036470Y026983D02*
X036395Y026908D01*
X036320Y026908D01*
X036245Y026983D01*
X039825Y026913D02*
X039825Y027063D01*
X039900Y027138D01*
X039975Y027138D01*
X040050Y027063D01*
X040125Y027138D01*
X040200Y027138D01*
X040275Y027063D01*
X040275Y026913D01*
X040200Y026838D01*
X040050Y026988D02*
X040050Y027063D01*
X040125Y027298D02*
X039825Y027298D01*
X040125Y027298D02*
X040275Y027449D01*
X040125Y027599D01*
X039825Y027599D01*
X039825Y027759D02*
X039825Y027984D01*
X039900Y028059D01*
X040200Y028059D01*
X040275Y027984D01*
X040275Y027759D01*
X039825Y027759D01*
X039900Y028219D02*
X039825Y028294D01*
X039825Y028444D01*
X039900Y028519D01*
X039975Y028519D01*
X040050Y028444D01*
X040125Y028519D01*
X040200Y028519D01*
X040275Y028444D01*
X040275Y028294D01*
X040200Y028219D01*
X040050Y028369D02*
X040050Y028444D01*
X039825Y026913D02*
X039900Y026838D01*
X041835Y028682D02*
X041910Y028607D01*
X041835Y028682D02*
X041835Y028832D01*
X041910Y028907D01*
X041985Y028907D01*
X042060Y028832D01*
X042135Y028907D01*
X042210Y028907D01*
X042285Y028832D01*
X042285Y028682D01*
X042210Y028607D01*
X042060Y028757D02*
X042060Y028832D01*
X042135Y029067D02*
X042135Y029292D01*
X042060Y029367D01*
X041910Y029367D01*
X041835Y029292D01*
X041835Y029067D01*
X042285Y029067D01*
X042135Y029217D02*
X042285Y029367D01*
X042285Y029528D02*
X042210Y029528D01*
X041910Y029828D01*
X041835Y029828D01*
X041835Y029528D01*
X037485Y021738D02*
X037185Y021738D01*
X037185Y021513D01*
X037335Y021588D01*
X037410Y021588D01*
X037485Y021513D01*
X037485Y021363D01*
X037410Y021288D01*
X037260Y021288D01*
X037185Y021363D01*
X037024Y021363D02*
X036949Y021288D01*
X036799Y021288D01*
X036724Y021363D01*
X036724Y021663D01*
X036799Y021738D01*
X036949Y021738D01*
X037024Y021663D01*
X036564Y021663D02*
X036564Y021588D01*
X036489Y021513D01*
X036564Y021438D01*
X036564Y021363D01*
X036489Y021288D01*
X036339Y021288D01*
X036264Y021363D01*
X036414Y021513D02*
X036489Y021513D01*
X036564Y021663D02*
X036489Y021738D01*
X036339Y021738D01*
X036264Y021663D01*
X033365Y015308D02*
X033365Y014858D01*
X033215Y014858D02*
X033515Y014858D01*
X033215Y015158D02*
X033365Y015308D01*
X033054Y015233D02*
X032979Y015308D01*
X032829Y015308D01*
X032754Y015233D01*
X032754Y014933D01*
X032829Y014858D01*
X032979Y014858D01*
X033054Y014933D01*
X032594Y014933D02*
X032519Y014858D01*
X032369Y014858D01*
X032294Y014933D01*
X032444Y015083D02*
X032519Y015083D01*
X032594Y015008D01*
X032594Y014933D01*
X032519Y015083D02*
X032594Y015158D01*
X032594Y015233D01*
X032519Y015308D01*
X032369Y015308D01*
X032294Y015233D01*
X029075Y016588D02*
X028775Y016888D01*
X028700Y016888D01*
X028625Y016813D01*
X028625Y016663D01*
X028700Y016588D01*
X029075Y016588D02*
X029075Y016888D01*
X029000Y017048D02*
X029075Y017123D01*
X029075Y017274D01*
X029000Y017349D01*
X029075Y017509D02*
X029075Y017809D01*
X029075Y017659D02*
X028625Y017659D01*
X028775Y017509D01*
X028700Y017349D02*
X028625Y017274D01*
X028625Y017123D01*
X028700Y017048D01*
X029000Y017048D01*
X029000Y017969D02*
X028700Y018269D01*
X029000Y018269D01*
X029075Y018194D01*
X029075Y018044D01*
X029000Y017969D01*
X028700Y017969D01*
X028625Y018044D01*
X028625Y018194D01*
X028700Y018269D01*
X025790Y014138D02*
X025640Y014138D01*
X025565Y014063D01*
X025404Y013988D02*
X025404Y013688D01*
X025565Y013688D02*
X025865Y013988D01*
X025865Y014063D01*
X025790Y014138D01*
X025404Y013988D02*
X025254Y014138D01*
X025104Y013988D01*
X025104Y013688D01*
X024944Y013763D02*
X024944Y014063D01*
X024869Y014138D01*
X024644Y014138D01*
X024644Y013688D01*
X024869Y013688D01*
X024944Y013763D01*
X025104Y013913D02*
X025404Y013913D01*
X025565Y013688D02*
X025865Y013688D01*
X013492Y038712D02*
X007783Y038712D01*
X007783Y043437D01*
X006209Y043437D01*
X005421Y046783D01*
X007783Y043437D02*
X013492Y043437D01*
X015067Y043437D01*
X015854Y046783D01*
X016248Y046586D02*
X016248Y046193D01*
X013492Y043437D02*
X013492Y038712D01*
D13*
X037902Y045208D03*
X028059Y008988D03*
D14*
X029500Y017793D02*
X029750Y017793D01*
X030000Y017793D01*
X030000Y018043D02*
X029750Y018043D01*
X029500Y018043D01*
X026630Y019913D02*
X026630Y020163D01*
X026630Y020413D01*
X026380Y020413D02*
X026380Y020163D01*
X026380Y019913D01*
X026380Y021913D02*
X026380Y022163D01*
X026380Y022413D01*
X026630Y022413D02*
X026630Y022163D01*
X026630Y021913D01*
X022620Y024413D02*
X022620Y024663D01*
X022620Y024913D01*
X022370Y024913D02*
X022370Y024663D01*
X022370Y024413D01*
X021500Y030163D02*
X021500Y037163D01*
X030500Y037163D01*
X030500Y030163D01*
X021500Y030163D01*
X024000Y031663D02*
X025000Y031663D01*
X025044Y031665D01*
X025087Y031671D01*
X025129Y031680D01*
X025171Y031693D01*
X025211Y031710D01*
X025250Y031730D01*
X025287Y031753D01*
X025321Y031780D01*
X025354Y031809D01*
X025383Y031842D01*
X025410Y031876D01*
X025433Y031913D01*
X025453Y031952D01*
X025470Y031992D01*
X025483Y032034D01*
X025492Y032076D01*
X025498Y032119D01*
X025500Y032163D01*
X025498Y032207D01*
X025492Y032250D01*
X025483Y032292D01*
X025470Y032334D01*
X025453Y032374D01*
X025433Y032413D01*
X025410Y032450D01*
X025383Y032484D01*
X025354Y032517D01*
X025321Y032546D01*
X025287Y032573D01*
X025250Y032596D01*
X025211Y032616D01*
X025171Y032633D01*
X025129Y032646D01*
X025087Y032655D01*
X025044Y032661D01*
X025000Y032663D01*
X025044Y032665D01*
X025087Y032671D01*
X025129Y032680D01*
X025171Y032693D01*
X025211Y032710D01*
X025250Y032730D01*
X025287Y032753D01*
X025321Y032780D01*
X025354Y032809D01*
X025383Y032842D01*
X025410Y032876D01*
X025433Y032913D01*
X025453Y032952D01*
X025470Y032992D01*
X025483Y033034D01*
X025492Y033076D01*
X025498Y033119D01*
X025500Y033163D01*
X025498Y033207D01*
X025492Y033250D01*
X025483Y033292D01*
X025470Y033334D01*
X025453Y033374D01*
X025433Y033413D01*
X025410Y033450D01*
X025383Y033484D01*
X025354Y033517D01*
X025321Y033546D01*
X025287Y033573D01*
X025250Y033596D01*
X025211Y033616D01*
X025171Y033633D01*
X025129Y033646D01*
X025087Y033655D01*
X025044Y033661D01*
X025000Y033663D01*
X025044Y033665D01*
X025087Y033671D01*
X025129Y033680D01*
X025171Y033693D01*
X025211Y033710D01*
X025250Y033730D01*
X025287Y033753D01*
X025321Y033780D01*
X025354Y033809D01*
X025383Y033842D01*
X025410Y033876D01*
X025433Y033913D01*
X025453Y033952D01*
X025470Y033992D01*
X025483Y034034D01*
X025492Y034076D01*
X025498Y034119D01*
X025500Y034163D01*
X025498Y034207D01*
X025492Y034250D01*
X025483Y034292D01*
X025470Y034334D01*
X025453Y034374D01*
X025433Y034413D01*
X025410Y034450D01*
X025383Y034484D01*
X025354Y034517D01*
X025321Y034546D01*
X025287Y034573D01*
X025250Y034596D01*
X025211Y034616D01*
X025171Y034633D01*
X025129Y034646D01*
X025087Y034655D01*
X025044Y034661D01*
X025000Y034663D01*
X025044Y034665D01*
X025087Y034671D01*
X025129Y034680D01*
X025171Y034693D01*
X025211Y034710D01*
X025250Y034730D01*
X025287Y034753D01*
X025321Y034780D01*
X025354Y034809D01*
X025383Y034842D01*
X025410Y034876D01*
X025433Y034913D01*
X025453Y034952D01*
X025470Y034992D01*
X025483Y035034D01*
X025492Y035076D01*
X025498Y035119D01*
X025500Y035163D01*
X025498Y035207D01*
X025492Y035250D01*
X025483Y035292D01*
X025470Y035334D01*
X025453Y035374D01*
X025433Y035413D01*
X025410Y035450D01*
X025383Y035484D01*
X025354Y035517D01*
X025321Y035546D01*
X025287Y035573D01*
X025250Y035596D01*
X025211Y035616D01*
X025171Y035633D01*
X025129Y035646D01*
X025087Y035655D01*
X025044Y035661D01*
X025000Y035663D01*
X024000Y035663D01*
X026000Y035663D02*
X026000Y031663D01*
X027000Y031663D02*
X028000Y031663D01*
X027000Y031663D02*
X026956Y031665D01*
X026913Y031671D01*
X026871Y031680D01*
X026829Y031693D01*
X026789Y031710D01*
X026750Y031730D01*
X026713Y031753D01*
X026679Y031780D01*
X026646Y031809D01*
X026617Y031842D01*
X026590Y031876D01*
X026567Y031913D01*
X026547Y031952D01*
X026530Y031992D01*
X026517Y032034D01*
X026508Y032076D01*
X026502Y032119D01*
X026500Y032163D01*
X026502Y032207D01*
X026508Y032250D01*
X026517Y032292D01*
X026530Y032334D01*
X026547Y032374D01*
X026567Y032413D01*
X026590Y032450D01*
X026617Y032484D01*
X026646Y032517D01*
X026679Y032546D01*
X026713Y032573D01*
X026750Y032596D01*
X026789Y032616D01*
X026829Y032633D01*
X026871Y032646D01*
X026913Y032655D01*
X026956Y032661D01*
X027000Y032663D01*
X026956Y032665D01*
X026913Y032671D01*
X026871Y032680D01*
X026829Y032693D01*
X026789Y032710D01*
X026750Y032730D01*
X026713Y032753D01*
X026679Y032780D01*
X026646Y032809D01*
X026617Y032842D01*
X026590Y032876D01*
X026567Y032913D01*
X026547Y032952D01*
X026530Y032992D01*
X026517Y033034D01*
X026508Y033076D01*
X026502Y033119D01*
X026500Y033163D01*
X026502Y033207D01*
X026508Y033250D01*
X026517Y033292D01*
X026530Y033334D01*
X026547Y033374D01*
X026567Y033413D01*
X026590Y033450D01*
X026617Y033484D01*
X026646Y033517D01*
X026679Y033546D01*
X026713Y033573D01*
X026750Y033596D01*
X026789Y033616D01*
X026829Y033633D01*
X026871Y033646D01*
X026913Y033655D01*
X026956Y033661D01*
X027000Y033663D01*
X026956Y033665D01*
X026913Y033671D01*
X026871Y033680D01*
X026829Y033693D01*
X026789Y033710D01*
X026750Y033730D01*
X026713Y033753D01*
X026679Y033780D01*
X026646Y033809D01*
X026617Y033842D01*
X026590Y033876D01*
X026567Y033913D01*
X026547Y033952D01*
X026530Y033992D01*
X026517Y034034D01*
X026508Y034076D01*
X026502Y034119D01*
X026500Y034163D01*
X026502Y034207D01*
X026508Y034250D01*
X026517Y034292D01*
X026530Y034334D01*
X026547Y034374D01*
X026567Y034413D01*
X026590Y034450D01*
X026617Y034484D01*
X026646Y034517D01*
X026679Y034546D01*
X026713Y034573D01*
X026750Y034596D01*
X026789Y034616D01*
X026829Y034633D01*
X026871Y034646D01*
X026913Y034655D01*
X026956Y034661D01*
X027000Y034663D01*
X026956Y034665D01*
X026913Y034671D01*
X026871Y034680D01*
X026829Y034693D01*
X026789Y034710D01*
X026750Y034730D01*
X026713Y034753D01*
X026679Y034780D01*
X026646Y034809D01*
X026617Y034842D01*
X026590Y034876D01*
X026567Y034913D01*
X026547Y034952D01*
X026530Y034992D01*
X026517Y035034D01*
X026508Y035076D01*
X026502Y035119D01*
X026500Y035163D01*
X026502Y035207D01*
X026508Y035250D01*
X026517Y035292D01*
X026530Y035334D01*
X026547Y035374D01*
X026567Y035413D01*
X026590Y035450D01*
X026617Y035484D01*
X026646Y035517D01*
X026679Y035546D01*
X026713Y035573D01*
X026750Y035596D01*
X026789Y035616D01*
X026829Y035633D01*
X026871Y035646D01*
X026913Y035655D01*
X026956Y035661D01*
X027000Y035663D01*
X028000Y035663D01*
X032750Y039783D02*
X033000Y039783D01*
X033250Y039783D01*
X033250Y040033D02*
X033000Y040033D01*
X032750Y040033D01*
X034500Y040033D02*
X034750Y040033D01*
X035000Y040033D01*
X035000Y039783D02*
X034750Y039783D01*
X034500Y039783D01*
X014250Y016033D02*
X014000Y016033D01*
X013750Y016033D01*
X013750Y015783D02*
X014000Y015783D01*
X014250Y015783D01*
X009130Y028163D02*
X009130Y028413D01*
X009130Y028663D01*
X008880Y028663D02*
X008880Y028413D01*
X008880Y028163D01*
D15*
X008880Y028413D02*
X008400Y028413D01*
X009130Y028413D02*
X009600Y028413D01*
X010350Y028913D02*
X010367Y028911D01*
X010384Y028907D01*
X010400Y028900D01*
X010414Y028890D01*
X010427Y028877D01*
X010437Y028863D01*
X010444Y028847D01*
X010448Y028830D01*
X010450Y028813D01*
X010450Y028013D01*
X010448Y027996D01*
X010444Y027979D01*
X010437Y027963D01*
X010427Y027949D01*
X010414Y027936D01*
X010400Y027926D01*
X010384Y027919D01*
X010367Y027915D01*
X010350Y027913D01*
X007650Y027913D01*
X007633Y027915D01*
X007616Y027919D01*
X007600Y027926D01*
X007586Y027936D01*
X007573Y027949D01*
X007563Y027963D01*
X007556Y027979D01*
X007552Y027996D01*
X007550Y028013D01*
X007550Y028813D01*
X007552Y028830D01*
X007556Y028847D01*
X007563Y028863D01*
X007573Y028877D01*
X007586Y028890D01*
X007600Y028900D01*
X007616Y028907D01*
X007633Y028911D01*
X007650Y028913D01*
X010350Y028913D01*
X010550Y030113D02*
X010000Y030113D01*
X009500Y030113D01*
X008950Y030113D01*
X008933Y030115D01*
X008916Y030119D01*
X008900Y030126D01*
X008886Y030136D01*
X008873Y030149D01*
X008863Y030163D01*
X008856Y030179D01*
X008852Y030196D01*
X008850Y030213D01*
X008850Y030563D01*
X008900Y030613D01*
X008900Y034713D01*
X008850Y034763D01*
X008850Y035113D01*
X008852Y035130D01*
X008856Y035147D01*
X008863Y035163D01*
X008873Y035177D01*
X008886Y035190D01*
X008900Y035200D01*
X008916Y035207D01*
X008933Y035211D01*
X008950Y035213D01*
X009500Y035213D01*
X010000Y035213D01*
X010550Y035213D01*
X010567Y035211D01*
X010584Y035207D01*
X010600Y035200D01*
X010614Y035190D01*
X010627Y035177D01*
X010637Y035163D01*
X010644Y035147D01*
X010648Y035130D01*
X010650Y035113D01*
X010650Y034763D01*
X010600Y034713D01*
X010600Y030613D01*
X010650Y030563D01*
X010650Y030213D01*
X010648Y030196D01*
X010644Y030179D01*
X010637Y030163D01*
X010627Y030149D01*
X010614Y030136D01*
X010600Y030126D01*
X010584Y030119D01*
X010567Y030115D01*
X010550Y030113D01*
X012200Y029913D02*
X012200Y029363D01*
X012202Y029346D01*
X012206Y029329D01*
X012213Y029313D01*
X012223Y029299D01*
X012236Y029286D01*
X012250Y029276D01*
X012266Y029269D01*
X012283Y029265D01*
X012300Y029263D01*
X012650Y029263D01*
X012700Y029313D01*
X016800Y029313D01*
X016850Y029263D01*
X017200Y029263D01*
X017217Y029265D01*
X017234Y029269D01*
X017250Y029276D01*
X017264Y029286D01*
X017277Y029299D01*
X017287Y029313D01*
X017294Y029329D01*
X017298Y029346D01*
X017300Y029363D01*
X017300Y029913D01*
X017300Y030413D01*
X017300Y030963D01*
X017298Y030980D01*
X017294Y030997D01*
X017287Y031013D01*
X017277Y031027D01*
X017264Y031040D01*
X017250Y031050D01*
X017234Y031057D01*
X017217Y031061D01*
X017200Y031063D01*
X016850Y031063D01*
X016800Y031013D01*
X012700Y031013D01*
X012650Y031063D01*
X012300Y031063D01*
X012283Y031061D01*
X012266Y031057D01*
X012250Y031050D01*
X012236Y031040D01*
X012223Y031027D01*
X012213Y031013D01*
X012206Y030997D01*
X012202Y030980D01*
X012200Y030963D01*
X012200Y030413D01*
X012200Y029913D01*
X012400Y032263D02*
X012700Y032263D01*
X016100Y032263D01*
X016100Y034563D01*
X012700Y034563D01*
X012700Y032263D01*
X012400Y032263D02*
X012400Y034563D01*
X012700Y034563D01*
X012750Y034713D02*
X012750Y033113D01*
X013750Y033113D01*
X013750Y034713D01*
X012750Y034713D01*
X013000Y034313D02*
X013250Y033913D01*
X013500Y033913D01*
X013250Y033913D02*
X013250Y033663D01*
X013250Y033913D02*
X013000Y033913D01*
X013250Y033913D02*
X013250Y034513D01*
X013260Y034363D02*
X013258Y034384D01*
X013253Y034405D01*
X013244Y034425D01*
X013233Y034443D01*
X013218Y034459D01*
X013201Y034472D01*
X013182Y034482D01*
X013162Y034489D01*
X013141Y034493D01*
X013119Y034493D01*
X013098Y034489D01*
X013078Y034482D01*
X013059Y034472D01*
X013042Y034459D01*
X013027Y034443D01*
X013016Y034425D01*
X013007Y034405D01*
X013002Y034384D01*
X013000Y034363D01*
X013000Y034313D02*
X013500Y034313D01*
X013250Y033913D01*
X013260Y034363D02*
X013262Y034342D01*
X013267Y034321D01*
X013276Y034301D01*
X013287Y034283D01*
X013302Y034267D01*
X013319Y034254D01*
X013338Y034244D01*
X013358Y034237D01*
X013379Y034233D01*
X013401Y034233D01*
X013422Y034237D01*
X013442Y034244D01*
X013461Y034254D01*
X013478Y034267D01*
X013493Y034283D01*
X013504Y034301D01*
X013513Y034321D01*
X013518Y034342D01*
X013520Y034363D01*
X014750Y034713D02*
X015750Y034713D01*
X015750Y033113D01*
X014750Y033113D01*
X014750Y034713D01*
X015000Y034363D02*
X015002Y034384D01*
X015007Y034405D01*
X015016Y034425D01*
X015027Y034443D01*
X015042Y034459D01*
X015059Y034472D01*
X015078Y034482D01*
X015098Y034489D01*
X015119Y034493D01*
X015141Y034493D01*
X015162Y034489D01*
X015182Y034482D01*
X015201Y034472D01*
X015218Y034459D01*
X015233Y034443D01*
X015244Y034425D01*
X015253Y034405D01*
X015258Y034384D01*
X015260Y034363D01*
X015262Y034342D01*
X015267Y034321D01*
X015276Y034301D01*
X015287Y034283D01*
X015302Y034267D01*
X015319Y034254D01*
X015338Y034244D01*
X015358Y034237D01*
X015379Y034233D01*
X015401Y034233D01*
X015422Y034237D01*
X015442Y034244D01*
X015461Y034254D01*
X015478Y034267D01*
X015493Y034283D01*
X015504Y034301D01*
X015513Y034321D01*
X015518Y034342D01*
X015520Y034363D01*
X015250Y034163D02*
X015250Y033913D01*
X015000Y033913D01*
X015250Y033913D02*
X015000Y033513D01*
X015500Y033513D01*
X015250Y033913D01*
X015500Y033913D01*
X015250Y033913D02*
X015250Y033313D01*
X015050Y032613D02*
X015450Y032613D01*
X016750Y033113D02*
X017750Y033113D01*
X017750Y034713D01*
X016750Y034713D01*
X016750Y033113D01*
X017000Y033513D02*
X017250Y033913D01*
X017000Y033913D01*
X017250Y033913D02*
X017500Y033913D01*
X017250Y033913D02*
X017250Y033313D01*
X017500Y033513D02*
X017000Y033513D01*
X017250Y033913D02*
X017500Y033513D01*
X017250Y033913D02*
X017250Y034163D01*
X019750Y035313D02*
X019750Y031263D01*
X018350Y030113D02*
X018324Y030115D01*
X018298Y030120D01*
X018273Y030128D01*
X018250Y030140D01*
X018228Y030154D01*
X018209Y030172D01*
X018191Y030191D01*
X018177Y030213D01*
X018165Y030236D01*
X018157Y030261D01*
X018152Y030287D01*
X018150Y030313D01*
X018150Y037013D01*
X018152Y037039D01*
X018157Y037065D01*
X018165Y037090D01*
X018177Y037113D01*
X018191Y037135D01*
X018209Y037154D01*
X018228Y037172D01*
X018250Y037186D01*
X018273Y037198D01*
X018298Y037206D01*
X018324Y037211D01*
X018350Y037213D01*
X021150Y037213D01*
X021176Y037211D01*
X021202Y037206D01*
X021227Y037198D01*
X021250Y037186D01*
X021272Y037172D01*
X021291Y037154D01*
X021309Y037135D01*
X021323Y037113D01*
X021335Y037090D01*
X021343Y037065D01*
X021348Y037039D01*
X021350Y037013D01*
X021350Y030313D01*
X021348Y030287D01*
X021343Y030261D01*
X021335Y030236D01*
X021323Y030213D01*
X021309Y030191D01*
X021291Y030172D01*
X021272Y030154D01*
X021250Y030140D01*
X021227Y030128D01*
X021202Y030120D01*
X021176Y030115D01*
X021150Y030113D01*
X018350Y030113D01*
X016850Y028513D02*
X016850Y027813D01*
X015650Y027813D01*
X015650Y028513D01*
X016850Y028513D01*
X016450Y028163D02*
X016300Y028163D01*
X016300Y027963D01*
X016200Y027963D01*
X016300Y028163D02*
X015750Y028163D01*
X015900Y028363D02*
X016300Y028163D01*
X016300Y028363D01*
X016300Y028163D02*
X015900Y027963D01*
X015900Y028363D01*
X017350Y027163D02*
X017350Y026163D01*
X017550Y026163D01*
X017550Y026663D01*
X017550Y027163D01*
X017350Y027163D01*
X016150Y026663D02*
X016152Y026729D01*
X016158Y026794D01*
X016168Y026859D01*
X016181Y026924D01*
X016199Y026987D01*
X016220Y027050D01*
X016245Y027110D01*
X016274Y027170D01*
X016306Y027227D01*
X016341Y027283D01*
X016380Y027336D01*
X016422Y027387D01*
X016466Y027435D01*
X016514Y027480D01*
X016564Y027523D01*
X016617Y027562D01*
X016672Y027599D01*
X016729Y027632D01*
X016788Y027661D01*
X016848Y027687D01*
X016910Y027709D01*
X016973Y027728D01*
X017037Y027742D01*
X017102Y027753D01*
X017168Y027760D01*
X017234Y027763D01*
X017299Y027762D01*
X017365Y027757D01*
X017430Y027748D01*
X017495Y027735D01*
X017558Y027719D01*
X017621Y027699D01*
X017682Y027674D01*
X017742Y027647D01*
X017800Y027616D01*
X017856Y027581D01*
X017910Y027543D01*
X017961Y027502D01*
X018010Y027458D01*
X018056Y027411D01*
X018100Y027362D01*
X018140Y027310D01*
X018177Y027255D01*
X018211Y027199D01*
X018241Y027140D01*
X018268Y027080D01*
X018291Y027019D01*
X018310Y026956D01*
X018326Y026892D01*
X018338Y026827D01*
X018346Y026762D01*
X018350Y026696D01*
X018350Y026630D01*
X018346Y026564D01*
X018338Y026499D01*
X018326Y026434D01*
X018310Y026370D01*
X018291Y026307D01*
X018268Y026246D01*
X018241Y026186D01*
X018211Y026127D01*
X018177Y026071D01*
X018140Y026016D01*
X018100Y025964D01*
X018056Y025915D01*
X018010Y025868D01*
X017961Y025824D01*
X017910Y025783D01*
X017856Y025745D01*
X017800Y025710D01*
X017742Y025679D01*
X017682Y025652D01*
X017621Y025627D01*
X017558Y025607D01*
X017495Y025591D01*
X017430Y025578D01*
X017365Y025569D01*
X017299Y025564D01*
X017234Y025563D01*
X017168Y025566D01*
X017102Y025573D01*
X017037Y025584D01*
X016973Y025598D01*
X016910Y025617D01*
X016848Y025639D01*
X016788Y025665D01*
X016729Y025694D01*
X016672Y025727D01*
X016617Y025764D01*
X016564Y025803D01*
X016514Y025846D01*
X016466Y025891D01*
X016422Y025939D01*
X016380Y025990D01*
X016341Y026043D01*
X016306Y026099D01*
X016274Y026156D01*
X016245Y026216D01*
X016220Y026276D01*
X016199Y026339D01*
X016181Y026402D01*
X016168Y026467D01*
X016158Y026532D01*
X016152Y026597D01*
X016150Y026663D01*
X016600Y026663D02*
X017000Y026663D01*
X017550Y026663D02*
X017900Y026663D01*
X017900Y026313D02*
X017900Y026163D01*
X017900Y026013D01*
X017900Y026163D02*
X017750Y026163D01*
X017900Y026163D02*
X018050Y026163D01*
X021050Y025063D02*
X021050Y024263D01*
X021052Y024246D01*
X021056Y024229D01*
X021063Y024213D01*
X021073Y024199D01*
X021086Y024186D01*
X021100Y024176D01*
X021116Y024169D01*
X021133Y024165D01*
X021150Y024163D01*
X023850Y024163D01*
X023867Y024165D01*
X023884Y024169D01*
X023900Y024176D01*
X023914Y024186D01*
X023927Y024199D01*
X023937Y024213D01*
X023944Y024229D01*
X023948Y024246D01*
X023950Y024263D01*
X023950Y025063D01*
X023948Y025080D01*
X023944Y025097D01*
X023937Y025113D01*
X023927Y025127D01*
X023914Y025140D01*
X023900Y025150D01*
X023884Y025157D01*
X023867Y025161D01*
X023850Y025163D01*
X021150Y025163D01*
X021133Y025161D01*
X021116Y025157D01*
X021100Y025150D01*
X021086Y025140D01*
X021073Y025127D01*
X021063Y025113D01*
X021056Y025097D01*
X021052Y025080D01*
X021050Y025063D01*
X021900Y024663D02*
X022370Y024663D01*
X022620Y024663D02*
X023100Y024663D01*
X023650Y023663D02*
X021350Y023663D01*
X021350Y019663D01*
X022100Y019663D01*
X022102Y019702D01*
X022108Y019741D01*
X022117Y019779D01*
X022130Y019816D01*
X022147Y019852D01*
X022167Y019885D01*
X022191Y019917D01*
X022217Y019946D01*
X022246Y019972D01*
X022278Y019996D01*
X022311Y020016D01*
X022347Y020033D01*
X022384Y020046D01*
X022422Y020055D01*
X022461Y020061D01*
X022500Y020063D01*
X022539Y020061D01*
X022578Y020055D01*
X022616Y020046D01*
X022653Y020033D01*
X022689Y020016D01*
X022722Y019996D01*
X022754Y019972D01*
X022783Y019946D01*
X022809Y019917D01*
X022833Y019885D01*
X022853Y019852D01*
X022870Y019816D01*
X022883Y019779D01*
X022892Y019741D01*
X022898Y019702D01*
X022900Y019663D01*
X023650Y019663D01*
X023650Y023663D01*
X025050Y022563D02*
X025050Y021763D01*
X025052Y021746D01*
X025056Y021729D01*
X025063Y021713D01*
X025073Y021699D01*
X025086Y021686D01*
X025100Y021676D01*
X025116Y021669D01*
X025133Y021665D01*
X025150Y021663D01*
X027850Y021663D01*
X027867Y021665D01*
X027884Y021669D01*
X027900Y021676D01*
X027914Y021686D01*
X027927Y021699D01*
X027937Y021713D01*
X027944Y021729D01*
X027948Y021746D01*
X027950Y021763D01*
X027950Y022563D01*
X027948Y022580D01*
X027944Y022597D01*
X027937Y022613D01*
X027927Y022627D01*
X027914Y022640D01*
X027900Y022650D01*
X027884Y022657D01*
X027867Y022661D01*
X027850Y022663D01*
X025150Y022663D01*
X025133Y022661D01*
X025116Y022657D01*
X025100Y022650D01*
X025086Y022640D01*
X025073Y022627D01*
X025063Y022613D01*
X025056Y022597D01*
X025052Y022580D01*
X025050Y022563D01*
X025900Y022163D02*
X026380Y022163D01*
X026630Y022163D02*
X027100Y022163D01*
X027850Y020663D02*
X025150Y020663D01*
X025133Y020661D01*
X025116Y020657D01*
X025100Y020650D01*
X025086Y020640D01*
X025073Y020627D01*
X025063Y020613D01*
X025056Y020597D01*
X025052Y020580D01*
X025050Y020563D01*
X025050Y019763D01*
X025052Y019746D01*
X025056Y019729D01*
X025063Y019713D01*
X025073Y019699D01*
X025086Y019686D01*
X025100Y019676D01*
X025116Y019669D01*
X025133Y019665D01*
X025150Y019663D01*
X027850Y019663D01*
X027867Y019665D01*
X027884Y019669D01*
X027900Y019676D01*
X027914Y019686D01*
X027927Y019699D01*
X027937Y019713D01*
X027944Y019729D01*
X027948Y019746D01*
X027950Y019763D01*
X027950Y020563D01*
X027948Y020580D01*
X027944Y020597D01*
X027937Y020613D01*
X027927Y020627D01*
X027914Y020640D01*
X027900Y020650D01*
X027884Y020657D01*
X027867Y020661D01*
X027850Y020663D01*
X027100Y020163D02*
X026630Y020163D01*
X026380Y020163D02*
X025900Y020163D01*
X025250Y018063D02*
X025250Y015763D01*
X023250Y015763D01*
X023250Y016513D01*
X023289Y016515D01*
X023328Y016521D01*
X023366Y016530D01*
X023403Y016543D01*
X023439Y016560D01*
X023472Y016580D01*
X023504Y016604D01*
X023533Y016630D01*
X023559Y016659D01*
X023583Y016691D01*
X023603Y016724D01*
X023620Y016760D01*
X023633Y016797D01*
X023642Y016835D01*
X023648Y016874D01*
X023650Y016913D01*
X023648Y016952D01*
X023642Y016991D01*
X023633Y017029D01*
X023620Y017066D01*
X023603Y017102D01*
X023583Y017135D01*
X023559Y017167D01*
X023533Y017196D01*
X023504Y017222D01*
X023472Y017246D01*
X023439Y017266D01*
X023403Y017283D01*
X023366Y017296D01*
X023328Y017305D01*
X023289Y017311D01*
X023250Y017313D01*
X023250Y018063D01*
X025250Y018063D01*
X026425Y015063D02*
X028075Y015063D01*
X028137Y014513D02*
X028295Y014513D01*
X027560Y013410D02*
X027499Y013393D01*
X027438Y013380D01*
X027375Y013371D01*
X027313Y013365D01*
X027250Y013363D01*
X027187Y013365D01*
X027125Y013371D01*
X027062Y013380D01*
X027001Y013393D01*
X026940Y013410D01*
X026880Y013430D01*
X026821Y013454D01*
X026764Y013482D01*
X026709Y013513D01*
X026655Y013548D01*
X026604Y013585D01*
X026555Y013626D01*
X026509Y013670D01*
X026465Y013716D01*
X026424Y013765D01*
X026386Y013816D01*
X026352Y013869D01*
X026320Y013925D01*
X026293Y013982D01*
X026268Y014041D01*
X026248Y014101D01*
X026230Y014162D01*
X026217Y014224D01*
X026208Y014287D01*
X026202Y014350D01*
X026200Y014414D01*
X026202Y014478D01*
X026208Y014541D01*
X026217Y014604D01*
X026231Y014666D01*
X026248Y014727D01*
X026269Y014787D01*
X026293Y014846D01*
X026321Y014903D01*
X026353Y014959D01*
X026388Y015012D01*
X026425Y015063D01*
X026363Y014513D02*
X026205Y014513D01*
X027560Y013410D02*
X027620Y013430D01*
X027679Y013454D01*
X027736Y013482D01*
X027791Y013513D01*
X027845Y013548D01*
X027896Y013585D01*
X027945Y013626D01*
X027991Y013670D01*
X028035Y013716D01*
X028076Y013765D01*
X028114Y013816D01*
X028148Y013869D01*
X028179Y013925D01*
X028207Y013982D01*
X028232Y014041D01*
X028252Y014101D01*
X028270Y014162D01*
X028283Y014224D01*
X028292Y014287D01*
X028298Y014350D01*
X028300Y014414D01*
X028298Y014478D01*
X028292Y014541D01*
X028283Y014604D01*
X028269Y014666D01*
X028252Y014727D01*
X028231Y014787D01*
X028207Y014846D01*
X028179Y014903D01*
X028147Y014959D01*
X028112Y015012D01*
X028075Y015063D01*
X029350Y016463D02*
X030150Y016463D01*
X030167Y016465D01*
X030184Y016469D01*
X030200Y016476D01*
X030214Y016486D01*
X030227Y016499D01*
X030237Y016513D01*
X030244Y016529D01*
X030248Y016546D01*
X030250Y016563D01*
X030250Y019263D01*
X030248Y019280D01*
X030244Y019297D01*
X030237Y019313D01*
X030227Y019327D01*
X030214Y019340D01*
X030200Y019350D01*
X030184Y019357D01*
X030167Y019361D01*
X030150Y019363D01*
X029350Y019363D01*
X029333Y019361D01*
X029316Y019357D01*
X029300Y019350D01*
X029286Y019340D01*
X029273Y019327D01*
X029263Y019313D01*
X029256Y019297D01*
X029252Y019280D01*
X029250Y019263D01*
X029250Y016563D01*
X029252Y016546D01*
X029256Y016529D01*
X029263Y016513D01*
X029273Y016499D01*
X029286Y016486D01*
X029300Y016476D01*
X029316Y016469D01*
X029333Y016465D01*
X029350Y016463D01*
X029750Y017313D02*
X029750Y017793D01*
X029750Y018043D02*
X029750Y018513D01*
X034750Y019563D02*
X034750Y020263D01*
X034752Y020280D01*
X034756Y020297D01*
X034763Y020313D01*
X034773Y020327D01*
X034786Y020340D01*
X034800Y020350D01*
X034816Y020357D01*
X034833Y020361D01*
X034850Y020363D01*
X035000Y020363D01*
X035050Y020313D01*
X036950Y020313D01*
X037000Y020363D01*
X037150Y020363D01*
X037167Y020361D01*
X037184Y020357D01*
X037200Y020350D01*
X037214Y020340D01*
X037227Y020327D01*
X037237Y020313D01*
X037244Y020297D01*
X037248Y020280D01*
X037250Y020263D01*
X037250Y019563D01*
X037248Y019546D01*
X037244Y019529D01*
X037237Y019513D01*
X037227Y019499D01*
X037214Y019486D01*
X037200Y019476D01*
X037184Y019469D01*
X037167Y019465D01*
X037150Y019463D01*
X037000Y019463D01*
X036950Y019513D01*
X035050Y019513D01*
X035000Y019463D01*
X034850Y019463D01*
X034833Y019465D01*
X034816Y019469D01*
X034800Y019476D01*
X034786Y019486D01*
X034773Y019499D01*
X034763Y019513D01*
X034756Y019529D01*
X034752Y019546D01*
X034750Y019563D01*
X035600Y016863D02*
X035600Y015963D01*
X035850Y015963D01*
X035850Y016413D01*
X035850Y016863D01*
X035600Y016863D01*
X033500Y016413D02*
X033502Y016511D01*
X033510Y016609D01*
X033522Y016706D01*
X033538Y016803D01*
X033560Y016899D01*
X033586Y016994D01*
X033617Y017087D01*
X033652Y017178D01*
X033692Y017268D01*
X033736Y017356D01*
X033785Y017441D01*
X033837Y017524D01*
X033894Y017604D01*
X033954Y017682D01*
X034018Y017756D01*
X034086Y017827D01*
X034157Y017895D01*
X034231Y017959D01*
X034309Y018019D01*
X034389Y018076D01*
X034472Y018128D01*
X034557Y018177D01*
X034645Y018221D01*
X034735Y018261D01*
X034826Y018296D01*
X034919Y018327D01*
X035014Y018353D01*
X035110Y018375D01*
X035207Y018391D01*
X035304Y018403D01*
X035402Y018411D01*
X035500Y018413D01*
X035598Y018411D01*
X035696Y018403D01*
X035793Y018391D01*
X035890Y018375D01*
X035986Y018353D01*
X036081Y018327D01*
X036174Y018296D01*
X036265Y018261D01*
X036355Y018221D01*
X036443Y018177D01*
X036528Y018128D01*
X036611Y018076D01*
X036691Y018019D01*
X036769Y017959D01*
X036843Y017895D01*
X036914Y017827D01*
X036982Y017756D01*
X037046Y017682D01*
X037106Y017604D01*
X037163Y017524D01*
X037215Y017441D01*
X037264Y017356D01*
X037308Y017268D01*
X037348Y017178D01*
X037383Y017087D01*
X037414Y016994D01*
X037440Y016899D01*
X037462Y016803D01*
X037478Y016706D01*
X037490Y016609D01*
X037498Y016511D01*
X037500Y016413D01*
X037498Y016315D01*
X037490Y016217D01*
X037478Y016120D01*
X037462Y016023D01*
X037440Y015927D01*
X037414Y015832D01*
X037383Y015739D01*
X037348Y015648D01*
X037308Y015558D01*
X037264Y015470D01*
X037215Y015385D01*
X037163Y015302D01*
X037106Y015222D01*
X037046Y015144D01*
X036982Y015070D01*
X036914Y014999D01*
X036843Y014931D01*
X036769Y014867D01*
X036691Y014807D01*
X036611Y014750D01*
X036528Y014698D01*
X036443Y014649D01*
X036355Y014605D01*
X036265Y014565D01*
X036174Y014530D01*
X036081Y014499D01*
X035986Y014473D01*
X035890Y014451D01*
X035793Y014435D01*
X035696Y014423D01*
X035598Y014415D01*
X035500Y014413D01*
X035402Y014415D01*
X035304Y014423D01*
X035207Y014435D01*
X035110Y014451D01*
X035014Y014473D01*
X034919Y014499D01*
X034826Y014530D01*
X034735Y014565D01*
X034645Y014605D01*
X034557Y014649D01*
X034472Y014698D01*
X034389Y014750D01*
X034309Y014807D01*
X034231Y014867D01*
X034157Y014931D01*
X034086Y014999D01*
X034018Y015070D01*
X033954Y015144D01*
X033894Y015222D01*
X033837Y015302D01*
X033785Y015385D01*
X033736Y015470D01*
X033692Y015558D01*
X033652Y015648D01*
X033617Y015739D01*
X033586Y015832D01*
X033560Y015927D01*
X033538Y016023D01*
X033522Y016120D01*
X033510Y016217D01*
X033502Y016315D01*
X033500Y016413D01*
X034850Y016413D02*
X035050Y016413D01*
X035250Y016413D01*
X035850Y016413D02*
X035950Y016413D01*
X036150Y016413D01*
X036850Y015913D02*
X037150Y015913D01*
X037000Y015763D02*
X037000Y016063D01*
X039793Y019962D02*
X040707Y019962D01*
X040724Y019964D01*
X040741Y019968D01*
X040757Y019975D01*
X040771Y019985D01*
X040784Y019998D01*
X040794Y020012D01*
X040801Y020028D01*
X040805Y020045D01*
X040807Y020062D01*
X040807Y020212D01*
X040757Y020262D01*
X040757Y021564D01*
X040807Y021614D01*
X040807Y021764D01*
X040805Y021781D01*
X040801Y021798D01*
X040794Y021814D01*
X040784Y021828D01*
X040771Y021841D01*
X040757Y021851D01*
X040741Y021858D01*
X040724Y021862D01*
X040707Y021864D01*
X039793Y021864D01*
X039776Y021862D01*
X039759Y021858D01*
X039743Y021851D01*
X039729Y021841D01*
X039716Y021828D01*
X039706Y021814D01*
X039699Y021798D01*
X039695Y021781D01*
X039693Y021764D01*
X039693Y021614D01*
X039743Y021564D01*
X039743Y020262D01*
X039693Y020212D01*
X039693Y020062D01*
X039695Y020045D01*
X039699Y020028D01*
X039706Y020012D01*
X039716Y019998D01*
X039729Y019985D01*
X039743Y019975D01*
X039759Y019968D01*
X039776Y019964D01*
X039793Y019962D01*
X038300Y021613D02*
X038300Y021913D01*
X038450Y021763D02*
X038150Y021763D01*
X037650Y022413D02*
X037450Y022413D01*
X037350Y022413D01*
X037350Y021963D01*
X037100Y021963D01*
X037100Y022863D01*
X037350Y022863D01*
X037350Y022413D01*
X035250Y022413D02*
X035252Y022499D01*
X035258Y022585D01*
X035269Y022670D01*
X035284Y022754D01*
X035302Y022838D01*
X035325Y022921D01*
X035352Y023003D01*
X035383Y023083D01*
X035418Y023161D01*
X035457Y023238D01*
X035499Y023313D01*
X035545Y023385D01*
X035594Y023455D01*
X035647Y023523D01*
X035703Y023588D01*
X035763Y023650D01*
X035825Y023710D01*
X035890Y023766D01*
X035958Y023819D01*
X036028Y023868D01*
X036100Y023914D01*
X036175Y023956D01*
X036252Y023995D01*
X036330Y024030D01*
X036410Y024061D01*
X036492Y024088D01*
X036575Y024111D01*
X036659Y024129D01*
X036743Y024144D01*
X036828Y024155D01*
X036914Y024161D01*
X037000Y024163D01*
X037086Y024161D01*
X037172Y024155D01*
X037257Y024144D01*
X037341Y024129D01*
X037425Y024111D01*
X037508Y024088D01*
X037590Y024061D01*
X037670Y024030D01*
X037748Y023995D01*
X037825Y023956D01*
X037900Y023914D01*
X037972Y023868D01*
X038042Y023819D01*
X038110Y023766D01*
X038175Y023710D01*
X038237Y023650D01*
X038297Y023588D01*
X038353Y023523D01*
X038406Y023455D01*
X038455Y023385D01*
X038501Y023313D01*
X038543Y023238D01*
X038582Y023161D01*
X038617Y023083D01*
X038648Y023003D01*
X038675Y022921D01*
X038698Y022838D01*
X038716Y022754D01*
X038731Y022670D01*
X038742Y022585D01*
X038748Y022499D01*
X038750Y022413D01*
X038748Y022327D01*
X038742Y022241D01*
X038731Y022156D01*
X038716Y022072D01*
X038698Y021988D01*
X038675Y021905D01*
X038648Y021823D01*
X038617Y021743D01*
X038582Y021665D01*
X038543Y021588D01*
X038501Y021513D01*
X038455Y021441D01*
X038406Y021371D01*
X038353Y021303D01*
X038297Y021238D01*
X038237Y021176D01*
X038175Y021116D01*
X038110Y021060D01*
X038042Y021007D01*
X037972Y020958D01*
X037900Y020912D01*
X037825Y020870D01*
X037748Y020831D01*
X037670Y020796D01*
X037590Y020765D01*
X037508Y020738D01*
X037425Y020715D01*
X037341Y020697D01*
X037257Y020682D01*
X037172Y020671D01*
X037086Y020665D01*
X037000Y020663D01*
X036914Y020665D01*
X036828Y020671D01*
X036743Y020682D01*
X036659Y020697D01*
X036575Y020715D01*
X036492Y020738D01*
X036410Y020765D01*
X036330Y020796D01*
X036252Y020831D01*
X036175Y020870D01*
X036100Y020912D01*
X036028Y020958D01*
X035958Y021007D01*
X035890Y021060D01*
X035825Y021116D01*
X035763Y021176D01*
X035703Y021238D01*
X035647Y021303D01*
X035594Y021371D01*
X035545Y021441D01*
X035499Y021513D01*
X035457Y021588D01*
X035418Y021665D01*
X035383Y021743D01*
X035352Y021823D01*
X035325Y021905D01*
X035302Y021988D01*
X035284Y022072D01*
X035269Y022156D01*
X035258Y022241D01*
X035252Y022327D01*
X035250Y022413D01*
X036350Y022413D02*
X036550Y022413D01*
X036750Y022413D01*
X034750Y024913D02*
X034750Y025413D01*
X035000Y025163D02*
X034500Y025163D01*
X033400Y025163D02*
X033200Y025163D01*
X033100Y025163D01*
X033100Y024663D01*
X032850Y024663D01*
X032850Y025663D01*
X033100Y025663D01*
X033100Y025163D01*
X030000Y025163D02*
X030003Y025298D01*
X030013Y025433D01*
X030030Y025567D01*
X030053Y025699D01*
X030082Y025831D01*
X030118Y025961D01*
X030161Y026089D01*
X030209Y026215D01*
X030264Y026339D01*
X030325Y026459D01*
X030391Y026577D01*
X030463Y026691D01*
X030541Y026801D01*
X030624Y026908D01*
X030712Y027010D01*
X030805Y027108D01*
X030903Y027201D01*
X031005Y027289D01*
X031112Y027372D01*
X031222Y027450D01*
X031336Y027522D01*
X031454Y027588D01*
X031574Y027649D01*
X031698Y027704D01*
X031824Y027752D01*
X031952Y027795D01*
X032082Y027831D01*
X032214Y027860D01*
X032346Y027883D01*
X032480Y027900D01*
X032615Y027910D01*
X032750Y027913D01*
X032885Y027910D01*
X033020Y027900D01*
X033154Y027883D01*
X033286Y027860D01*
X033418Y027831D01*
X033548Y027795D01*
X033676Y027752D01*
X033802Y027704D01*
X033926Y027649D01*
X034046Y027588D01*
X034164Y027522D01*
X034278Y027450D01*
X034388Y027372D01*
X034495Y027289D01*
X034597Y027201D01*
X034695Y027108D01*
X034788Y027010D01*
X034876Y026908D01*
X034959Y026801D01*
X035037Y026691D01*
X035109Y026577D01*
X035175Y026459D01*
X035236Y026339D01*
X035291Y026215D01*
X035339Y026089D01*
X035382Y025961D01*
X035418Y025831D01*
X035447Y025699D01*
X035470Y025567D01*
X035487Y025433D01*
X035497Y025298D01*
X035500Y025163D01*
X035497Y025028D01*
X035487Y024893D01*
X035470Y024759D01*
X035447Y024627D01*
X035418Y024495D01*
X035382Y024365D01*
X035339Y024237D01*
X035291Y024111D01*
X035236Y023987D01*
X035175Y023867D01*
X035109Y023749D01*
X035037Y023635D01*
X034959Y023525D01*
X034876Y023418D01*
X034788Y023316D01*
X034695Y023218D01*
X034597Y023125D01*
X034495Y023037D01*
X034388Y022954D01*
X034278Y022876D01*
X034164Y022804D01*
X034046Y022738D01*
X033926Y022677D01*
X033802Y022622D01*
X033676Y022574D01*
X033548Y022531D01*
X033418Y022495D01*
X033286Y022466D01*
X033154Y022443D01*
X033020Y022426D01*
X032885Y022416D01*
X032750Y022413D01*
X032615Y022416D01*
X032480Y022426D01*
X032346Y022443D01*
X032214Y022466D01*
X032082Y022495D01*
X031952Y022531D01*
X031824Y022574D01*
X031698Y022622D01*
X031574Y022677D01*
X031454Y022738D01*
X031336Y022804D01*
X031222Y022876D01*
X031112Y022954D01*
X031005Y023037D01*
X030903Y023125D01*
X030805Y023218D01*
X030712Y023316D01*
X030624Y023418D01*
X030541Y023525D01*
X030463Y023635D01*
X030391Y023749D01*
X030325Y023867D01*
X030264Y023987D01*
X030209Y024111D01*
X030161Y024237D01*
X030118Y024365D01*
X030082Y024495D01*
X030053Y024627D01*
X030030Y024759D01*
X030013Y024893D01*
X030003Y025028D01*
X030000Y025163D01*
X032150Y025163D02*
X032350Y025163D01*
X032300Y025163D02*
X032500Y025163D01*
X034043Y027712D02*
X034957Y027712D01*
X034974Y027714D01*
X034991Y027718D01*
X035007Y027725D01*
X035021Y027735D01*
X035034Y027748D01*
X035044Y027762D01*
X035051Y027778D01*
X035055Y027795D01*
X035057Y027812D01*
X035057Y027962D01*
X035007Y028012D01*
X035007Y029314D01*
X035057Y029364D01*
X035057Y029514D01*
X035055Y029531D01*
X035051Y029548D01*
X035044Y029564D01*
X035034Y029578D01*
X035021Y029591D01*
X035007Y029601D01*
X034991Y029608D01*
X034974Y029612D01*
X034957Y029614D01*
X034043Y029614D01*
X034026Y029612D01*
X034009Y029608D01*
X033993Y029601D01*
X033979Y029591D01*
X033966Y029578D01*
X033956Y029564D01*
X033949Y029548D01*
X033945Y029531D01*
X033943Y029514D01*
X033943Y029364D01*
X033993Y029314D01*
X033993Y028012D01*
X033943Y027962D01*
X033943Y027812D01*
X033945Y027795D01*
X033949Y027778D01*
X033956Y027762D01*
X033966Y027748D01*
X033979Y027735D01*
X033993Y027725D01*
X034009Y027718D01*
X034026Y027714D01*
X034043Y027712D01*
X036250Y027913D02*
X036500Y027663D01*
X037000Y027663D01*
X037250Y027913D01*
X037250Y028413D01*
X037000Y028663D01*
X036500Y028663D01*
X036250Y028413D01*
X036250Y027913D01*
X036500Y026663D02*
X036250Y026413D01*
X036250Y025913D01*
X036500Y025663D01*
X037000Y025663D01*
X037250Y025913D01*
X037250Y026413D01*
X037000Y026663D01*
X036500Y026663D01*
X036500Y029913D02*
X037000Y029913D01*
X037250Y030163D01*
X037250Y030663D01*
X037000Y030913D01*
X036500Y030913D01*
X036250Y030663D01*
X036250Y030163D01*
X036500Y029913D01*
X036300Y031363D02*
X036300Y031663D01*
X036450Y031513D02*
X036150Y031513D01*
X035650Y032163D02*
X035450Y032163D01*
X035350Y032163D01*
X035350Y031713D01*
X035100Y031713D01*
X035100Y032613D01*
X035350Y032613D01*
X035350Y032163D01*
X033250Y032163D02*
X033252Y032249D01*
X033258Y032335D01*
X033269Y032420D01*
X033284Y032504D01*
X033302Y032588D01*
X033325Y032671D01*
X033352Y032753D01*
X033383Y032833D01*
X033418Y032911D01*
X033457Y032988D01*
X033499Y033063D01*
X033545Y033135D01*
X033594Y033205D01*
X033647Y033273D01*
X033703Y033338D01*
X033763Y033400D01*
X033825Y033460D01*
X033890Y033516D01*
X033958Y033569D01*
X034028Y033618D01*
X034100Y033664D01*
X034175Y033706D01*
X034252Y033745D01*
X034330Y033780D01*
X034410Y033811D01*
X034492Y033838D01*
X034575Y033861D01*
X034659Y033879D01*
X034743Y033894D01*
X034828Y033905D01*
X034914Y033911D01*
X035000Y033913D01*
X035086Y033911D01*
X035172Y033905D01*
X035257Y033894D01*
X035341Y033879D01*
X035425Y033861D01*
X035508Y033838D01*
X035590Y033811D01*
X035670Y033780D01*
X035748Y033745D01*
X035825Y033706D01*
X035900Y033664D01*
X035972Y033618D01*
X036042Y033569D01*
X036110Y033516D01*
X036175Y033460D01*
X036237Y033400D01*
X036297Y033338D01*
X036353Y033273D01*
X036406Y033205D01*
X036455Y033135D01*
X036501Y033063D01*
X036543Y032988D01*
X036582Y032911D01*
X036617Y032833D01*
X036648Y032753D01*
X036675Y032671D01*
X036698Y032588D01*
X036716Y032504D01*
X036731Y032420D01*
X036742Y032335D01*
X036748Y032249D01*
X036750Y032163D01*
X036748Y032077D01*
X036742Y031991D01*
X036731Y031906D01*
X036716Y031822D01*
X036698Y031738D01*
X036675Y031655D01*
X036648Y031573D01*
X036617Y031493D01*
X036582Y031415D01*
X036543Y031338D01*
X036501Y031263D01*
X036455Y031191D01*
X036406Y031121D01*
X036353Y031053D01*
X036297Y030988D01*
X036237Y030926D01*
X036175Y030866D01*
X036110Y030810D01*
X036042Y030757D01*
X035972Y030708D01*
X035900Y030662D01*
X035825Y030620D01*
X035748Y030581D01*
X035670Y030546D01*
X035590Y030515D01*
X035508Y030488D01*
X035425Y030465D01*
X035341Y030447D01*
X035257Y030432D01*
X035172Y030421D01*
X035086Y030415D01*
X035000Y030413D01*
X034914Y030415D01*
X034828Y030421D01*
X034743Y030432D01*
X034659Y030447D01*
X034575Y030465D01*
X034492Y030488D01*
X034410Y030515D01*
X034330Y030546D01*
X034252Y030581D01*
X034175Y030620D01*
X034100Y030662D01*
X034028Y030708D01*
X033958Y030757D01*
X033890Y030810D01*
X033825Y030866D01*
X033763Y030926D01*
X033703Y030988D01*
X033647Y031053D01*
X033594Y031121D01*
X033545Y031191D01*
X033499Y031263D01*
X033457Y031338D01*
X033418Y031415D01*
X033383Y031493D01*
X033352Y031573D01*
X033325Y031655D01*
X033302Y031738D01*
X033284Y031822D01*
X033269Y031906D01*
X033258Y031991D01*
X033252Y032077D01*
X033250Y032163D01*
X034350Y032163D02*
X034550Y032163D01*
X034750Y032163D01*
X036250Y033913D02*
X036500Y033663D01*
X037000Y033663D01*
X037250Y033913D01*
X037250Y034413D01*
X037000Y034663D01*
X036500Y034663D01*
X036250Y034413D01*
X036250Y033913D01*
X035800Y035063D02*
X035800Y035163D01*
X035700Y035163D01*
X035800Y035163D02*
X035800Y035263D01*
X035800Y035163D02*
X035900Y035163D01*
X035550Y035163D02*
X035550Y035663D01*
X035550Y036163D01*
X035350Y036163D01*
X035350Y035163D01*
X035550Y035163D01*
X035550Y035663D02*
X035900Y035663D01*
X034250Y035663D02*
X034252Y035726D01*
X034258Y035788D01*
X034268Y035850D01*
X034281Y035912D01*
X034299Y035972D01*
X034320Y036031D01*
X034345Y036089D01*
X034374Y036145D01*
X034406Y036199D01*
X034441Y036251D01*
X034479Y036300D01*
X034521Y036348D01*
X034565Y036392D01*
X034613Y036434D01*
X034662Y036472D01*
X034714Y036507D01*
X034768Y036539D01*
X034824Y036568D01*
X034882Y036593D01*
X034941Y036614D01*
X035001Y036632D01*
X035063Y036645D01*
X035125Y036655D01*
X035187Y036661D01*
X035250Y036663D01*
X035313Y036661D01*
X035375Y036655D01*
X035437Y036645D01*
X035499Y036632D01*
X035559Y036614D01*
X035618Y036593D01*
X035676Y036568D01*
X035732Y036539D01*
X035786Y036507D01*
X035838Y036472D01*
X035887Y036434D01*
X035935Y036392D01*
X035979Y036348D01*
X036021Y036300D01*
X036059Y036251D01*
X036094Y036199D01*
X036126Y036145D01*
X036155Y036089D01*
X036180Y036031D01*
X036201Y035972D01*
X036219Y035912D01*
X036232Y035850D01*
X036242Y035788D01*
X036248Y035726D01*
X036250Y035663D01*
X036248Y035600D01*
X036242Y035538D01*
X036232Y035476D01*
X036219Y035414D01*
X036201Y035354D01*
X036180Y035295D01*
X036155Y035237D01*
X036126Y035181D01*
X036094Y035127D01*
X036059Y035075D01*
X036021Y035026D01*
X035979Y034978D01*
X035935Y034934D01*
X035887Y034892D01*
X035838Y034854D01*
X035786Y034819D01*
X035732Y034787D01*
X035676Y034758D01*
X035618Y034733D01*
X035559Y034712D01*
X035499Y034694D01*
X035437Y034681D01*
X035375Y034671D01*
X035313Y034665D01*
X035250Y034663D01*
X035187Y034665D01*
X035125Y034671D01*
X035063Y034681D01*
X035001Y034694D01*
X034941Y034712D01*
X034882Y034733D01*
X034824Y034758D01*
X034768Y034787D01*
X034714Y034819D01*
X034662Y034854D01*
X034613Y034892D01*
X034565Y034934D01*
X034521Y034978D01*
X034479Y035026D01*
X034441Y035075D01*
X034406Y035127D01*
X034374Y035181D01*
X034345Y035237D01*
X034320Y035295D01*
X034299Y035354D01*
X034281Y035414D01*
X034268Y035476D01*
X034258Y035538D01*
X034252Y035600D01*
X034250Y035663D01*
X034600Y035663D02*
X035000Y035663D01*
X035150Y038463D02*
X034350Y038463D01*
X034333Y038465D01*
X034316Y038469D01*
X034300Y038476D01*
X034286Y038486D01*
X034273Y038499D01*
X034263Y038513D01*
X034256Y038529D01*
X034252Y038546D01*
X034250Y038563D01*
X034250Y041263D01*
X034252Y041280D01*
X034256Y041297D01*
X034263Y041313D01*
X034273Y041327D01*
X034286Y041340D01*
X034300Y041350D01*
X034316Y041357D01*
X034333Y041361D01*
X034350Y041363D01*
X035150Y041363D01*
X035167Y041361D01*
X035184Y041357D01*
X035200Y041350D01*
X035214Y041340D01*
X035227Y041327D01*
X035237Y041313D01*
X035244Y041297D01*
X035248Y041280D01*
X035250Y041263D01*
X035250Y038563D01*
X035248Y038546D01*
X035244Y038529D01*
X035237Y038513D01*
X035227Y038499D01*
X035214Y038486D01*
X035200Y038476D01*
X035184Y038469D01*
X035167Y038465D01*
X035150Y038463D01*
X034750Y039313D02*
X034750Y039783D01*
X034750Y040033D02*
X034750Y040513D01*
X033500Y041263D02*
X033500Y038563D01*
X033498Y038546D01*
X033494Y038529D01*
X033487Y038513D01*
X033477Y038499D01*
X033464Y038486D01*
X033450Y038476D01*
X033434Y038469D01*
X033417Y038465D01*
X033400Y038463D01*
X032600Y038463D01*
X032583Y038465D01*
X032566Y038469D01*
X032550Y038476D01*
X032536Y038486D01*
X032523Y038499D01*
X032513Y038513D01*
X032506Y038529D01*
X032502Y038546D01*
X032500Y038563D01*
X032500Y041263D01*
X032502Y041280D01*
X032506Y041297D01*
X032513Y041313D01*
X032523Y041327D01*
X032536Y041340D01*
X032550Y041350D01*
X032566Y041357D01*
X032583Y041361D01*
X032600Y041363D01*
X033400Y041363D01*
X033417Y041361D01*
X033434Y041357D01*
X033450Y041350D01*
X033464Y041340D01*
X033477Y041327D01*
X033487Y041313D01*
X033494Y041297D01*
X033498Y041280D01*
X033500Y041263D01*
X033000Y040513D02*
X033000Y040033D01*
X033000Y039783D02*
X033000Y039313D01*
X034070Y042663D02*
X034072Y042704D01*
X034078Y042745D01*
X034088Y042785D01*
X034101Y042824D01*
X034118Y042862D01*
X034139Y042898D01*
X034163Y042931D01*
X034190Y042962D01*
X034220Y042991D01*
X034252Y043017D01*
X034287Y043039D01*
X034324Y043058D01*
X034362Y043073D01*
X034402Y043085D01*
X034442Y043093D01*
X034483Y043097D01*
X034525Y043097D01*
X034566Y043093D01*
X034606Y043085D01*
X034646Y043073D01*
X034684Y043058D01*
X034721Y043039D01*
X034756Y043017D01*
X034788Y042991D01*
X034818Y042962D01*
X034845Y042931D01*
X034869Y042898D01*
X034890Y042862D01*
X034907Y042824D01*
X034920Y042785D01*
X034930Y042745D01*
X034936Y042704D01*
X034938Y042663D01*
X034936Y042622D01*
X034930Y042581D01*
X034920Y042541D01*
X034907Y042502D01*
X034890Y042464D01*
X034869Y042428D01*
X034845Y042395D01*
X034818Y042364D01*
X034788Y042335D01*
X034756Y042309D01*
X034721Y042287D01*
X034684Y042268D01*
X034646Y042253D01*
X034606Y042241D01*
X034566Y042233D01*
X034525Y042229D01*
X034483Y042229D01*
X034442Y042233D01*
X034402Y042241D01*
X034362Y042253D01*
X034324Y042268D01*
X034287Y042287D01*
X034252Y042309D01*
X034220Y042335D01*
X034190Y042364D01*
X034163Y042395D01*
X034139Y042428D01*
X034118Y042464D01*
X034101Y042502D01*
X034088Y042541D01*
X034078Y042581D01*
X034072Y042622D01*
X034070Y042663D01*
X028000Y043413D02*
X028000Y043563D01*
X028000Y044263D01*
X028000Y044413D01*
X027998Y044436D01*
X027993Y044459D01*
X027984Y044481D01*
X027971Y044501D01*
X027956Y044519D01*
X027938Y044534D01*
X027918Y044547D01*
X027896Y044556D01*
X027873Y044561D01*
X027850Y044563D01*
X026150Y044563D01*
X026127Y044561D01*
X026104Y044556D01*
X026082Y044547D01*
X026062Y044534D01*
X026044Y044519D01*
X026029Y044501D01*
X026016Y044481D01*
X026007Y044459D01*
X026002Y044436D01*
X026000Y044413D01*
X026000Y044263D01*
X026000Y043563D01*
X026000Y043413D01*
X026002Y043390D01*
X026007Y043367D01*
X026016Y043345D01*
X026029Y043325D01*
X026044Y043307D01*
X026062Y043292D01*
X026082Y043279D01*
X026104Y043270D01*
X026127Y043265D01*
X026150Y043263D01*
X027850Y043263D01*
X027873Y043265D01*
X027896Y043270D01*
X027918Y043279D01*
X027938Y043292D01*
X027956Y043307D01*
X027971Y043325D01*
X027984Y043345D01*
X027993Y043367D01*
X027998Y043390D01*
X028000Y043413D01*
X027600Y042513D02*
X027350Y042513D01*
X027300Y042463D01*
X024700Y042463D01*
X024650Y042513D01*
X024400Y042513D01*
X024383Y042511D01*
X024366Y042507D01*
X024350Y042500D01*
X024336Y042490D01*
X024323Y042477D01*
X024313Y042463D01*
X024306Y042447D01*
X024302Y042430D01*
X024300Y042413D01*
X024300Y041413D01*
X024302Y041396D01*
X024306Y041379D01*
X024313Y041363D01*
X024323Y041349D01*
X024336Y041336D01*
X024350Y041326D01*
X024366Y041319D01*
X024383Y041315D01*
X024400Y041313D01*
X024650Y041313D01*
X024700Y041363D01*
X027300Y041363D01*
X027350Y041313D01*
X027600Y041313D01*
X027617Y041315D01*
X027634Y041319D01*
X027650Y041326D01*
X027664Y041336D01*
X027677Y041349D01*
X027687Y041363D01*
X027694Y041379D01*
X027698Y041396D01*
X027700Y041413D01*
X027700Y042413D01*
X027698Y042430D01*
X027694Y042447D01*
X027687Y042463D01*
X027677Y042477D01*
X027664Y042490D01*
X027650Y042500D01*
X027634Y042507D01*
X027617Y042511D01*
X027600Y042513D01*
X027000Y044913D02*
X027000Y045413D01*
X027000Y045913D01*
X025000Y045913D01*
X025000Y045413D01*
X025000Y044913D01*
X027000Y044913D01*
X027000Y045413D02*
X027200Y045413D01*
X025000Y045413D02*
X024800Y045413D01*
X023167Y044645D02*
X023492Y044082D01*
X023276Y043957D01*
X023226Y044044D01*
X023051Y044347D01*
X021535Y043472D01*
X021760Y043082D01*
X023276Y043957D01*
X023226Y044044D02*
X023356Y044119D01*
X023081Y044595D01*
X022431Y045721D01*
X022281Y045981D01*
X022006Y046457D01*
X021876Y046382D01*
X022051Y046079D01*
X020535Y045204D01*
X020310Y045594D01*
X021826Y046469D01*
X022042Y046594D01*
X022367Y046031D01*
X022517Y045771D01*
X023167Y044645D01*
X022517Y045771D02*
X022431Y045721D01*
X021876Y046382D02*
X021826Y046469D01*
X020819Y044213D02*
X020126Y043813D01*
X017874Y042513D01*
X017181Y042113D01*
X016465Y042854D02*
X016240Y043244D01*
X014724Y042369D01*
X014508Y042244D01*
X014833Y041681D01*
X015483Y040555D01*
X015569Y040605D01*
X014919Y041731D01*
X014644Y042207D01*
X014774Y042282D01*
X014949Y041979D01*
X016465Y042854D01*
X014774Y042282D02*
X014724Y042369D01*
X015569Y040605D02*
X015719Y040345D01*
X015994Y039869D01*
X016124Y039944D01*
X015949Y040247D01*
X017465Y041122D01*
X017690Y040732D01*
X016174Y039857D01*
X015958Y039732D01*
X015633Y040295D01*
X015483Y040555D01*
X016124Y039944D02*
X016174Y039857D01*
X019750Y036063D02*
X019750Y035663D01*
X013450Y032613D02*
X013050Y032613D01*
X013000Y032613D02*
X013002Y032644D01*
X013008Y032675D01*
X013018Y032705D01*
X013031Y032733D01*
X013048Y032760D01*
X013068Y032784D01*
X013091Y032806D01*
X013116Y032824D01*
X013144Y032839D01*
X013173Y032851D01*
X013203Y032859D01*
X013234Y032863D01*
X013266Y032863D01*
X013297Y032859D01*
X013327Y032851D01*
X013356Y032839D01*
X013384Y032824D01*
X013409Y032806D01*
X013432Y032784D01*
X013452Y032760D01*
X013469Y032733D01*
X013482Y032705D01*
X013492Y032675D01*
X013498Y032644D01*
X013500Y032613D01*
X013498Y032582D01*
X013492Y032551D01*
X013482Y032521D01*
X013469Y032493D01*
X013452Y032466D01*
X013432Y032442D01*
X013409Y032420D01*
X013384Y032402D01*
X013356Y032387D01*
X013327Y032375D01*
X013297Y032367D01*
X013266Y032363D01*
X013234Y032363D01*
X013203Y032367D01*
X013173Y032375D01*
X013144Y032387D01*
X013116Y032402D01*
X013091Y032420D01*
X013068Y032442D01*
X013048Y032466D01*
X013031Y032493D01*
X013018Y032521D01*
X013008Y032551D01*
X013002Y032582D01*
X013000Y032613D01*
X013250Y032813D02*
X013250Y032413D01*
X012000Y033113D02*
X011000Y033113D01*
X011000Y034713D01*
X012000Y034713D01*
X012000Y033113D01*
X011500Y033663D02*
X011500Y033913D01*
X011750Y033913D01*
X011500Y033913D02*
X011500Y034513D01*
X011250Y034313D02*
X011500Y033913D01*
X011250Y033913D01*
X011500Y033913D02*
X011750Y034313D01*
X011250Y034313D01*
X011300Y027313D02*
X010700Y027313D01*
X010683Y027311D01*
X010666Y027307D01*
X010650Y027300D01*
X010636Y027290D01*
X010623Y027277D01*
X010613Y027263D01*
X010606Y027247D01*
X010602Y027230D01*
X010600Y027213D01*
X010600Y025613D01*
X010602Y025596D01*
X010606Y025579D01*
X010613Y025563D01*
X010623Y025549D01*
X010636Y025536D01*
X010650Y025526D01*
X010666Y025519D01*
X010683Y025515D01*
X010700Y025513D01*
X011300Y025513D01*
X011317Y025515D01*
X011334Y025519D01*
X011350Y025526D01*
X011364Y025536D01*
X011377Y025549D01*
X011387Y025563D01*
X011394Y025579D01*
X011398Y025596D01*
X011400Y025613D01*
X011400Y027213D01*
X011398Y027230D01*
X011394Y027247D01*
X011387Y027263D01*
X011377Y027277D01*
X011364Y027290D01*
X011350Y027300D01*
X011334Y027307D01*
X011317Y027311D01*
X011300Y027313D01*
X011000Y026663D02*
X011000Y026413D01*
X010750Y026413D01*
X011000Y026413D02*
X010750Y026013D01*
X011250Y026013D01*
X011000Y026413D01*
X011250Y026413D01*
X011000Y026413D02*
X011000Y025813D01*
X001550Y023913D02*
X001555Y024131D01*
X001571Y024349D01*
X001598Y024566D01*
X001636Y024781D01*
X001683Y024994D01*
X001742Y025205D01*
X001810Y025412D01*
X001889Y025616D01*
X001977Y025816D01*
X002075Y026011D01*
X002183Y026201D01*
X002300Y026385D01*
X002426Y026564D01*
X002560Y026736D01*
X002703Y026901D01*
X002853Y027060D01*
X003012Y027210D01*
X003177Y027353D01*
X003349Y027487D01*
X003528Y027613D01*
X003712Y027730D01*
X003902Y027838D01*
X004097Y027936D01*
X004297Y028024D01*
X004501Y028103D01*
X004708Y028171D01*
X004919Y028230D01*
X005132Y028277D01*
X005347Y028315D01*
X005564Y028342D01*
X005782Y028358D01*
X006000Y028363D01*
X006218Y028358D01*
X006436Y028342D01*
X006653Y028315D01*
X006868Y028277D01*
X007081Y028230D01*
X007292Y028171D01*
X007499Y028103D01*
X007703Y028024D01*
X007903Y027936D01*
X008098Y027838D01*
X008288Y027730D01*
X008472Y027613D01*
X008651Y027487D01*
X008823Y027353D01*
X008988Y027210D01*
X009147Y027060D01*
X009297Y026901D01*
X009440Y026736D01*
X009574Y026564D01*
X009700Y026385D01*
X009817Y026201D01*
X009925Y026011D01*
X010023Y025816D01*
X010111Y025616D01*
X010190Y025412D01*
X010258Y025205D01*
X010317Y024994D01*
X010364Y024781D01*
X010402Y024566D01*
X010429Y024349D01*
X010445Y024131D01*
X010450Y023913D01*
X010445Y023695D01*
X010429Y023477D01*
X010402Y023260D01*
X010364Y023045D01*
X010317Y022832D01*
X010258Y022621D01*
X010190Y022414D01*
X010111Y022210D01*
X010023Y022010D01*
X009925Y021815D01*
X009817Y021625D01*
X009700Y021441D01*
X009574Y021262D01*
X009440Y021090D01*
X009297Y020925D01*
X009147Y020766D01*
X008988Y020616D01*
X008823Y020473D01*
X008651Y020339D01*
X008472Y020213D01*
X008288Y020096D01*
X008098Y019988D01*
X007903Y019890D01*
X007703Y019802D01*
X007499Y019723D01*
X007292Y019655D01*
X007081Y019596D01*
X006868Y019549D01*
X006653Y019511D01*
X006436Y019484D01*
X006218Y019468D01*
X006000Y019463D01*
X005782Y019468D01*
X005564Y019484D01*
X005347Y019511D01*
X005132Y019549D01*
X004919Y019596D01*
X004708Y019655D01*
X004501Y019723D01*
X004297Y019802D01*
X004097Y019890D01*
X003902Y019988D01*
X003712Y020096D01*
X003528Y020213D01*
X003349Y020339D01*
X003177Y020473D01*
X003012Y020616D01*
X002853Y020766D01*
X002703Y020925D01*
X002560Y021090D01*
X002426Y021262D01*
X002300Y021441D01*
X002183Y021625D01*
X002075Y021815D01*
X001977Y022010D01*
X001889Y022210D01*
X001810Y022414D01*
X001742Y022621D01*
X001683Y022832D01*
X001636Y023045D01*
X001598Y023260D01*
X001571Y023477D01*
X001555Y023695D01*
X001550Y023913D01*
X013651Y019130D02*
X014783Y020262D01*
X014797Y020273D01*
X014812Y020282D01*
X014828Y020288D01*
X014845Y020291D01*
X014863Y020291D01*
X014880Y020288D01*
X014896Y020282D01*
X014911Y020273D01*
X014925Y020262D01*
X014924Y020262D02*
X015349Y019837D01*
X015349Y019838D02*
X015360Y019824D01*
X015369Y019809D01*
X015375Y019793D01*
X015378Y019776D01*
X015378Y019758D01*
X015375Y019741D01*
X015369Y019725D01*
X015360Y019710D01*
X015349Y019696D01*
X014217Y018564D01*
X014203Y018553D01*
X014188Y018544D01*
X014172Y018538D01*
X014155Y018535D01*
X014137Y018535D01*
X014120Y018538D01*
X014104Y018544D01*
X014089Y018553D01*
X014075Y018564D01*
X014076Y018564D02*
X013651Y018989D01*
X013651Y018988D02*
X013640Y019002D01*
X013631Y019017D01*
X013625Y019033D01*
X013622Y019050D01*
X013622Y019068D01*
X013625Y019085D01*
X013631Y019101D01*
X013640Y019116D01*
X013651Y019130D01*
X014040Y019307D02*
X014500Y019413D01*
X014323Y019590D01*
X014500Y019413D02*
X014076Y018989D01*
X014394Y018953D02*
X014040Y019307D01*
X014500Y019413D02*
X014394Y018953D01*
X014677Y019236D02*
X014500Y019413D01*
X014677Y019590D01*
X014400Y017363D02*
X013600Y017363D01*
X013583Y017361D01*
X013566Y017357D01*
X013550Y017350D01*
X013536Y017340D01*
X013523Y017327D01*
X013513Y017313D01*
X013506Y017297D01*
X013502Y017280D01*
X013500Y017263D01*
X013500Y014563D01*
X013502Y014546D01*
X013506Y014529D01*
X013513Y014513D01*
X013523Y014499D01*
X013536Y014486D01*
X013550Y014476D01*
X013566Y014469D01*
X013583Y014465D01*
X013600Y014463D01*
X014400Y014463D01*
X014417Y014465D01*
X014434Y014469D01*
X014450Y014476D01*
X014464Y014486D01*
X014477Y014499D01*
X014487Y014513D01*
X014494Y014529D01*
X014498Y014546D01*
X014500Y014563D01*
X014500Y017263D01*
X014498Y017280D01*
X014494Y017297D01*
X014487Y017313D01*
X014477Y017327D01*
X014464Y017340D01*
X014450Y017350D01*
X014434Y017357D01*
X014417Y017361D01*
X014400Y017363D01*
X014000Y016513D02*
X014000Y016033D01*
X014000Y015783D02*
X014000Y015313D01*
X017200Y012413D02*
X018350Y012363D01*
X018450Y012263D01*
X018450Y008563D01*
X018350Y008463D01*
X017200Y008413D01*
X020700Y013163D02*
X021850Y013213D01*
X021950Y013313D01*
X021950Y017013D01*
X021850Y017113D01*
X020700Y017163D01*
X039850Y024963D02*
X039850Y025313D01*
X039900Y025363D01*
X039900Y029463D01*
X039850Y029513D01*
X039850Y029863D01*
X039852Y029880D01*
X039856Y029897D01*
X039863Y029913D01*
X039873Y029927D01*
X039886Y029940D01*
X039900Y029950D01*
X039916Y029957D01*
X039933Y029961D01*
X039950Y029963D01*
X040500Y029963D01*
X041000Y029963D01*
X041550Y029963D01*
X041567Y029961D01*
X041584Y029957D01*
X041600Y029950D01*
X041614Y029940D01*
X041627Y029927D01*
X041637Y029913D01*
X041644Y029897D01*
X041648Y029880D01*
X041650Y029863D01*
X041650Y029513D01*
X041600Y029463D01*
X041600Y025363D01*
X041650Y025313D01*
X041650Y024963D01*
X041648Y024946D01*
X041644Y024929D01*
X041637Y024913D01*
X041627Y024899D01*
X041614Y024886D01*
X041600Y024876D01*
X041584Y024869D01*
X041567Y024865D01*
X041550Y024863D01*
X041000Y024863D01*
X040500Y024863D01*
X039950Y024863D01*
X039933Y024865D01*
X039916Y024869D01*
X039900Y024876D01*
X039886Y024886D01*
X039873Y024899D01*
X039863Y024913D01*
X039856Y024929D01*
X039852Y024946D01*
X039850Y024963D01*
X040400Y026813D02*
X041100Y026813D01*
X041100Y028013D01*
X040400Y028013D01*
X040400Y026813D01*
X040750Y027213D02*
X040750Y027363D01*
X040550Y027363D01*
X040550Y027463D01*
X040750Y027363D02*
X040950Y027363D01*
X040750Y027363D02*
X040550Y027763D01*
X040950Y027763D01*
X040750Y027363D01*
X040750Y027913D01*
D16*
X035213Y041777D02*
X031787Y041777D01*
X031787Y043549D01*
X035213Y043549D01*
X035213Y041777D01*
X016570Y023203D02*
X016770Y022603D01*
X016770Y021973D01*
X012730Y021973D01*
X012730Y022603D01*
X012930Y023203D01*
X016570Y023203D01*
X007000Y023913D02*
X006250Y023913D01*
X002500Y023913D02*
X002504Y024085D01*
X002517Y024256D01*
X002538Y024427D01*
X002567Y024596D01*
X002605Y024763D01*
X002651Y024929D01*
X002705Y025092D01*
X002766Y025252D01*
X002836Y025409D01*
X002913Y025563D01*
X002998Y025712D01*
X003090Y025857D01*
X003189Y025998D01*
X003294Y026133D01*
X003407Y026263D01*
X003525Y026388D01*
X003650Y026506D01*
X003780Y026619D01*
X003915Y026724D01*
X004056Y026823D01*
X004201Y026915D01*
X004350Y027000D01*
X004504Y027077D01*
X004661Y027147D01*
X004821Y027208D01*
X004984Y027262D01*
X005150Y027308D01*
X005317Y027346D01*
X005486Y027375D01*
X005657Y027396D01*
X005828Y027409D01*
X006000Y027413D01*
X006172Y027409D01*
X006343Y027396D01*
X006514Y027375D01*
X006683Y027346D01*
X006850Y027308D01*
X007016Y027262D01*
X007179Y027208D01*
X007339Y027147D01*
X007496Y027077D01*
X007650Y027000D01*
X007799Y026915D01*
X007944Y026823D01*
X008085Y026724D01*
X008220Y026619D01*
X008350Y026506D01*
X008475Y026388D01*
X008593Y026263D01*
X008706Y026133D01*
X008811Y025998D01*
X008910Y025857D01*
X009002Y025712D01*
X009087Y025563D01*
X009164Y025409D01*
X009234Y025252D01*
X009295Y025092D01*
X009349Y024929D01*
X009395Y024763D01*
X009433Y024596D01*
X009462Y024427D01*
X009483Y024256D01*
X009496Y024085D01*
X009500Y023913D01*
X009496Y023741D01*
X009483Y023570D01*
X009462Y023399D01*
X009433Y023230D01*
X009395Y023063D01*
X009349Y022897D01*
X009295Y022734D01*
X009234Y022574D01*
X009164Y022417D01*
X009087Y022263D01*
X009002Y022114D01*
X008910Y021969D01*
X008811Y021828D01*
X008706Y021693D01*
X008593Y021563D01*
X008475Y021438D01*
X008350Y021320D01*
X008220Y021207D01*
X008085Y021102D01*
X007944Y021003D01*
X007799Y020911D01*
X007650Y020826D01*
X007496Y020749D01*
X007339Y020679D01*
X007179Y020618D01*
X007016Y020564D01*
X006850Y020518D01*
X006683Y020480D01*
X006514Y020451D01*
X006343Y020430D01*
X006172Y020417D01*
X006000Y020413D01*
X005828Y020417D01*
X005657Y020430D01*
X005486Y020451D01*
X005317Y020480D01*
X005150Y020518D01*
X004984Y020564D01*
X004821Y020618D01*
X004661Y020679D01*
X004504Y020749D01*
X004350Y020826D01*
X004201Y020911D01*
X004056Y021003D01*
X003915Y021102D01*
X003780Y021207D01*
X003650Y021320D01*
X003525Y021438D01*
X003407Y021563D01*
X003294Y021693D01*
X003189Y021828D01*
X003090Y021969D01*
X002998Y022114D01*
X002913Y022263D01*
X002836Y022417D01*
X002766Y022574D01*
X002705Y022734D01*
X002651Y022897D01*
X002605Y023063D01*
X002567Y023230D01*
X002538Y023399D01*
X002517Y023570D01*
X002504Y023741D01*
X002500Y023913D01*
X004650Y024663D02*
X005150Y024663D01*
X005380Y024913D02*
X005830Y024913D01*
X005830Y022913D01*
X005380Y022913D01*
X005380Y023913D01*
X005380Y024913D01*
X004900Y024913D02*
X004900Y024413D01*
X005000Y023913D02*
X005380Y023913D01*
D17*
X034504Y042663D03*
D18*
X034524Y041600D02*
X034524Y041140D01*
X034371Y041140D02*
X034678Y041140D01*
X034831Y041216D02*
X034831Y041523D01*
X034908Y041600D01*
X035061Y041600D01*
X035138Y041523D01*
X035138Y041216D02*
X035061Y041140D01*
X034908Y041140D01*
X034831Y041216D01*
X034524Y041600D02*
X034371Y041447D01*
X034217Y041523D02*
X034217Y041370D01*
X034141Y041293D01*
X033910Y041293D01*
X033910Y041140D02*
X033910Y041600D01*
X034141Y041600D01*
X034217Y041523D01*
X034064Y041293D02*
X034217Y041140D01*
X033757Y041370D02*
X033450Y041370D01*
X033680Y041600D01*
X033680Y041140D01*
X027838Y038518D02*
X027838Y038058D01*
X027685Y038058D02*
X027992Y038058D01*
X027685Y038365D02*
X027838Y038518D01*
X027531Y038442D02*
X027454Y038518D01*
X027301Y038518D01*
X027224Y038442D01*
X027224Y038135D01*
X027301Y038058D01*
X027454Y038058D01*
X027531Y038135D01*
X027071Y038058D02*
X026764Y038058D01*
X026917Y038058D02*
X026917Y038518D01*
X026764Y038365D01*
X025594Y036643D02*
X025594Y036183D01*
X025441Y036183D02*
X025748Y036183D01*
X025441Y036490D02*
X025594Y036643D01*
X025287Y036183D02*
X024980Y036183D01*
X024980Y036643D01*
X024673Y036643D02*
X024673Y036183D01*
X024520Y036183D02*
X024827Y036183D01*
X024520Y036490D02*
X024673Y036643D01*
X034232Y029076D02*
X034232Y028960D01*
X034290Y028901D01*
X034232Y029076D02*
X034290Y029135D01*
X034349Y029135D01*
X034582Y028901D01*
X034582Y029135D01*
X034582Y028776D02*
X034582Y028542D01*
X034232Y028542D01*
X034290Y028417D02*
X034349Y028417D01*
X034407Y028358D01*
X034465Y028417D01*
X034524Y028417D01*
X034582Y028358D01*
X034582Y028241D01*
X034524Y028183D01*
X034407Y028300D02*
X034407Y028358D01*
X034290Y028417D02*
X034232Y028358D01*
X034232Y028241D01*
X034290Y028183D01*
X036930Y026991D02*
X037390Y026991D01*
X037390Y026838D02*
X037390Y027145D01*
X037083Y026838D02*
X036930Y026991D01*
X036930Y026684D02*
X037390Y026684D01*
X036930Y026377D01*
X037390Y026377D01*
X037313Y026224D02*
X037390Y026147D01*
X037390Y025994D01*
X037313Y025917D01*
X037006Y025917D01*
X036930Y025994D01*
X036930Y026147D01*
X037006Y026224D01*
X037006Y025764D02*
X036930Y025687D01*
X036930Y025533D01*
X037006Y025457D01*
X037160Y025610D02*
X037160Y025687D01*
X037237Y025764D01*
X037313Y025764D01*
X037390Y025687D01*
X037390Y025533D01*
X037313Y025457D01*
X037160Y025687D02*
X037083Y025764D01*
X037006Y025764D01*
X039982Y021268D02*
X040332Y021268D01*
X040332Y021151D02*
X040332Y021385D01*
X040099Y021151D02*
X039982Y021268D01*
X040332Y021026D02*
X040332Y020792D01*
X039982Y020792D01*
X040040Y020667D02*
X039982Y020608D01*
X039982Y020491D01*
X040040Y020433D01*
X040157Y020550D02*
X040157Y020608D01*
X040215Y020667D01*
X040274Y020667D01*
X040332Y020608D01*
X040332Y020491D01*
X040274Y020433D01*
X040157Y020608D02*
X040099Y020667D01*
X040040Y020667D01*
X037208Y020817D02*
X037131Y020893D01*
X036978Y020893D01*
X036901Y020817D01*
X036901Y020510D01*
X036978Y020433D01*
X037131Y020433D01*
X037208Y020510D01*
X036748Y020510D02*
X036748Y020663D01*
X036671Y020740D01*
X036594Y020740D01*
X036441Y020663D01*
X036441Y020893D01*
X036748Y020893D01*
X036748Y020510D02*
X036671Y020433D01*
X036518Y020433D01*
X036441Y020510D01*
X036287Y020433D02*
X036134Y020586D01*
X036211Y020586D02*
X035980Y020586D01*
X035980Y020433D02*
X035980Y020893D01*
X036211Y020893D01*
X036287Y020817D01*
X036287Y020663D01*
X036211Y020586D01*
X035827Y020586D02*
X035750Y020663D01*
X035673Y020663D01*
X035750Y020663D02*
X035827Y020740D01*
X035827Y020817D01*
X035750Y020893D01*
X035597Y020893D01*
X035520Y020817D01*
X035520Y020510D02*
X035597Y020433D01*
X035750Y020433D01*
X035827Y020510D01*
X035827Y020586D01*
X016567Y023433D02*
X016260Y023433D01*
X016413Y023433D02*
X016413Y023893D01*
X016260Y023740D01*
X016106Y023893D02*
X015799Y023893D01*
X015646Y023893D02*
X015646Y023586D01*
X015492Y023433D01*
X015339Y023586D01*
X015339Y023893D01*
X015185Y023817D02*
X015109Y023893D01*
X014955Y023893D01*
X014878Y023817D01*
X015185Y023817D02*
X015185Y023740D01*
X014878Y023433D01*
X015185Y023433D01*
X015953Y023433D02*
X015953Y023893D01*
D19*
X017050Y026663D03*
X035050Y035663D03*
D20*
X027740Y014898D02*
X027789Y014850D01*
X027789Y014753D01*
X027740Y014705D01*
X027595Y014705D01*
X027595Y014608D02*
X027595Y014898D01*
X027740Y014898D01*
X027692Y014705D02*
X027789Y014608D01*
X027289Y014051D02*
X027192Y014148D01*
X027095Y014051D01*
X027095Y013858D01*
X027095Y014003D02*
X027289Y014003D01*
X027289Y014051D02*
X027289Y013858D01*
X026740Y014608D02*
X026789Y014656D01*
X026740Y014608D02*
X026644Y014608D01*
X026595Y014656D01*
X026595Y014850D01*
X026644Y014898D01*
X026740Y014898D01*
X026789Y014850D01*
D21*
X006380Y023913D03*
D22*
X006265Y025298D02*
X005845Y025298D01*
X006055Y025298D02*
X006055Y025929D01*
X005845Y025718D01*
X006490Y025823D02*
X006490Y025403D01*
X006595Y025298D01*
X006805Y025298D01*
X006910Y025403D01*
X007134Y025403D02*
X007134Y025298D01*
X007134Y025403D02*
X007554Y025823D01*
X007554Y025929D01*
X007134Y025929D01*
X006910Y025823D02*
X006805Y025929D01*
X006595Y025929D01*
X006490Y025823D01*
X017089Y043543D02*
X017453Y043754D01*
X017271Y043648D02*
X016956Y044194D01*
X016879Y043907D01*
X017332Y044412D02*
X017696Y044622D01*
X017995Y044552D02*
X018072Y044839D01*
X018387Y044293D01*
X018205Y044188D02*
X018569Y044398D01*
X017671Y044244D02*
X017489Y044139D01*
X017332Y044412D02*
X017647Y043866D01*
X028446Y023509D02*
X028657Y023509D01*
X028762Y023403D01*
X028762Y023298D01*
X028657Y023193D01*
X028762Y023088D01*
X028762Y022983D01*
X028657Y022878D01*
X028446Y022878D01*
X028341Y022983D01*
X028552Y023193D02*
X028657Y023193D01*
X028341Y023403D02*
X028446Y023509D01*
X028986Y023403D02*
X028986Y022983D01*
X029091Y022878D01*
X029301Y022878D01*
X029406Y022983D01*
X029630Y022878D02*
X030051Y023298D01*
X030051Y023403D01*
X029946Y023509D01*
X029736Y023509D01*
X029630Y023403D01*
X029406Y023403D02*
X029301Y023509D01*
X029091Y023509D01*
X028986Y023403D01*
X029630Y022878D02*
X030051Y022878D01*
D23*
X014750Y021683D03*
D24*
X015667Y020580D02*
X015914Y020827D01*
X013333Y018246D02*
X013086Y017999D01*
X011000Y024413D02*
X011000Y024763D01*
X011000Y028063D02*
X011000Y028413D01*
X014750Y028163D02*
X015100Y028163D01*
X017400Y028163D02*
X017750Y028163D01*
X034500Y027565D02*
X034500Y027163D01*
X034500Y029761D02*
X034500Y030163D01*
X040750Y028913D02*
X040750Y028563D01*
X040750Y026263D02*
X040750Y025913D01*
X040250Y022413D02*
X040250Y022011D01*
X040250Y019815D02*
X040250Y019413D01*
D25*
G36*
X014607Y020085D02*
X014748Y020226D01*
X015313Y019661D01*
X015172Y019520D01*
X014607Y020085D01*
G37*
D26*
G36*
X015067Y020121D02*
X015596Y020650D01*
X015737Y020509D01*
X015208Y019980D01*
X015067Y020121D01*
G37*
G36*
X013263Y018317D02*
X013792Y018846D01*
X013933Y018705D01*
X013404Y018176D01*
X013263Y018317D01*
G37*
D27*
X017756Y041117D02*
X021394Y043217D01*
X020244Y045209D02*
X016606Y043109D01*
X026100Y043463D02*
X026100Y044363D01*
X026102Y044380D01*
X026106Y044397D01*
X026113Y044413D01*
X026123Y044427D01*
X026136Y044440D01*
X026150Y044450D01*
X026166Y044457D01*
X026183Y044461D01*
X026200Y044463D01*
X026650Y044463D01*
X026667Y044461D01*
X026684Y044457D01*
X026700Y044450D01*
X026714Y044440D01*
X026727Y044427D01*
X026737Y044413D01*
X026744Y044397D01*
X026748Y044380D01*
X026750Y044363D01*
X026750Y043463D01*
X026748Y043446D01*
X026744Y043429D01*
X026737Y043413D01*
X026727Y043399D01*
X026714Y043386D01*
X026700Y043376D01*
X026684Y043369D01*
X026667Y043365D01*
X026650Y043363D01*
X026200Y043363D01*
X026183Y043365D01*
X026166Y043369D01*
X026150Y043376D01*
X026136Y043386D01*
X026123Y043399D01*
X026113Y043413D01*
X026106Y043429D01*
X026102Y043446D01*
X026100Y043463D01*
X027250Y043463D02*
X027250Y044363D01*
X027252Y044380D01*
X027256Y044397D01*
X027263Y044413D01*
X027273Y044427D01*
X027286Y044440D01*
X027300Y044450D01*
X027316Y044457D01*
X027333Y044461D01*
X027350Y044463D01*
X027800Y044463D01*
X027817Y044461D01*
X027834Y044457D01*
X027850Y044450D01*
X027864Y044440D01*
X027877Y044427D01*
X027887Y044413D01*
X027894Y044397D01*
X027898Y044380D01*
X027900Y044363D01*
X027900Y043463D01*
X027898Y043446D01*
X027894Y043429D01*
X027887Y043413D01*
X027877Y043399D01*
X027864Y043386D01*
X027850Y043376D01*
X027834Y043369D01*
X027817Y043365D01*
X027800Y043363D01*
X027350Y043363D01*
X027333Y043365D01*
X027316Y043369D01*
X027300Y043376D01*
X027286Y043386D01*
X027273Y043399D01*
X027263Y043413D01*
X027256Y043429D01*
X027252Y043446D01*
X027250Y043463D01*
D28*
G36*
X022820Y044445D02*
X022691Y044370D01*
X021892Y045755D01*
X022021Y045830D01*
X022820Y044445D01*
G37*
G36*
X016108Y040570D02*
X015979Y040495D01*
X015180Y041880D01*
X015309Y041955D01*
X016108Y040570D01*
G37*
D29*
G36*
X017806Y041031D02*
X017590Y040906D01*
X017366Y041295D01*
X017582Y041420D01*
X017806Y041031D01*
G37*
G36*
X016781Y042806D02*
X016565Y042681D01*
X016341Y043070D01*
X016557Y043195D01*
X016781Y042806D01*
G37*
G36*
X020634Y045031D02*
X020418Y044906D01*
X020194Y045295D01*
X020410Y045420D01*
X020634Y045031D01*
G37*
G36*
X021659Y043256D02*
X021443Y043131D01*
X021219Y043520D01*
X021435Y043645D01*
X021659Y043256D01*
G37*
D30*
G36*
X021435Y043645D02*
X021218Y043520D01*
X020419Y044905D01*
X020636Y045030D01*
X021435Y043645D01*
G37*
G36*
X017581Y041420D02*
X017364Y041295D01*
X016565Y042680D01*
X016782Y042805D01*
X017581Y041420D01*
G37*
D31*
G36*
X018039Y041626D02*
X017607Y041377D01*
X017507Y041550D01*
X017939Y041799D01*
X018039Y041626D01*
G37*
G36*
X017289Y042926D02*
X016857Y042677D01*
X016757Y042850D01*
X017189Y043099D01*
X017289Y042926D01*
G37*
G36*
X020493Y044776D02*
X020061Y044527D01*
X019961Y044700D01*
X020393Y044949D01*
X020493Y044776D01*
G37*
G36*
X021243Y043476D02*
X020811Y043227D01*
X020711Y043400D01*
X021143Y043649D01*
X021243Y043476D01*
G37*
D32*
G36*
X017464Y041121D02*
X015950Y040247D01*
X015850Y040421D01*
X017364Y041295D01*
X017464Y041121D01*
G37*
D33*
G36*
X020810Y043226D02*
X018040Y041627D01*
X017940Y041800D01*
X020710Y043399D01*
X020810Y043226D01*
G37*
G36*
X020060Y044526D02*
X017290Y042927D01*
X017190Y043100D01*
X019960Y044699D01*
X020060Y044526D01*
G37*
D34*
G36*
X020746Y045037D02*
X020661Y044988D01*
X020636Y045031D01*
X020721Y045080D01*
X020746Y045037D01*
G37*
G36*
X021915Y045712D02*
X021830Y045663D01*
X021805Y045706D01*
X021890Y045755D01*
X021915Y045712D01*
G37*
G36*
X022690Y044370D02*
X022605Y044321D01*
X022580Y044364D01*
X022665Y044413D01*
X022690Y044370D01*
G37*
G36*
X021521Y043695D02*
X021436Y043646D01*
X021411Y043689D01*
X021496Y043738D01*
X021521Y043695D01*
G37*
G36*
X017364Y041295D02*
X017279Y041246D01*
X017254Y041289D01*
X017339Y041338D01*
X017364Y041295D01*
G37*
G36*
X016195Y040620D02*
X016110Y040571D01*
X016085Y040614D01*
X016170Y040663D01*
X016195Y040620D01*
G37*
G36*
X015420Y041962D02*
X015335Y041913D01*
X015310Y041956D01*
X015395Y042005D01*
X015420Y041962D01*
G37*
G36*
X016589Y042637D02*
X016504Y042588D01*
X016479Y042631D01*
X016564Y042680D01*
X016589Y042637D01*
G37*
D35*
G36*
X016502Y042587D02*
X015421Y041963D01*
X015396Y042007D01*
X016477Y042631D01*
X016502Y042587D01*
G37*
G36*
X017277Y041244D02*
X016196Y040620D01*
X016171Y040664D01*
X017252Y041288D01*
X017277Y041244D01*
G37*
G36*
X021829Y045662D02*
X020748Y045038D01*
X020723Y045082D01*
X021804Y045706D01*
X021829Y045662D01*
G37*
G36*
X022604Y044319D02*
X021523Y043695D01*
X021498Y043739D01*
X022579Y044363D01*
X022604Y044319D01*
G37*
D36*
G36*
X022920Y044272D02*
X021536Y043473D01*
X021436Y043646D01*
X022820Y044445D01*
X022920Y044272D01*
G37*
G36*
X022020Y045830D02*
X020636Y045031D01*
X020536Y045204D01*
X021920Y046003D01*
X022020Y045830D01*
G37*
G36*
X016564Y042680D02*
X015180Y041881D01*
X015080Y042054D01*
X016464Y042853D01*
X016564Y042680D01*
G37*
D37*
X011000Y027063D03*
D38*
X011000Y027688D03*
X011000Y025138D03*
X020650Y016888D03*
X020650Y013438D03*
X017150Y012138D03*
X017150Y008688D03*
D39*
X017250Y031913D02*
X017250Y032313D01*
X015250Y032313D02*
X015250Y031913D01*
X013250Y031913D02*
X013250Y032313D01*
X011500Y032313D02*
X011500Y031913D01*
X011500Y035513D02*
X011500Y035913D01*
X013250Y035913D02*
X013250Y035513D01*
X015250Y035513D02*
X015250Y035913D01*
X017250Y035913D02*
X017250Y035513D01*
D40*
X017250Y034463D03*
X015250Y034463D03*
X013250Y033363D03*
X011500Y033363D03*
D41*
X011500Y032738D03*
X013250Y032738D03*
X015250Y032738D03*
X017250Y032738D03*
X017250Y035088D03*
X015250Y035088D03*
X013250Y035088D03*
X011500Y035088D03*
D42*
X016625Y028163D03*
D43*
X017125Y028163D03*
X015375Y028163D03*
D44*
X017500Y030163D02*
X017750Y030163D01*
X012000Y030163D02*
X011750Y030163D01*
X009750Y029913D02*
X009750Y029663D01*
X009750Y035413D02*
X009750Y035663D01*
X040750Y030413D02*
X040750Y030163D01*
X040750Y024663D02*
X040750Y024413D01*
D45*
X017410Y030163D03*
X012090Y030163D03*
D46*
X009750Y030003D03*
X009750Y035323D03*
X040750Y030073D03*
X040750Y024753D03*
D47*
X021710Y013393D03*
X018210Y008643D03*
D48*
X016900Y010413D03*
X020400Y015163D03*
D49*
X020650Y015663D03*
X020650Y014663D03*
X017150Y010913D03*
X017150Y009913D03*
D50*
X017150Y010413D03*
X017150Y011413D03*
X017150Y009413D03*
X020650Y014163D03*
X020650Y015163D03*
X020650Y016163D03*
D51*
X032525Y025163D03*
D52*
X036775Y022413D03*
X035275Y016413D03*
X034775Y032163D03*
D53*
X034500Y029689D03*
X034500Y027637D03*
X040250Y021939D03*
X040250Y019887D03*
D54*
X038000Y019913D02*
X037600Y019913D01*
X034400Y019913D02*
X034000Y019913D01*
X028500Y041913D02*
X028000Y041913D01*
X024000Y041913D02*
X023500Y041913D01*
D55*
X024130Y041913D03*
X027870Y041913D03*
X034580Y019913D03*
X037420Y019913D03*
D56*
X015250Y032088D03*
X013250Y032088D03*
X013250Y034738D03*
X015250Y034738D03*
D57*
X015250Y034613D03*
X013250Y034613D03*
X013250Y032213D03*
X015250Y032213D03*
D58*
X019250Y035313D02*
X019750Y035313D01*
X020250Y035313D01*
X020250Y035663D02*
X019750Y035663D01*
X019250Y035663D01*
D59*
X036750Y034163D03*
X036750Y030413D03*
X036750Y028163D03*
X036750Y026163D03*
D60*
X040750Y027038D03*
D61*
X040750Y026538D03*
X040750Y028288D03*
D62*
X040750Y028913D02*
X040750Y030413D01*
X039010Y030593D01*
X036750Y030413D02*
X035750Y031163D01*
X034500Y030163D02*
X033000Y021464D01*
X033000Y020362D02*
X029750Y016913D01*
X029500Y015473D01*
X027750Y014413D01*
X026750Y014413D02*
X027310Y016413D01*
X028500Y016853D01*
X028500Y017973D02*
X029750Y018913D01*
X029250Y020603D02*
X027500Y020163D01*
X026874Y018913D01*
X024750Y018413D01*
X023750Y018413D02*
X022500Y019103D01*
X021000Y019163D02*
X020374Y019413D01*
X019626Y019413D02*
X021000Y023163D01*
X019500Y022913D02*
X017750Y026663D01*
X017750Y028163D01*
X017750Y030163D01*
X014750Y028163D02*
X016750Y026663D01*
X017690Y022163D02*
X015914Y020827D01*
X023750Y015413D02*
X033750Y025163D01*
X036750Y028163D02*
X038010Y028093D01*
X039010Y026093D02*
X040750Y025913D01*
X040750Y024413D02*
X040250Y022413D01*
X041750Y022214D01*
X041750Y021112D02*
X040301Y020663D01*
X039199Y020663D02*
X038000Y019913D01*
X034000Y019913D02*
X033000Y020362D01*
X034000Y032163D02*
X033250Y033853D01*
X036699Y036413D01*
X039000Y040373D01*
X041669Y037913D01*
X041500Y036663D01*
X041500Y035663D02*
X041374Y032913D01*
X040626Y032913D02*
X038010Y034093D01*
X036750Y034163D01*
X035750Y035663D02*
X036000Y037953D01*
X036500Y037953D02*
X037000Y037953D01*
X037500Y040373D01*
X035000Y040214D01*
X034750Y040913D01*
X033750Y040714D01*
X033000Y040913D01*
X033750Y039612D02*
X032500Y042663D01*
X032690Y043663D01*
X031581Y044663D01*
X032919Y044663D02*
X033831Y044413D01*
X033810Y043663D01*
X033500Y042663D01*
X034500Y042663D02*
X037500Y037953D01*
X038500Y037953D01*
X038000Y037953D02*
X039190Y034913D01*
X040310Y034913D02*
X041500Y034663D01*
X041500Y035663D02*
X040060Y036163D01*
X038940Y036163D02*
X037801Y036413D01*
X035750Y035663D01*
X034750Y035663D02*
X033750Y036103D01*
X034750Y035663D02*
X040331Y037913D01*
X039000Y037953D02*
X033750Y037223D01*
X033250Y034973D01*
X033000Y038913D02*
X033750Y039612D01*
X034750Y038913D01*
X035000Y039112D01*
X036000Y040373D01*
X036500Y040373D01*
X037000Y040373D02*
X038000Y040373D01*
X038500Y040373D01*
X034500Y042663D02*
X035169Y044413D01*
X035060Y045663D01*
X033940Y045663D02*
X033831Y044413D01*
M02*
