G75*
G70*
%OFA0B0*%
%FSLAX24Y24*%
%IPPOS*%
%LPD*%
%AMOC8*
5,1,8,0,0,1.08239X$1,22.5*
%
%ADD10C,0.1655*%
%ADD11C,0.1261*%
%ADD12C,0.0867*%
%ADD13C,0.0474*%
%ADD14R,0.1655X0.2049*%
%ADD15R,0.2049X0.1655*%
%ADD16R,0.0340X0.0880*%
%ADD17OC8,0.0912*%
%ADD18C,0.0832*%
%ADD19R,0.0631X0.0789*%
%ADD20R,0.0710X0.0789*%
%ADD21R,0.0789X0.0710*%
%ADD22C,0.0912*%
%ADD23R,0.0790X0.0710*%
%ADD24R,0.0592X0.0671*%
%ADD25R,0.0592X0.0710*%
%ADD26C,0.0912*%
%ADD27R,0.0710X0.0790*%
%ADD28C,0.1890*%
%ADD29OC8,0.1890*%
%ADD30C,0.0992*%
%ADD31R,0.0671X0.0592*%
%ADD32C,0.1112*%
%ADD33C,0.1032*%
%ADD34C,0.1080*%
%ADD35OC8,0.0992*%
%ADD36OC8,0.1080*%
%ADD37C,0.0946*%
%ADD38R,0.0867X0.0710*%
%ADD39R,0.0710X0.0867*%
%ADD40R,0.0476X0.0476*%
D10*
X028059Y008594D03*
X003256Y044421D03*
X037902Y045602D03*
D11*
X001776Y010870D03*
X003744Y010870D03*
X005713Y010870D03*
X007681Y010870D03*
X009650Y010870D03*
X011618Y010870D03*
X009650Y017563D03*
X007681Y017563D03*
X005713Y017563D03*
X003744Y017563D03*
X001776Y017563D03*
X019960Y039216D03*
X028966Y039216D03*
X003256Y040484D03*
X024122Y008594D03*
D12*
X006406Y029657D03*
X004240Y032413D03*
X008374Y040484D03*
X011130Y042649D03*
D13*
X010146Y040878D03*
X010146Y040090D03*
X012902Y040090D03*
X012902Y040878D03*
X006799Y034185D03*
X006012Y034185D03*
X006012Y031429D03*
X006799Y031429D03*
D14*
X010146Y040484D03*
X012902Y040484D03*
D15*
X006406Y034185D03*
X006406Y031429D03*
D16*
X036000Y037953D03*
X036500Y037953D03*
X037000Y037953D03*
X037500Y037953D03*
X038000Y037953D03*
X038500Y037953D03*
X039000Y037953D03*
X039000Y040373D03*
X038500Y040373D03*
X038000Y040373D03*
X037500Y040373D03*
X037000Y040373D03*
X036500Y040373D03*
X036000Y040373D03*
D17*
X034750Y040913D03*
X033000Y040913D03*
X033000Y038913D03*
X034750Y038913D03*
X034750Y035663D03*
X028500Y041913D03*
X027500Y045413D03*
X024500Y045413D03*
X023500Y041913D03*
X015250Y034913D03*
X013250Y034913D03*
X015250Y031913D03*
X016750Y026663D03*
X021500Y024663D03*
X023500Y024663D03*
X025500Y022163D03*
X027500Y022163D03*
X027500Y020163D03*
X025500Y020163D03*
X029750Y018913D03*
X029750Y016913D03*
X027750Y014413D03*
X027250Y013663D03*
X026750Y014413D03*
X034000Y019913D03*
X038000Y019913D03*
X014000Y016913D03*
X014000Y014913D03*
X010000Y028413D03*
X008000Y028413D03*
D18*
X032500Y042663D03*
X033500Y042663D03*
X034500Y042663D03*
D19*
X033831Y044413D03*
X032919Y044663D03*
X031581Y044663D03*
X035169Y044413D03*
X040331Y037913D03*
X041669Y037913D03*
X017419Y025163D03*
X016081Y025163D03*
D20*
X036699Y036413D03*
X037801Y036413D03*
D21*
X035000Y039112D03*
X035000Y040214D03*
X033750Y040714D03*
X033750Y039612D03*
D22*
X028000Y043497D02*
X028000Y044329D01*
X026000Y044329D02*
X026000Y043497D01*
X018166Y028163D02*
X017334Y028163D01*
X015166Y028163D02*
X014334Y028163D01*
X011000Y027997D02*
X011000Y028829D01*
X011000Y024829D02*
X011000Y023997D01*
X015620Y020533D02*
X016208Y021121D01*
X013380Y018293D02*
X012792Y017705D01*
X020584Y020163D02*
X021416Y020163D01*
X021416Y021163D02*
X020584Y021163D01*
X020584Y022163D02*
X021416Y022163D01*
X021416Y023163D02*
X020584Y023163D01*
X023584Y023163D02*
X024416Y023163D01*
X024416Y022163D02*
X023584Y022163D01*
X023584Y021163D02*
X024416Y021163D01*
X024416Y020163D02*
X023584Y020163D01*
X023750Y019245D02*
X023750Y018413D01*
X024750Y018413D02*
X024750Y019245D01*
X024750Y015413D02*
X024750Y014581D01*
X023750Y014581D02*
X023750Y015413D01*
X040750Y025497D02*
X040750Y026329D01*
X040750Y028497D02*
X040750Y029329D01*
X041084Y034663D02*
X041916Y034663D01*
X041916Y035663D02*
X041084Y035663D01*
X041084Y036663D02*
X041916Y036663D01*
D23*
X033750Y037223D03*
X033750Y036103D03*
X033250Y034973D03*
X033250Y033853D03*
X029250Y021723D03*
X029250Y020603D03*
X028500Y017973D03*
X028500Y016853D03*
X029500Y015473D03*
X029500Y014353D03*
X022500Y019103D03*
X022500Y020223D03*
D24*
X020374Y019413D03*
X019626Y019413D03*
D25*
X026126Y018913D03*
X026874Y018913D03*
X040626Y032913D03*
X041374Y032913D03*
D26*
X039010Y032593D03*
X039010Y033593D03*
X038010Y034093D03*
X038010Y033093D03*
X038010Y032093D03*
X038010Y031093D03*
X038010Y030093D03*
X038010Y029093D03*
X039010Y029593D03*
X039010Y030593D03*
X039010Y031593D03*
X039010Y028593D03*
X039010Y027593D03*
X039010Y026593D03*
X039010Y025593D03*
X038010Y026093D03*
X038010Y027093D03*
X038010Y028093D03*
X035750Y035663D03*
X017750Y026663D03*
X013250Y031913D03*
D27*
X016190Y024163D03*
X017310Y024163D03*
X017690Y022163D03*
X018810Y022163D03*
X025940Y023163D03*
X027060Y023163D03*
X027310Y016413D03*
X026190Y016413D03*
X024810Y013413D03*
X023690Y013413D03*
X039190Y034913D03*
X040310Y034913D03*
X040060Y036163D03*
X038940Y036163D03*
X033810Y043663D03*
X032690Y043663D03*
X033940Y045663D03*
X035060Y045663D03*
D28*
X004000Y023913D03*
D29*
X008000Y023913D03*
D30*
X013750Y023119D02*
X013750Y022207D01*
X014750Y022207D02*
X014750Y023119D01*
X015750Y023119D02*
X015750Y022207D01*
X020794Y016163D02*
X021706Y016163D01*
X021706Y015163D02*
X020794Y015163D01*
X020794Y014163D02*
X021706Y014163D01*
X018206Y011413D02*
X017294Y011413D01*
X017294Y010413D02*
X018206Y010413D01*
X018206Y009413D02*
X017294Y009413D01*
D31*
X013500Y019539D03*
X013500Y020287D03*
X013500Y021039D03*
X013500Y021787D03*
X012500Y021787D03*
X012500Y021039D03*
X012500Y020287D03*
X012500Y019539D03*
D32*
X015707Y040666D02*
X015191Y041560D01*
X016923Y042560D02*
X017439Y041666D01*
X021077Y043766D02*
X020561Y044660D01*
X022293Y045660D02*
X022809Y044766D01*
D33*
X017250Y035913D03*
X015250Y035913D03*
X013250Y035913D03*
X011500Y035913D03*
X011500Y031913D03*
X013250Y031913D03*
X015250Y031913D03*
X017250Y031913D03*
D34*
X023500Y031663D03*
X023500Y035663D03*
X028500Y035663D03*
X028500Y031663D03*
X033750Y025163D03*
X038000Y022413D03*
X036500Y016413D03*
X036000Y032163D03*
D35*
X036750Y030413D03*
X036750Y028163D03*
X036750Y026163D03*
X040750Y024413D03*
X040750Y030413D03*
X036750Y034163D03*
X019750Y036613D03*
X019750Y030713D03*
X017750Y030163D03*
X011750Y030163D03*
X009750Y029663D03*
X009750Y035663D03*
D36*
X031750Y025163D03*
X036000Y022413D03*
X034500Y016413D03*
X034000Y032163D03*
D37*
X034500Y030163D03*
X034500Y027163D03*
X040250Y022413D03*
X040250Y019413D03*
D38*
X041750Y021112D03*
X041750Y022214D03*
X033000Y021464D03*
X033000Y020362D03*
D39*
X039199Y020663D03*
X040301Y020663D03*
D40*
X010500Y020413D03*
X004500Y020413D03*
M02*
