G75*
G70*
%OFA0B0*%
%FSLAX24Y24*%
%IPPOS*%
%LPD*%
%AMOC8*
5,1,8,0,0,1.08239X$1,22.5*
%
%ADD10C,0.0050*%
%ADD11C,0.0000*%
D10*
X000500Y000500D02*
X030815Y000500D01*
X042626Y012705D01*
X042626Y034949D01*
X039870Y034949D01*
X039870Y039870D01*
X000500Y039870D01*
X000500Y000500D01*
X003846Y022154D02*
X005028Y022154D01*
X005028Y023138D01*
X003846Y023138D01*
X003846Y022154D01*
X003846Y026878D02*
X005028Y026878D01*
X005028Y027862D01*
X003846Y027862D01*
X003846Y026878D01*
X007783Y034949D02*
X007783Y036130D01*
X008768Y036130D01*
X008768Y034949D01*
X007783Y034949D01*
X012508Y034949D02*
X012508Y036130D01*
X013492Y036130D01*
X013492Y034949D01*
X012508Y034949D01*
D11*
X012705Y033965D02*
X012705Y033177D01*
X012707Y033204D01*
X012713Y033231D01*
X012722Y033257D01*
X012735Y033281D01*
X012751Y033304D01*
X012770Y033323D01*
X012792Y033340D01*
X012816Y033354D01*
X012841Y033364D01*
X012868Y033371D01*
X012895Y033374D01*
X012923Y033373D01*
X012950Y033368D01*
X012976Y033360D01*
X013000Y033348D01*
X013023Y033332D01*
X013044Y033314D01*
X013061Y033293D01*
X013076Y033269D01*
X013087Y033244D01*
X013095Y033218D01*
X013099Y033191D01*
X013099Y033163D01*
X013095Y033136D01*
X013087Y033110D01*
X013076Y033085D01*
X013061Y033061D01*
X013044Y033040D01*
X013023Y033022D01*
X013001Y033006D01*
X012976Y032994D01*
X012950Y032986D01*
X012923Y032981D01*
X012895Y032980D01*
X012868Y032983D01*
X012841Y032990D01*
X012816Y033000D01*
X012792Y033014D01*
X012770Y033031D01*
X012751Y033050D01*
X012735Y033073D01*
X012722Y033097D01*
X012713Y033123D01*
X012707Y033150D01*
X012705Y033177D01*
X013098Y033177D02*
X013098Y033965D01*
X012705Y033965D02*
X012707Y033992D01*
X012713Y034019D01*
X012722Y034045D01*
X012735Y034069D01*
X012751Y034092D01*
X012770Y034111D01*
X012792Y034128D01*
X012816Y034142D01*
X012841Y034152D01*
X012868Y034159D01*
X012895Y034162D01*
X012923Y034161D01*
X012950Y034156D01*
X012976Y034148D01*
X013000Y034136D01*
X013023Y034120D01*
X013044Y034102D01*
X013061Y034081D01*
X013076Y034057D01*
X013087Y034032D01*
X013095Y034006D01*
X013099Y033979D01*
X013099Y033951D01*
X013095Y033924D01*
X013087Y033898D01*
X013076Y033873D01*
X013061Y033849D01*
X013044Y033828D01*
X013023Y033810D01*
X013001Y033794D01*
X012976Y033782D01*
X012950Y033774D01*
X012923Y033769D01*
X012895Y033768D01*
X012868Y033771D01*
X012841Y033778D01*
X012816Y033788D01*
X012792Y033802D01*
X012770Y033819D01*
X012751Y033838D01*
X012735Y033861D01*
X012722Y033885D01*
X012713Y033911D01*
X012707Y033938D01*
X012705Y033965D01*
X010736Y035736D02*
X010738Y035775D01*
X010744Y035814D01*
X010754Y035852D01*
X010767Y035889D01*
X010784Y035924D01*
X010804Y035958D01*
X010828Y035989D01*
X010855Y036018D01*
X010884Y036044D01*
X010916Y036067D01*
X010950Y036087D01*
X010986Y036103D01*
X011023Y036115D01*
X011062Y036124D01*
X011101Y036129D01*
X011140Y036130D01*
X011179Y036127D01*
X011218Y036120D01*
X011255Y036109D01*
X011292Y036095D01*
X011327Y036077D01*
X011360Y036056D01*
X011391Y036031D01*
X011419Y036004D01*
X011444Y035974D01*
X011466Y035941D01*
X011485Y035907D01*
X011500Y035871D01*
X011512Y035833D01*
X011520Y035795D01*
X011524Y035756D01*
X011524Y035716D01*
X011520Y035677D01*
X011512Y035639D01*
X011500Y035601D01*
X011485Y035565D01*
X011466Y035531D01*
X011444Y035498D01*
X011419Y035468D01*
X011391Y035441D01*
X011360Y035416D01*
X011327Y035395D01*
X011292Y035377D01*
X011255Y035363D01*
X011218Y035352D01*
X011179Y035345D01*
X011140Y035342D01*
X011101Y035343D01*
X011062Y035348D01*
X011023Y035357D01*
X010986Y035369D01*
X010950Y035385D01*
X010916Y035405D01*
X010884Y035428D01*
X010855Y035454D01*
X010828Y035483D01*
X010804Y035514D01*
X010784Y035548D01*
X010767Y035583D01*
X010754Y035620D01*
X010744Y035658D01*
X010738Y035697D01*
X010736Y035736D01*
X010343Y033965D02*
X010343Y033177D01*
X009949Y033177D02*
X009951Y033204D01*
X009957Y033231D01*
X009966Y033257D01*
X009979Y033281D01*
X009995Y033304D01*
X010014Y033323D01*
X010036Y033340D01*
X010060Y033354D01*
X010085Y033364D01*
X010112Y033371D01*
X010139Y033374D01*
X010167Y033373D01*
X010194Y033368D01*
X010220Y033360D01*
X010244Y033348D01*
X010267Y033332D01*
X010288Y033314D01*
X010305Y033293D01*
X010320Y033269D01*
X010331Y033244D01*
X010339Y033218D01*
X010343Y033191D01*
X010343Y033163D01*
X010339Y033136D01*
X010331Y033110D01*
X010320Y033085D01*
X010305Y033061D01*
X010288Y033040D01*
X010267Y033022D01*
X010245Y033006D01*
X010220Y032994D01*
X010194Y032986D01*
X010167Y032981D01*
X010139Y032980D01*
X010112Y032983D01*
X010085Y032990D01*
X010060Y033000D01*
X010036Y033014D01*
X010014Y033031D01*
X009995Y033050D01*
X009979Y033073D01*
X009966Y033097D01*
X009957Y033123D01*
X009951Y033150D01*
X009949Y033177D01*
X009949Y033965D01*
X009951Y033992D01*
X009957Y034019D01*
X009966Y034045D01*
X009979Y034069D01*
X009995Y034092D01*
X010014Y034111D01*
X010036Y034128D01*
X010060Y034142D01*
X010085Y034152D01*
X010112Y034159D01*
X010139Y034162D01*
X010167Y034161D01*
X010194Y034156D01*
X010220Y034148D01*
X010244Y034136D01*
X010267Y034120D01*
X010288Y034102D01*
X010305Y034081D01*
X010320Y034057D01*
X010331Y034032D01*
X010339Y034006D01*
X010343Y033979D01*
X010343Y033951D01*
X010339Y033924D01*
X010331Y033898D01*
X010320Y033873D01*
X010305Y033849D01*
X010288Y033828D01*
X010267Y033810D01*
X010245Y033794D01*
X010220Y033782D01*
X010194Y033774D01*
X010167Y033769D01*
X010139Y033768D01*
X010112Y033771D01*
X010085Y033778D01*
X010060Y033788D01*
X010036Y033802D01*
X010014Y033819D01*
X009995Y033838D01*
X009979Y033861D01*
X009966Y033885D01*
X009957Y033911D01*
X009951Y033938D01*
X009949Y033965D01*
X007980Y033571D02*
X007982Y033610D01*
X007988Y033649D01*
X007998Y033687D01*
X008011Y033724D01*
X008028Y033759D01*
X008048Y033793D01*
X008072Y033824D01*
X008099Y033853D01*
X008128Y033879D01*
X008160Y033902D01*
X008194Y033922D01*
X008230Y033938D01*
X008267Y033950D01*
X008306Y033959D01*
X008345Y033964D01*
X008384Y033965D01*
X008423Y033962D01*
X008462Y033955D01*
X008499Y033944D01*
X008536Y033930D01*
X008571Y033912D01*
X008604Y033891D01*
X008635Y033866D01*
X008663Y033839D01*
X008688Y033809D01*
X008710Y033776D01*
X008729Y033742D01*
X008744Y033706D01*
X008756Y033668D01*
X008764Y033630D01*
X008768Y033591D01*
X008768Y033551D01*
X008764Y033512D01*
X008756Y033474D01*
X008744Y033436D01*
X008729Y033400D01*
X008710Y033366D01*
X008688Y033333D01*
X008663Y033303D01*
X008635Y033276D01*
X008604Y033251D01*
X008571Y033230D01*
X008536Y033212D01*
X008499Y033198D01*
X008462Y033187D01*
X008423Y033180D01*
X008384Y033177D01*
X008345Y033178D01*
X008306Y033183D01*
X008267Y033192D01*
X008230Y033204D01*
X008194Y033220D01*
X008160Y033240D01*
X008128Y033263D01*
X008099Y033289D01*
X008072Y033318D01*
X008048Y033349D01*
X008028Y033383D01*
X008011Y033418D01*
X007998Y033455D01*
X007988Y033493D01*
X007982Y033532D01*
X007980Y033571D01*
X002665Y033571D02*
X002667Y033619D01*
X002673Y033667D01*
X002683Y033714D01*
X002696Y033760D01*
X002714Y033805D01*
X002734Y033849D01*
X002759Y033891D01*
X002787Y033930D01*
X002817Y033967D01*
X002851Y034001D01*
X002888Y034033D01*
X002926Y034062D01*
X002967Y034087D01*
X003010Y034109D01*
X003055Y034127D01*
X003101Y034141D01*
X003148Y034152D01*
X003196Y034159D01*
X003244Y034162D01*
X003292Y034161D01*
X003340Y034156D01*
X003388Y034147D01*
X003434Y034135D01*
X003479Y034118D01*
X003523Y034098D01*
X003565Y034075D01*
X003605Y034048D01*
X003643Y034018D01*
X003678Y033985D01*
X003710Y033949D01*
X003740Y033911D01*
X003766Y033870D01*
X003788Y033827D01*
X003808Y033783D01*
X003823Y033738D01*
X003835Y033691D01*
X003843Y033643D01*
X003847Y033595D01*
X003847Y033547D01*
X003843Y033499D01*
X003835Y033451D01*
X003823Y033404D01*
X003808Y033359D01*
X003788Y033315D01*
X003766Y033272D01*
X003740Y033231D01*
X003710Y033193D01*
X003678Y033157D01*
X003643Y033124D01*
X003605Y033094D01*
X003565Y033067D01*
X003523Y033044D01*
X003479Y033024D01*
X003434Y033007D01*
X003388Y032995D01*
X003340Y032986D01*
X003292Y032981D01*
X003244Y032980D01*
X003196Y032983D01*
X003148Y032990D01*
X003101Y033001D01*
X003055Y033015D01*
X003010Y033033D01*
X002967Y033055D01*
X002926Y033080D01*
X002888Y033109D01*
X002851Y033141D01*
X002817Y033175D01*
X002787Y033212D01*
X002759Y033251D01*
X002734Y033293D01*
X002714Y033337D01*
X002696Y033382D01*
X002683Y033428D01*
X002673Y033475D01*
X002667Y033523D01*
X002665Y033571D01*
X002469Y037508D02*
X002471Y037564D01*
X002477Y037619D01*
X002487Y037673D01*
X002500Y037727D01*
X002518Y037780D01*
X002539Y037831D01*
X002563Y037881D01*
X002591Y037929D01*
X002623Y037975D01*
X002657Y038019D01*
X002695Y038060D01*
X002735Y038098D01*
X002778Y038133D01*
X002823Y038165D01*
X002871Y038194D01*
X002920Y038220D01*
X002971Y038242D01*
X003023Y038260D01*
X003077Y038274D01*
X003132Y038285D01*
X003187Y038292D01*
X003242Y038295D01*
X003298Y038294D01*
X003353Y038289D01*
X003408Y038280D01*
X003462Y038268D01*
X003515Y038251D01*
X003567Y038231D01*
X003617Y038207D01*
X003665Y038180D01*
X003712Y038150D01*
X003756Y038116D01*
X003798Y038079D01*
X003836Y038039D01*
X003873Y037997D01*
X003906Y037952D01*
X003935Y037906D01*
X003962Y037857D01*
X003984Y037806D01*
X004004Y037754D01*
X004019Y037700D01*
X004031Y037646D01*
X004039Y037591D01*
X004043Y037536D01*
X004043Y037480D01*
X004039Y037425D01*
X004031Y037370D01*
X004019Y037316D01*
X004004Y037262D01*
X003984Y037210D01*
X003962Y037159D01*
X003935Y037110D01*
X003906Y037064D01*
X003873Y037019D01*
X003836Y036977D01*
X003798Y036937D01*
X003756Y036900D01*
X003712Y036866D01*
X003665Y036836D01*
X003617Y036809D01*
X003567Y036785D01*
X003515Y036765D01*
X003462Y036748D01*
X003408Y036736D01*
X003353Y036727D01*
X003298Y036722D01*
X003242Y036721D01*
X003187Y036724D01*
X003132Y036731D01*
X003077Y036742D01*
X003023Y036756D01*
X002971Y036774D01*
X002920Y036796D01*
X002871Y036822D01*
X002823Y036851D01*
X002778Y036883D01*
X002735Y036918D01*
X002695Y036956D01*
X002657Y036997D01*
X002623Y037041D01*
X002591Y037087D01*
X002563Y037135D01*
X002539Y037185D01*
X002518Y037236D01*
X002500Y037289D01*
X002487Y037343D01*
X002477Y037397D01*
X002471Y037452D01*
X002469Y037508D01*
X006012Y027469D02*
X006799Y027469D01*
X006602Y027272D02*
X006604Y027299D01*
X006610Y027326D01*
X006619Y027352D01*
X006632Y027376D01*
X006648Y027399D01*
X006667Y027418D01*
X006689Y027435D01*
X006713Y027449D01*
X006738Y027459D01*
X006765Y027466D01*
X006792Y027469D01*
X006820Y027468D01*
X006847Y027463D01*
X006873Y027455D01*
X006897Y027443D01*
X006920Y027427D01*
X006941Y027409D01*
X006958Y027388D01*
X006973Y027364D01*
X006984Y027339D01*
X006992Y027313D01*
X006996Y027286D01*
X006996Y027258D01*
X006992Y027231D01*
X006984Y027205D01*
X006973Y027180D01*
X006958Y027156D01*
X006941Y027135D01*
X006920Y027117D01*
X006898Y027101D01*
X006873Y027089D01*
X006847Y027081D01*
X006820Y027076D01*
X006792Y027075D01*
X006765Y027078D01*
X006738Y027085D01*
X006713Y027095D01*
X006689Y027109D01*
X006667Y027126D01*
X006648Y027145D01*
X006632Y027168D01*
X006619Y027192D01*
X006610Y027218D01*
X006604Y027245D01*
X006602Y027272D01*
X006799Y027075D02*
X006012Y027075D01*
X005815Y027272D02*
X005817Y027299D01*
X005823Y027326D01*
X005832Y027352D01*
X005845Y027376D01*
X005861Y027399D01*
X005880Y027418D01*
X005902Y027435D01*
X005926Y027449D01*
X005951Y027459D01*
X005978Y027466D01*
X006005Y027469D01*
X006033Y027468D01*
X006060Y027463D01*
X006086Y027455D01*
X006110Y027443D01*
X006133Y027427D01*
X006154Y027409D01*
X006171Y027388D01*
X006186Y027364D01*
X006197Y027339D01*
X006205Y027313D01*
X006209Y027286D01*
X006209Y027258D01*
X006205Y027231D01*
X006197Y027205D01*
X006186Y027180D01*
X006171Y027156D01*
X006154Y027135D01*
X006133Y027117D01*
X006111Y027101D01*
X006086Y027089D01*
X006060Y027081D01*
X006033Y027076D01*
X006005Y027075D01*
X005978Y027078D01*
X005951Y027085D01*
X005926Y027095D01*
X005902Y027109D01*
X005880Y027126D01*
X005861Y027145D01*
X005845Y027168D01*
X005832Y027192D01*
X005823Y027218D01*
X005817Y027245D01*
X005815Y027272D01*
X003846Y025500D02*
X003848Y025539D01*
X003854Y025578D01*
X003864Y025616D01*
X003877Y025653D01*
X003894Y025688D01*
X003914Y025722D01*
X003938Y025753D01*
X003965Y025782D01*
X003994Y025808D01*
X004026Y025831D01*
X004060Y025851D01*
X004096Y025867D01*
X004133Y025879D01*
X004172Y025888D01*
X004211Y025893D01*
X004250Y025894D01*
X004289Y025891D01*
X004328Y025884D01*
X004365Y025873D01*
X004402Y025859D01*
X004437Y025841D01*
X004470Y025820D01*
X004501Y025795D01*
X004529Y025768D01*
X004554Y025738D01*
X004576Y025705D01*
X004595Y025671D01*
X004610Y025635D01*
X004622Y025597D01*
X004630Y025559D01*
X004634Y025520D01*
X004634Y025480D01*
X004630Y025441D01*
X004622Y025403D01*
X004610Y025365D01*
X004595Y025329D01*
X004576Y025295D01*
X004554Y025262D01*
X004529Y025232D01*
X004501Y025205D01*
X004470Y025180D01*
X004437Y025159D01*
X004402Y025141D01*
X004365Y025127D01*
X004328Y025116D01*
X004289Y025109D01*
X004250Y025106D01*
X004211Y025107D01*
X004172Y025112D01*
X004133Y025121D01*
X004096Y025133D01*
X004060Y025149D01*
X004026Y025169D01*
X003994Y025192D01*
X003965Y025218D01*
X003938Y025247D01*
X003914Y025278D01*
X003894Y025312D01*
X003877Y025347D01*
X003864Y025384D01*
X003854Y025422D01*
X003848Y025461D01*
X003846Y025500D01*
X006012Y024713D02*
X006799Y024713D01*
X006602Y024516D02*
X006604Y024543D01*
X006610Y024570D01*
X006619Y024596D01*
X006632Y024620D01*
X006648Y024643D01*
X006667Y024662D01*
X006689Y024679D01*
X006713Y024693D01*
X006738Y024703D01*
X006765Y024710D01*
X006792Y024713D01*
X006820Y024712D01*
X006847Y024707D01*
X006873Y024699D01*
X006897Y024687D01*
X006920Y024671D01*
X006941Y024653D01*
X006958Y024632D01*
X006973Y024608D01*
X006984Y024583D01*
X006992Y024557D01*
X006996Y024530D01*
X006996Y024502D01*
X006992Y024475D01*
X006984Y024449D01*
X006973Y024424D01*
X006958Y024400D01*
X006941Y024379D01*
X006920Y024361D01*
X006898Y024345D01*
X006873Y024333D01*
X006847Y024325D01*
X006820Y024320D01*
X006792Y024319D01*
X006765Y024322D01*
X006738Y024329D01*
X006713Y024339D01*
X006689Y024353D01*
X006667Y024370D01*
X006648Y024389D01*
X006632Y024412D01*
X006619Y024436D01*
X006610Y024462D01*
X006604Y024489D01*
X006602Y024516D01*
X006799Y024319D02*
X006012Y024319D01*
X005815Y024516D02*
X005817Y024543D01*
X005823Y024570D01*
X005832Y024596D01*
X005845Y024620D01*
X005861Y024643D01*
X005880Y024662D01*
X005902Y024679D01*
X005926Y024693D01*
X005951Y024703D01*
X005978Y024710D01*
X006005Y024713D01*
X006033Y024712D01*
X006060Y024707D01*
X006086Y024699D01*
X006110Y024687D01*
X006133Y024671D01*
X006154Y024653D01*
X006171Y024632D01*
X006186Y024608D01*
X006197Y024583D01*
X006205Y024557D01*
X006209Y024530D01*
X006209Y024502D01*
X006205Y024475D01*
X006197Y024449D01*
X006186Y024424D01*
X006171Y024400D01*
X006154Y024379D01*
X006133Y024361D01*
X006111Y024345D01*
X006086Y024333D01*
X006060Y024325D01*
X006033Y024320D01*
X006005Y024319D01*
X005978Y024322D01*
X005951Y024329D01*
X005926Y024339D01*
X005902Y024353D01*
X005880Y024370D01*
X005861Y024389D01*
X005845Y024412D01*
X005832Y024436D01*
X005823Y024462D01*
X005817Y024489D01*
X005815Y024516D01*
X006012Y022744D02*
X006014Y022783D01*
X006020Y022822D01*
X006030Y022860D01*
X006043Y022897D01*
X006060Y022932D01*
X006080Y022966D01*
X006104Y022997D01*
X006131Y023026D01*
X006160Y023052D01*
X006192Y023075D01*
X006226Y023095D01*
X006262Y023111D01*
X006299Y023123D01*
X006338Y023132D01*
X006377Y023137D01*
X006416Y023138D01*
X006455Y023135D01*
X006494Y023128D01*
X006531Y023117D01*
X006568Y023103D01*
X006603Y023085D01*
X006636Y023064D01*
X006667Y023039D01*
X006695Y023012D01*
X006720Y022982D01*
X006742Y022949D01*
X006761Y022915D01*
X006776Y022879D01*
X006788Y022841D01*
X006796Y022803D01*
X006800Y022764D01*
X006800Y022724D01*
X006796Y022685D01*
X006788Y022647D01*
X006776Y022609D01*
X006761Y022573D01*
X006742Y022539D01*
X006720Y022506D01*
X006695Y022476D01*
X006667Y022449D01*
X006636Y022424D01*
X006603Y022403D01*
X006568Y022385D01*
X006531Y022371D01*
X006494Y022360D01*
X006455Y022353D01*
X006416Y022350D01*
X006377Y022351D01*
X006338Y022356D01*
X006299Y022365D01*
X006262Y022377D01*
X006226Y022393D01*
X006192Y022413D01*
X006160Y022436D01*
X006131Y022462D01*
X006104Y022491D01*
X006080Y022522D01*
X006060Y022556D01*
X006043Y022591D01*
X006030Y022628D01*
X006020Y022666D01*
X006014Y022705D01*
X006012Y022744D01*
X023531Y001681D02*
X023533Y001729D01*
X023539Y001777D01*
X023549Y001824D01*
X023562Y001870D01*
X023580Y001915D01*
X023600Y001959D01*
X023625Y002001D01*
X023653Y002040D01*
X023683Y002077D01*
X023717Y002111D01*
X023754Y002143D01*
X023792Y002172D01*
X023833Y002197D01*
X023876Y002219D01*
X023921Y002237D01*
X023967Y002251D01*
X024014Y002262D01*
X024062Y002269D01*
X024110Y002272D01*
X024158Y002271D01*
X024206Y002266D01*
X024254Y002257D01*
X024300Y002245D01*
X024345Y002228D01*
X024389Y002208D01*
X024431Y002185D01*
X024471Y002158D01*
X024509Y002128D01*
X024544Y002095D01*
X024576Y002059D01*
X024606Y002021D01*
X024632Y001980D01*
X024654Y001937D01*
X024674Y001893D01*
X024689Y001848D01*
X024701Y001801D01*
X024709Y001753D01*
X024713Y001705D01*
X024713Y001657D01*
X024709Y001609D01*
X024701Y001561D01*
X024689Y001514D01*
X024674Y001469D01*
X024654Y001425D01*
X024632Y001382D01*
X024606Y001341D01*
X024576Y001303D01*
X024544Y001267D01*
X024509Y001234D01*
X024471Y001204D01*
X024431Y001177D01*
X024389Y001154D01*
X024345Y001134D01*
X024300Y001117D01*
X024254Y001105D01*
X024206Y001096D01*
X024158Y001091D01*
X024110Y001090D01*
X024062Y001093D01*
X024014Y001100D01*
X023967Y001111D01*
X023921Y001125D01*
X023876Y001143D01*
X023833Y001165D01*
X023792Y001190D01*
X023754Y001219D01*
X023717Y001251D01*
X023683Y001285D01*
X023653Y001322D01*
X023625Y001361D01*
X023600Y001403D01*
X023580Y001447D01*
X023562Y001492D01*
X023549Y001538D01*
X023539Y001585D01*
X023533Y001633D01*
X023531Y001681D01*
X027272Y001681D02*
X027274Y001737D01*
X027280Y001792D01*
X027290Y001846D01*
X027303Y001900D01*
X027321Y001953D01*
X027342Y002004D01*
X027366Y002054D01*
X027394Y002102D01*
X027426Y002148D01*
X027460Y002192D01*
X027498Y002233D01*
X027538Y002271D01*
X027581Y002306D01*
X027626Y002338D01*
X027674Y002367D01*
X027723Y002393D01*
X027774Y002415D01*
X027826Y002433D01*
X027880Y002447D01*
X027935Y002458D01*
X027990Y002465D01*
X028045Y002468D01*
X028101Y002467D01*
X028156Y002462D01*
X028211Y002453D01*
X028265Y002441D01*
X028318Y002424D01*
X028370Y002404D01*
X028420Y002380D01*
X028468Y002353D01*
X028515Y002323D01*
X028559Y002289D01*
X028601Y002252D01*
X028639Y002212D01*
X028676Y002170D01*
X028709Y002125D01*
X028738Y002079D01*
X028765Y002030D01*
X028787Y001979D01*
X028807Y001927D01*
X028822Y001873D01*
X028834Y001819D01*
X028842Y001764D01*
X028846Y001709D01*
X028846Y001653D01*
X028842Y001598D01*
X028834Y001543D01*
X028822Y001489D01*
X028807Y001435D01*
X028787Y001383D01*
X028765Y001332D01*
X028738Y001283D01*
X028709Y001237D01*
X028676Y001192D01*
X028639Y001150D01*
X028601Y001110D01*
X028559Y001073D01*
X028515Y001039D01*
X028468Y001009D01*
X028420Y000982D01*
X028370Y000958D01*
X028318Y000938D01*
X028265Y000921D01*
X028211Y000909D01*
X028156Y000900D01*
X028101Y000895D01*
X028045Y000894D01*
X027990Y000897D01*
X027935Y000904D01*
X027880Y000915D01*
X027826Y000929D01*
X027774Y000947D01*
X027723Y000969D01*
X027674Y000995D01*
X027626Y001024D01*
X027581Y001056D01*
X027538Y001091D01*
X027498Y001129D01*
X027460Y001170D01*
X027426Y001214D01*
X027394Y001260D01*
X027366Y001308D01*
X027342Y001358D01*
X027321Y001409D01*
X027303Y001462D01*
X027290Y001516D01*
X027280Y001570D01*
X027274Y001625D01*
X027272Y001681D01*
X037115Y038689D02*
X037117Y038745D01*
X037123Y038800D01*
X037133Y038854D01*
X037146Y038908D01*
X037164Y038961D01*
X037185Y039012D01*
X037209Y039062D01*
X037237Y039110D01*
X037269Y039156D01*
X037303Y039200D01*
X037341Y039241D01*
X037381Y039279D01*
X037424Y039314D01*
X037469Y039346D01*
X037517Y039375D01*
X037566Y039401D01*
X037617Y039423D01*
X037669Y039441D01*
X037723Y039455D01*
X037778Y039466D01*
X037833Y039473D01*
X037888Y039476D01*
X037944Y039475D01*
X037999Y039470D01*
X038054Y039461D01*
X038108Y039449D01*
X038161Y039432D01*
X038213Y039412D01*
X038263Y039388D01*
X038311Y039361D01*
X038358Y039331D01*
X038402Y039297D01*
X038444Y039260D01*
X038482Y039220D01*
X038519Y039178D01*
X038552Y039133D01*
X038581Y039087D01*
X038608Y039038D01*
X038630Y038987D01*
X038650Y038935D01*
X038665Y038881D01*
X038677Y038827D01*
X038685Y038772D01*
X038689Y038717D01*
X038689Y038661D01*
X038685Y038606D01*
X038677Y038551D01*
X038665Y038497D01*
X038650Y038443D01*
X038630Y038391D01*
X038608Y038340D01*
X038581Y038291D01*
X038552Y038245D01*
X038519Y038200D01*
X038482Y038158D01*
X038444Y038118D01*
X038402Y038081D01*
X038358Y038047D01*
X038311Y038017D01*
X038263Y037990D01*
X038213Y037966D01*
X038161Y037946D01*
X038108Y037929D01*
X038054Y037917D01*
X037999Y037908D01*
X037944Y037903D01*
X037888Y037902D01*
X037833Y037905D01*
X037778Y037912D01*
X037723Y037923D01*
X037669Y037937D01*
X037617Y037955D01*
X037566Y037977D01*
X037517Y038003D01*
X037469Y038032D01*
X037424Y038064D01*
X037381Y038099D01*
X037341Y038137D01*
X037303Y038178D01*
X037269Y038222D01*
X037237Y038268D01*
X037209Y038316D01*
X037185Y038366D01*
X037164Y038417D01*
X037146Y038470D01*
X037133Y038524D01*
X037123Y038578D01*
X037117Y038633D01*
X037115Y038689D01*
M02*
